%
M48
M72
T01C0.0197
T02C0.0315
T03C0.0320
T04C0.0354
T05C0.0394
T06C0.0709
T07C0.1000
T08C0.1181
%
T01
X15905Y9907
X14405Y10407
X15405Y10907
X17405Y11907
X18405Y11407
X17905Y12407
X17405Y12907
X16405Y13407
X14905Y14407
X13405Y13907
X13905Y15657
X13405Y16157
X26905Y15657
X27405Y14407
X27405Y13907
X27405Y13407
X29155Y12532
X30280Y12532
X27405Y11907
X27405Y11407
X27405Y10907
X27405Y10407
X32905Y12407
X33655Y12407
X33655Y12907
X32905Y12907
X33405Y9907
X34155Y9907
X32405Y6907
X33405Y4907
X28155Y4907
X29468Y2157
X42405Y2657
X46405Y1907
X54155Y2157
X52905Y6157
X51780Y6532
X51280Y6532
X50780Y6532
X50968Y8282
X51530Y8282
X53905Y9157
X52280Y9782
X52905Y9907
X52905Y10407
X52405Y10407
X52405Y10907
X52405Y11532
X53030Y11532
X52218Y12907
X52436Y14657
X53218Y14657
X53655Y14720
X53405Y15657
X51061Y16032
X44905Y13407
X45905Y12907
X46405Y12407
X45905Y11907
X46905Y11407
X43905Y10907
X42905Y10407
X44405Y9907
X48843Y10157
X49405Y9907
X41905Y13907
X43405Y14407
X42405Y15657
X41905Y16157
X34655Y16157
X33905Y16157
T02
X41905Y15069
X42905Y15069
X43905Y15069
X44929Y15069
X45929Y15069
X46929Y15069
X46929Y6407
X45929Y6407
X44929Y6407
X43905Y6407
X42905Y6407
X41905Y6407
X18429Y6407
X17429Y6407
X16429Y6407
X15405Y6407
X14405Y6407
X13405Y6407
X13405Y15069
X14405Y15069
X15405Y15069
X16429Y15069
X17429Y15069
X18429Y15069
T03
X55905Y14657
X55905Y13657
X55905Y12657
X55905Y11657
X58905Y11657
X58905Y12657
X58905Y13657
X58905Y14657
X58905Y15657
X58905Y16657
X58905Y17657
X58905Y18657
X55905Y18657
X55905Y17657
X55905Y16657
X55905Y15657
X55905Y9657
X55905Y8657
X55905Y7657
X55905Y6657
X55905Y5657
X55905Y4657
X55905Y3657
X55905Y2657
X58905Y2657
X58905Y3657
X58905Y4657
X58905Y5657
X58905Y6657
X58905Y7657
X58905Y8657
X58905Y9657
T04
X23655Y5407
T05
X35655Y2657
X36655Y2657
X37655Y2657
X38655Y2657
X39655Y2657
X40655Y2657
X40655Y5157
X41655Y5157
X42655Y5157
X43655Y5157
X44655Y5157
X45655Y5157
X46655Y5157
X47655Y5157
X39655Y5157
X52905Y16657
X52905Y17657
X52905Y18657
X52905Y19657
T06
X8407Y16555
X7155Y16555
X7155Y13606
X8407Y13606
X8407Y10657
X7155Y10657
X7155Y7708
X8407Y7708
X8407Y4759
X7155Y4759
T07
X13468Y2907
X15768Y2907
X19042Y2907
X21342Y2907
T08
X1986Y2889
X10655Y2907
X49655Y2907
X49655Y18407
X10655Y18407
X1986Y18425
M30
