G75*
G70*
%OFA0B0*%
%FSLAX24Y24*%
%IPPOS*%
%LPD*%
%AMOC8*
5,1,8,0,0,1.08239X$1,22.5*
%
%ADD10C,0.0000*%
%ADD11R,0.0866X0.0236*%
%ADD12R,0.0394X0.0433*%
%ADD13R,0.0433X0.0394*%
%ADD14R,0.0256X0.1024*%
%ADD15R,0.0630X0.0118*%
%ADD16R,0.0118X0.0630*%
%ADD17R,0.0760X0.2100*%
%ADD18R,0.0551X0.0709*%
%ADD19R,0.0630X0.0709*%
%ADD20R,0.0870X0.0240*%
%ADD21R,0.0906X0.0906*%
%ADD22R,0.0630X0.1299*%
%ADD23R,0.0709X0.0630*%
%ADD24R,0.0880X0.0480*%
%ADD25R,0.0866X0.1417*%
%ADD26R,0.0591X0.0512*%
%ADD27R,0.0500X0.0579*%
D10*
X000655Y000907D02*
X000655Y020407D01*
X059655Y020407D01*
X059655Y000907D01*
X000655Y000907D01*
X010064Y002907D02*
X010066Y002955D01*
X010072Y003003D01*
X010082Y003050D01*
X010095Y003096D01*
X010113Y003141D01*
X010133Y003185D01*
X010158Y003227D01*
X010186Y003266D01*
X010216Y003303D01*
X010250Y003337D01*
X010287Y003369D01*
X010325Y003398D01*
X010366Y003423D01*
X010409Y003445D01*
X010454Y003463D01*
X010500Y003477D01*
X010547Y003488D01*
X010595Y003495D01*
X010643Y003498D01*
X010691Y003497D01*
X010739Y003492D01*
X010787Y003483D01*
X010833Y003471D01*
X010878Y003454D01*
X010922Y003434D01*
X010964Y003411D01*
X011004Y003384D01*
X011042Y003354D01*
X011077Y003321D01*
X011109Y003285D01*
X011139Y003247D01*
X011165Y003206D01*
X011187Y003163D01*
X011207Y003119D01*
X011222Y003074D01*
X011234Y003027D01*
X011242Y002979D01*
X011246Y002931D01*
X011246Y002883D01*
X011242Y002835D01*
X011234Y002787D01*
X011222Y002740D01*
X011207Y002695D01*
X011187Y002651D01*
X011165Y002608D01*
X011139Y002567D01*
X011109Y002529D01*
X011077Y002493D01*
X011042Y002460D01*
X011004Y002430D01*
X010964Y002403D01*
X010922Y002380D01*
X010878Y002360D01*
X010833Y002343D01*
X010787Y002331D01*
X010739Y002322D01*
X010691Y002317D01*
X010643Y002316D01*
X010595Y002319D01*
X010547Y002326D01*
X010500Y002337D01*
X010454Y002351D01*
X010409Y002369D01*
X010366Y002391D01*
X010325Y002416D01*
X010287Y002445D01*
X010250Y002477D01*
X010216Y002511D01*
X010186Y002548D01*
X010158Y002587D01*
X010133Y002629D01*
X010113Y002673D01*
X010095Y002718D01*
X010082Y002764D01*
X010072Y002811D01*
X010066Y002859D01*
X010064Y002907D01*
X049064Y002907D02*
X049066Y002955D01*
X049072Y003003D01*
X049082Y003050D01*
X049095Y003096D01*
X049113Y003141D01*
X049133Y003185D01*
X049158Y003227D01*
X049186Y003266D01*
X049216Y003303D01*
X049250Y003337D01*
X049287Y003369D01*
X049325Y003398D01*
X049366Y003423D01*
X049409Y003445D01*
X049454Y003463D01*
X049500Y003477D01*
X049547Y003488D01*
X049595Y003495D01*
X049643Y003498D01*
X049691Y003497D01*
X049739Y003492D01*
X049787Y003483D01*
X049833Y003471D01*
X049878Y003454D01*
X049922Y003434D01*
X049964Y003411D01*
X050004Y003384D01*
X050042Y003354D01*
X050077Y003321D01*
X050109Y003285D01*
X050139Y003247D01*
X050165Y003206D01*
X050187Y003163D01*
X050207Y003119D01*
X050222Y003074D01*
X050234Y003027D01*
X050242Y002979D01*
X050246Y002931D01*
X050246Y002883D01*
X050242Y002835D01*
X050234Y002787D01*
X050222Y002740D01*
X050207Y002695D01*
X050187Y002651D01*
X050165Y002608D01*
X050139Y002567D01*
X050109Y002529D01*
X050077Y002493D01*
X050042Y002460D01*
X050004Y002430D01*
X049964Y002403D01*
X049922Y002380D01*
X049878Y002360D01*
X049833Y002343D01*
X049787Y002331D01*
X049739Y002322D01*
X049691Y002317D01*
X049643Y002316D01*
X049595Y002319D01*
X049547Y002326D01*
X049500Y002337D01*
X049454Y002351D01*
X049409Y002369D01*
X049366Y002391D01*
X049325Y002416D01*
X049287Y002445D01*
X049250Y002477D01*
X049216Y002511D01*
X049186Y002548D01*
X049158Y002587D01*
X049133Y002629D01*
X049113Y002673D01*
X049095Y002718D01*
X049082Y002764D01*
X049072Y002811D01*
X049066Y002859D01*
X049064Y002907D01*
X049064Y018407D02*
X049066Y018455D01*
X049072Y018503D01*
X049082Y018550D01*
X049095Y018596D01*
X049113Y018641D01*
X049133Y018685D01*
X049158Y018727D01*
X049186Y018766D01*
X049216Y018803D01*
X049250Y018837D01*
X049287Y018869D01*
X049325Y018898D01*
X049366Y018923D01*
X049409Y018945D01*
X049454Y018963D01*
X049500Y018977D01*
X049547Y018988D01*
X049595Y018995D01*
X049643Y018998D01*
X049691Y018997D01*
X049739Y018992D01*
X049787Y018983D01*
X049833Y018971D01*
X049878Y018954D01*
X049922Y018934D01*
X049964Y018911D01*
X050004Y018884D01*
X050042Y018854D01*
X050077Y018821D01*
X050109Y018785D01*
X050139Y018747D01*
X050165Y018706D01*
X050187Y018663D01*
X050207Y018619D01*
X050222Y018574D01*
X050234Y018527D01*
X050242Y018479D01*
X050246Y018431D01*
X050246Y018383D01*
X050242Y018335D01*
X050234Y018287D01*
X050222Y018240D01*
X050207Y018195D01*
X050187Y018151D01*
X050165Y018108D01*
X050139Y018067D01*
X050109Y018029D01*
X050077Y017993D01*
X050042Y017960D01*
X050004Y017930D01*
X049964Y017903D01*
X049922Y017880D01*
X049878Y017860D01*
X049833Y017843D01*
X049787Y017831D01*
X049739Y017822D01*
X049691Y017817D01*
X049643Y017816D01*
X049595Y017819D01*
X049547Y017826D01*
X049500Y017837D01*
X049454Y017851D01*
X049409Y017869D01*
X049366Y017891D01*
X049325Y017916D01*
X049287Y017945D01*
X049250Y017977D01*
X049216Y018011D01*
X049186Y018048D01*
X049158Y018087D01*
X049133Y018129D01*
X049113Y018173D01*
X049095Y018218D01*
X049082Y018264D01*
X049072Y018311D01*
X049066Y018359D01*
X049064Y018407D01*
X010064Y018407D02*
X010066Y018455D01*
X010072Y018503D01*
X010082Y018550D01*
X010095Y018596D01*
X010113Y018641D01*
X010133Y018685D01*
X010158Y018727D01*
X010186Y018766D01*
X010216Y018803D01*
X010250Y018837D01*
X010287Y018869D01*
X010325Y018898D01*
X010366Y018923D01*
X010409Y018945D01*
X010454Y018963D01*
X010500Y018977D01*
X010547Y018988D01*
X010595Y018995D01*
X010643Y018998D01*
X010691Y018997D01*
X010739Y018992D01*
X010787Y018983D01*
X010833Y018971D01*
X010878Y018954D01*
X010922Y018934D01*
X010964Y018911D01*
X011004Y018884D01*
X011042Y018854D01*
X011077Y018821D01*
X011109Y018785D01*
X011139Y018747D01*
X011165Y018706D01*
X011187Y018663D01*
X011207Y018619D01*
X011222Y018574D01*
X011234Y018527D01*
X011242Y018479D01*
X011246Y018431D01*
X011246Y018383D01*
X011242Y018335D01*
X011234Y018287D01*
X011222Y018240D01*
X011207Y018195D01*
X011187Y018151D01*
X011165Y018108D01*
X011139Y018067D01*
X011109Y018029D01*
X011077Y017993D01*
X011042Y017960D01*
X011004Y017930D01*
X010964Y017903D01*
X010922Y017880D01*
X010878Y017860D01*
X010833Y017843D01*
X010787Y017831D01*
X010739Y017822D01*
X010691Y017817D01*
X010643Y017816D01*
X010595Y017819D01*
X010547Y017826D01*
X010500Y017837D01*
X010454Y017851D01*
X010409Y017869D01*
X010366Y017891D01*
X010325Y017916D01*
X010287Y017945D01*
X010250Y017977D01*
X010216Y018011D01*
X010186Y018048D01*
X010158Y018087D01*
X010133Y018129D01*
X010113Y018173D01*
X010095Y018218D01*
X010082Y018264D01*
X010072Y018311D01*
X010066Y018359D01*
X010064Y018407D01*
D11*
X028344Y015407D03*
X028344Y014907D03*
X028344Y014407D03*
X028344Y013907D03*
X028344Y013407D03*
X028344Y012907D03*
X028344Y012407D03*
X028344Y011907D03*
X028344Y011407D03*
X028344Y010907D03*
X028344Y010407D03*
X028344Y009907D03*
X031966Y009907D03*
X031966Y010407D03*
X031966Y010907D03*
X031966Y011407D03*
X031966Y011907D03*
X031966Y012407D03*
X031966Y012907D03*
X031966Y013407D03*
X031966Y013907D03*
X031966Y014407D03*
X031966Y014907D03*
X031966Y015407D03*
D12*
X026490Y012157D03*
X025820Y012157D03*
X028820Y004657D03*
X029490Y004657D03*
X030320Y004657D03*
X030990Y004657D03*
X030990Y003657D03*
X030320Y003657D03*
X029490Y002657D03*
X028820Y002657D03*
X049320Y007157D03*
X049990Y007157D03*
X051030Y007072D03*
X051905Y007072D03*
X052780Y007072D03*
X052780Y007742D03*
X051905Y007742D03*
X051030Y007742D03*
X052030Y013572D03*
X052843Y013572D03*
X053655Y013572D03*
X053655Y014242D03*
X052843Y014242D03*
X052030Y014242D03*
D13*
X052030Y015072D03*
X052843Y015072D03*
X052843Y015742D03*
X052030Y015742D03*
X048740Y014157D03*
X048070Y014157D03*
X048070Y007157D03*
X048740Y007157D03*
X052405Y002742D03*
X053405Y002742D03*
X053405Y002072D03*
X052405Y002072D03*
X030990Y002657D03*
X030320Y002657D03*
X029490Y001657D03*
X028820Y001657D03*
X027990Y001657D03*
X027320Y001657D03*
X023490Y002657D03*
X022820Y002657D03*
X028820Y003657D03*
X029490Y003657D03*
X026490Y013157D03*
X025820Y013157D03*
D14*
X043655Y003385D03*
X044155Y003385D03*
X044655Y003385D03*
X045155Y003385D03*
X045655Y003385D03*
X045655Y001929D03*
X045155Y001929D03*
X044655Y001929D03*
X044155Y001929D03*
X043655Y001929D03*
D15*
X050541Y009574D03*
X050541Y009771D03*
X050541Y009968D03*
X050541Y010165D03*
X050541Y010362D03*
X050541Y010559D03*
X050541Y010756D03*
X050541Y010952D03*
X050541Y011149D03*
X050541Y011346D03*
X050541Y011543D03*
X050541Y011740D03*
X053769Y011740D03*
X053769Y011543D03*
X053769Y011346D03*
X053769Y011149D03*
X053769Y010952D03*
X053769Y010756D03*
X053769Y010559D03*
X053769Y010362D03*
X053769Y010165D03*
X053769Y009968D03*
X053769Y009771D03*
X053769Y009574D03*
D16*
X053238Y009043D03*
X053041Y009043D03*
X052844Y009043D03*
X052647Y009043D03*
X052450Y009043D03*
X052254Y009043D03*
X052057Y009043D03*
X051860Y009043D03*
X051663Y009043D03*
X051466Y009043D03*
X051269Y009043D03*
X051072Y009043D03*
X051072Y012271D03*
X051269Y012271D03*
X051466Y012271D03*
X051663Y012271D03*
X051860Y012271D03*
X052057Y012271D03*
X052254Y012271D03*
X052450Y012271D03*
X052647Y012271D03*
X052844Y012271D03*
X053041Y012271D03*
X053238Y012271D03*
D17*
X048405Y012557D03*
X048405Y008757D03*
D18*
X052236Y003657D03*
X053574Y003657D03*
D19*
X053456Y004907D03*
X052354Y004907D03*
X026706Y014157D03*
X025604Y014157D03*
X023706Y004657D03*
X022604Y004657D03*
X022604Y003657D03*
X023706Y003657D03*
D20*
X025322Y003407D03*
X025322Y002907D03*
X027488Y002907D03*
X027488Y003407D03*
X027488Y003907D03*
X027488Y004407D03*
X025322Y004407D03*
X025322Y003907D03*
D21*
X026405Y003657D03*
D22*
X024653Y007407D03*
X028157Y007407D03*
D23*
X029155Y006958D03*
X030655Y006958D03*
X030655Y005856D03*
X029155Y005856D03*
X033905Y003208D03*
X033905Y002106D03*
D24*
X034435Y004497D03*
X034435Y005407D03*
X034435Y006317D03*
D25*
X036875Y005407D03*
D26*
X032905Y003031D03*
X032905Y002283D03*
D27*
X031002Y008407D03*
X029309Y008407D03*
M02*
