G75*
G70*
%OFA0B0*%
%FSLAX24Y24*%
%IPPOS*%
%LPD*%
%AMOC8*
5,1,8,0,0,1.08239X$1,22.5*
%
%ADD10C,0.0000*%
%ADD11R,0.0595X0.0595*%
%ADD12C,0.0595*%
%ADD13C,0.1261*%
%ADD14C,0.0740*%
%ADD15R,0.0474X0.0513*%
%ADD16R,0.0513X0.0474*%
%ADD17R,0.0552X0.0552*%
%ADD18C,0.0674*%
%ADD19R,0.0780X0.0780*%
%ADD20C,0.0780*%
%ADD21C,0.1661*%
%ADD22C,0.1480*%
%ADD23C,0.0600*%
%ADD24R,0.0513X0.0375*%
%ADD25C,0.0611*%
D10*
X000655Y000907D02*
X000655Y020407D01*
X059655Y020407D01*
X059655Y000907D01*
X000655Y000907D01*
X010064Y002907D02*
X010066Y002955D01*
X010072Y003003D01*
X010082Y003050D01*
X010095Y003096D01*
X010113Y003141D01*
X010133Y003185D01*
X010158Y003227D01*
X010186Y003266D01*
X010216Y003303D01*
X010250Y003337D01*
X010287Y003369D01*
X010325Y003398D01*
X010366Y003423D01*
X010409Y003445D01*
X010454Y003463D01*
X010500Y003477D01*
X010547Y003488D01*
X010595Y003495D01*
X010643Y003498D01*
X010691Y003497D01*
X010739Y003492D01*
X010787Y003483D01*
X010833Y003471D01*
X010878Y003454D01*
X010922Y003434D01*
X010964Y003411D01*
X011004Y003384D01*
X011042Y003354D01*
X011077Y003321D01*
X011109Y003285D01*
X011139Y003247D01*
X011165Y003206D01*
X011187Y003163D01*
X011207Y003119D01*
X011222Y003074D01*
X011234Y003027D01*
X011242Y002979D01*
X011246Y002931D01*
X011246Y002883D01*
X011242Y002835D01*
X011234Y002787D01*
X011222Y002740D01*
X011207Y002695D01*
X011187Y002651D01*
X011165Y002608D01*
X011139Y002567D01*
X011109Y002529D01*
X011077Y002493D01*
X011042Y002460D01*
X011004Y002430D01*
X010964Y002403D01*
X010922Y002380D01*
X010878Y002360D01*
X010833Y002343D01*
X010787Y002331D01*
X010739Y002322D01*
X010691Y002317D01*
X010643Y002316D01*
X010595Y002319D01*
X010547Y002326D01*
X010500Y002337D01*
X010454Y002351D01*
X010409Y002369D01*
X010366Y002391D01*
X010325Y002416D01*
X010287Y002445D01*
X010250Y002477D01*
X010216Y002511D01*
X010186Y002548D01*
X010158Y002587D01*
X010133Y002629D01*
X010113Y002673D01*
X010095Y002718D01*
X010082Y002764D01*
X010072Y002811D01*
X010066Y002859D01*
X010064Y002907D01*
X049064Y002907D02*
X049066Y002955D01*
X049072Y003003D01*
X049082Y003050D01*
X049095Y003096D01*
X049113Y003141D01*
X049133Y003185D01*
X049158Y003227D01*
X049186Y003266D01*
X049216Y003303D01*
X049250Y003337D01*
X049287Y003369D01*
X049325Y003398D01*
X049366Y003423D01*
X049409Y003445D01*
X049454Y003463D01*
X049500Y003477D01*
X049547Y003488D01*
X049595Y003495D01*
X049643Y003498D01*
X049691Y003497D01*
X049739Y003492D01*
X049787Y003483D01*
X049833Y003471D01*
X049878Y003454D01*
X049922Y003434D01*
X049964Y003411D01*
X050004Y003384D01*
X050042Y003354D01*
X050077Y003321D01*
X050109Y003285D01*
X050139Y003247D01*
X050165Y003206D01*
X050187Y003163D01*
X050207Y003119D01*
X050222Y003074D01*
X050234Y003027D01*
X050242Y002979D01*
X050246Y002931D01*
X050246Y002883D01*
X050242Y002835D01*
X050234Y002787D01*
X050222Y002740D01*
X050207Y002695D01*
X050187Y002651D01*
X050165Y002608D01*
X050139Y002567D01*
X050109Y002529D01*
X050077Y002493D01*
X050042Y002460D01*
X050004Y002430D01*
X049964Y002403D01*
X049922Y002380D01*
X049878Y002360D01*
X049833Y002343D01*
X049787Y002331D01*
X049739Y002322D01*
X049691Y002317D01*
X049643Y002316D01*
X049595Y002319D01*
X049547Y002326D01*
X049500Y002337D01*
X049454Y002351D01*
X049409Y002369D01*
X049366Y002391D01*
X049325Y002416D01*
X049287Y002445D01*
X049250Y002477D01*
X049216Y002511D01*
X049186Y002548D01*
X049158Y002587D01*
X049133Y002629D01*
X049113Y002673D01*
X049095Y002718D01*
X049082Y002764D01*
X049072Y002811D01*
X049066Y002859D01*
X049064Y002907D01*
X049064Y018407D02*
X049066Y018455D01*
X049072Y018503D01*
X049082Y018550D01*
X049095Y018596D01*
X049113Y018641D01*
X049133Y018685D01*
X049158Y018727D01*
X049186Y018766D01*
X049216Y018803D01*
X049250Y018837D01*
X049287Y018869D01*
X049325Y018898D01*
X049366Y018923D01*
X049409Y018945D01*
X049454Y018963D01*
X049500Y018977D01*
X049547Y018988D01*
X049595Y018995D01*
X049643Y018998D01*
X049691Y018997D01*
X049739Y018992D01*
X049787Y018983D01*
X049833Y018971D01*
X049878Y018954D01*
X049922Y018934D01*
X049964Y018911D01*
X050004Y018884D01*
X050042Y018854D01*
X050077Y018821D01*
X050109Y018785D01*
X050139Y018747D01*
X050165Y018706D01*
X050187Y018663D01*
X050207Y018619D01*
X050222Y018574D01*
X050234Y018527D01*
X050242Y018479D01*
X050246Y018431D01*
X050246Y018383D01*
X050242Y018335D01*
X050234Y018287D01*
X050222Y018240D01*
X050207Y018195D01*
X050187Y018151D01*
X050165Y018108D01*
X050139Y018067D01*
X050109Y018029D01*
X050077Y017993D01*
X050042Y017960D01*
X050004Y017930D01*
X049964Y017903D01*
X049922Y017880D01*
X049878Y017860D01*
X049833Y017843D01*
X049787Y017831D01*
X049739Y017822D01*
X049691Y017817D01*
X049643Y017816D01*
X049595Y017819D01*
X049547Y017826D01*
X049500Y017837D01*
X049454Y017851D01*
X049409Y017869D01*
X049366Y017891D01*
X049325Y017916D01*
X049287Y017945D01*
X049250Y017977D01*
X049216Y018011D01*
X049186Y018048D01*
X049158Y018087D01*
X049133Y018129D01*
X049113Y018173D01*
X049095Y018218D01*
X049082Y018264D01*
X049072Y018311D01*
X049066Y018359D01*
X049064Y018407D01*
X010064Y018407D02*
X010066Y018455D01*
X010072Y018503D01*
X010082Y018550D01*
X010095Y018596D01*
X010113Y018641D01*
X010133Y018685D01*
X010158Y018727D01*
X010186Y018766D01*
X010216Y018803D01*
X010250Y018837D01*
X010287Y018869D01*
X010325Y018898D01*
X010366Y018923D01*
X010409Y018945D01*
X010454Y018963D01*
X010500Y018977D01*
X010547Y018988D01*
X010595Y018995D01*
X010643Y018998D01*
X010691Y018997D01*
X010739Y018992D01*
X010787Y018983D01*
X010833Y018971D01*
X010878Y018954D01*
X010922Y018934D01*
X010964Y018911D01*
X011004Y018884D01*
X011042Y018854D01*
X011077Y018821D01*
X011109Y018785D01*
X011139Y018747D01*
X011165Y018706D01*
X011187Y018663D01*
X011207Y018619D01*
X011222Y018574D01*
X011234Y018527D01*
X011242Y018479D01*
X011246Y018431D01*
X011246Y018383D01*
X011242Y018335D01*
X011234Y018287D01*
X011222Y018240D01*
X011207Y018195D01*
X011187Y018151D01*
X011165Y018108D01*
X011139Y018067D01*
X011109Y018029D01*
X011077Y017993D01*
X011042Y017960D01*
X011004Y017930D01*
X010964Y017903D01*
X010922Y017880D01*
X010878Y017860D01*
X010833Y017843D01*
X010787Y017831D01*
X010739Y017822D01*
X010691Y017817D01*
X010643Y017816D01*
X010595Y017819D01*
X010547Y017826D01*
X010500Y017837D01*
X010454Y017851D01*
X010409Y017869D01*
X010366Y017891D01*
X010325Y017916D01*
X010287Y017945D01*
X010250Y017977D01*
X010216Y018011D01*
X010186Y018048D01*
X010158Y018087D01*
X010133Y018129D01*
X010113Y018173D01*
X010095Y018218D01*
X010082Y018264D01*
X010072Y018311D01*
X010066Y018359D01*
X010064Y018407D01*
D11*
X013405Y006407D03*
X041905Y006407D03*
D12*
X042905Y006407D03*
X043905Y006407D03*
X044929Y006407D03*
X045929Y006407D03*
X046929Y006407D03*
X046929Y015069D03*
X045929Y015069D03*
X044929Y015069D03*
X043905Y015069D03*
X042905Y015069D03*
X041905Y015069D03*
X018429Y015069D03*
X017429Y015069D03*
X016429Y015069D03*
X015405Y015069D03*
X014405Y015069D03*
X013405Y015069D03*
X014405Y006407D03*
X015405Y006407D03*
X016429Y006407D03*
X017429Y006407D03*
X018429Y006407D03*
D13*
X010655Y002907D03*
X008407Y004759D03*
X007155Y004759D03*
X007155Y007708D03*
X008407Y007708D03*
X008407Y010657D03*
X007155Y010657D03*
X007155Y013606D03*
X008407Y013606D03*
X008407Y016555D03*
X007155Y016555D03*
X010655Y018407D03*
X049655Y018407D03*
X049655Y002907D03*
D14*
X047655Y005157D03*
X046655Y005157D03*
X045655Y005157D03*
X044655Y005157D03*
X043655Y005157D03*
X042655Y005157D03*
X041655Y005157D03*
X040655Y005157D03*
X039655Y005157D03*
D15*
X050820Y010782D03*
X051490Y010782D03*
X051490Y011782D03*
X050820Y011782D03*
X053820Y016657D03*
X054490Y016657D03*
X054490Y017657D03*
X053820Y017657D03*
D16*
X051490Y009907D03*
X050820Y009907D03*
X032655Y003992D03*
X032655Y003322D03*
X030655Y003322D03*
X030655Y003992D03*
X028655Y003992D03*
X028655Y003322D03*
X026655Y003322D03*
X026655Y003992D03*
X024655Y003992D03*
X024655Y003322D03*
D17*
X025655Y003244D03*
X027655Y003244D03*
X029655Y003244D03*
X029655Y004070D03*
X027655Y004070D03*
X025655Y004070D03*
X031655Y004070D03*
X033655Y004070D03*
X033655Y003244D03*
X031655Y003244D03*
D18*
X052608Y016657D02*
X053202Y016657D01*
X053202Y017657D02*
X052608Y017657D01*
X052608Y018657D02*
X053202Y018657D01*
X053202Y019657D02*
X052608Y019657D01*
D19*
X040655Y002657D03*
D20*
X039655Y002657D03*
X038655Y002657D03*
X037655Y002657D03*
X036655Y002657D03*
X035655Y002657D03*
D21*
X001986Y002889D03*
X001986Y018425D03*
D22*
X013468Y002907D03*
X015768Y002907D03*
X019042Y002907D03*
X021342Y002907D03*
D23*
X055645Y002657D02*
X056165Y002657D01*
X058645Y002657D02*
X059165Y002657D01*
X059165Y003657D02*
X058645Y003657D01*
X058645Y004657D02*
X059165Y004657D01*
X059165Y005657D02*
X058645Y005657D01*
X056165Y005657D02*
X055645Y005657D01*
X055645Y004657D02*
X056165Y004657D01*
X056165Y003657D02*
X055645Y003657D01*
X055645Y006657D02*
X056165Y006657D01*
X056165Y007657D02*
X055645Y007657D01*
X055645Y008657D02*
X056165Y008657D01*
X058645Y008657D02*
X059165Y008657D01*
X059165Y007657D02*
X058645Y007657D01*
X058645Y006657D02*
X059165Y006657D01*
X059165Y009657D02*
X058645Y009657D01*
X056165Y009657D02*
X055645Y009657D01*
X055645Y011657D02*
X056165Y011657D01*
X058645Y011657D02*
X059165Y011657D01*
X059165Y012657D02*
X058645Y012657D01*
X056165Y012657D02*
X055645Y012657D01*
X055645Y013657D02*
X056165Y013657D01*
X056165Y014657D02*
X055645Y014657D01*
X055645Y015657D02*
X056165Y015657D01*
X058645Y015657D02*
X059165Y015657D01*
X059165Y014657D02*
X058645Y014657D01*
X058645Y013657D02*
X059165Y013657D01*
X059165Y016657D02*
X058645Y016657D01*
X058645Y017657D02*
X059165Y017657D01*
X059165Y018657D02*
X058645Y018657D01*
X056165Y018657D02*
X055645Y018657D01*
X055645Y017657D02*
X056165Y017657D01*
X056165Y016657D02*
X055645Y016657D01*
D24*
X056984Y016407D03*
X057826Y016407D03*
X057826Y016907D03*
X056984Y016907D03*
X056984Y017407D03*
X057826Y017407D03*
X057826Y017907D03*
X056984Y017907D03*
X056984Y013907D03*
X057826Y013907D03*
X057826Y013407D03*
X056984Y013407D03*
X056984Y012907D03*
X057826Y012907D03*
X057826Y012407D03*
X056984Y012407D03*
X056984Y008907D03*
X057826Y008907D03*
X057826Y008407D03*
X056984Y008407D03*
X056984Y007907D03*
X057826Y007907D03*
X057826Y007407D03*
X056984Y007407D03*
X056984Y004907D03*
X057826Y004907D03*
X057826Y004407D03*
X056984Y004407D03*
X056984Y003907D03*
X057826Y003907D03*
X057826Y003407D03*
X056984Y003407D03*
D25*
X023655Y005407D03*
M02*
