G75*
G70*
%OFA0B0*%
%FSLAX24Y24*%
%IPPOS*%
%LPD*%
%AMOC8*
5,1,8,0,0,1.08239X$1,22.5*
%
%ADD10C,0.0000*%
%ADD11R,0.0515X0.0515*%
%ADD12C,0.0515*%
%ADD13C,0.0660*%
%ADD14R,0.0394X0.0433*%
%ADD15R,0.0433X0.0394*%
%ADD16R,0.0472X0.0472*%
%ADD17C,0.0594*%
%ADD18R,0.0700X0.0700*%
%ADD19C,0.0700*%
%ADD20C,0.1181*%
%ADD21C,0.1581*%
%ADD22C,0.1400*%
%ADD23C,0.0520*%
%ADD24R,0.0433X0.0295*%
%ADD25C,0.0120*%
%ADD26C,0.0357*%
%ADD27C,0.0100*%
%ADD28C,0.0080*%
%ADD29C,0.0320*%
%ADD30C,0.0531*%
D10*
X000655Y000907D02*
X000655Y020407D01*
X059655Y020407D01*
X059655Y000907D01*
X000655Y000907D01*
X010064Y002907D02*
X010066Y002955D01*
X010072Y003003D01*
X010082Y003050D01*
X010095Y003096D01*
X010113Y003141D01*
X010133Y003185D01*
X010158Y003227D01*
X010186Y003266D01*
X010216Y003303D01*
X010250Y003337D01*
X010287Y003369D01*
X010325Y003398D01*
X010366Y003423D01*
X010409Y003445D01*
X010454Y003463D01*
X010500Y003477D01*
X010547Y003488D01*
X010595Y003495D01*
X010643Y003498D01*
X010691Y003497D01*
X010739Y003492D01*
X010787Y003483D01*
X010833Y003471D01*
X010878Y003454D01*
X010922Y003434D01*
X010964Y003411D01*
X011004Y003384D01*
X011042Y003354D01*
X011077Y003321D01*
X011109Y003285D01*
X011139Y003247D01*
X011165Y003206D01*
X011187Y003163D01*
X011207Y003119D01*
X011222Y003074D01*
X011234Y003027D01*
X011242Y002979D01*
X011246Y002931D01*
X011246Y002883D01*
X011242Y002835D01*
X011234Y002787D01*
X011222Y002740D01*
X011207Y002695D01*
X011187Y002651D01*
X011165Y002608D01*
X011139Y002567D01*
X011109Y002529D01*
X011077Y002493D01*
X011042Y002460D01*
X011004Y002430D01*
X010964Y002403D01*
X010922Y002380D01*
X010878Y002360D01*
X010833Y002343D01*
X010787Y002331D01*
X010739Y002322D01*
X010691Y002317D01*
X010643Y002316D01*
X010595Y002319D01*
X010547Y002326D01*
X010500Y002337D01*
X010454Y002351D01*
X010409Y002369D01*
X010366Y002391D01*
X010325Y002416D01*
X010287Y002445D01*
X010250Y002477D01*
X010216Y002511D01*
X010186Y002548D01*
X010158Y002587D01*
X010133Y002629D01*
X010113Y002673D01*
X010095Y002718D01*
X010082Y002764D01*
X010072Y002811D01*
X010066Y002859D01*
X010064Y002907D01*
X049064Y002907D02*
X049066Y002955D01*
X049072Y003003D01*
X049082Y003050D01*
X049095Y003096D01*
X049113Y003141D01*
X049133Y003185D01*
X049158Y003227D01*
X049186Y003266D01*
X049216Y003303D01*
X049250Y003337D01*
X049287Y003369D01*
X049325Y003398D01*
X049366Y003423D01*
X049409Y003445D01*
X049454Y003463D01*
X049500Y003477D01*
X049547Y003488D01*
X049595Y003495D01*
X049643Y003498D01*
X049691Y003497D01*
X049739Y003492D01*
X049787Y003483D01*
X049833Y003471D01*
X049878Y003454D01*
X049922Y003434D01*
X049964Y003411D01*
X050004Y003384D01*
X050042Y003354D01*
X050077Y003321D01*
X050109Y003285D01*
X050139Y003247D01*
X050165Y003206D01*
X050187Y003163D01*
X050207Y003119D01*
X050222Y003074D01*
X050234Y003027D01*
X050242Y002979D01*
X050246Y002931D01*
X050246Y002883D01*
X050242Y002835D01*
X050234Y002787D01*
X050222Y002740D01*
X050207Y002695D01*
X050187Y002651D01*
X050165Y002608D01*
X050139Y002567D01*
X050109Y002529D01*
X050077Y002493D01*
X050042Y002460D01*
X050004Y002430D01*
X049964Y002403D01*
X049922Y002380D01*
X049878Y002360D01*
X049833Y002343D01*
X049787Y002331D01*
X049739Y002322D01*
X049691Y002317D01*
X049643Y002316D01*
X049595Y002319D01*
X049547Y002326D01*
X049500Y002337D01*
X049454Y002351D01*
X049409Y002369D01*
X049366Y002391D01*
X049325Y002416D01*
X049287Y002445D01*
X049250Y002477D01*
X049216Y002511D01*
X049186Y002548D01*
X049158Y002587D01*
X049133Y002629D01*
X049113Y002673D01*
X049095Y002718D01*
X049082Y002764D01*
X049072Y002811D01*
X049066Y002859D01*
X049064Y002907D01*
X049064Y018407D02*
X049066Y018455D01*
X049072Y018503D01*
X049082Y018550D01*
X049095Y018596D01*
X049113Y018641D01*
X049133Y018685D01*
X049158Y018727D01*
X049186Y018766D01*
X049216Y018803D01*
X049250Y018837D01*
X049287Y018869D01*
X049325Y018898D01*
X049366Y018923D01*
X049409Y018945D01*
X049454Y018963D01*
X049500Y018977D01*
X049547Y018988D01*
X049595Y018995D01*
X049643Y018998D01*
X049691Y018997D01*
X049739Y018992D01*
X049787Y018983D01*
X049833Y018971D01*
X049878Y018954D01*
X049922Y018934D01*
X049964Y018911D01*
X050004Y018884D01*
X050042Y018854D01*
X050077Y018821D01*
X050109Y018785D01*
X050139Y018747D01*
X050165Y018706D01*
X050187Y018663D01*
X050207Y018619D01*
X050222Y018574D01*
X050234Y018527D01*
X050242Y018479D01*
X050246Y018431D01*
X050246Y018383D01*
X050242Y018335D01*
X050234Y018287D01*
X050222Y018240D01*
X050207Y018195D01*
X050187Y018151D01*
X050165Y018108D01*
X050139Y018067D01*
X050109Y018029D01*
X050077Y017993D01*
X050042Y017960D01*
X050004Y017930D01*
X049964Y017903D01*
X049922Y017880D01*
X049878Y017860D01*
X049833Y017843D01*
X049787Y017831D01*
X049739Y017822D01*
X049691Y017817D01*
X049643Y017816D01*
X049595Y017819D01*
X049547Y017826D01*
X049500Y017837D01*
X049454Y017851D01*
X049409Y017869D01*
X049366Y017891D01*
X049325Y017916D01*
X049287Y017945D01*
X049250Y017977D01*
X049216Y018011D01*
X049186Y018048D01*
X049158Y018087D01*
X049133Y018129D01*
X049113Y018173D01*
X049095Y018218D01*
X049082Y018264D01*
X049072Y018311D01*
X049066Y018359D01*
X049064Y018407D01*
X010064Y018407D02*
X010066Y018455D01*
X010072Y018503D01*
X010082Y018550D01*
X010095Y018596D01*
X010113Y018641D01*
X010133Y018685D01*
X010158Y018727D01*
X010186Y018766D01*
X010216Y018803D01*
X010250Y018837D01*
X010287Y018869D01*
X010325Y018898D01*
X010366Y018923D01*
X010409Y018945D01*
X010454Y018963D01*
X010500Y018977D01*
X010547Y018988D01*
X010595Y018995D01*
X010643Y018998D01*
X010691Y018997D01*
X010739Y018992D01*
X010787Y018983D01*
X010833Y018971D01*
X010878Y018954D01*
X010922Y018934D01*
X010964Y018911D01*
X011004Y018884D01*
X011042Y018854D01*
X011077Y018821D01*
X011109Y018785D01*
X011139Y018747D01*
X011165Y018706D01*
X011187Y018663D01*
X011207Y018619D01*
X011222Y018574D01*
X011234Y018527D01*
X011242Y018479D01*
X011246Y018431D01*
X011246Y018383D01*
X011242Y018335D01*
X011234Y018287D01*
X011222Y018240D01*
X011207Y018195D01*
X011187Y018151D01*
X011165Y018108D01*
X011139Y018067D01*
X011109Y018029D01*
X011077Y017993D01*
X011042Y017960D01*
X011004Y017930D01*
X010964Y017903D01*
X010922Y017880D01*
X010878Y017860D01*
X010833Y017843D01*
X010787Y017831D01*
X010739Y017822D01*
X010691Y017817D01*
X010643Y017816D01*
X010595Y017819D01*
X010547Y017826D01*
X010500Y017837D01*
X010454Y017851D01*
X010409Y017869D01*
X010366Y017891D01*
X010325Y017916D01*
X010287Y017945D01*
X010250Y017977D01*
X010216Y018011D01*
X010186Y018048D01*
X010158Y018087D01*
X010133Y018129D01*
X010113Y018173D01*
X010095Y018218D01*
X010082Y018264D01*
X010072Y018311D01*
X010066Y018359D01*
X010064Y018407D01*
D11*
X013405Y006407D03*
X041905Y006407D03*
D12*
X042905Y006407D03*
X043905Y006407D03*
X044929Y006407D03*
X045929Y006407D03*
X046929Y006407D03*
X046929Y015069D03*
X045929Y015069D03*
X044929Y015069D03*
X043905Y015069D03*
X042905Y015069D03*
X041905Y015069D03*
X018429Y015069D03*
X017429Y015069D03*
X016429Y015069D03*
X015405Y015069D03*
X014405Y015069D03*
X013405Y015069D03*
X014405Y006407D03*
X015405Y006407D03*
X016429Y006407D03*
X017429Y006407D03*
X018429Y006407D03*
D13*
X039655Y005157D03*
X040655Y005157D03*
X041655Y005157D03*
X042655Y005157D03*
X043655Y005157D03*
X044655Y005157D03*
X045655Y005157D03*
X046655Y005157D03*
X047655Y005157D03*
D14*
X050820Y010782D03*
X051490Y010782D03*
X051490Y011782D03*
X050820Y011782D03*
X053820Y016657D03*
X054490Y016657D03*
X054490Y017657D03*
X053820Y017657D03*
D15*
X051490Y009907D03*
X050820Y009907D03*
X032655Y003992D03*
X032655Y003322D03*
X030655Y003322D03*
X030655Y003992D03*
X028655Y003992D03*
X028655Y003322D03*
X026655Y003322D03*
X026655Y003992D03*
X024655Y003992D03*
X024655Y003322D03*
D16*
X025655Y003244D03*
X027655Y003244D03*
X029655Y003244D03*
X029655Y004070D03*
X027655Y004070D03*
X025655Y004070D03*
X031655Y004070D03*
X033655Y004070D03*
X033655Y003244D03*
X031655Y003244D03*
D17*
X052608Y016657D02*
X053202Y016657D01*
X053202Y017657D02*
X052608Y017657D01*
X052608Y018657D02*
X053202Y018657D01*
X053202Y019657D02*
X052608Y019657D01*
D18*
X040655Y002657D03*
D19*
X039655Y002657D03*
X038655Y002657D03*
X037655Y002657D03*
X036655Y002657D03*
X035655Y002657D03*
D20*
X008407Y004759D03*
X007155Y004759D03*
X007155Y007708D03*
X008407Y007708D03*
X008407Y010657D03*
X007155Y010657D03*
X007155Y013606D03*
X008407Y013606D03*
X008407Y016555D03*
X007155Y016555D03*
D21*
X001986Y018425D03*
X001986Y002889D03*
D22*
X013468Y002907D03*
X015768Y002907D03*
X019042Y002907D03*
X021342Y002907D03*
D23*
X055645Y002657D02*
X056165Y002657D01*
X058645Y002657D02*
X059165Y002657D01*
X059165Y003657D02*
X058645Y003657D01*
X058645Y004657D02*
X059165Y004657D01*
X059165Y005657D02*
X058645Y005657D01*
X056165Y005657D02*
X055645Y005657D01*
X055645Y004657D02*
X056165Y004657D01*
X056165Y003657D02*
X055645Y003657D01*
X055645Y006657D02*
X056165Y006657D01*
X056165Y007657D02*
X055645Y007657D01*
X055645Y008657D02*
X056165Y008657D01*
X058645Y008657D02*
X059165Y008657D01*
X059165Y007657D02*
X058645Y007657D01*
X058645Y006657D02*
X059165Y006657D01*
X059165Y009657D02*
X058645Y009657D01*
X056165Y009657D02*
X055645Y009657D01*
X055645Y011657D02*
X056165Y011657D01*
X058645Y011657D02*
X059165Y011657D01*
X059165Y012657D02*
X058645Y012657D01*
X056165Y012657D02*
X055645Y012657D01*
X055645Y013657D02*
X056165Y013657D01*
X056165Y014657D02*
X055645Y014657D01*
X055645Y015657D02*
X056165Y015657D01*
X058645Y015657D02*
X059165Y015657D01*
X059165Y014657D02*
X058645Y014657D01*
X058645Y013657D02*
X059165Y013657D01*
X059165Y016657D02*
X058645Y016657D01*
X058645Y017657D02*
X059165Y017657D01*
X059165Y018657D02*
X058645Y018657D01*
X056165Y018657D02*
X055645Y018657D01*
X055645Y017657D02*
X056165Y017657D01*
X056165Y016657D02*
X055645Y016657D01*
D24*
X056984Y016407D03*
X057826Y016407D03*
X057826Y016907D03*
X056984Y016907D03*
X056984Y017407D03*
X057826Y017407D03*
X057826Y017907D03*
X056984Y017907D03*
X056984Y013907D03*
X057826Y013907D03*
X057826Y013407D03*
X056984Y013407D03*
X056984Y012907D03*
X057826Y012907D03*
X057826Y012407D03*
X056984Y012407D03*
X056984Y008907D03*
X057826Y008907D03*
X057826Y008407D03*
X056984Y008407D03*
X056984Y007907D03*
X057826Y007907D03*
X057826Y007407D03*
X056984Y007407D03*
X056984Y004907D03*
X057826Y004907D03*
X057826Y004407D03*
X056984Y004407D03*
X056984Y003907D03*
X057826Y003907D03*
X057826Y003407D03*
X056984Y003407D03*
D25*
X008065Y019087D02*
X007945Y018967D01*
X007705Y018967D01*
X007575Y019097D01*
X007278Y018967D02*
X006793Y018967D01*
X007038Y018975D02*
X007038Y019680D01*
X007038Y019687D02*
X006795Y019445D01*
X006485Y019567D02*
X006365Y019687D01*
X006125Y019687D01*
X006005Y019567D01*
X006005Y019087D01*
X006125Y018967D01*
X006365Y018967D01*
X006485Y019087D01*
X006485Y019567D01*
X006475Y019567D02*
X006005Y019087D01*
X005695Y018967D02*
X005205Y018967D01*
X005695Y019447D01*
X005695Y019567D01*
X005695Y019577D02*
X005575Y019697D01*
X005335Y019697D01*
X005205Y019567D01*
X004825Y019587D02*
X004705Y019707D01*
X004465Y019707D01*
X004345Y019587D01*
X004345Y019707D01*
X003975Y019707D01*
X003855Y019587D01*
X003855Y019337D01*
X003975Y019217D01*
X004095Y019217D01*
X003855Y018967D01*
X004345Y018967D02*
X004345Y019087D01*
X004345Y019217D01*
X004095Y019217D01*
X004345Y019217D02*
X004345Y019587D01*
X004585Y019337D02*
X004835Y019337D01*
X004835Y019097D01*
X004715Y018967D01*
X004465Y018967D01*
X004345Y019087D01*
X007575Y019567D02*
X007705Y019697D01*
X007945Y019697D01*
X008065Y019577D01*
X008065Y019567D02*
X008065Y019447D01*
X007955Y019337D01*
X008065Y019227D01*
X008065Y019217D02*
X008065Y019097D01*
X007953Y019337D02*
X007838Y019337D01*
D26*
X013405Y016157D03*
X013905Y015657D03*
X014905Y014407D03*
X013405Y013907D03*
X016405Y013407D03*
X017405Y012907D03*
X017905Y012407D03*
X017405Y011907D03*
X018405Y011407D03*
X015405Y010907D03*
X014405Y010407D03*
X015905Y009907D03*
X027405Y010407D03*
X027405Y010907D03*
X027405Y011407D03*
X027405Y011907D03*
X029155Y012532D03*
X030280Y012532D03*
X027405Y013407D03*
X027405Y013907D03*
X027405Y014407D03*
X026905Y015657D03*
X033905Y016157D03*
X034655Y016157D03*
X041905Y016157D03*
X042405Y015657D03*
X043405Y014407D03*
X041905Y013907D03*
X044905Y013407D03*
X045905Y012907D03*
X046405Y012407D03*
X045905Y011907D03*
X046905Y011407D03*
X043905Y010907D03*
X042905Y010407D03*
X044405Y009907D03*
X048843Y010157D03*
X049405Y009907D03*
X052280Y009782D03*
X052905Y009907D03*
X052905Y010407D03*
X052405Y010407D03*
X052405Y010907D03*
X052405Y011532D03*
X053030Y011532D03*
X052218Y012907D03*
X052436Y014657D03*
X053218Y014657D03*
X053655Y014720D03*
X053405Y015657D03*
X051061Y016032D03*
X033655Y012907D03*
X032905Y012907D03*
X032905Y012407D03*
X033655Y012407D03*
X033405Y009907D03*
X034155Y009907D03*
X032405Y006907D03*
X033405Y004907D03*
X028155Y004907D03*
X029468Y002157D03*
X042405Y002657D03*
X046405Y001907D03*
X054155Y002157D03*
X052905Y006157D03*
X051780Y006532D03*
X051280Y006532D03*
X050780Y006532D03*
X050968Y008282D03*
X051530Y008282D03*
X053905Y009157D03*
D27*
X053905Y006407D01*
X053155Y005657D01*
X047155Y005657D01*
X046655Y005157D01*
X046244Y005342D02*
X046066Y005342D01*
X046037Y005412D02*
X045993Y005456D01*
X046346Y005810D01*
X047067Y005810D01*
X046985Y005727D01*
X046830Y005572D01*
X046745Y005607D01*
X046566Y005607D01*
X046400Y005539D01*
X046274Y005412D01*
X046205Y005247D01*
X046205Y005068D01*
X046274Y004902D01*
X046400Y004776D01*
X046566Y004707D01*
X046745Y004707D01*
X046910Y004776D01*
X047037Y004902D01*
X047105Y005068D01*
X047105Y005247D01*
X047070Y005331D01*
X047226Y005487D01*
X047349Y005487D01*
X047274Y005412D01*
X047205Y005247D01*
X047205Y005068D01*
X047274Y004902D01*
X047400Y004776D01*
X047566Y004707D01*
X047745Y004707D01*
X047910Y004776D01*
X048037Y004902D01*
X048105Y005068D01*
X048105Y005247D01*
X048037Y005412D01*
X047961Y005487D01*
X053085Y005487D01*
X053226Y005487D01*
X053976Y006237D01*
X054075Y006337D01*
X054075Y008905D01*
X054158Y008988D01*
X054204Y009098D01*
X054204Y009216D01*
X054158Y009326D01*
X054074Y009410D01*
X053964Y009455D01*
X053846Y009455D01*
X053736Y009410D01*
X053652Y009326D01*
X053607Y009216D01*
X053607Y009098D01*
X053652Y008988D01*
X053735Y008905D01*
X053735Y006477D01*
X053085Y005827D01*
X052051Y005827D01*
X052128Y005903D01*
X052659Y006435D01*
X052735Y006511D01*
X052735Y006409D01*
X052652Y006326D01*
X052607Y006216D01*
X052607Y006098D01*
X052652Y005988D01*
X052736Y005904D01*
X052846Y005859D01*
X052964Y005859D01*
X053074Y005904D01*
X053158Y005988D01*
X053204Y006098D01*
X053204Y006216D01*
X053158Y006326D01*
X053075Y006409D01*
X053075Y009655D01*
X053158Y009738D01*
X053204Y009848D01*
X053204Y009966D01*
X053158Y010076D01*
X053077Y010157D01*
X053158Y010238D01*
X053204Y010348D01*
X053204Y010466D01*
X058735Y010466D01*
X058735Y010564D02*
X053163Y010564D01*
X053158Y010576D02*
X053074Y010660D01*
X052964Y010705D01*
X052846Y010705D01*
X052736Y010660D01*
X052655Y010579D01*
X052577Y010657D01*
X052658Y010738D01*
X052704Y010848D01*
X052704Y010965D01*
X052888Y011149D01*
X052888Y011290D01*
X052888Y011712D01*
X052950Y011774D01*
X052950Y011915D01*
X052950Y014523D01*
X052965Y014488D01*
X053049Y014404D01*
X053158Y014359D01*
X053277Y014359D01*
X053387Y014404D01*
X053471Y014488D01*
X053516Y014598D01*
X053516Y014716D01*
X053471Y014826D01*
X053387Y014910D01*
X053315Y014940D01*
X053315Y015341D01*
X053337Y015362D01*
X053346Y015359D01*
X053464Y015359D01*
X053574Y015404D01*
X053658Y015488D01*
X053662Y015497D01*
X054221Y015497D01*
X054315Y015591D01*
X054650Y015925D01*
X054650Y016058D01*
X054650Y016321D01*
X054736Y016321D01*
X054807Y016391D01*
X054807Y016923D01*
X054736Y016994D01*
X054660Y016994D01*
X054660Y017321D01*
X054736Y017321D01*
X054807Y017391D01*
X054807Y017923D01*
X054736Y017994D01*
X054660Y017994D01*
X054660Y019487D01*
X058335Y019487D01*
X058735Y019087D01*
X058735Y019037D01*
X058569Y019037D01*
X058430Y018979D01*
X058323Y018872D01*
X058265Y018733D01*
X058265Y018581D01*
X058323Y018442D01*
X058430Y018335D01*
X058569Y018277D01*
X058735Y018277D01*
X058735Y018037D01*
X058569Y018037D01*
X058430Y017979D01*
X058323Y017872D01*
X058265Y017733D01*
X058265Y017581D01*
X058323Y017442D01*
X058430Y017335D01*
X058569Y017277D01*
X058735Y017277D01*
X058735Y017037D01*
X058569Y017037D01*
X058430Y016979D01*
X058323Y016872D01*
X058265Y016733D01*
X058265Y016581D01*
X058323Y016442D01*
X058430Y016335D01*
X058569Y016277D01*
X058735Y016277D01*
X058735Y016037D01*
X058569Y016037D01*
X058430Y015979D01*
X058323Y015872D01*
X058265Y015733D01*
X058265Y015581D01*
X058323Y015442D01*
X058430Y015335D01*
X058569Y015277D01*
X058735Y015277D01*
X058735Y015037D01*
X058569Y015037D01*
X058430Y014979D01*
X058323Y014872D01*
X058265Y014733D01*
X058265Y014581D01*
X058323Y014442D01*
X058430Y014335D01*
X058569Y014277D01*
X058735Y014277D01*
X058735Y014037D01*
X058569Y014037D01*
X058430Y013979D01*
X058323Y013872D01*
X058265Y013733D01*
X058265Y013581D01*
X058323Y013442D01*
X058430Y013335D01*
X058569Y013277D01*
X058735Y013277D01*
X058735Y013037D01*
X058569Y013037D01*
X058430Y012979D01*
X058323Y012872D01*
X058265Y012733D01*
X058265Y012581D01*
X058323Y012442D01*
X058430Y012335D01*
X058569Y012277D01*
X058735Y012277D01*
X058735Y012037D01*
X058569Y012037D01*
X058430Y011979D01*
X058323Y011872D01*
X058265Y011733D01*
X058265Y011581D01*
X058323Y011442D01*
X058430Y011335D01*
X058569Y011277D01*
X058735Y011277D01*
X058735Y010037D01*
X058569Y010037D01*
X058430Y009979D01*
X058323Y009872D01*
X058265Y009733D01*
X058265Y009581D01*
X058323Y009442D01*
X058430Y009335D01*
X058569Y009277D01*
X058735Y009277D01*
X058735Y009037D01*
X058569Y009037D01*
X058430Y008979D01*
X058323Y008872D01*
X058265Y008733D01*
X058265Y008581D01*
X058323Y008442D01*
X058430Y008335D01*
X058569Y008277D01*
X058735Y008277D01*
X058735Y008037D01*
X058569Y008037D01*
X058430Y007979D01*
X058323Y007872D01*
X058265Y007733D01*
X058265Y007581D01*
X058323Y007442D01*
X058430Y007335D01*
X058569Y007277D01*
X058735Y007277D01*
X058735Y007037D01*
X058569Y007037D01*
X058430Y006979D01*
X058323Y006872D01*
X058265Y006733D01*
X058265Y006581D01*
X058323Y006442D01*
X058430Y006335D01*
X058569Y006277D01*
X058735Y006277D01*
X058735Y006037D01*
X058569Y006037D01*
X058430Y005979D01*
X058323Y005872D01*
X058265Y005733D01*
X058265Y005581D01*
X058323Y005442D01*
X058430Y005335D01*
X058569Y005277D01*
X058735Y005277D01*
X058735Y005037D01*
X058569Y005037D01*
X058430Y004979D01*
X058323Y004872D01*
X058265Y004733D01*
X058265Y004581D01*
X058323Y004442D01*
X058430Y004335D01*
X058569Y004277D01*
X058735Y004277D01*
X058735Y004037D01*
X058569Y004037D01*
X058430Y003979D01*
X058323Y003872D01*
X058265Y003733D01*
X058265Y003581D01*
X058323Y003442D01*
X058430Y003335D01*
X058569Y003277D01*
X058735Y003277D01*
X058735Y003037D01*
X058569Y003037D01*
X058430Y002979D01*
X058323Y002872D01*
X058265Y002733D01*
X058265Y002581D01*
X058323Y002442D01*
X058430Y002335D01*
X058569Y002277D01*
X059241Y002277D01*
X059380Y002335D01*
X059487Y002442D01*
X059505Y002485D01*
X059505Y001057D01*
X000805Y001057D01*
X000805Y020257D01*
X059505Y020257D01*
X059505Y018829D01*
X059487Y018872D01*
X059380Y018979D01*
X059241Y019037D01*
X059075Y019037D01*
X059075Y019227D01*
X058976Y019327D01*
X058476Y019827D01*
X058335Y019827D01*
X054601Y019827D01*
X054460Y019827D01*
X053583Y019827D01*
X053555Y019893D01*
X053438Y020010D01*
X053285Y020074D01*
X052525Y020074D01*
X052372Y020010D01*
X052255Y019893D01*
X052191Y019740D01*
X052191Y019574D01*
X052255Y019421D01*
X052372Y019304D01*
X052525Y019240D01*
X053285Y019240D01*
X053438Y019304D01*
X053555Y019421D01*
X053583Y019487D01*
X054320Y019487D01*
X054320Y017994D01*
X054243Y017994D01*
X054173Y017923D01*
X054173Y017391D01*
X054243Y017321D01*
X054320Y017321D01*
X054320Y016994D01*
X054243Y016994D01*
X054173Y016923D01*
X054173Y016391D01*
X054243Y016321D01*
X054330Y016321D01*
X054330Y016058D01*
X054089Y015817D01*
X053662Y015817D01*
X053658Y015826D01*
X053574Y015910D01*
X053464Y015955D01*
X053346Y015955D01*
X053236Y015910D01*
X053152Y015826D01*
X053107Y015716D01*
X053107Y015598D01*
X053110Y015589D01*
X052995Y015473D01*
X052995Y015341D01*
X052995Y014857D01*
X052965Y014826D01*
X052950Y014791D01*
X052950Y015102D01*
X052851Y015202D01*
X051476Y016577D01*
X051335Y016577D01*
X048726Y016577D01*
X046226Y019077D01*
X046085Y019077D01*
X014585Y019077D01*
X014485Y018977D01*
X012232Y016725D01*
X009106Y016725D01*
X009009Y016957D01*
X008810Y017157D01*
X008548Y017265D01*
X008266Y017265D01*
X008005Y017157D01*
X007805Y016957D01*
X007781Y016900D01*
X007757Y016957D01*
X007558Y017157D01*
X007296Y017265D01*
X007014Y017265D01*
X006753Y017157D01*
X006553Y016957D01*
X006445Y016696D01*
X006445Y016413D01*
X006553Y016152D01*
X006753Y015952D01*
X007014Y015844D01*
X007296Y015844D01*
X007558Y015952D01*
X007757Y016152D01*
X007781Y016209D01*
X007805Y016152D01*
X008005Y015952D01*
X008266Y015844D01*
X008548Y015844D01*
X008810Y015952D01*
X009009Y016152D01*
X009106Y016385D01*
X012232Y016385D01*
X012373Y016385D01*
X014726Y018737D01*
X014745Y018737D01*
X014735Y018727D01*
X009784Y013776D01*
X009106Y013776D01*
X009009Y014008D01*
X008810Y014208D01*
X008548Y014316D01*
X008266Y014316D01*
X008005Y014208D01*
X007805Y014008D01*
X007781Y013951D01*
X007757Y014008D01*
X007558Y014208D01*
X007296Y014316D01*
X007014Y014316D01*
X006753Y014208D01*
X006553Y014008D01*
X006445Y013747D01*
X006445Y013465D01*
X006553Y013203D01*
X006753Y013004D01*
X007014Y012895D01*
X007296Y012895D01*
X007558Y013004D01*
X007757Y013203D01*
X007781Y013260D01*
X007805Y013203D01*
X008005Y013004D01*
X008266Y012895D01*
X008548Y012895D01*
X008810Y013004D01*
X009009Y013203D01*
X009106Y013436D01*
X009784Y013436D01*
X009924Y013436D01*
X014975Y018487D01*
X045835Y018487D01*
X048335Y015987D01*
X048476Y015987D01*
X050335Y015987D01*
X052423Y013899D01*
X052423Y013124D01*
X052387Y013160D01*
X052277Y013205D01*
X052158Y013205D01*
X052049Y013160D01*
X051966Y013077D01*
X049226Y013077D01*
X049085Y013077D01*
X045085Y009077D01*
X034476Y009077D01*
X034335Y009077D01*
X032463Y007205D01*
X032346Y007205D01*
X032236Y007160D01*
X032152Y007076D01*
X032107Y006966D01*
X032107Y006848D01*
X032152Y006738D01*
X032236Y006654D01*
X032346Y006609D01*
X032464Y006609D01*
X032574Y006654D01*
X032658Y006738D01*
X032704Y006848D01*
X032704Y006965D01*
X034476Y008737D01*
X045226Y008737D01*
X045325Y008837D01*
X049226Y012737D01*
X051966Y012737D01*
X052049Y012654D01*
X052158Y012609D01*
X052277Y012609D01*
X052387Y012654D01*
X052423Y012690D01*
X052423Y012102D01*
X052335Y012015D01*
X052249Y011929D01*
X052226Y011952D01*
X052085Y011952D01*
X051807Y011952D01*
X051807Y012048D01*
X051736Y012119D01*
X051243Y012119D01*
X051173Y012048D01*
X051173Y011516D01*
X051243Y011446D01*
X051736Y011446D01*
X051807Y011516D01*
X051807Y011612D01*
X052085Y011612D01*
X052107Y011590D01*
X052107Y011473D01*
X052152Y011363D01*
X052236Y011279D01*
X052346Y011234D01*
X052464Y011234D01*
X052510Y011253D01*
X052463Y011205D01*
X052346Y011205D01*
X052236Y011160D01*
X052152Y011076D01*
X052107Y010966D01*
X052107Y010952D01*
X051807Y010952D01*
X051807Y011048D01*
X051736Y011119D01*
X051243Y011119D01*
X051173Y011048D01*
X051173Y010516D01*
X051243Y010446D01*
X051736Y010446D01*
X051807Y010516D01*
X051807Y010612D01*
X052188Y010612D01*
X052152Y010576D01*
X052107Y010466D01*
X051757Y010466D01*
X051807Y010564D02*
X052147Y010564D01*
X052107Y010466D02*
X052107Y010349D01*
X051856Y010099D01*
X051856Y010124D01*
X051846Y010162D01*
X051826Y010196D01*
X051798Y010224D01*
X051764Y010244D01*
X051726Y010254D01*
X051538Y010254D01*
X051538Y009956D01*
X051441Y009956D01*
X051441Y010254D01*
X051253Y010254D01*
X051215Y010244D01*
X051181Y010224D01*
X051153Y010196D01*
X051139Y010171D01*
X051087Y010224D01*
X050990Y010224D01*
X050990Y010446D01*
X051067Y010446D01*
X051137Y010516D01*
X051137Y011048D01*
X051067Y011119D01*
X050990Y011119D01*
X050990Y011446D01*
X051067Y011446D01*
X051137Y011516D01*
X051137Y012048D01*
X051067Y012119D01*
X050574Y012119D01*
X050504Y012048D01*
X050504Y011516D01*
X050574Y011446D01*
X050650Y011446D01*
X050650Y011119D01*
X050574Y011119D01*
X050504Y011048D01*
X050504Y010516D01*
X050574Y010446D01*
X050650Y010446D01*
X050650Y010224D01*
X050554Y010224D01*
X050484Y010154D01*
X050484Y009661D01*
X050554Y009590D01*
X051087Y009590D01*
X051139Y009643D01*
X051153Y009618D01*
X051181Y009590D01*
X051215Y009570D01*
X051253Y009560D01*
X051441Y009560D01*
X051441Y009858D01*
X051538Y009858D01*
X051538Y009560D01*
X051726Y009560D01*
X051735Y009563D01*
X051735Y008499D01*
X051699Y008535D01*
X051589Y008580D01*
X051471Y008580D01*
X051361Y008535D01*
X051277Y008451D01*
X051249Y008383D01*
X051221Y008451D01*
X051137Y008535D01*
X051027Y008580D01*
X050908Y008580D01*
X050799Y008535D01*
X050715Y008451D01*
X050669Y008341D01*
X050669Y008223D01*
X050715Y008113D01*
X050798Y008030D01*
X050798Y007577D01*
X039726Y007577D01*
X039585Y007577D01*
X036585Y004577D01*
X036485Y004477D01*
X036485Y003095D01*
X036389Y003056D01*
X036257Y002923D01*
X036185Y002751D01*
X036185Y002564D01*
X036257Y002391D01*
X036389Y002259D01*
X036562Y002187D01*
X036749Y002187D01*
X036921Y002259D01*
X037054Y002391D01*
X037125Y002564D01*
X037125Y002751D01*
X037054Y002923D01*
X036921Y003056D01*
X036825Y003095D01*
X036825Y004337D01*
X039726Y007237D01*
X040245Y007237D01*
X037585Y004577D01*
X037485Y004477D01*
X037485Y003095D01*
X037389Y003056D01*
X037257Y002923D01*
X037185Y002751D01*
X037185Y002564D01*
X037257Y002391D01*
X037389Y002259D01*
X037562Y002187D01*
X037749Y002187D01*
X037921Y002259D01*
X038054Y002391D01*
X038125Y002564D01*
X038125Y002751D01*
X038054Y002923D01*
X037921Y003056D01*
X037825Y003095D01*
X037825Y004337D01*
X040476Y006987D01*
X045495Y006987D01*
X045335Y006827D01*
X045235Y006727D01*
X045235Y006634D01*
X045143Y006727D01*
X045004Y006785D01*
X044854Y006785D01*
X044715Y006727D01*
X044609Y006621D01*
X044551Y006482D01*
X044551Y006332D01*
X044609Y006193D01*
X044715Y006087D01*
X044854Y006030D01*
X045004Y006030D01*
X045143Y006087D01*
X045235Y006180D01*
X045235Y005977D01*
X044830Y005572D01*
X044745Y005607D01*
X044566Y005607D01*
X044400Y005539D01*
X044274Y005412D01*
X044205Y005247D01*
X044205Y005068D01*
X044274Y004902D01*
X044400Y004776D01*
X044566Y004707D01*
X044745Y004707D01*
X044910Y004776D01*
X045037Y004902D01*
X045105Y005068D01*
X045105Y005247D01*
X045070Y005331D01*
X045575Y005837D01*
X045575Y005977D01*
X045575Y006275D01*
X045609Y006193D01*
X045715Y006087D01*
X045854Y006030D01*
X046004Y006030D01*
X046143Y006087D01*
X046249Y006193D01*
X046306Y006332D01*
X046306Y006482D01*
X046249Y006621D01*
X046143Y006727D01*
X046118Y006737D01*
X046739Y006737D01*
X046715Y006727D01*
X046609Y006621D01*
X046551Y006482D01*
X046551Y006332D01*
X046609Y006193D01*
X046672Y006130D01*
X046185Y006130D01*
X046214Y006130D02*
X045691Y005607D01*
X045566Y005607D01*
X045400Y005539D01*
X045274Y005412D01*
X045205Y005247D01*
X045205Y005068D01*
X045274Y004902D01*
X045400Y004776D01*
X045566Y004707D01*
X045745Y004707D01*
X045910Y004776D01*
X046037Y004902D01*
X046105Y005068D01*
X046105Y005247D01*
X046037Y005412D01*
X046008Y005440D02*
X046302Y005440D01*
X046400Y005539D02*
X046075Y005539D01*
X046174Y005637D02*
X046895Y005637D01*
X046993Y005736D02*
X046272Y005736D01*
X046017Y005933D02*
X045575Y005933D01*
X045575Y006031D02*
X045849Y006031D01*
X046008Y006031D02*
X046116Y006031D01*
X046214Y006130D02*
X046346Y006130D01*
X046672Y006130D01*
X046594Y006228D02*
X046263Y006228D01*
X046304Y006327D02*
X046553Y006327D01*
X046551Y006426D02*
X046306Y006426D01*
X046289Y006524D02*
X046569Y006524D01*
X046610Y006623D02*
X046247Y006623D01*
X046148Y006721D02*
X046709Y006721D01*
X047118Y006737D02*
X051476Y006737D01*
X051575Y006837D01*
X052075Y007337D01*
X052075Y007477D01*
X052075Y009837D01*
X052347Y010109D01*
X052433Y010109D01*
X052433Y010028D01*
X052433Y006661D01*
X051901Y006130D01*
X047185Y006130D01*
X051902Y006130D01*
X052000Y006228D02*
X047263Y006228D01*
X047249Y006193D02*
X047185Y006130D01*
X047249Y006193D02*
X047306Y006332D01*
X047306Y006482D01*
X047249Y006621D01*
X047143Y006727D01*
X047118Y006737D01*
X047148Y006721D02*
X052433Y006721D01*
X052433Y006820D02*
X051558Y006820D01*
X051657Y006918D02*
X052433Y006918D01*
X052433Y007017D02*
X051755Y007017D01*
X051854Y007115D02*
X052433Y007115D01*
X052433Y007214D02*
X051952Y007214D01*
X052051Y007312D02*
X052433Y007312D01*
X052433Y007411D02*
X052075Y007411D01*
X052075Y007509D02*
X052433Y007509D01*
X052433Y007608D02*
X052075Y007608D01*
X052075Y007707D02*
X052433Y007707D01*
X052433Y007805D02*
X052075Y007805D01*
X052075Y007904D02*
X052433Y007904D01*
X052433Y008002D02*
X052075Y008002D01*
X052075Y008101D02*
X052433Y008101D01*
X052433Y008199D02*
X052075Y008199D01*
X052075Y008298D02*
X052433Y008298D01*
X052433Y008396D02*
X052075Y008396D01*
X052075Y008495D02*
X052433Y008495D01*
X052433Y008593D02*
X052075Y008593D01*
X052075Y008692D02*
X052433Y008692D01*
X052433Y008791D02*
X052075Y008791D01*
X052075Y008889D02*
X052433Y008889D01*
X052433Y008988D02*
X052075Y008988D01*
X052075Y009086D02*
X052433Y009086D01*
X052433Y009185D02*
X052075Y009185D01*
X052075Y009283D02*
X052433Y009283D01*
X052433Y009382D02*
X052075Y009382D01*
X052075Y009480D02*
X052433Y009480D01*
X052433Y009579D02*
X052075Y009579D01*
X052075Y009677D02*
X052433Y009677D01*
X052433Y009776D02*
X052075Y009776D01*
X052113Y009875D02*
X052433Y009875D01*
X052433Y009973D02*
X052211Y009973D01*
X052310Y010072D02*
X052433Y010072D01*
X052405Y010407D02*
X051905Y009907D01*
X051905Y007407D01*
X051405Y006907D01*
X045655Y006907D01*
X045405Y006657D01*
X045405Y005907D01*
X044655Y005157D01*
X044244Y005342D02*
X044066Y005342D01*
X044037Y005412D02*
X043910Y005539D01*
X044400Y005539D01*
X044302Y005440D02*
X044008Y005440D01*
X044037Y005412D02*
X044105Y005247D01*
X044105Y005068D01*
X044037Y004902D01*
X043910Y004776D01*
X043745Y004707D01*
X043566Y004707D01*
X043400Y004776D01*
X043274Y004902D01*
X043205Y005068D01*
X043205Y005247D01*
X043274Y005412D01*
X043400Y005539D01*
X043566Y005607D01*
X043745Y005607D01*
X043910Y005539D01*
X044105Y005243D02*
X044205Y005243D01*
X044205Y005144D02*
X044105Y005144D01*
X044096Y005046D02*
X044214Y005046D01*
X044255Y004947D02*
X044055Y004947D01*
X043983Y004849D02*
X044327Y004849D01*
X044461Y004750D02*
X043849Y004750D01*
X043461Y004750D02*
X042849Y004750D01*
X042910Y004776D02*
X043037Y004902D01*
X043105Y005068D01*
X043105Y005247D01*
X043037Y005412D01*
X042910Y005539D01*
X043400Y005539D01*
X043302Y005440D02*
X043008Y005440D01*
X043066Y005342D02*
X043244Y005342D01*
X043205Y005243D02*
X043105Y005243D01*
X043105Y005144D02*
X043205Y005144D01*
X043214Y005046D02*
X043096Y005046D01*
X043055Y004947D02*
X043255Y004947D01*
X043327Y004849D02*
X042983Y004849D01*
X042910Y004776D02*
X042745Y004707D01*
X042566Y004707D01*
X042400Y004776D01*
X042274Y004902D01*
X042205Y005068D01*
X042205Y005247D01*
X042274Y005412D01*
X042400Y005539D01*
X042566Y005607D01*
X042745Y005607D01*
X042910Y005539D01*
X042400Y005539D02*
X041910Y005539D01*
X041745Y005607D01*
X041566Y005607D01*
X041400Y005539D01*
X041274Y005412D01*
X041205Y005247D01*
X041205Y005068D01*
X041274Y004902D01*
X041400Y004776D01*
X041566Y004707D01*
X041745Y004707D01*
X041910Y004776D01*
X042037Y004902D01*
X042105Y005068D01*
X042105Y005247D01*
X042037Y005412D01*
X041910Y005539D01*
X042008Y005440D02*
X042302Y005440D01*
X042244Y005342D02*
X042066Y005342D01*
X042105Y005243D02*
X042205Y005243D01*
X042205Y005144D02*
X042105Y005144D01*
X042096Y005046D02*
X042214Y005046D01*
X042255Y004947D02*
X042055Y004947D01*
X041983Y004849D02*
X042327Y004849D01*
X042461Y004750D02*
X041849Y004750D01*
X041461Y004750D02*
X040912Y004750D01*
X040907Y004747D02*
X040968Y004791D01*
X041021Y004844D01*
X041066Y004906D01*
X041100Y004973D01*
X041123Y005045D01*
X041133Y005109D01*
X040704Y005109D01*
X040704Y005206D01*
X041133Y005206D01*
X041123Y005269D01*
X041100Y005341D01*
X041066Y005409D01*
X041021Y005470D01*
X040968Y005523D01*
X040907Y005568D01*
X040839Y005602D01*
X040768Y005625D01*
X040704Y005635D01*
X040704Y005206D01*
X040607Y005206D01*
X040607Y005635D01*
X040543Y005625D01*
X040471Y005602D01*
X040404Y005568D01*
X040342Y005523D01*
X040289Y005470D01*
X040245Y005409D01*
X040210Y005341D01*
X040187Y005269D01*
X040177Y005206D01*
X040606Y005206D01*
X040606Y005109D01*
X040177Y005109D01*
X040187Y005045D01*
X040210Y004973D01*
X040245Y004906D01*
X040289Y004844D01*
X040342Y004791D01*
X040404Y004747D01*
X040471Y004712D01*
X040543Y004689D01*
X040607Y004679D01*
X040607Y005108D01*
X040704Y005108D01*
X040704Y004679D01*
X040768Y004689D01*
X040839Y004712D01*
X040907Y004747D01*
X041024Y004849D02*
X041327Y004849D01*
X041255Y004947D02*
X041087Y004947D01*
X041123Y005046D02*
X041214Y005046D01*
X041205Y005144D02*
X040704Y005144D01*
X040606Y005144D02*
X040105Y005144D01*
X040105Y005068D02*
X040105Y005247D01*
X040037Y005412D01*
X039910Y005539D01*
X040364Y005539D01*
X040267Y005440D02*
X040008Y005440D01*
X040066Y005342D02*
X040210Y005342D01*
X040183Y005243D02*
X040105Y005243D01*
X040105Y005068D02*
X040037Y004902D01*
X039910Y004776D01*
X039745Y004707D01*
X039566Y004707D01*
X039400Y004776D01*
X039274Y004902D01*
X039205Y005068D01*
X039205Y005247D01*
X039274Y005412D01*
X039400Y005539D01*
X039566Y005607D01*
X039745Y005607D01*
X039910Y005539D01*
X039400Y005539D02*
X039027Y005539D01*
X039126Y005637D02*
X044895Y005637D01*
X044993Y005736D02*
X039224Y005736D01*
X039323Y005834D02*
X045092Y005834D01*
X045190Y005933D02*
X039421Y005933D01*
X039520Y006031D02*
X041596Y006031D01*
X041598Y006030D02*
X042212Y006030D01*
X042283Y006100D01*
X042283Y006714D01*
X042212Y006785D01*
X041598Y006785D01*
X041528Y006714D01*
X041528Y006100D01*
X041598Y006030D01*
X041528Y006130D02*
X039618Y006130D01*
X039717Y006228D02*
X041528Y006228D01*
X041528Y006327D02*
X039815Y006327D01*
X039914Y006426D02*
X041528Y006426D01*
X041528Y006524D02*
X040012Y006524D01*
X040111Y006623D02*
X041528Y006623D01*
X041535Y006721D02*
X040210Y006721D01*
X040308Y006820D02*
X045327Y006820D01*
X045235Y006721D02*
X045148Y006721D01*
X045426Y006918D02*
X040407Y006918D01*
X040405Y007157D02*
X037655Y004407D01*
X037655Y002657D01*
X037218Y002484D02*
X037092Y002484D01*
X037125Y002582D02*
X037185Y002582D01*
X037185Y002681D02*
X037125Y002681D01*
X037113Y002779D02*
X037197Y002779D01*
X037238Y002878D02*
X037072Y002878D01*
X037000Y002976D02*
X037310Y002976D01*
X037436Y003075D02*
X036874Y003075D01*
X036825Y003174D02*
X037485Y003174D01*
X037485Y003272D02*
X036825Y003272D01*
X036825Y003371D02*
X037485Y003371D01*
X037485Y003469D02*
X036825Y003469D01*
X036825Y003568D02*
X037485Y003568D01*
X037485Y003666D02*
X036825Y003666D01*
X036825Y003765D02*
X037485Y003765D01*
X037485Y003863D02*
X036825Y003863D01*
X036825Y003962D02*
X037485Y003962D01*
X037485Y004060D02*
X036825Y004060D01*
X036825Y004159D02*
X037485Y004159D01*
X037485Y004258D02*
X036825Y004258D01*
X036845Y004356D02*
X037485Y004356D01*
X037485Y004455D02*
X036943Y004455D01*
X037042Y004553D02*
X037561Y004553D01*
X037659Y004652D02*
X037140Y004652D01*
X037239Y004750D02*
X037758Y004750D01*
X037856Y004849D02*
X037337Y004849D01*
X037436Y004947D02*
X037955Y004947D01*
X038054Y005046D02*
X037534Y005046D01*
X037633Y005144D02*
X038152Y005144D01*
X038251Y005243D02*
X037731Y005243D01*
X037830Y005342D02*
X038349Y005342D01*
X038448Y005440D02*
X037929Y005440D01*
X038027Y005539D02*
X038546Y005539D01*
X038645Y005637D02*
X038126Y005637D01*
X038224Y005736D02*
X038743Y005736D01*
X038842Y005834D02*
X038323Y005834D01*
X038421Y005933D02*
X038940Y005933D01*
X039039Y006031D02*
X038520Y006031D01*
X038618Y006130D02*
X039138Y006130D01*
X039236Y006228D02*
X038717Y006228D01*
X038815Y006327D02*
X039335Y006327D01*
X039433Y006426D02*
X038914Y006426D01*
X039012Y006524D02*
X039532Y006524D01*
X039630Y006623D02*
X039111Y006623D01*
X039210Y006721D02*
X039729Y006721D01*
X039827Y006820D02*
X039308Y006820D01*
X039407Y006918D02*
X039926Y006918D01*
X040024Y007017D02*
X039505Y007017D01*
X039604Y007115D02*
X040123Y007115D01*
X040222Y007214D02*
X039702Y007214D01*
X039655Y007407D02*
X036655Y004407D01*
X036655Y002657D01*
X036218Y002484D02*
X036092Y002484D01*
X036125Y002564D02*
X036054Y002391D01*
X035921Y002259D01*
X035749Y002187D01*
X035562Y002187D01*
X035389Y002259D01*
X035257Y002391D01*
X035185Y002564D01*
X035185Y002751D01*
X035257Y002923D01*
X035389Y003056D01*
X035562Y003127D01*
X035749Y003127D01*
X035921Y003056D01*
X036054Y002923D01*
X036125Y002751D01*
X036125Y002564D01*
X036125Y002582D02*
X036185Y002582D01*
X036185Y002681D02*
X036125Y002681D01*
X036113Y002779D02*
X036197Y002779D01*
X036238Y002878D02*
X036072Y002878D01*
X036000Y002976D02*
X036310Y002976D01*
X036436Y003075D02*
X035874Y003075D01*
X035436Y003075D02*
X034011Y003075D01*
X034011Y002976D02*
X035310Y002976D01*
X035238Y002878D02*
X024080Y002878D01*
X023982Y002976D02*
X025299Y002976D01*
X025299Y002958D02*
X025369Y002887D01*
X025941Y002887D01*
X026011Y002958D01*
X026011Y003530D01*
X025941Y003600D01*
X025369Y003600D01*
X025299Y003530D01*
X025299Y003414D01*
X024992Y003414D01*
X024992Y003569D01*
X024921Y003639D01*
X024389Y003639D01*
X024319Y003569D01*
X024319Y003076D01*
X024389Y003006D01*
X024921Y003006D01*
X024989Y003074D01*
X025299Y003074D01*
X025299Y002958D01*
X026011Y002976D02*
X027299Y002976D01*
X027299Y002958D02*
X027369Y002887D01*
X027941Y002887D01*
X028011Y002958D01*
X028011Y003530D01*
X027941Y003600D01*
X027369Y003600D01*
X027299Y003530D01*
X027299Y003414D01*
X026992Y003414D01*
X026992Y003569D01*
X026921Y003639D01*
X026389Y003639D01*
X026319Y003569D01*
X026319Y003076D01*
X026389Y003006D01*
X026921Y003006D01*
X026989Y003074D01*
X027299Y003074D01*
X027299Y002958D01*
X028011Y002976D02*
X029299Y002976D01*
X029299Y002958D02*
X029369Y002887D01*
X029941Y002887D01*
X030011Y002958D01*
X030011Y003530D01*
X029941Y003600D01*
X029369Y003600D01*
X029299Y003530D01*
X029299Y003414D01*
X028992Y003414D01*
X028992Y003569D01*
X028921Y003639D01*
X028389Y003639D01*
X028319Y003569D01*
X028319Y003076D01*
X028389Y003006D01*
X028921Y003006D01*
X028989Y003074D01*
X029299Y003074D01*
X029299Y002958D01*
X030011Y002976D02*
X031299Y002976D01*
X031299Y002958D02*
X031369Y002887D01*
X031941Y002887D01*
X032011Y002958D01*
X032011Y003530D01*
X031941Y003600D01*
X031369Y003600D01*
X031299Y003530D01*
X031299Y003414D01*
X030992Y003414D01*
X030992Y003569D01*
X030921Y003639D01*
X030389Y003639D01*
X030319Y003569D01*
X030319Y003076D01*
X030389Y003006D01*
X030921Y003006D01*
X030989Y003074D01*
X031299Y003074D01*
X031299Y002958D01*
X032011Y002976D02*
X033299Y002976D01*
X033299Y002958D02*
X033369Y002887D01*
X033941Y002887D01*
X034011Y002958D01*
X034011Y003530D01*
X033941Y003600D01*
X033369Y003600D01*
X033299Y003530D01*
X033299Y003414D01*
X032992Y003414D01*
X032992Y003569D01*
X032921Y003639D01*
X032389Y003639D01*
X032319Y003569D01*
X032319Y003076D01*
X032389Y003006D01*
X032921Y003006D01*
X032989Y003074D01*
X033299Y003074D01*
X033299Y002958D01*
X032319Y003075D02*
X032011Y003075D01*
X032011Y003174D02*
X032319Y003174D01*
X032319Y003272D02*
X032011Y003272D01*
X032011Y003371D02*
X032319Y003371D01*
X032319Y003469D02*
X032011Y003469D01*
X031973Y003568D02*
X032319Y003568D01*
X032389Y003675D02*
X032921Y003675D01*
X032992Y003745D01*
X032992Y004238D01*
X032921Y004309D01*
X032825Y004309D01*
X032825Y004399D01*
X032851Y004425D01*
X033325Y004425D01*
X033299Y004399D01*
X033279Y004365D01*
X033269Y004326D01*
X033269Y004120D01*
X033605Y004120D01*
X033605Y004021D01*
X033269Y004021D01*
X033269Y003814D01*
X033279Y003776D01*
X033299Y003742D01*
X033327Y003714D01*
X033361Y003694D01*
X033399Y003684D01*
X033605Y003684D01*
X033605Y004020D01*
X033705Y004020D01*
X033705Y003684D01*
X033911Y003684D01*
X033949Y003694D01*
X033983Y003714D01*
X034011Y003742D01*
X034031Y003776D01*
X034041Y003814D01*
X034041Y004021D01*
X033705Y004021D01*
X033705Y004120D01*
X034041Y004120D01*
X034041Y004326D01*
X034031Y004365D01*
X034011Y004399D01*
X033985Y004425D01*
X035772Y004425D01*
X035913Y004425D01*
X039226Y007737D01*
X048960Y007737D01*
X049101Y007737D01*
X049476Y008112D01*
X049575Y008212D01*
X049575Y009655D01*
X049658Y009738D01*
X049704Y009848D01*
X049704Y009966D01*
X049658Y010076D01*
X049574Y010160D01*
X049464Y010205D01*
X049346Y010205D01*
X049236Y010160D01*
X049152Y010076D01*
X049107Y009966D01*
X049107Y009848D01*
X049152Y009738D01*
X049235Y009655D01*
X049235Y008352D01*
X048960Y008077D01*
X039085Y008077D01*
X038985Y007977D01*
X035772Y004765D01*
X033669Y004765D01*
X033704Y004848D01*
X033704Y004966D01*
X033658Y005076D01*
X033574Y005160D01*
X033464Y005205D01*
X033346Y005205D01*
X033236Y005160D01*
X033153Y005077D01*
X030726Y005077D01*
X030585Y005077D01*
X029085Y005077D01*
X028985Y004977D01*
X028485Y004477D01*
X028485Y004337D01*
X028485Y004309D01*
X028389Y004309D01*
X028319Y004238D01*
X028319Y003745D01*
X028389Y003675D01*
X028921Y003675D01*
X028992Y003745D01*
X028992Y004238D01*
X028921Y004309D01*
X028825Y004309D01*
X028825Y004337D01*
X029226Y004737D01*
X030485Y004737D01*
X030485Y004309D01*
X030389Y004309D01*
X030319Y004238D01*
X030319Y003745D01*
X030389Y003675D01*
X030921Y003675D01*
X030992Y003745D01*
X030992Y004238D01*
X030921Y004309D01*
X030825Y004309D01*
X030825Y004737D01*
X032682Y004737D01*
X032610Y004665D01*
X032485Y004540D01*
X032485Y004399D01*
X032485Y004309D01*
X032389Y004309D01*
X032321Y004240D01*
X032011Y004240D01*
X032011Y004356D01*
X032485Y004356D01*
X032485Y004455D02*
X030825Y004455D01*
X030825Y004553D02*
X032498Y004553D01*
X032597Y004652D02*
X030825Y004652D01*
X030825Y004356D02*
X031299Y004356D01*
X031299Y003785D01*
X031369Y003714D01*
X031941Y003714D01*
X032011Y003785D01*
X032011Y003900D01*
X032319Y003900D01*
X032319Y003745D01*
X032389Y003675D01*
X032319Y003765D02*
X031992Y003765D01*
X032011Y003863D02*
X032319Y003863D01*
X032576Y004070D02*
X032655Y003992D01*
X032655Y004470D01*
X032780Y004595D01*
X035843Y004595D01*
X039155Y007907D01*
X049030Y007907D01*
X049405Y008282D01*
X049405Y009907D01*
X049136Y009776D02*
X046264Y009776D01*
X046166Y009677D02*
X049213Y009677D01*
X049235Y009579D02*
X046067Y009579D01*
X045969Y009480D02*
X049235Y009480D01*
X049235Y009382D02*
X045870Y009382D01*
X045772Y009283D02*
X049235Y009283D01*
X049235Y009185D02*
X045673Y009185D01*
X045575Y009086D02*
X049235Y009086D01*
X049235Y008988D02*
X045476Y008988D01*
X045378Y008889D02*
X049235Y008889D01*
X049235Y008791D02*
X045279Y008791D01*
X045155Y008907D02*
X034405Y008907D01*
X032405Y006907D01*
X032128Y007017D02*
X008594Y007017D01*
X008548Y006998D02*
X008810Y007106D01*
X009009Y007306D01*
X009118Y007567D01*
X009118Y007850D01*
X009009Y008111D01*
X008810Y008311D01*
X008548Y008419D01*
X008266Y008419D01*
X008005Y008311D01*
X007805Y008111D01*
X007781Y008054D01*
X007757Y008111D01*
X007558Y008311D01*
X007296Y008419D01*
X007014Y008419D01*
X006753Y008311D01*
X006553Y008111D01*
X006445Y007850D01*
X006445Y007567D01*
X006553Y007306D01*
X006753Y007106D01*
X007014Y006998D01*
X007296Y006998D01*
X007558Y007106D01*
X007757Y007306D01*
X007781Y007363D01*
X007805Y007306D01*
X008005Y007106D01*
X008266Y006998D01*
X008548Y006998D01*
X008819Y007115D02*
X032191Y007115D01*
X032107Y006918D02*
X000805Y006918D01*
X000805Y006820D02*
X032118Y006820D01*
X032169Y006721D02*
X018648Y006721D01*
X018643Y006727D02*
X018504Y006785D01*
X018354Y006785D01*
X018215Y006727D01*
X018109Y006621D01*
X018051Y006482D01*
X018051Y006332D01*
X018109Y006193D01*
X018215Y006087D01*
X018354Y006030D01*
X018504Y006030D01*
X018643Y006087D01*
X018749Y006193D01*
X018806Y006332D01*
X018806Y006482D01*
X018749Y006621D01*
X018643Y006727D01*
X018747Y006623D02*
X032312Y006623D01*
X032498Y006623D02*
X037630Y006623D01*
X037729Y006721D02*
X032641Y006721D01*
X032692Y006820D02*
X037827Y006820D01*
X037926Y006918D02*
X032704Y006918D01*
X032755Y007017D02*
X038024Y007017D01*
X038123Y007115D02*
X032854Y007115D01*
X032952Y007214D02*
X038221Y007214D01*
X038320Y007312D02*
X033051Y007312D01*
X033149Y007411D02*
X038419Y007411D01*
X038517Y007509D02*
X033248Y007509D01*
X033346Y007608D02*
X038616Y007608D01*
X038714Y007707D02*
X033445Y007707D01*
X033544Y007805D02*
X038813Y007805D01*
X038911Y007904D02*
X033642Y007904D01*
X033741Y008002D02*
X039010Y008002D01*
X039195Y007707D02*
X050798Y007707D01*
X050798Y007805D02*
X049169Y007805D01*
X049267Y007904D02*
X050798Y007904D01*
X050798Y008002D02*
X049366Y008002D01*
X049464Y008101D02*
X050727Y008101D01*
X050679Y008199D02*
X049563Y008199D01*
X049575Y008298D02*
X050669Y008298D01*
X050692Y008396D02*
X049575Y008396D01*
X049575Y008495D02*
X050758Y008495D01*
X050968Y008282D02*
X050968Y007470D01*
X050905Y007407D01*
X039655Y007407D01*
X039517Y007509D02*
X038998Y007509D01*
X038899Y007411D02*
X039419Y007411D01*
X039320Y007312D02*
X038801Y007312D01*
X038702Y007214D02*
X039221Y007214D01*
X039123Y007115D02*
X038604Y007115D01*
X038505Y007017D02*
X039024Y007017D01*
X038926Y006918D02*
X038407Y006918D01*
X038308Y006820D02*
X038827Y006820D01*
X038729Y006721D02*
X038210Y006721D01*
X038111Y006623D02*
X038630Y006623D01*
X038532Y006524D02*
X038012Y006524D01*
X037914Y006426D02*
X038433Y006426D01*
X038335Y006327D02*
X037815Y006327D01*
X037717Y006228D02*
X038236Y006228D01*
X038138Y006130D02*
X037618Y006130D01*
X037520Y006031D02*
X038039Y006031D01*
X037940Y005933D02*
X037421Y005933D01*
X037323Y005834D02*
X037842Y005834D01*
X037743Y005736D02*
X037224Y005736D01*
X037126Y005637D02*
X037645Y005637D01*
X037546Y005539D02*
X037027Y005539D01*
X036929Y005440D02*
X037448Y005440D01*
X037349Y005342D02*
X036830Y005342D01*
X036731Y005243D02*
X037251Y005243D01*
X037152Y005144D02*
X036633Y005144D01*
X036534Y005046D02*
X037054Y005046D01*
X036955Y004947D02*
X036436Y004947D01*
X036337Y004849D02*
X036856Y004849D01*
X036758Y004750D02*
X036239Y004750D01*
X036140Y004652D02*
X036659Y004652D01*
X036561Y004553D02*
X036042Y004553D01*
X035943Y004455D02*
X036485Y004455D01*
X036485Y004356D02*
X034033Y004356D01*
X034041Y004258D02*
X036485Y004258D01*
X036485Y004159D02*
X034041Y004159D01*
X034041Y003962D02*
X036485Y003962D01*
X036485Y004060D02*
X033705Y004060D01*
X033705Y003962D02*
X033605Y003962D01*
X033605Y004060D02*
X032992Y004060D01*
X032992Y003962D02*
X033269Y003962D01*
X033269Y003863D02*
X032992Y003863D01*
X032992Y003765D02*
X033286Y003765D01*
X033337Y003568D02*
X032992Y003568D01*
X032992Y003469D02*
X033299Y003469D01*
X033655Y003244D02*
X032734Y003244D01*
X032655Y003322D01*
X031655Y003244D02*
X030734Y003244D01*
X030655Y003322D01*
X030319Y003371D02*
X030011Y003371D01*
X030011Y003469D02*
X030319Y003469D01*
X030319Y003568D02*
X029973Y003568D01*
X029949Y003694D02*
X029983Y003714D01*
X030011Y003742D01*
X030031Y003776D01*
X030041Y003814D01*
X030041Y004021D01*
X029705Y004021D01*
X029705Y004120D01*
X030041Y004120D01*
X030041Y004326D01*
X030031Y004365D01*
X030011Y004399D01*
X029983Y004427D01*
X029949Y004446D01*
X029911Y004457D01*
X029705Y004457D01*
X029705Y004121D01*
X029605Y004121D01*
X029605Y004457D01*
X029399Y004457D01*
X029361Y004446D01*
X029327Y004427D01*
X029299Y004399D01*
X029279Y004365D01*
X029269Y004326D01*
X029269Y004120D01*
X029605Y004120D01*
X029605Y004021D01*
X029269Y004021D01*
X029269Y003814D01*
X029279Y003776D01*
X029299Y003742D01*
X029327Y003714D01*
X029361Y003694D01*
X029399Y003684D01*
X029605Y003684D01*
X029605Y004020D01*
X029705Y004020D01*
X029705Y003684D01*
X029911Y003684D01*
X029949Y003694D01*
X030024Y003765D02*
X030319Y003765D01*
X030319Y003863D02*
X030041Y003863D01*
X030041Y003962D02*
X030319Y003962D01*
X030319Y004060D02*
X029705Y004060D01*
X029705Y003962D02*
X029605Y003962D01*
X029605Y004060D02*
X028992Y004060D01*
X028992Y003962D02*
X029269Y003962D01*
X029269Y003863D02*
X028992Y003863D01*
X028992Y003765D02*
X029286Y003765D01*
X029337Y003568D02*
X028992Y003568D01*
X028992Y003469D02*
X029299Y003469D01*
X029655Y003244D02*
X028734Y003244D01*
X028655Y003322D01*
X028319Y003371D02*
X028011Y003371D01*
X028011Y003469D02*
X028319Y003469D01*
X028319Y003568D02*
X027973Y003568D01*
X027949Y003694D02*
X027983Y003714D01*
X028011Y003742D01*
X028031Y003776D01*
X028041Y003814D01*
X028041Y004021D01*
X027705Y004021D01*
X027705Y004120D01*
X028041Y004120D01*
X028041Y004326D01*
X028031Y004365D01*
X028011Y004399D01*
X027983Y004427D01*
X027949Y004446D01*
X027911Y004457D01*
X027705Y004457D01*
X027705Y004121D01*
X027605Y004121D01*
X027605Y004457D01*
X027399Y004457D01*
X027361Y004446D01*
X027327Y004427D01*
X027299Y004399D01*
X027279Y004365D01*
X027269Y004326D01*
X027269Y004120D01*
X027605Y004120D01*
X027605Y004021D01*
X027269Y004021D01*
X027269Y003814D01*
X027279Y003776D01*
X027299Y003742D01*
X027327Y003714D01*
X027361Y003694D01*
X027399Y003684D01*
X027605Y003684D01*
X027605Y004020D01*
X027705Y004020D01*
X027705Y003684D01*
X027911Y003684D01*
X027949Y003694D01*
X028024Y003765D02*
X028319Y003765D01*
X028319Y003863D02*
X028041Y003863D01*
X028041Y003962D02*
X028319Y003962D01*
X028319Y004060D02*
X027705Y004060D01*
X027705Y003962D02*
X027605Y003962D01*
X027605Y004060D02*
X026992Y004060D01*
X026992Y003962D02*
X027269Y003962D01*
X027269Y003863D02*
X026992Y003863D01*
X026992Y003765D02*
X027286Y003765D01*
X027337Y003568D02*
X026992Y003568D01*
X026992Y003469D02*
X027299Y003469D01*
X026992Y003745D02*
X026992Y004238D01*
X026921Y004309D01*
X026825Y004309D01*
X026825Y004587D01*
X026975Y004737D01*
X027903Y004737D01*
X027986Y004654D01*
X028096Y004609D01*
X028214Y004609D01*
X028324Y004654D01*
X028408Y004738D01*
X028454Y004848D01*
X028454Y004966D01*
X028408Y005076D01*
X028324Y005160D01*
X028214Y005205D01*
X028096Y005205D01*
X027986Y005160D01*
X027903Y005077D01*
X026835Y005077D01*
X026735Y004977D01*
X026585Y004827D01*
X026585Y004827D01*
X026485Y004727D01*
X026485Y004309D01*
X026389Y004309D01*
X026319Y004238D01*
X026319Y003745D01*
X026389Y003675D01*
X026921Y003675D01*
X026992Y003745D01*
X026655Y003992D02*
X026655Y004657D01*
X026905Y004907D01*
X028155Y004907D01*
X028421Y005046D02*
X029054Y005046D01*
X028955Y004947D02*
X028454Y004947D01*
X028454Y004849D02*
X028856Y004849D01*
X028758Y004750D02*
X028413Y004750D01*
X028318Y004652D02*
X028659Y004652D01*
X028561Y004553D02*
X026825Y004553D01*
X026825Y004455D02*
X027392Y004455D01*
X027277Y004356D02*
X026825Y004356D01*
X026972Y004258D02*
X027269Y004258D01*
X027269Y004159D02*
X026992Y004159D01*
X026485Y004356D02*
X026033Y004356D01*
X026031Y004365D02*
X026011Y004399D01*
X025983Y004427D01*
X025949Y004446D01*
X025911Y004457D01*
X025705Y004457D01*
X025705Y004121D01*
X025605Y004121D01*
X025605Y004457D01*
X025399Y004457D01*
X025361Y004446D01*
X025327Y004427D01*
X025299Y004399D01*
X025279Y004365D01*
X025269Y004326D01*
X025269Y004120D01*
X025605Y004120D01*
X025605Y004021D01*
X025269Y004021D01*
X025269Y003814D01*
X025279Y003776D01*
X025299Y003742D01*
X025327Y003714D01*
X025361Y003694D01*
X025399Y003684D01*
X025605Y003684D01*
X025605Y004020D01*
X025705Y004020D01*
X025705Y003684D01*
X025911Y003684D01*
X025949Y003694D01*
X025983Y003714D01*
X026011Y003742D01*
X026031Y003776D01*
X026041Y003814D01*
X026041Y004021D01*
X025705Y004021D01*
X025705Y004120D01*
X026041Y004120D01*
X026041Y004326D01*
X026031Y004365D01*
X026041Y004258D02*
X026338Y004258D01*
X026319Y004159D02*
X026041Y004159D01*
X026041Y003962D02*
X026319Y003962D01*
X026319Y004060D02*
X025705Y004060D01*
X025705Y003962D02*
X025605Y003962D01*
X025605Y004060D02*
X024992Y004060D01*
X024992Y003962D02*
X025269Y003962D01*
X025269Y003863D02*
X024992Y003863D01*
X024992Y003765D02*
X025286Y003765D01*
X025337Y003568D02*
X024992Y003568D01*
X024992Y003469D02*
X025299Y003469D01*
X024992Y003745D02*
X024992Y004238D01*
X024921Y004309D01*
X024389Y004309D01*
X024319Y004238D01*
X024319Y004162D01*
X023935Y004162D01*
X023935Y005142D01*
X023982Y005189D01*
X024041Y005330D01*
X024041Y005484D01*
X023982Y005626D01*
X023874Y005734D01*
X023732Y005793D01*
X023578Y005793D01*
X023437Y005734D01*
X023328Y005626D01*
X023269Y005484D01*
X023269Y005330D01*
X023328Y005189D01*
X023375Y005142D01*
X023375Y003414D01*
X023375Y003187D01*
X022114Y003187D01*
X022037Y003372D01*
X021807Y003602D01*
X021505Y003727D01*
X021179Y003727D01*
X020878Y003602D01*
X020647Y003372D01*
X020571Y003187D01*
X019814Y003187D01*
X019737Y003372D01*
X019507Y003602D01*
X019205Y003727D01*
X018879Y003727D01*
X018578Y003602D01*
X018347Y003372D01*
X018222Y003070D01*
X018222Y002744D01*
X018347Y002443D01*
X018578Y002212D01*
X018879Y002087D01*
X019205Y002087D01*
X019507Y002212D01*
X019737Y002443D01*
X019814Y002627D01*
X020571Y002627D01*
X020647Y002443D01*
X020878Y002212D01*
X021179Y002087D01*
X021505Y002087D01*
X021807Y002212D01*
X022037Y002443D01*
X022114Y002627D01*
X023539Y002627D01*
X024246Y001920D01*
X024349Y001877D01*
X024461Y001877D01*
X029364Y001877D01*
X029408Y001859D01*
X029526Y001859D01*
X029897Y001487D01*
X030038Y001487D01*
X041226Y001487D01*
X041325Y001587D01*
X041825Y002087D01*
X041825Y002227D01*
X041825Y003087D01*
X042226Y003487D01*
X047726Y003487D01*
X047825Y003587D01*
X048976Y004737D01*
X053585Y004737D01*
X053985Y004337D01*
X053985Y002409D01*
X053902Y002326D01*
X053857Y002216D01*
X053857Y002098D01*
X053902Y001988D01*
X053986Y001904D01*
X054096Y001859D01*
X054214Y001859D01*
X054324Y001904D01*
X054408Y001988D01*
X054454Y002098D01*
X054454Y002216D01*
X054408Y002326D01*
X054325Y002409D01*
X054325Y004337D01*
X054325Y004477D01*
X053825Y004977D01*
X053726Y005077D01*
X048976Y005077D01*
X048835Y005077D01*
X047585Y003827D01*
X042226Y003827D01*
X042085Y003827D01*
X041585Y003327D01*
X041485Y003227D01*
X041485Y002227D01*
X041085Y001827D01*
X030038Y001827D01*
X029766Y002099D01*
X029766Y002216D01*
X029721Y002326D01*
X029637Y002410D01*
X029527Y002455D01*
X029408Y002455D01*
X029364Y002437D01*
X024521Y002437D01*
X023935Y003023D01*
X023935Y003414D01*
X023935Y003822D01*
X024319Y003822D01*
X024319Y003745D01*
X024389Y003675D01*
X024921Y003675D01*
X024992Y003745D01*
X024655Y003992D02*
X023791Y003992D01*
X023706Y003907D01*
X023706Y003521D01*
X023655Y003470D01*
X023375Y003469D02*
X021940Y003469D01*
X022038Y003371D02*
X023375Y003371D01*
X023375Y003272D02*
X022078Y003272D01*
X021841Y003568D02*
X023375Y003568D01*
X023375Y003666D02*
X021652Y003666D01*
X021032Y003666D02*
X019352Y003666D01*
X019541Y003568D02*
X020843Y003568D01*
X020745Y003469D02*
X019640Y003469D01*
X019738Y003371D02*
X020647Y003371D01*
X020606Y003272D02*
X019778Y003272D01*
X018732Y003666D02*
X016078Y003666D01*
X015931Y003727D02*
X015605Y003727D01*
X015304Y003602D01*
X015073Y003372D01*
X014948Y003070D01*
X014948Y002744D01*
X015073Y002443D01*
X015304Y002212D01*
X015605Y002087D01*
X015931Y002087D01*
X016233Y002212D01*
X016463Y002443D01*
X016588Y002744D01*
X016588Y003070D01*
X016463Y003372D01*
X016233Y003602D01*
X015931Y003727D01*
X016267Y003568D02*
X018543Y003568D01*
X018445Y003469D02*
X016366Y003469D01*
X016464Y003371D02*
X018347Y003371D01*
X018306Y003272D02*
X016504Y003272D01*
X016545Y003174D02*
X018265Y003174D01*
X018224Y003075D02*
X016586Y003075D01*
X016588Y002976D02*
X018222Y002976D01*
X018222Y002878D02*
X016588Y002878D01*
X016588Y002779D02*
X018222Y002779D01*
X018248Y002681D02*
X016562Y002681D01*
X016521Y002582D02*
X018289Y002582D01*
X018330Y002484D02*
X016480Y002484D01*
X016406Y002385D02*
X018404Y002385D01*
X018503Y002287D02*
X016307Y002287D01*
X016175Y002188D02*
X018635Y002188D01*
X018873Y002090D02*
X015937Y002090D01*
X015599Y002090D02*
X013637Y002090D01*
X013631Y002087D02*
X013933Y002212D01*
X014163Y002443D01*
X014288Y002744D01*
X014288Y003070D01*
X014163Y003372D01*
X013933Y003602D01*
X013631Y003727D01*
X013305Y003727D01*
X013004Y003602D01*
X012773Y003372D01*
X012648Y003070D01*
X012648Y002744D01*
X012773Y002443D01*
X013004Y002212D01*
X013305Y002087D01*
X013631Y002087D01*
X013875Y002188D02*
X015361Y002188D01*
X015229Y002287D02*
X014007Y002287D01*
X014106Y002385D02*
X015130Y002385D01*
X015056Y002484D02*
X014180Y002484D01*
X014221Y002582D02*
X015015Y002582D01*
X014974Y002681D02*
X014262Y002681D01*
X014288Y002779D02*
X014948Y002779D01*
X014948Y002878D02*
X014288Y002878D01*
X014288Y002976D02*
X014948Y002976D01*
X014950Y003075D02*
X014286Y003075D01*
X014245Y003174D02*
X014991Y003174D01*
X015032Y003272D02*
X014204Y003272D01*
X014164Y003371D02*
X015073Y003371D01*
X015171Y003469D02*
X014066Y003469D01*
X013967Y003568D02*
X015269Y003568D01*
X015458Y003666D02*
X013778Y003666D01*
X013158Y003666D02*
X012100Y003666D01*
X012148Y003568D02*
X012969Y003568D01*
X012871Y003469D02*
X012195Y003469D01*
X012232Y003393D02*
X012018Y003836D01*
X012018Y003837D01*
X011684Y004197D01*
X011684Y004197D01*
X011258Y004443D01*
X011258Y004443D01*
X010778Y004552D01*
X010288Y004516D01*
X009830Y004336D01*
X009446Y004029D01*
X009169Y003623D01*
X009024Y003153D01*
X009024Y002661D01*
X009169Y002191D01*
X009446Y001785D01*
X009446Y001785D01*
X009830Y001478D01*
X009830Y001478D01*
X010288Y001298D01*
X010778Y001262D01*
X010778Y001262D01*
X011258Y001371D01*
X011684Y001617D01*
X012018Y001978D01*
X012232Y002421D01*
X012305Y002907D01*
X012232Y003393D01*
X012232Y003393D01*
X012235Y003371D02*
X012773Y003371D01*
X012732Y003272D02*
X012250Y003272D01*
X012265Y003174D02*
X012691Y003174D01*
X012650Y003075D02*
X012280Y003075D01*
X012295Y002976D02*
X012648Y002976D01*
X012648Y002878D02*
X012301Y002878D01*
X012286Y002779D02*
X012648Y002779D01*
X012674Y002681D02*
X012271Y002681D01*
X012256Y002582D02*
X012715Y002582D01*
X012756Y002484D02*
X012241Y002484D01*
X012232Y002421D02*
X012232Y002421D01*
X012215Y002385D02*
X012830Y002385D01*
X012929Y002287D02*
X012167Y002287D01*
X012120Y002188D02*
X013061Y002188D01*
X013299Y002090D02*
X012072Y002090D01*
X012025Y001991D02*
X024175Y001991D01*
X024077Y002090D02*
X021511Y002090D01*
X021749Y002188D02*
X023978Y002188D01*
X023880Y002287D02*
X021881Y002287D01*
X021980Y002385D02*
X023781Y002385D01*
X023682Y002484D02*
X022054Y002484D01*
X022095Y002582D02*
X023584Y002582D01*
X024179Y002779D02*
X035197Y002779D01*
X035185Y002681D02*
X024277Y002681D01*
X024376Y002582D02*
X035185Y002582D01*
X035218Y002484D02*
X024474Y002484D01*
X024319Y003075D02*
X023935Y003075D01*
X023935Y003174D02*
X024319Y003174D01*
X024319Y003272D02*
X023935Y003272D01*
X023935Y003371D02*
X024319Y003371D01*
X024319Y003469D02*
X023935Y003469D01*
X023935Y003568D02*
X024319Y003568D01*
X024319Y003765D02*
X023935Y003765D01*
X023935Y003666D02*
X036485Y003666D01*
X036485Y003568D02*
X033973Y003568D01*
X034011Y003469D02*
X036485Y003469D01*
X036485Y003371D02*
X034011Y003371D01*
X034011Y003272D02*
X036485Y003272D01*
X036485Y003174D02*
X034011Y003174D01*
X034024Y003765D02*
X036485Y003765D01*
X036485Y003863D02*
X034041Y003863D01*
X033705Y003863D02*
X033605Y003863D01*
X033605Y003765D02*
X033705Y003765D01*
X033269Y004159D02*
X032992Y004159D01*
X032972Y004258D02*
X033269Y004258D01*
X033277Y004356D02*
X032825Y004356D01*
X032576Y004070D02*
X031655Y004070D01*
X031299Y004060D02*
X030992Y004060D01*
X030992Y003962D02*
X031299Y003962D01*
X031299Y003863D02*
X030992Y003863D01*
X030992Y003765D02*
X031319Y003765D01*
X031337Y003568D02*
X030992Y003568D01*
X030992Y003469D02*
X031299Y003469D01*
X030319Y003272D02*
X030011Y003272D01*
X030011Y003174D02*
X030319Y003174D01*
X030319Y003075D02*
X030011Y003075D01*
X029705Y003765D02*
X029605Y003765D01*
X029605Y003863D02*
X029705Y003863D01*
X029705Y004159D02*
X029605Y004159D01*
X029605Y004258D02*
X029705Y004258D01*
X029705Y004356D02*
X029605Y004356D01*
X029605Y004455D02*
X029705Y004455D01*
X029919Y004455D02*
X030485Y004455D01*
X030485Y004553D02*
X029042Y004553D01*
X029140Y004652D02*
X030485Y004652D01*
X030485Y004356D02*
X030033Y004356D01*
X030041Y004258D02*
X030338Y004258D01*
X030319Y004159D02*
X030041Y004159D01*
X030655Y003992D02*
X030655Y004907D01*
X033405Y004907D01*
X033671Y005046D02*
X036054Y005046D01*
X036152Y005144D02*
X033590Y005144D01*
X033704Y004947D02*
X035955Y004947D01*
X035856Y004849D02*
X033704Y004849D01*
X033220Y005144D02*
X028340Y005144D01*
X027970Y005144D02*
X023938Y005144D01*
X023935Y005046D02*
X026804Y005046D01*
X026735Y004977D02*
X026735Y004977D01*
X026705Y004947D02*
X023935Y004947D01*
X023935Y004849D02*
X026606Y004849D01*
X026508Y004750D02*
X023935Y004750D01*
X023935Y004652D02*
X026485Y004652D01*
X026485Y004553D02*
X023935Y004553D01*
X023935Y004455D02*
X025392Y004455D01*
X025277Y004356D02*
X023935Y004356D01*
X023935Y004258D02*
X024338Y004258D01*
X024972Y004258D02*
X025269Y004258D01*
X025269Y004159D02*
X024992Y004159D01*
X025605Y004159D02*
X025705Y004159D01*
X025705Y004258D02*
X025605Y004258D01*
X025605Y004356D02*
X025705Y004356D01*
X025705Y004455D02*
X025605Y004455D01*
X025919Y004455D02*
X026485Y004455D01*
X026890Y004652D02*
X027992Y004652D01*
X027919Y004455D02*
X028485Y004455D01*
X028485Y004356D02*
X028033Y004356D01*
X028041Y004258D02*
X028338Y004258D01*
X028319Y004159D02*
X028041Y004159D01*
X027705Y004159D02*
X027605Y004159D01*
X027605Y004258D02*
X027705Y004258D01*
X027705Y004356D02*
X027605Y004356D01*
X027605Y004455D02*
X027705Y004455D01*
X027705Y003863D02*
X027605Y003863D01*
X027605Y003765D02*
X027705Y003765D01*
X027655Y003244D02*
X026734Y003244D01*
X026655Y003322D01*
X026319Y003371D02*
X026011Y003371D01*
X026011Y003469D02*
X026319Y003469D01*
X026319Y003568D02*
X025973Y003568D01*
X026024Y003765D02*
X026319Y003765D01*
X026319Y003863D02*
X026041Y003863D01*
X025705Y003863D02*
X025605Y003863D01*
X025605Y003765D02*
X025705Y003765D01*
X025655Y003244D02*
X024734Y003244D01*
X024655Y003322D01*
X023375Y003765D02*
X012053Y003765D01*
X011994Y003863D02*
X023375Y003863D01*
X023375Y003962D02*
X011902Y003962D01*
X011811Y004060D02*
X023375Y004060D01*
X023375Y004159D02*
X011719Y004159D01*
X011579Y004258D02*
X023375Y004258D01*
X023375Y004356D02*
X011408Y004356D01*
X011207Y004455D02*
X023375Y004455D01*
X023375Y004553D02*
X009091Y004553D01*
X009118Y004618D02*
X009118Y004901D01*
X009009Y005162D01*
X008810Y005362D01*
X008548Y005470D01*
X008266Y005470D01*
X008005Y005362D01*
X007805Y005162D01*
X007781Y005105D01*
X007757Y005162D01*
X007558Y005362D01*
X007296Y005470D01*
X007014Y005470D01*
X006753Y005362D01*
X006553Y005162D01*
X006445Y004901D01*
X006445Y004618D01*
X006553Y004357D01*
X006753Y004157D01*
X007014Y004049D01*
X007296Y004049D01*
X007558Y004157D01*
X007757Y004357D01*
X007781Y004414D01*
X007805Y004357D01*
X008005Y004157D01*
X008266Y004049D01*
X008548Y004049D01*
X008810Y004157D01*
X009009Y004357D01*
X009118Y004618D01*
X009118Y004652D02*
X023375Y004652D01*
X023375Y004750D02*
X009118Y004750D01*
X009118Y004849D02*
X023375Y004849D01*
X023375Y004947D02*
X009098Y004947D01*
X009058Y005046D02*
X023375Y005046D01*
X023372Y005144D02*
X009017Y005144D01*
X008928Y005243D02*
X023306Y005243D01*
X023269Y005342D02*
X008830Y005342D01*
X008621Y005440D02*
X023269Y005440D01*
X023292Y005539D02*
X000805Y005539D01*
X000805Y005637D02*
X023340Y005637D01*
X023441Y005736D02*
X000805Y005736D01*
X000805Y005834D02*
X036842Y005834D01*
X036743Y005736D02*
X023870Y005736D01*
X023971Y005637D02*
X036645Y005637D01*
X036546Y005539D02*
X024018Y005539D01*
X024041Y005440D02*
X036448Y005440D01*
X036349Y005342D02*
X024041Y005342D01*
X024005Y005243D02*
X036251Y005243D01*
X036940Y005933D02*
X000805Y005933D01*
X000805Y006031D02*
X013096Y006031D01*
X013098Y006030D02*
X013712Y006030D01*
X013783Y006100D01*
X013783Y006714D01*
X013712Y006785D01*
X013098Y006785D01*
X013028Y006714D01*
X013028Y006100D01*
X013098Y006030D01*
X013028Y006130D02*
X000805Y006130D01*
X000805Y006228D02*
X013028Y006228D01*
X013028Y006327D02*
X000805Y006327D01*
X000805Y006426D02*
X013028Y006426D01*
X013028Y006524D02*
X000805Y006524D01*
X000805Y006623D02*
X013028Y006623D01*
X013035Y006721D02*
X000805Y006721D01*
X000805Y007017D02*
X006968Y007017D01*
X006743Y007115D02*
X000805Y007115D01*
X000805Y007214D02*
X006645Y007214D01*
X006550Y007312D02*
X000805Y007312D01*
X000805Y007411D02*
X006509Y007411D01*
X006468Y007509D02*
X000805Y007509D01*
X000805Y007608D02*
X006445Y007608D01*
X006445Y007707D02*
X000805Y007707D01*
X000805Y007805D02*
X006445Y007805D01*
X006467Y007904D02*
X000805Y007904D01*
X000805Y008002D02*
X006508Y008002D01*
X006549Y008101D02*
X000805Y008101D01*
X000805Y008199D02*
X006641Y008199D01*
X006740Y008298D02*
X000805Y008298D01*
X000805Y008396D02*
X006960Y008396D01*
X007351Y008396D02*
X008212Y008396D01*
X007992Y008298D02*
X007570Y008298D01*
X007669Y008199D02*
X007893Y008199D01*
X007801Y008101D02*
X007762Y008101D01*
X008603Y008396D02*
X033654Y008396D01*
X033555Y008298D02*
X008822Y008298D01*
X008921Y008199D02*
X033457Y008199D01*
X033358Y008101D02*
X009014Y008101D01*
X009054Y008002D02*
X033260Y008002D01*
X033161Y007904D02*
X009095Y007904D01*
X009118Y007805D02*
X033063Y007805D01*
X032964Y007707D02*
X009118Y007707D01*
X009118Y007608D02*
X032866Y007608D01*
X032767Y007509D02*
X009094Y007509D01*
X009053Y007411D02*
X032669Y007411D01*
X032570Y007312D02*
X009012Y007312D01*
X008918Y007214D02*
X032471Y007214D01*
X033839Y008101D02*
X048983Y008101D01*
X049082Y008199D02*
X033938Y008199D01*
X034036Y008298D02*
X049180Y008298D01*
X049235Y008396D02*
X034135Y008396D01*
X034233Y008495D02*
X049235Y008495D01*
X049235Y008593D02*
X034332Y008593D01*
X034430Y008692D02*
X049235Y008692D01*
X049575Y008692D02*
X051735Y008692D01*
X051735Y008593D02*
X049575Y008593D01*
X049575Y008791D02*
X051735Y008791D01*
X051735Y008889D02*
X049575Y008889D01*
X049575Y008988D02*
X051735Y008988D01*
X051735Y009086D02*
X049575Y009086D01*
X049575Y009185D02*
X051735Y009185D01*
X051735Y009283D02*
X049575Y009283D01*
X049575Y009382D02*
X051735Y009382D01*
X051735Y009480D02*
X049575Y009480D01*
X049575Y009579D02*
X051201Y009579D01*
X051441Y009579D02*
X051538Y009579D01*
X051538Y009677D02*
X051441Y009677D01*
X051441Y009776D02*
X051538Y009776D01*
X051538Y009973D02*
X051441Y009973D01*
X051441Y010072D02*
X051538Y010072D01*
X051538Y010170D02*
X051441Y010170D01*
X051841Y010170D02*
X051928Y010170D01*
X052026Y010269D02*
X050990Y010269D01*
X050990Y010367D02*
X052107Y010367D01*
X053090Y010170D02*
X058735Y010170D01*
X058735Y010072D02*
X053160Y010072D01*
X053201Y009973D02*
X055424Y009973D01*
X055430Y009979D02*
X055323Y009872D01*
X055265Y009733D01*
X055265Y009581D01*
X055323Y009442D01*
X055430Y009335D01*
X055569Y009277D01*
X056241Y009277D01*
X056380Y009335D01*
X056487Y009442D01*
X056506Y009487D01*
X056585Y009487D01*
X056814Y009258D01*
X056814Y009175D01*
X056718Y009175D01*
X056647Y009104D01*
X056647Y008710D01*
X056700Y008657D01*
X056673Y008630D01*
X056575Y008727D01*
X056528Y008775D01*
X056487Y008872D01*
X056380Y008979D01*
X056241Y009037D01*
X055569Y009037D01*
X055430Y008979D01*
X055323Y008872D01*
X055265Y008733D01*
X055265Y008581D01*
X055323Y008442D01*
X055430Y008335D01*
X055569Y008277D01*
X056241Y008277D01*
X056380Y008335D01*
X056434Y008388D01*
X056585Y008237D01*
X056647Y008237D01*
X056647Y008210D01*
X056700Y008157D01*
X056647Y008104D01*
X056647Y008077D01*
X056585Y008077D01*
X056434Y007926D01*
X056380Y007979D01*
X056241Y008037D01*
X055569Y008037D01*
X055430Y007979D01*
X055323Y007872D01*
X055265Y007733D01*
X055265Y007581D01*
X055323Y007442D01*
X055430Y007335D01*
X055569Y007277D01*
X056241Y007277D01*
X056380Y007335D01*
X056487Y007442D01*
X056528Y007539D01*
X056575Y007587D01*
X056673Y007684D01*
X056700Y007657D01*
X056647Y007604D01*
X056647Y007210D01*
X056718Y007139D01*
X056814Y007139D01*
X056814Y007056D01*
X056585Y006827D01*
X056506Y006827D01*
X056487Y006872D01*
X056380Y006979D01*
X056241Y007037D01*
X055569Y007037D01*
X055430Y006979D01*
X055323Y006872D01*
X055265Y006733D01*
X055265Y006581D01*
X055323Y006442D01*
X055430Y006335D01*
X055569Y006277D01*
X056241Y006277D01*
X056380Y006335D01*
X056487Y006442D01*
X056506Y006487D01*
X056726Y006487D01*
X056825Y006587D01*
X057154Y006915D01*
X057154Y007056D01*
X057154Y007139D01*
X057250Y007139D01*
X057320Y007210D01*
X057320Y007604D01*
X057268Y007657D01*
X057320Y007710D01*
X057320Y008104D01*
X057268Y008157D01*
X057320Y008210D01*
X057320Y008604D01*
X057268Y008657D01*
X057320Y008710D01*
X057320Y009104D01*
X057250Y009175D01*
X057154Y009175D01*
X057154Y009258D01*
X057154Y009399D01*
X056825Y009727D01*
X056726Y009827D01*
X056506Y009827D01*
X056487Y009872D01*
X056380Y009979D01*
X056241Y010037D01*
X055569Y010037D01*
X055430Y009979D01*
X055325Y009875D02*
X053204Y009875D01*
X053174Y009776D02*
X055283Y009776D01*
X055265Y009677D02*
X053097Y009677D01*
X053075Y009579D02*
X055266Y009579D01*
X055307Y009480D02*
X053075Y009480D01*
X053075Y009382D02*
X053708Y009382D01*
X053634Y009283D02*
X053075Y009283D01*
X053075Y009185D02*
X053607Y009185D01*
X053611Y009086D02*
X053075Y009086D01*
X053075Y008988D02*
X053653Y008988D01*
X053735Y008889D02*
X053075Y008889D01*
X053075Y008791D02*
X053735Y008791D01*
X053735Y008692D02*
X053075Y008692D01*
X053075Y008593D02*
X053735Y008593D01*
X053735Y008495D02*
X053075Y008495D01*
X053075Y008396D02*
X053735Y008396D01*
X053735Y008298D02*
X053075Y008298D01*
X053075Y008199D02*
X053735Y008199D01*
X053735Y008101D02*
X053075Y008101D01*
X053075Y008002D02*
X053735Y008002D01*
X053735Y007904D02*
X053075Y007904D01*
X053075Y007805D02*
X053735Y007805D01*
X053735Y007707D02*
X053075Y007707D01*
X053075Y007608D02*
X053735Y007608D01*
X053735Y007509D02*
X053075Y007509D01*
X053075Y007411D02*
X053735Y007411D01*
X053735Y007312D02*
X053075Y007312D01*
X053075Y007214D02*
X053735Y007214D01*
X053735Y007115D02*
X053075Y007115D01*
X053075Y007017D02*
X053735Y007017D01*
X053735Y006918D02*
X053075Y006918D01*
X053075Y006820D02*
X053735Y006820D01*
X053735Y006721D02*
X053075Y006721D01*
X053075Y006623D02*
X053735Y006623D01*
X053735Y006524D02*
X053075Y006524D01*
X053075Y006426D02*
X053683Y006426D01*
X053585Y006327D02*
X053157Y006327D01*
X053199Y006228D02*
X053486Y006228D01*
X053388Y006130D02*
X053204Y006130D01*
X053176Y006031D02*
X053289Y006031D01*
X053190Y005933D02*
X053103Y005933D01*
X053092Y005834D02*
X052059Y005834D01*
X052157Y005933D02*
X052707Y005933D01*
X052634Y006031D02*
X052256Y006031D01*
X052354Y006130D02*
X052607Y006130D01*
X052612Y006228D02*
X052453Y006228D01*
X052551Y006327D02*
X052653Y006327D01*
X052650Y006426D02*
X052735Y006426D01*
X052394Y006623D02*
X047247Y006623D01*
X047289Y006524D02*
X052296Y006524D01*
X052197Y006426D02*
X047306Y006426D01*
X047304Y006327D02*
X052099Y006327D01*
X052905Y006157D02*
X052905Y009907D01*
X053171Y010269D02*
X058735Y010269D01*
X058735Y010367D02*
X053204Y010367D01*
X053204Y010466D02*
X053158Y010576D01*
X053067Y010663D02*
X058735Y010663D01*
X058735Y010761D02*
X052668Y010761D01*
X052704Y010860D02*
X058735Y010860D01*
X058735Y010959D02*
X052704Y010959D01*
X052795Y011057D02*
X058735Y011057D01*
X058735Y011156D02*
X052888Y011156D01*
X052888Y011254D02*
X058735Y011254D01*
X058412Y011353D02*
X056398Y011353D01*
X056380Y011335D02*
X056487Y011442D01*
X056506Y011487D01*
X056726Y011487D01*
X056825Y011587D01*
X057154Y011915D01*
X057154Y012056D01*
X057154Y012139D01*
X057250Y012139D01*
X057320Y012210D01*
X057320Y012604D01*
X057268Y012657D01*
X057320Y012710D01*
X057320Y013104D01*
X057268Y013157D01*
X057320Y013210D01*
X057320Y013604D01*
X057268Y013657D01*
X057320Y013710D01*
X057320Y014104D01*
X057250Y014175D01*
X057154Y014175D01*
X057154Y014258D01*
X057154Y014399D01*
X056825Y014727D01*
X056726Y014827D01*
X056506Y014827D01*
X056487Y014872D01*
X056380Y014979D01*
X056241Y015037D01*
X055569Y015037D01*
X055430Y014979D01*
X055323Y014872D01*
X055265Y014733D01*
X055265Y014581D01*
X055323Y014442D01*
X055430Y014335D01*
X055569Y014277D01*
X056241Y014277D01*
X056380Y014335D01*
X056487Y014442D01*
X056506Y014487D01*
X056585Y014487D01*
X056814Y014258D01*
X056814Y014175D01*
X056718Y014175D01*
X056647Y014104D01*
X056647Y013710D01*
X056700Y013657D01*
X056673Y013630D01*
X056575Y013727D01*
X056528Y013775D01*
X056487Y013872D01*
X056380Y013979D01*
X056241Y014037D01*
X055569Y014037D01*
X055430Y013979D01*
X055323Y013872D01*
X055265Y013733D01*
X055265Y013581D01*
X055323Y013442D01*
X055430Y013335D01*
X055569Y013277D01*
X056241Y013277D01*
X056380Y013335D01*
X056434Y013388D01*
X056585Y013237D01*
X056647Y013237D01*
X056647Y013210D01*
X056700Y013157D01*
X056647Y013104D01*
X056647Y013077D01*
X056585Y013077D01*
X056434Y012926D01*
X056380Y012979D01*
X056241Y013037D01*
X055569Y013037D01*
X055430Y012979D01*
X055323Y012872D01*
X055265Y012733D01*
X055265Y012581D01*
X055323Y012442D01*
X055430Y012335D01*
X055569Y012277D01*
X056241Y012277D01*
X056380Y012335D01*
X056487Y012442D01*
X056528Y012539D01*
X056575Y012587D01*
X056673Y012684D01*
X056700Y012657D01*
X056647Y012604D01*
X056647Y012210D01*
X056718Y012139D01*
X056814Y012139D01*
X056814Y012056D01*
X056585Y011827D01*
X056506Y011827D01*
X056487Y011872D01*
X056380Y011979D01*
X056241Y012037D01*
X055569Y012037D01*
X055430Y011979D01*
X055323Y011872D01*
X055265Y011733D01*
X055265Y011581D01*
X055323Y011442D01*
X055430Y011335D01*
X055569Y011277D01*
X056241Y011277D01*
X056380Y011335D01*
X056491Y011451D02*
X058319Y011451D01*
X058278Y011550D02*
X056788Y011550D01*
X056887Y011648D02*
X058265Y011648D01*
X058271Y011747D02*
X056985Y011747D01*
X057084Y011845D02*
X058312Y011845D01*
X058395Y011944D02*
X057154Y011944D01*
X057154Y012042D02*
X058735Y012042D01*
X058735Y012141D02*
X058137Y012141D01*
X058135Y012139D02*
X058163Y012167D01*
X058183Y012202D01*
X058193Y012240D01*
X058193Y012383D01*
X057850Y012383D01*
X057850Y012109D01*
X058063Y012109D01*
X058101Y012120D01*
X058135Y012139D01*
X058193Y012240D02*
X058735Y012240D01*
X058427Y012338D02*
X058193Y012338D01*
X058193Y012431D02*
X057850Y012431D01*
X057802Y012431D01*
X057802Y012383D01*
X057460Y012383D01*
X057460Y012240D01*
X057470Y012202D01*
X057490Y012167D01*
X057518Y012139D01*
X057552Y012120D01*
X057590Y012109D01*
X057802Y012109D01*
X057802Y012383D01*
X057850Y012383D01*
X057850Y012431D01*
X057850Y012609D01*
X057850Y012883D01*
X057802Y012883D01*
X057460Y012883D01*
X057460Y012740D01*
X057470Y012702D01*
X057490Y012667D01*
X057500Y012657D01*
X057490Y012647D01*
X057470Y012613D01*
X057460Y012574D01*
X057460Y012431D01*
X057802Y012431D01*
X057802Y012609D01*
X057802Y012883D01*
X057802Y012931D01*
X057460Y012931D01*
X057460Y013074D01*
X057470Y013113D01*
X057490Y013147D01*
X057500Y013157D01*
X057490Y013167D01*
X057470Y013202D01*
X057460Y013240D01*
X057460Y013383D01*
X057802Y013383D01*
X057802Y013431D01*
X057460Y013431D01*
X057460Y013574D01*
X057470Y013613D01*
X057490Y013647D01*
X057500Y013657D01*
X057490Y013667D01*
X057470Y013702D01*
X057460Y013740D01*
X057460Y013883D01*
X057802Y013883D01*
X057802Y013931D01*
X057460Y013931D01*
X057460Y014074D01*
X057470Y014113D01*
X057490Y014147D01*
X057518Y014175D01*
X057552Y014194D01*
X057590Y014205D01*
X057802Y014205D01*
X057802Y013931D01*
X057850Y013931D01*
X057850Y014205D01*
X058063Y014205D01*
X058101Y014194D01*
X058135Y014175D01*
X058163Y014147D01*
X058183Y014113D01*
X058193Y014074D01*
X058193Y013931D01*
X057850Y013931D01*
X057850Y013883D01*
X057850Y013609D01*
X057850Y013431D01*
X057802Y013431D01*
X057802Y013705D01*
X057802Y013883D01*
X057850Y013883D01*
X058193Y013883D01*
X058193Y013740D01*
X058183Y013702D01*
X058163Y013667D01*
X058153Y013657D01*
X058163Y013647D01*
X058183Y013613D01*
X058193Y013574D01*
X058193Y013431D01*
X057850Y013431D01*
X057850Y013383D01*
X057850Y013109D01*
X057850Y012931D01*
X057802Y012931D01*
X057802Y013109D01*
X057802Y013383D01*
X057850Y013383D01*
X058193Y013383D01*
X058193Y013240D01*
X058183Y013202D01*
X058163Y013167D01*
X058153Y013157D01*
X058163Y013147D01*
X058183Y013113D01*
X058193Y013074D01*
X058193Y012931D01*
X057850Y012931D01*
X057850Y012883D01*
X058193Y012883D01*
X058193Y012740D01*
X058183Y012702D01*
X058163Y012667D01*
X058153Y012657D01*
X058163Y012647D01*
X058183Y012613D01*
X058193Y012574D01*
X058193Y012431D01*
X058193Y012437D02*
X058328Y012437D01*
X058284Y012535D02*
X058193Y012535D01*
X058170Y012634D02*
X058265Y012634D01*
X058265Y012732D02*
X058191Y012732D01*
X058193Y012831D02*
X058306Y012831D01*
X058380Y012929D02*
X057850Y012929D01*
X057802Y012929D02*
X057320Y012929D01*
X057320Y012831D02*
X057460Y012831D01*
X057462Y012732D02*
X057320Y012732D01*
X057291Y012634D02*
X057482Y012634D01*
X057460Y012535D02*
X057320Y012535D01*
X057320Y012437D02*
X057460Y012437D01*
X057460Y012338D02*
X057320Y012338D01*
X057320Y012240D02*
X057460Y012240D01*
X057516Y012141D02*
X057252Y012141D01*
X056984Y011986D02*
X056655Y011657D01*
X055905Y011657D01*
X055412Y011353D02*
X052888Y011353D01*
X052888Y011451D02*
X055319Y011451D01*
X055278Y011550D02*
X052888Y011550D01*
X052888Y011648D02*
X055265Y011648D01*
X055271Y011747D02*
X052923Y011747D01*
X052950Y011845D02*
X055312Y011845D01*
X055395Y011944D02*
X052950Y011944D01*
X052950Y012042D02*
X056800Y012042D01*
X056716Y012141D02*
X052950Y012141D01*
X052950Y012240D02*
X056647Y012240D01*
X056647Y012338D02*
X056384Y012338D01*
X056482Y012437D02*
X056647Y012437D01*
X056647Y012535D02*
X056526Y012535D01*
X056622Y012634D02*
X056677Y012634D01*
X056405Y012657D02*
X055905Y012657D01*
X056405Y012657D02*
X056655Y012907D01*
X056984Y012907D01*
X057320Y013028D02*
X057460Y013028D01*
X057478Y013126D02*
X057298Y013126D01*
X057320Y013225D02*
X057464Y013225D01*
X057460Y013324D02*
X057320Y013324D01*
X057320Y013422D02*
X057802Y013422D01*
X057850Y013422D02*
X058343Y013422D01*
X058290Y013521D02*
X058193Y013521D01*
X058179Y013619D02*
X058265Y013619D01*
X058265Y013718D02*
X058187Y013718D01*
X058193Y013816D02*
X058300Y013816D01*
X058365Y013915D02*
X057850Y013915D01*
X057802Y013915D02*
X057320Y013915D01*
X057320Y014013D02*
X057460Y014013D01*
X057470Y014112D02*
X057313Y014112D01*
X057154Y014210D02*
X058735Y014210D01*
X058735Y014112D02*
X058183Y014112D01*
X058193Y014013D02*
X058512Y014013D01*
X058905Y013657D02*
X058905Y012657D01*
X058905Y011657D01*
X058905Y009657D01*
X058905Y008657D01*
X058905Y007657D01*
X058905Y006657D01*
X058905Y005657D01*
X058905Y004657D01*
X058905Y003657D01*
X058905Y002657D01*
X058427Y002976D02*
X057154Y002976D01*
X057154Y002915D02*
X057154Y003056D01*
X057154Y003139D01*
X057250Y003139D01*
X057320Y003210D01*
X057320Y003604D01*
X057268Y003657D01*
X057320Y003710D01*
X057320Y004104D01*
X057268Y004157D01*
X057320Y004210D01*
X057320Y004604D01*
X057268Y004657D01*
X057320Y004710D01*
X057320Y005104D01*
X057250Y005175D01*
X057154Y005175D01*
X057154Y005258D01*
X057154Y005399D01*
X056825Y005727D01*
X056726Y005827D01*
X056506Y005827D01*
X056487Y005872D01*
X056380Y005979D01*
X056241Y006037D01*
X055569Y006037D01*
X055430Y005979D01*
X055323Y005872D01*
X055265Y005733D01*
X055265Y005581D01*
X055323Y005442D01*
X055430Y005335D01*
X055569Y005277D01*
X056241Y005277D01*
X056380Y005335D01*
X056487Y005442D01*
X056506Y005487D01*
X056585Y005487D01*
X056814Y005258D01*
X056814Y005175D01*
X056718Y005175D01*
X056647Y005104D01*
X056647Y004710D01*
X056700Y004657D01*
X056673Y004630D01*
X056575Y004727D01*
X056528Y004775D01*
X056487Y004872D01*
X056380Y004979D01*
X056241Y005037D01*
X055569Y005037D01*
X055430Y004979D01*
X055323Y004872D01*
X055265Y004733D01*
X055265Y004581D01*
X055323Y004442D01*
X055430Y004335D01*
X055569Y004277D01*
X056241Y004277D01*
X056380Y004335D01*
X056434Y004388D01*
X056585Y004237D01*
X056647Y004237D01*
X056647Y004210D01*
X056700Y004157D01*
X056647Y004104D01*
X056647Y004077D01*
X056585Y004077D01*
X056434Y003926D01*
X056380Y003979D01*
X056241Y004037D01*
X055569Y004037D01*
X055430Y003979D01*
X055323Y003872D01*
X055265Y003733D01*
X055265Y003581D01*
X055323Y003442D01*
X055430Y003335D01*
X055569Y003277D01*
X056241Y003277D01*
X056380Y003335D01*
X056487Y003442D01*
X056528Y003539D01*
X056575Y003587D01*
X056673Y003684D01*
X056700Y003657D01*
X056647Y003604D01*
X056647Y003210D01*
X056718Y003139D01*
X056814Y003139D01*
X056814Y003056D01*
X056585Y002827D01*
X056506Y002827D01*
X056487Y002872D01*
X056380Y002979D01*
X056241Y003037D01*
X055569Y003037D01*
X055430Y002979D01*
X055323Y002872D01*
X055265Y002733D01*
X055265Y002581D01*
X055323Y002442D01*
X055430Y002335D01*
X055569Y002277D01*
X056241Y002277D01*
X056380Y002335D01*
X056487Y002442D01*
X056506Y002487D01*
X056726Y002487D01*
X056825Y002587D01*
X057154Y002915D01*
X057116Y002878D02*
X058329Y002878D01*
X058284Y002779D02*
X057018Y002779D01*
X056919Y002681D02*
X058265Y002681D01*
X058265Y002582D02*
X056821Y002582D01*
X056655Y002657D02*
X055905Y002657D01*
X055427Y002976D02*
X054325Y002976D01*
X054325Y002878D02*
X055329Y002878D01*
X055284Y002779D02*
X054325Y002779D01*
X054325Y002681D02*
X055265Y002681D01*
X055265Y002582D02*
X054325Y002582D01*
X054325Y002484D02*
X055306Y002484D01*
X055380Y002385D02*
X054349Y002385D01*
X054424Y002287D02*
X055546Y002287D01*
X056264Y002287D02*
X058546Y002287D01*
X058380Y002385D02*
X056431Y002385D01*
X056505Y002484D02*
X058306Y002484D01*
X059264Y002287D02*
X059505Y002287D01*
X059505Y002385D02*
X059431Y002385D01*
X059505Y002484D02*
X059505Y002484D01*
X059505Y002188D02*
X054454Y002188D01*
X054450Y002090D02*
X059505Y002090D01*
X059505Y001991D02*
X054409Y001991D01*
X054296Y001893D02*
X059505Y001893D01*
X059505Y001794D02*
X050848Y001794D01*
X050939Y001893D02*
X054014Y001893D01*
X053901Y001991D02*
X051025Y001991D01*
X051018Y001978D02*
X051232Y002421D01*
X051305Y002907D01*
X051232Y003393D01*
X051232Y003393D01*
X051018Y003836D01*
X051018Y003837D01*
X050684Y004197D01*
X050684Y004197D01*
X050258Y004443D01*
X050258Y004443D01*
X049778Y004552D01*
X049288Y004516D01*
X048830Y004336D01*
X048446Y004029D01*
X048169Y003623D01*
X048024Y003153D01*
X048024Y002661D01*
X048169Y002191D01*
X048446Y001785D01*
X048830Y001478D01*
X048830Y001478D01*
X049288Y001298D01*
X049778Y001262D01*
X049778Y001262D01*
X050258Y001371D01*
X050684Y001617D01*
X051018Y001978D01*
X051018Y001978D01*
X051072Y002090D02*
X053860Y002090D01*
X053857Y002188D02*
X051120Y002188D01*
X051167Y002287D02*
X053886Y002287D01*
X053961Y002385D02*
X051215Y002385D01*
X051232Y002421D02*
X051232Y002421D01*
X051241Y002484D02*
X053985Y002484D01*
X053985Y002582D02*
X051256Y002582D01*
X051271Y002681D02*
X053985Y002681D01*
X053985Y002779D02*
X051286Y002779D01*
X051301Y002878D02*
X053985Y002878D01*
X053985Y002976D02*
X051295Y002976D01*
X051280Y003075D02*
X053985Y003075D01*
X053985Y003174D02*
X051265Y003174D01*
X051250Y003272D02*
X053985Y003272D01*
X053985Y003371D02*
X051235Y003371D01*
X051195Y003469D02*
X053985Y003469D01*
X053985Y003568D02*
X051148Y003568D01*
X051100Y003666D02*
X053985Y003666D01*
X053985Y003765D02*
X051053Y003765D01*
X050994Y003863D02*
X053985Y003863D01*
X053985Y003962D02*
X050902Y003962D01*
X050811Y004060D02*
X053985Y004060D01*
X053985Y004159D02*
X050719Y004159D01*
X050579Y004258D02*
X053985Y004258D01*
X053966Y004356D02*
X050408Y004356D01*
X050207Y004455D02*
X053867Y004455D01*
X053769Y004553D02*
X048792Y004553D01*
X048890Y004652D02*
X053670Y004652D01*
X053655Y004907D02*
X054155Y004407D01*
X054155Y002157D01*
X054325Y003075D02*
X056814Y003075D01*
X056734Y002976D02*
X056383Y002976D01*
X056482Y002878D02*
X056636Y002878D01*
X056655Y002657D02*
X056984Y002986D01*
X056984Y003407D01*
X057320Y003371D02*
X057460Y003371D01*
X057460Y003383D02*
X057460Y003240D01*
X057470Y003202D01*
X057490Y003167D01*
X057518Y003139D01*
X057552Y003120D01*
X057590Y003109D01*
X057802Y003109D01*
X057802Y003383D01*
X057460Y003383D01*
X057460Y003431D02*
X057802Y003431D01*
X057802Y003383D01*
X057850Y003383D01*
X057850Y003109D01*
X058063Y003109D01*
X058101Y003120D01*
X058135Y003139D01*
X058163Y003167D01*
X058183Y003202D01*
X058193Y003240D01*
X058193Y003383D01*
X057850Y003383D01*
X057850Y003431D01*
X057802Y003431D01*
X057802Y003609D01*
X057802Y003883D01*
X057460Y003883D01*
X057460Y003740D01*
X057470Y003702D01*
X057490Y003667D01*
X057500Y003657D01*
X057490Y003647D01*
X057470Y003613D01*
X057460Y003574D01*
X057460Y003431D01*
X057460Y003469D02*
X057320Y003469D01*
X057320Y003568D02*
X057460Y003568D01*
X057491Y003666D02*
X057277Y003666D01*
X057320Y003765D02*
X057460Y003765D01*
X057460Y003863D02*
X057320Y003863D01*
X057320Y003962D02*
X057460Y003962D01*
X057460Y003931D02*
X057802Y003931D01*
X057802Y003883D01*
X057850Y003883D01*
X057850Y003609D01*
X057850Y003431D01*
X058193Y003431D01*
X058193Y003574D01*
X058183Y003613D01*
X058163Y003647D01*
X058153Y003657D01*
X058163Y003667D01*
X058183Y003702D01*
X058193Y003740D01*
X058193Y003883D01*
X057850Y003883D01*
X057850Y003931D01*
X057802Y003931D01*
X057802Y004109D01*
X057802Y004383D01*
X057460Y004383D01*
X057460Y004240D01*
X057470Y004202D01*
X057490Y004167D01*
X057500Y004157D01*
X057490Y004147D01*
X057470Y004113D01*
X057460Y004074D01*
X057460Y003931D01*
X057460Y004060D02*
X057320Y004060D01*
X057270Y004159D02*
X057498Y004159D01*
X057460Y004258D02*
X057320Y004258D01*
X057320Y004356D02*
X057460Y004356D01*
X057460Y004431D02*
X057802Y004431D01*
X057802Y004383D01*
X057850Y004383D01*
X057850Y004109D01*
X057850Y003931D01*
X058193Y003931D01*
X058193Y004074D01*
X058183Y004113D01*
X058163Y004147D01*
X058153Y004157D01*
X058163Y004167D01*
X058183Y004202D01*
X058193Y004240D01*
X058193Y004383D01*
X057850Y004383D01*
X057850Y004431D01*
X057802Y004431D01*
X057802Y004609D01*
X057802Y004883D01*
X057460Y004883D01*
X057460Y004740D01*
X057470Y004702D01*
X057490Y004667D01*
X057500Y004657D01*
X057490Y004647D01*
X057470Y004613D01*
X057460Y004574D01*
X057460Y004431D01*
X057460Y004455D02*
X057320Y004455D01*
X057320Y004553D02*
X057460Y004553D01*
X057495Y004652D02*
X057273Y004652D01*
X057320Y004750D02*
X057460Y004750D01*
X057460Y004849D02*
X057320Y004849D01*
X057320Y004947D02*
X057460Y004947D01*
X057460Y004931D02*
X057460Y005074D01*
X057470Y005113D01*
X057490Y005147D01*
X057518Y005175D01*
X057552Y005194D01*
X057590Y005205D01*
X057802Y005205D01*
X057802Y004931D01*
X057802Y004883D01*
X057850Y004883D01*
X057850Y004609D01*
X057850Y004431D01*
X058193Y004431D01*
X058193Y004574D01*
X058183Y004613D01*
X058163Y004647D01*
X058153Y004657D01*
X058163Y004667D01*
X058183Y004702D01*
X058193Y004740D01*
X058193Y004883D01*
X057850Y004883D01*
X057850Y004931D01*
X057802Y004931D01*
X057460Y004931D01*
X057460Y005046D02*
X057320Y005046D01*
X057280Y005144D02*
X057488Y005144D01*
X057802Y005144D02*
X057850Y005144D01*
X057850Y005205D02*
X057850Y004931D01*
X058193Y004931D01*
X058193Y005074D01*
X058183Y005113D01*
X058163Y005147D01*
X058135Y005175D01*
X058101Y005194D01*
X058063Y005205D01*
X057850Y005205D01*
X057850Y005046D02*
X057802Y005046D01*
X057802Y004947D02*
X057850Y004947D01*
X057850Y004849D02*
X057802Y004849D01*
X057802Y004750D02*
X057850Y004750D01*
X057850Y004652D02*
X057802Y004652D01*
X057802Y004553D02*
X057850Y004553D01*
X057850Y004455D02*
X057802Y004455D01*
X057802Y004356D02*
X057850Y004356D01*
X057850Y004258D02*
X057802Y004258D01*
X057802Y004159D02*
X057850Y004159D01*
X057850Y004060D02*
X057802Y004060D01*
X057802Y003962D02*
X057850Y003962D01*
X057850Y003863D02*
X057802Y003863D01*
X057802Y003765D02*
X057850Y003765D01*
X057850Y003666D02*
X057802Y003666D01*
X057802Y003568D02*
X057850Y003568D01*
X057850Y003469D02*
X057802Y003469D01*
X057802Y003371D02*
X057850Y003371D01*
X057850Y003272D02*
X057802Y003272D01*
X057802Y003174D02*
X057850Y003174D01*
X058166Y003174D02*
X058735Y003174D01*
X058735Y003272D02*
X058193Y003272D01*
X058193Y003371D02*
X058394Y003371D01*
X058312Y003469D02*
X058193Y003469D01*
X058193Y003568D02*
X058271Y003568D01*
X058265Y003666D02*
X058162Y003666D01*
X058193Y003765D02*
X058278Y003765D01*
X058319Y003863D02*
X058193Y003863D01*
X058193Y003962D02*
X058413Y003962D01*
X058193Y004060D02*
X058735Y004060D01*
X058735Y004159D02*
X058155Y004159D01*
X058193Y004258D02*
X058735Y004258D01*
X058409Y004356D02*
X058193Y004356D01*
X058193Y004455D02*
X058318Y004455D01*
X058277Y004553D02*
X058193Y004553D01*
X058158Y004652D02*
X058265Y004652D01*
X058272Y004750D02*
X058193Y004750D01*
X058193Y004849D02*
X058313Y004849D01*
X058398Y004947D02*
X058193Y004947D01*
X058193Y005046D02*
X058735Y005046D01*
X058735Y005144D02*
X058164Y005144D01*
X058423Y005342D02*
X057154Y005342D01*
X057154Y005243D02*
X058735Y005243D01*
X058325Y005440D02*
X057112Y005440D01*
X057014Y005539D02*
X058283Y005539D01*
X058265Y005637D02*
X056915Y005637D01*
X056817Y005736D02*
X058266Y005736D01*
X058307Y005834D02*
X056503Y005834D01*
X056427Y005933D02*
X058383Y005933D01*
X058556Y006031D02*
X056255Y006031D01*
X056361Y006327D02*
X058449Y006327D01*
X058339Y006426D02*
X056471Y006426D01*
X056655Y006657D02*
X055905Y006657D01*
X055521Y007017D02*
X054075Y007017D01*
X054075Y007115D02*
X056814Y007115D01*
X056774Y007017D02*
X056290Y007017D01*
X056441Y006918D02*
X056676Y006918D01*
X056655Y006657D02*
X056984Y006986D01*
X056984Y007407D01*
X057320Y007411D02*
X057802Y007411D01*
X057802Y007431D02*
X057802Y007383D01*
X057460Y007383D01*
X057460Y007240D01*
X057470Y007202D01*
X057490Y007167D01*
X057518Y007139D01*
X057552Y007120D01*
X057590Y007109D01*
X057802Y007109D01*
X057802Y007383D01*
X057850Y007383D01*
X057850Y007109D01*
X058063Y007109D01*
X058101Y007120D01*
X058135Y007139D01*
X058163Y007167D01*
X058183Y007202D01*
X058193Y007240D01*
X058193Y007383D01*
X057850Y007383D01*
X057850Y007431D01*
X057802Y007431D01*
X057460Y007431D01*
X057460Y007574D01*
X057470Y007613D01*
X057490Y007647D01*
X057500Y007657D01*
X057490Y007667D01*
X057470Y007702D01*
X057460Y007740D01*
X057460Y007883D01*
X057802Y007883D01*
X057802Y007931D01*
X057460Y007931D01*
X057460Y008074D01*
X057470Y008113D01*
X057490Y008147D01*
X057500Y008157D01*
X057490Y008167D01*
X057470Y008202D01*
X057460Y008240D01*
X057460Y008383D01*
X057802Y008383D01*
X057802Y008431D01*
X057460Y008431D01*
X057460Y008574D01*
X057470Y008613D01*
X057490Y008647D01*
X057500Y008657D01*
X057490Y008667D01*
X057470Y008702D01*
X057460Y008740D01*
X057460Y008883D01*
X057802Y008883D01*
X057802Y008931D01*
X057460Y008931D01*
X057460Y009074D01*
X057470Y009113D01*
X057490Y009147D01*
X057518Y009175D01*
X057552Y009194D01*
X057590Y009205D01*
X057802Y009205D01*
X057802Y008931D01*
X057850Y008931D01*
X057850Y009205D01*
X058063Y009205D01*
X058101Y009194D01*
X058135Y009175D01*
X058163Y009147D01*
X058183Y009113D01*
X058193Y009074D01*
X058193Y008931D01*
X057850Y008931D01*
X057850Y008883D01*
X057850Y008609D01*
X057850Y008431D01*
X057802Y008431D01*
X057802Y008609D01*
X057802Y008883D01*
X057850Y008883D01*
X058193Y008883D01*
X058193Y008740D01*
X058183Y008702D01*
X058163Y008667D01*
X058153Y008657D01*
X058163Y008647D01*
X058183Y008613D01*
X058193Y008574D01*
X058193Y008431D01*
X057850Y008431D01*
X057850Y008383D01*
X057850Y008109D01*
X057850Y007931D01*
X057802Y007931D01*
X057802Y008109D01*
X057802Y008383D01*
X057850Y008383D01*
X058193Y008383D01*
X058193Y008240D01*
X058183Y008202D01*
X058163Y008167D01*
X058153Y008157D01*
X058163Y008147D01*
X058183Y008113D01*
X058193Y008074D01*
X058193Y007931D01*
X057850Y007931D01*
X057850Y007883D01*
X057850Y007609D01*
X057850Y007431D01*
X058193Y007431D01*
X058193Y007574D01*
X058183Y007613D01*
X058163Y007647D01*
X058153Y007657D01*
X058163Y007667D01*
X058183Y007702D01*
X058193Y007740D01*
X058193Y007883D01*
X057850Y007883D01*
X057802Y007883D01*
X057802Y007609D01*
X057802Y007431D01*
X057850Y007411D02*
X058354Y007411D01*
X058295Y007509D02*
X058193Y007509D01*
X058184Y007608D02*
X058265Y007608D01*
X058265Y007707D02*
X058184Y007707D01*
X058193Y007805D02*
X058295Y007805D01*
X058354Y007904D02*
X057850Y007904D01*
X057802Y007904D02*
X057320Y007904D01*
X057320Y008002D02*
X057460Y008002D01*
X057467Y008101D02*
X057320Y008101D01*
X057310Y008199D02*
X057471Y008199D01*
X057460Y008298D02*
X057320Y008298D01*
X057320Y008396D02*
X057802Y008396D01*
X057850Y008396D02*
X058368Y008396D01*
X058301Y008495D02*
X058193Y008495D01*
X058188Y008593D02*
X058265Y008593D01*
X058265Y008692D02*
X058177Y008692D01*
X058193Y008791D02*
X058289Y008791D01*
X058340Y008889D02*
X057850Y008889D01*
X057802Y008889D02*
X057320Y008889D01*
X057320Y008791D02*
X057460Y008791D01*
X057476Y008692D02*
X057303Y008692D01*
X057320Y008593D02*
X057465Y008593D01*
X057460Y008495D02*
X057320Y008495D01*
X056984Y008407D02*
X056655Y008407D01*
X056405Y008657D01*
X055905Y008657D01*
X055368Y008396D02*
X054075Y008396D01*
X054075Y008298D02*
X055519Y008298D01*
X055301Y008495D02*
X054075Y008495D01*
X054075Y008593D02*
X055265Y008593D01*
X055265Y008692D02*
X054075Y008692D01*
X054075Y008791D02*
X055289Y008791D01*
X055340Y008889D02*
X054075Y008889D01*
X054158Y008988D02*
X055450Y008988D01*
X055555Y009283D02*
X054176Y009283D01*
X054204Y009185D02*
X056814Y009185D01*
X056789Y009283D02*
X056256Y009283D01*
X056427Y009382D02*
X056690Y009382D01*
X056591Y009480D02*
X056503Y009480D01*
X056655Y009657D02*
X055905Y009657D01*
X056386Y009973D02*
X058424Y009973D01*
X058325Y009875D02*
X056485Y009875D01*
X056655Y009657D02*
X056984Y009328D01*
X056984Y008907D01*
X056647Y008889D02*
X056470Y008889D01*
X056521Y008791D02*
X056647Y008791D01*
X056665Y008692D02*
X056611Y008692D01*
X056647Y008988D02*
X056360Y008988D01*
X056647Y009086D02*
X054199Y009086D01*
X054102Y009382D02*
X055383Y009382D01*
X056777Y009776D02*
X058283Y009776D01*
X058265Y009677D02*
X056875Y009677D01*
X056974Y009579D02*
X058266Y009579D01*
X058307Y009480D02*
X057072Y009480D01*
X057154Y009382D02*
X058383Y009382D01*
X058555Y009283D02*
X057154Y009283D01*
X057154Y009185D02*
X057535Y009185D01*
X057463Y009086D02*
X057320Y009086D01*
X057320Y008988D02*
X057460Y008988D01*
X057802Y008988D02*
X057850Y008988D01*
X057850Y009086D02*
X057802Y009086D01*
X057802Y009185D02*
X057850Y009185D01*
X058118Y009185D02*
X058735Y009185D01*
X058735Y009086D02*
X058190Y009086D01*
X058193Y008988D02*
X058450Y008988D01*
X057850Y008791D02*
X057802Y008791D01*
X057802Y008692D02*
X057850Y008692D01*
X057850Y008593D02*
X057802Y008593D01*
X057802Y008495D02*
X057850Y008495D01*
X057850Y008298D02*
X057802Y008298D01*
X057802Y008199D02*
X057850Y008199D01*
X057850Y008101D02*
X057802Y008101D01*
X057802Y008002D02*
X057850Y008002D01*
X057850Y007805D02*
X057802Y007805D01*
X057802Y007707D02*
X057850Y007707D01*
X057850Y007608D02*
X057802Y007608D01*
X057802Y007509D02*
X057850Y007509D01*
X057850Y007312D02*
X057802Y007312D01*
X057802Y007214D02*
X057850Y007214D01*
X057850Y007115D02*
X057802Y007115D01*
X057568Y007115D02*
X057154Y007115D01*
X057154Y007017D02*
X058521Y007017D01*
X058369Y006918D02*
X057154Y006918D01*
X057058Y006820D02*
X058301Y006820D01*
X058265Y006721D02*
X056960Y006721D01*
X056861Y006623D02*
X058265Y006623D01*
X058289Y006524D02*
X056762Y006524D01*
X055556Y006031D02*
X053770Y006031D01*
X053671Y005933D02*
X055383Y005933D01*
X055307Y005834D02*
X053573Y005834D01*
X053474Y005736D02*
X055266Y005736D01*
X055265Y005637D02*
X053376Y005637D01*
X053277Y005539D02*
X055283Y005539D01*
X055325Y005440D02*
X048008Y005440D01*
X048066Y005342D02*
X055423Y005342D01*
X055905Y005657D02*
X056655Y005657D01*
X056984Y005328D01*
X056984Y004907D01*
X056647Y004947D02*
X056412Y004947D01*
X056497Y004849D02*
X056647Y004849D01*
X056647Y004750D02*
X056552Y004750D01*
X056651Y004652D02*
X056695Y004652D01*
X056655Y004407D02*
X056405Y004657D01*
X055905Y004657D01*
X055409Y004356D02*
X054325Y004356D01*
X054325Y004258D02*
X056564Y004258D01*
X056466Y004356D02*
X056401Y004356D01*
X056655Y004407D02*
X056984Y004407D01*
X056698Y004159D02*
X054325Y004159D01*
X054325Y004060D02*
X056568Y004060D01*
X056470Y003962D02*
X056398Y003962D01*
X056655Y003907D02*
X056405Y003657D01*
X055905Y003657D01*
X055413Y003962D02*
X054325Y003962D01*
X054325Y003863D02*
X055319Y003863D01*
X055278Y003765D02*
X054325Y003765D01*
X054325Y003666D02*
X055265Y003666D01*
X055271Y003568D02*
X054325Y003568D01*
X054325Y003469D02*
X055312Y003469D01*
X055394Y003371D02*
X054325Y003371D01*
X054325Y003272D02*
X056647Y003272D01*
X056647Y003371D02*
X056416Y003371D01*
X056499Y003469D02*
X056647Y003469D01*
X056647Y003568D02*
X056556Y003568D01*
X056655Y003666D02*
X056691Y003666D01*
X056655Y003907D02*
X056984Y003907D01*
X057320Y003272D02*
X057460Y003272D01*
X057486Y003174D02*
X057284Y003174D01*
X057154Y003075D02*
X058735Y003075D01*
X056683Y003174D02*
X054325Y003174D01*
X054325Y004455D02*
X055318Y004455D01*
X055277Y004553D02*
X054249Y004553D01*
X054151Y004652D02*
X055265Y004652D01*
X055272Y004750D02*
X054052Y004750D01*
X053954Y004849D02*
X055313Y004849D01*
X055398Y004947D02*
X053855Y004947D01*
X053757Y005046D02*
X056647Y005046D01*
X056687Y005144D02*
X048105Y005144D01*
X048096Y005046D02*
X048804Y005046D01*
X048705Y004947D02*
X048055Y004947D01*
X047983Y004849D02*
X048606Y004849D01*
X048508Y004750D02*
X047849Y004750D01*
X047461Y004750D02*
X046849Y004750D01*
X046983Y004849D02*
X047327Y004849D01*
X047255Y004947D02*
X047055Y004947D01*
X047096Y005046D02*
X047214Y005046D01*
X047205Y005144D02*
X047105Y005144D01*
X047105Y005243D02*
X047205Y005243D01*
X047244Y005342D02*
X047080Y005342D01*
X047178Y005440D02*
X047302Y005440D01*
X048105Y005243D02*
X056814Y005243D01*
X056730Y005342D02*
X056387Y005342D01*
X056486Y005440D02*
X056632Y005440D01*
X058735Y006130D02*
X053868Y006130D01*
X053967Y006228D02*
X058735Y006228D01*
X058735Y007115D02*
X058084Y007115D01*
X058186Y007214D02*
X058735Y007214D01*
X058484Y007312D02*
X058193Y007312D01*
X057467Y007214D02*
X057320Y007214D01*
X057320Y007312D02*
X057460Y007312D01*
X057460Y007509D02*
X057320Y007509D01*
X057317Y007608D02*
X057469Y007608D01*
X057469Y007707D02*
X057317Y007707D01*
X057320Y007805D02*
X057460Y007805D01*
X056984Y007907D02*
X056655Y007907D01*
X056405Y007657D01*
X055905Y007657D01*
X055484Y007312D02*
X054075Y007312D01*
X054075Y007214D02*
X056647Y007214D01*
X056647Y007312D02*
X056326Y007312D01*
X056456Y007411D02*
X056647Y007411D01*
X056647Y007509D02*
X056515Y007509D01*
X056596Y007608D02*
X056651Y007608D01*
X056510Y008002D02*
X056325Y008002D01*
X056291Y008298D02*
X056524Y008298D01*
X056658Y008199D02*
X054075Y008199D01*
X054075Y008101D02*
X056647Y008101D01*
X055485Y008002D02*
X054075Y008002D01*
X054075Y007904D02*
X055354Y007904D01*
X055295Y007805D02*
X054075Y007805D01*
X054075Y007707D02*
X055265Y007707D01*
X055265Y007608D02*
X054075Y007608D01*
X054075Y007509D02*
X055295Y007509D01*
X055354Y007411D02*
X054075Y007411D01*
X054075Y006918D02*
X055369Y006918D01*
X055301Y006820D02*
X054075Y006820D01*
X054075Y006721D02*
X055265Y006721D01*
X055265Y006623D02*
X054075Y006623D01*
X054075Y006524D02*
X055289Y006524D01*
X055339Y006426D02*
X054075Y006426D01*
X054065Y006327D02*
X055449Y006327D01*
X053655Y004907D02*
X048905Y004907D01*
X047655Y003657D01*
X042155Y003657D01*
X041655Y003157D01*
X041655Y002157D01*
X041155Y001657D01*
X029968Y001657D01*
X029468Y002157D01*
X029737Y002287D02*
X035361Y002287D01*
X035262Y002385D02*
X029661Y002385D01*
X029766Y002188D02*
X035559Y002188D01*
X035751Y002188D02*
X036559Y002188D01*
X036751Y002188D02*
X037559Y002188D01*
X037751Y002188D02*
X038559Y002188D01*
X038562Y002187D02*
X038749Y002187D01*
X038921Y002259D01*
X039054Y002391D01*
X039125Y002564D01*
X039125Y002751D01*
X039054Y002923D01*
X038921Y003056D01*
X038749Y003127D01*
X038562Y003127D01*
X038389Y003056D01*
X038257Y002923D01*
X038185Y002751D01*
X038185Y002564D01*
X038257Y002391D01*
X038389Y002259D01*
X038562Y002187D01*
X038751Y002188D02*
X039559Y002188D01*
X039562Y002187D02*
X039749Y002187D01*
X039921Y002259D01*
X040054Y002391D01*
X040125Y002564D01*
X040125Y002751D01*
X040054Y002923D01*
X039921Y003056D01*
X039749Y003127D01*
X039562Y003127D01*
X039389Y003056D01*
X039257Y002923D01*
X039185Y002751D01*
X039185Y002564D01*
X039257Y002391D01*
X039389Y002259D01*
X039562Y002187D01*
X039751Y002188D02*
X040212Y002188D01*
X040213Y002187D02*
X040247Y002167D01*
X040285Y002157D01*
X040607Y002157D01*
X040607Y002608D01*
X040704Y002608D01*
X040704Y002157D01*
X041025Y002157D01*
X041063Y002167D01*
X041097Y002187D01*
X041125Y002215D01*
X041145Y002249D01*
X041155Y002287D01*
X041485Y002287D01*
X041485Y002385D02*
X041155Y002385D01*
X041155Y002287D02*
X041155Y002609D01*
X040704Y002609D01*
X040704Y002706D01*
X040607Y002706D01*
X040607Y003157D01*
X040285Y003157D01*
X040247Y003147D01*
X040213Y003127D01*
X040185Y003099D01*
X040165Y003065D01*
X040155Y003027D01*
X040155Y002706D01*
X040606Y002706D01*
X040606Y002609D01*
X040155Y002609D01*
X040155Y002287D01*
X040165Y002249D01*
X040185Y002215D01*
X040213Y002187D01*
X040155Y002287D02*
X039949Y002287D01*
X040048Y002385D02*
X040155Y002385D01*
X040155Y002484D02*
X040092Y002484D01*
X040125Y002582D02*
X040155Y002582D01*
X040125Y002681D02*
X040606Y002681D01*
X040704Y002681D02*
X041485Y002681D01*
X041485Y002779D02*
X041155Y002779D01*
X041155Y002706D02*
X041155Y003027D01*
X041145Y003065D01*
X041125Y003099D01*
X041097Y003127D01*
X041063Y003147D01*
X041025Y003157D01*
X040704Y003157D01*
X040704Y002706D01*
X041155Y002706D01*
X041155Y002582D02*
X041485Y002582D01*
X041485Y002484D02*
X041155Y002484D01*
X041098Y002188D02*
X041446Y002188D01*
X041347Y002090D02*
X029775Y002090D01*
X029874Y001991D02*
X041249Y001991D01*
X041150Y001893D02*
X029973Y001893D01*
X029689Y001695D02*
X011757Y001695D01*
X011684Y001617D02*
X011684Y001617D01*
X011649Y001597D02*
X029787Y001597D01*
X029886Y001498D02*
X011478Y001498D01*
X011308Y001400D02*
X049030Y001400D01*
X048805Y001498D02*
X041237Y001498D01*
X041335Y001597D02*
X048681Y001597D01*
X048558Y001695D02*
X046615Y001695D01*
X046574Y001654D02*
X046658Y001738D01*
X046704Y001848D01*
X046704Y001966D01*
X046658Y002076D01*
X046574Y002160D01*
X046464Y002205D01*
X046347Y002205D01*
X045825Y002727D01*
X045726Y002827D01*
X042657Y002827D01*
X042574Y002910D01*
X042464Y002955D01*
X042346Y002955D01*
X042236Y002910D01*
X042152Y002826D01*
X042107Y002716D01*
X042107Y002598D01*
X042152Y002488D01*
X042236Y002404D01*
X042346Y002359D01*
X042464Y002359D01*
X042574Y002404D01*
X042657Y002487D01*
X045585Y002487D01*
X046107Y001965D01*
X046107Y001848D01*
X046152Y001738D01*
X046236Y001654D01*
X046346Y001609D01*
X046464Y001609D01*
X046574Y001654D01*
X046681Y001794D02*
X048439Y001794D01*
X048446Y001785D02*
X048446Y001785D01*
X048446Y001785D01*
X048372Y001893D02*
X046704Y001893D01*
X046693Y001991D02*
X048305Y001991D01*
X048238Y002090D02*
X046645Y002090D01*
X046506Y002188D02*
X048171Y002188D01*
X048169Y002191D02*
X048169Y002191D01*
X048139Y002287D02*
X046266Y002287D01*
X046167Y002385D02*
X048109Y002385D01*
X048078Y002484D02*
X046069Y002484D01*
X045970Y002582D02*
X048048Y002582D01*
X048024Y002661D02*
X048024Y002661D01*
X048024Y002681D02*
X045872Y002681D01*
X045773Y002779D02*
X048024Y002779D01*
X048024Y002878D02*
X042606Y002878D01*
X042405Y002657D02*
X045655Y002657D01*
X046405Y001907D01*
X046129Y001794D02*
X041532Y001794D01*
X041434Y001695D02*
X046195Y001695D01*
X046107Y001893D02*
X041631Y001893D01*
X041729Y001991D02*
X046081Y001991D01*
X045982Y002090D02*
X041825Y002090D01*
X041825Y002188D02*
X045884Y002188D01*
X045785Y002287D02*
X041825Y002287D01*
X041825Y002385D02*
X042282Y002385D01*
X042156Y002484D02*
X041825Y002484D01*
X041825Y002582D02*
X042113Y002582D01*
X042107Y002681D02*
X041825Y002681D01*
X041825Y002779D02*
X042133Y002779D01*
X042204Y002878D02*
X041825Y002878D01*
X041825Y002976D02*
X048024Y002976D01*
X048024Y003075D02*
X041825Y003075D01*
X041912Y003174D02*
X048030Y003174D01*
X048024Y003153D02*
X048024Y003153D01*
X048060Y003272D02*
X042011Y003272D01*
X042109Y003371D02*
X048091Y003371D01*
X048121Y003469D02*
X042208Y003469D01*
X041924Y003666D02*
X037825Y003666D01*
X037825Y003568D02*
X041825Y003568D01*
X041727Y003469D02*
X037825Y003469D01*
X037825Y003371D02*
X041628Y003371D01*
X041530Y003272D02*
X037825Y003272D01*
X037825Y003174D02*
X041485Y003174D01*
X041485Y003075D02*
X041139Y003075D01*
X041155Y002976D02*
X041485Y002976D01*
X041485Y002878D02*
X041155Y002878D01*
X040704Y002878D02*
X040607Y002878D01*
X040607Y002976D02*
X040704Y002976D01*
X040704Y003075D02*
X040607Y003075D01*
X040607Y002779D02*
X040704Y002779D01*
X040704Y002582D02*
X040607Y002582D01*
X040607Y002484D02*
X040704Y002484D01*
X040704Y002385D02*
X040607Y002385D01*
X040607Y002287D02*
X040704Y002287D01*
X040704Y002188D02*
X040607Y002188D01*
X040155Y002779D02*
X040113Y002779D01*
X040072Y002878D02*
X040155Y002878D01*
X040155Y002976D02*
X040000Y002976D01*
X039874Y003075D02*
X040171Y003075D01*
X039436Y003075D02*
X038874Y003075D01*
X039000Y002976D02*
X039310Y002976D01*
X039238Y002878D02*
X039072Y002878D01*
X039113Y002779D02*
X039197Y002779D01*
X039185Y002681D02*
X039125Y002681D01*
X039125Y002582D02*
X039185Y002582D01*
X039218Y002484D02*
X039092Y002484D01*
X039048Y002385D02*
X039262Y002385D01*
X039361Y002287D02*
X038949Y002287D01*
X038361Y002287D02*
X037949Y002287D01*
X038048Y002385D02*
X038262Y002385D01*
X038218Y002484D02*
X038092Y002484D01*
X038125Y002582D02*
X038185Y002582D01*
X038185Y002681D02*
X038125Y002681D01*
X038113Y002779D02*
X038197Y002779D01*
X038238Y002878D02*
X038072Y002878D01*
X038000Y002976D02*
X038310Y002976D01*
X038436Y003075D02*
X037874Y003075D01*
X037825Y003765D02*
X042022Y003765D01*
X040704Y004750D02*
X040607Y004750D01*
X040607Y004849D02*
X040704Y004849D01*
X040704Y004947D02*
X040607Y004947D01*
X040607Y005046D02*
X040704Y005046D01*
X040704Y005243D02*
X040607Y005243D01*
X040607Y005342D02*
X040704Y005342D01*
X040704Y005440D02*
X040607Y005440D01*
X040607Y005539D02*
X040704Y005539D01*
X040947Y005539D02*
X041400Y005539D01*
X041302Y005440D02*
X041043Y005440D01*
X041100Y005342D02*
X041244Y005342D01*
X041205Y005243D02*
X041127Y005243D01*
X040223Y004947D02*
X040055Y004947D01*
X040096Y005046D02*
X040187Y005046D01*
X040286Y004849D02*
X039983Y004849D01*
X039849Y004750D02*
X040398Y004750D01*
X039461Y004750D02*
X038239Y004750D01*
X038337Y004849D02*
X039327Y004849D01*
X039255Y004947D02*
X038436Y004947D01*
X038534Y005046D02*
X039214Y005046D01*
X039205Y005144D02*
X038633Y005144D01*
X038731Y005243D02*
X039205Y005243D01*
X039244Y005342D02*
X038830Y005342D01*
X038929Y005440D02*
X039302Y005440D01*
X037138Y006130D02*
X018685Y006130D01*
X018763Y006228D02*
X037236Y006228D01*
X037335Y006327D02*
X018804Y006327D01*
X018806Y006426D02*
X037433Y006426D01*
X037532Y006524D02*
X018789Y006524D01*
X018209Y006721D02*
X017648Y006721D01*
X017643Y006727D02*
X017504Y006785D01*
X017354Y006785D01*
X017215Y006727D01*
X017109Y006621D01*
X017051Y006482D01*
X017051Y006332D01*
X017109Y006193D01*
X017215Y006087D01*
X017354Y006030D01*
X017504Y006030D01*
X017643Y006087D01*
X017749Y006193D01*
X017806Y006332D01*
X017806Y006482D01*
X017749Y006621D01*
X017643Y006727D01*
X017747Y006623D02*
X018110Y006623D01*
X018069Y006524D02*
X017789Y006524D01*
X017806Y006426D02*
X018051Y006426D01*
X018053Y006327D02*
X017804Y006327D01*
X017763Y006228D02*
X018094Y006228D01*
X018172Y006130D02*
X017685Y006130D01*
X017508Y006031D02*
X018349Y006031D01*
X018508Y006031D02*
X037039Y006031D01*
X040405Y007157D02*
X051155Y007157D01*
X051530Y007532D01*
X051530Y008282D01*
X051254Y008396D02*
X051243Y008396D01*
X051177Y008495D02*
X051321Y008495D01*
X050798Y007608D02*
X039096Y007608D01*
X042276Y006721D02*
X042685Y006721D01*
X042691Y006727D02*
X042585Y006621D01*
X042528Y006482D01*
X042528Y006332D01*
X042585Y006193D01*
X042691Y006087D01*
X042830Y006030D01*
X042980Y006030D01*
X043119Y006087D01*
X043225Y006193D01*
X043283Y006332D01*
X043283Y006482D01*
X043225Y006621D01*
X043119Y006727D01*
X042980Y006785D01*
X042830Y006785D01*
X042691Y006727D01*
X042587Y006623D02*
X042283Y006623D01*
X042283Y006524D02*
X042545Y006524D01*
X042528Y006426D02*
X042283Y006426D01*
X042283Y006327D02*
X042530Y006327D01*
X042571Y006228D02*
X042283Y006228D01*
X042283Y006130D02*
X042648Y006130D01*
X042826Y006031D02*
X042214Y006031D01*
X042984Y006031D02*
X043826Y006031D01*
X043830Y006030D02*
X043980Y006030D01*
X044119Y006087D01*
X044225Y006193D01*
X044283Y006332D01*
X044283Y006482D01*
X044225Y006621D01*
X044119Y006727D01*
X043980Y006785D01*
X043830Y006785D01*
X043691Y006727D01*
X043585Y006621D01*
X043528Y006482D01*
X043528Y006332D01*
X043585Y006193D01*
X043691Y006087D01*
X043830Y006030D01*
X043984Y006031D02*
X044849Y006031D01*
X045008Y006031D02*
X045235Y006031D01*
X045235Y006130D02*
X045185Y006130D01*
X045575Y006130D02*
X045672Y006130D01*
X045594Y006228D02*
X045575Y006228D01*
X045573Y005834D02*
X045919Y005834D01*
X045820Y005736D02*
X045474Y005736D01*
X045376Y005637D02*
X045721Y005637D01*
X045400Y005539D02*
X045277Y005539D01*
X045302Y005440D02*
X045178Y005440D01*
X045244Y005342D02*
X045080Y005342D01*
X045105Y005243D02*
X045205Y005243D01*
X045205Y005144D02*
X045105Y005144D01*
X045096Y005046D02*
X045214Y005046D01*
X045255Y004947D02*
X045055Y004947D01*
X044983Y004849D02*
X045327Y004849D01*
X045461Y004750D02*
X044849Y004750D01*
X045849Y004750D02*
X046461Y004750D01*
X046327Y004849D02*
X045983Y004849D01*
X046055Y004947D02*
X046255Y004947D01*
X046214Y005046D02*
X046096Y005046D01*
X046105Y005144D02*
X046205Y005144D01*
X046205Y005243D02*
X046105Y005243D01*
X048311Y004553D02*
X038042Y004553D01*
X038140Y004652D02*
X048409Y004652D01*
X048212Y004455D02*
X037943Y004455D01*
X037845Y004356D02*
X048114Y004356D01*
X048015Y004258D02*
X037825Y004258D01*
X037825Y004159D02*
X047917Y004159D01*
X047818Y004060D02*
X037825Y004060D01*
X037825Y003962D02*
X047720Y003962D01*
X047621Y003863D02*
X037825Y003863D01*
X037262Y002385D02*
X037048Y002385D01*
X036949Y002287D02*
X037361Y002287D01*
X036361Y002287D02*
X035949Y002287D01*
X036048Y002385D02*
X036262Y002385D01*
X032338Y004258D02*
X032011Y004258D01*
X032011Y004356D02*
X031941Y004427D01*
X031369Y004427D01*
X031299Y004356D01*
X031299Y004258D02*
X030972Y004258D01*
X030992Y004159D02*
X031299Y004159D01*
X029392Y004455D02*
X028943Y004455D01*
X028845Y004356D02*
X029277Y004356D01*
X029269Y004258D02*
X028972Y004258D01*
X028992Y004159D02*
X029269Y004159D01*
X028655Y003992D02*
X028655Y004407D01*
X029155Y004907D01*
X030655Y004907D01*
X028319Y003272D02*
X028011Y003272D01*
X028011Y003174D02*
X028319Y003174D01*
X028319Y003075D02*
X028011Y003075D01*
X026319Y003075D02*
X026011Y003075D01*
X026011Y003174D02*
X026319Y003174D01*
X026319Y003272D02*
X026011Y003272D01*
X024312Y001893D02*
X011939Y001893D01*
X012018Y001978D02*
X012018Y001978D01*
X011848Y001794D02*
X029590Y001794D01*
X021173Y002090D02*
X019211Y002090D01*
X019449Y002188D02*
X020935Y002188D01*
X020803Y002287D02*
X019581Y002287D01*
X019680Y002385D02*
X020704Y002385D01*
X020630Y002484D02*
X019754Y002484D01*
X019795Y002582D02*
X020589Y002582D01*
X011258Y001371D02*
X011258Y001371D01*
X010952Y001301D02*
X049281Y001301D01*
X049288Y001298D02*
X049288Y001298D01*
X049952Y001301D02*
X059505Y001301D01*
X059505Y001203D02*
X000805Y001203D01*
X000805Y001301D02*
X010281Y001301D01*
X010288Y001298D02*
X010288Y001298D01*
X010030Y001400D02*
X000805Y001400D01*
X000805Y001498D02*
X009805Y001498D01*
X009681Y001597D02*
X000805Y001597D01*
X000805Y001695D02*
X009558Y001695D01*
X009439Y001794D02*
X000805Y001794D01*
X000805Y001893D02*
X009372Y001893D01*
X009305Y001991D02*
X002196Y001991D01*
X002167Y001979D02*
X002502Y002117D01*
X002758Y002374D01*
X002896Y002708D01*
X002896Y003070D01*
X002758Y003405D01*
X002502Y003661D01*
X002167Y003800D01*
X001805Y003800D01*
X001470Y003661D01*
X001214Y003405D01*
X001075Y003070D01*
X001075Y002708D01*
X001214Y002374D01*
X001470Y002117D01*
X001805Y001979D01*
X002167Y001979D01*
X002434Y002090D02*
X009238Y002090D01*
X009171Y002188D02*
X002572Y002188D01*
X002671Y002287D02*
X009139Y002287D01*
X009169Y002191D02*
X009169Y002191D01*
X009109Y002385D02*
X002763Y002385D01*
X002803Y002484D02*
X009078Y002484D01*
X009048Y002582D02*
X002844Y002582D01*
X002885Y002681D02*
X009024Y002681D01*
X009024Y002779D02*
X002896Y002779D01*
X002896Y002878D02*
X009024Y002878D01*
X009024Y002976D02*
X002896Y002976D01*
X002894Y003075D02*
X009024Y003075D01*
X009030Y003174D02*
X002854Y003174D01*
X002813Y003272D02*
X009060Y003272D01*
X009091Y003371D02*
X002772Y003371D01*
X002694Y003469D02*
X009121Y003469D01*
X009151Y003568D02*
X002595Y003568D01*
X002489Y003666D02*
X009198Y003666D01*
X009169Y003623D02*
X009169Y003623D01*
X009265Y003765D02*
X002252Y003765D01*
X001720Y003765D02*
X000805Y003765D01*
X000805Y003863D02*
X009332Y003863D01*
X009400Y003962D02*
X000805Y003962D01*
X000805Y004060D02*
X006986Y004060D01*
X006751Y004159D02*
X000805Y004159D01*
X000805Y004258D02*
X006652Y004258D01*
X006554Y004356D02*
X000805Y004356D01*
X000805Y004455D02*
X006512Y004455D01*
X006471Y004553D02*
X000805Y004553D01*
X000805Y004652D02*
X006445Y004652D01*
X006445Y004750D02*
X000805Y004750D01*
X000805Y004849D02*
X006445Y004849D01*
X006464Y004947D02*
X000805Y004947D01*
X000805Y005046D02*
X006505Y005046D01*
X006546Y005144D02*
X000805Y005144D01*
X000805Y005243D02*
X006634Y005243D01*
X006732Y005342D02*
X000805Y005342D01*
X000805Y005440D02*
X006942Y005440D01*
X007369Y005440D02*
X008194Y005440D01*
X007984Y005342D02*
X007578Y005342D01*
X007676Y005243D02*
X007886Y005243D01*
X007797Y005144D02*
X007765Y005144D01*
X007757Y004356D02*
X007806Y004356D01*
X007904Y004258D02*
X007658Y004258D01*
X007560Y004159D02*
X008003Y004159D01*
X008238Y004060D02*
X007324Y004060D01*
X008576Y004060D02*
X009485Y004060D01*
X009446Y004029D02*
X009446Y004029D01*
X009608Y004159D02*
X008812Y004159D01*
X008910Y004258D02*
X009732Y004258D01*
X009830Y004336D02*
X009830Y004336D01*
X009881Y004356D02*
X009009Y004356D01*
X009050Y004455D02*
X010132Y004455D01*
X010288Y004516D02*
X010288Y004516D01*
X010778Y004552D02*
X010778Y004552D01*
X013714Y006031D02*
X014326Y006031D01*
X014330Y006030D02*
X014480Y006030D01*
X014619Y006087D01*
X014725Y006193D01*
X014783Y006332D01*
X014783Y006482D01*
X014725Y006621D01*
X014619Y006727D01*
X014480Y006785D01*
X014330Y006785D01*
X014191Y006727D01*
X014085Y006621D01*
X014028Y006482D01*
X014028Y006332D01*
X014085Y006193D01*
X014191Y006087D01*
X014330Y006030D01*
X014484Y006031D02*
X015326Y006031D01*
X015330Y006030D02*
X015480Y006030D01*
X015619Y006087D01*
X015725Y006193D01*
X015783Y006332D01*
X015783Y006482D01*
X015725Y006621D01*
X015619Y006727D01*
X015480Y006785D01*
X015330Y006785D01*
X015191Y006727D01*
X015085Y006621D01*
X015028Y006482D01*
X015028Y006332D01*
X015085Y006193D01*
X015191Y006087D01*
X015330Y006030D01*
X015484Y006031D02*
X016349Y006031D01*
X016354Y006030D02*
X016215Y006087D01*
X016109Y006193D01*
X016051Y006332D01*
X016051Y006482D01*
X016109Y006621D01*
X016215Y006727D01*
X016354Y006785D01*
X016504Y006785D01*
X016643Y006727D01*
X016749Y006621D01*
X016806Y006482D01*
X016806Y006332D01*
X016749Y006193D01*
X016643Y006087D01*
X016504Y006030D01*
X016354Y006030D01*
X016508Y006031D02*
X017349Y006031D01*
X017172Y006130D02*
X016685Y006130D01*
X016763Y006228D02*
X017094Y006228D01*
X017053Y006327D02*
X016804Y006327D01*
X016806Y006426D02*
X017051Y006426D01*
X017069Y006524D02*
X016789Y006524D01*
X016747Y006623D02*
X017110Y006623D01*
X017209Y006721D02*
X016648Y006721D01*
X016209Y006721D02*
X015625Y006721D01*
X015723Y006623D02*
X016110Y006623D01*
X016069Y006524D02*
X015765Y006524D01*
X015783Y006426D02*
X016051Y006426D01*
X016053Y006327D02*
X015780Y006327D01*
X015740Y006228D02*
X016094Y006228D01*
X016172Y006130D02*
X015662Y006130D01*
X015148Y006130D02*
X014662Y006130D01*
X014740Y006228D02*
X015071Y006228D01*
X015030Y006327D02*
X014780Y006327D01*
X014783Y006426D02*
X015028Y006426D01*
X015045Y006524D02*
X014765Y006524D01*
X014723Y006623D02*
X015087Y006623D01*
X015185Y006721D02*
X014625Y006721D01*
X014185Y006721D02*
X013776Y006721D01*
X013783Y006623D02*
X014087Y006623D01*
X014045Y006524D02*
X013783Y006524D01*
X013783Y006426D02*
X014028Y006426D01*
X014030Y006327D02*
X013783Y006327D01*
X013783Y006228D02*
X014071Y006228D01*
X014148Y006130D02*
X013783Y006130D01*
X008220Y007017D02*
X007342Y007017D01*
X007567Y007115D02*
X007995Y007115D01*
X007897Y007214D02*
X007666Y007214D01*
X007760Y007312D02*
X007802Y007312D01*
X000805Y008495D02*
X033753Y008495D01*
X033851Y008593D02*
X000805Y008593D01*
X000805Y008692D02*
X033950Y008692D01*
X034048Y008791D02*
X000805Y008791D01*
X000805Y008889D02*
X034147Y008889D01*
X034245Y008988D02*
X000805Y008988D01*
X000805Y009086D02*
X045094Y009086D01*
X045192Y009185D02*
X000805Y009185D01*
X000805Y009283D02*
X045291Y009283D01*
X045389Y009382D02*
X000805Y009382D01*
X000805Y009480D02*
X045488Y009480D01*
X045587Y009579D02*
X000805Y009579D01*
X000805Y009677D02*
X015713Y009677D01*
X015736Y009654D02*
X015846Y009609D01*
X015964Y009609D01*
X016074Y009654D01*
X016157Y009737D01*
X033153Y009737D01*
X033236Y009654D01*
X033346Y009609D01*
X033464Y009609D01*
X033574Y009654D01*
X033658Y009738D01*
X033704Y009848D01*
X033704Y009966D01*
X033658Y010076D01*
X033574Y010160D01*
X033464Y010205D01*
X033346Y010205D01*
X033236Y010160D01*
X033153Y010077D01*
X016157Y010077D01*
X016074Y010160D01*
X015964Y010205D01*
X015846Y010205D01*
X015736Y010160D01*
X015652Y010076D01*
X015607Y009966D01*
X015607Y009848D01*
X015652Y009738D01*
X015736Y009654D01*
X015636Y009776D02*
X000805Y009776D01*
X000805Y009875D02*
X015607Y009875D01*
X015609Y009973D02*
X008691Y009973D01*
X008735Y009991D02*
X008819Y010040D01*
X008896Y010099D01*
X008965Y010168D01*
X009024Y010245D01*
X009073Y010329D01*
X009110Y010419D01*
X009135Y010512D01*
X009147Y010607D01*
X008457Y010607D01*
X008457Y009917D01*
X008552Y009929D01*
X008646Y009954D01*
X008735Y009991D01*
X008861Y010072D02*
X015650Y010072D01*
X015761Y010170D02*
X014590Y010170D01*
X014574Y010154D02*
X014657Y010237D01*
X027153Y010237D01*
X027236Y010154D01*
X027346Y010109D01*
X027464Y010109D01*
X027574Y010154D01*
X027657Y010237D01*
X042653Y010237D01*
X042736Y010154D01*
X042846Y010109D01*
X042964Y010109D01*
X043074Y010154D01*
X043158Y010238D01*
X043204Y010348D01*
X043204Y010466D01*
X046473Y010466D01*
X046375Y010367D02*
X043204Y010367D01*
X043204Y010466D02*
X043158Y010576D01*
X043074Y010660D01*
X042964Y010705D01*
X042846Y010705D01*
X042736Y010660D01*
X042653Y010577D01*
X027657Y010577D01*
X027577Y010657D01*
X027657Y010737D01*
X043653Y010737D01*
X043736Y010654D01*
X043846Y010609D01*
X043964Y010609D01*
X044074Y010654D01*
X044158Y010738D01*
X044204Y010848D01*
X044204Y010966D01*
X044158Y011076D01*
X044074Y011160D01*
X043964Y011205D01*
X043846Y011205D01*
X043736Y011160D01*
X043653Y011077D01*
X027657Y011077D01*
X027577Y011157D01*
X027657Y011237D01*
X046653Y011237D01*
X046736Y011154D01*
X046846Y011109D01*
X046964Y011109D01*
X047074Y011154D01*
X047158Y011238D01*
X047204Y011348D01*
X047204Y011466D01*
X047158Y011576D01*
X047074Y011660D01*
X046964Y011705D01*
X046846Y011705D01*
X046736Y011660D01*
X046653Y011577D01*
X027657Y011577D01*
X027577Y011657D01*
X027657Y011737D01*
X045653Y011737D01*
X045736Y011654D01*
X045846Y011609D01*
X045964Y011609D01*
X046074Y011654D01*
X046158Y011738D01*
X046204Y011848D01*
X046204Y011966D01*
X046158Y012076D01*
X046074Y012160D01*
X045964Y012205D01*
X045846Y012205D01*
X045736Y012160D01*
X045653Y012077D01*
X030565Y012077D01*
X030726Y012237D01*
X032653Y012237D01*
X032736Y012154D01*
X032846Y012109D01*
X032964Y012109D01*
X033074Y012154D01*
X033158Y012238D01*
X033204Y012348D01*
X033204Y012466D01*
X033158Y012576D01*
X033077Y012657D01*
X033158Y012738D01*
X033204Y012848D01*
X033204Y012966D01*
X033158Y013076D01*
X033074Y013160D01*
X032964Y013205D01*
X032846Y013205D01*
X032736Y013160D01*
X032653Y013077D01*
X017657Y013077D01*
X017574Y013160D01*
X017464Y013205D01*
X017346Y013205D01*
X017236Y013160D01*
X017152Y013076D01*
X017107Y012966D01*
X017107Y012848D01*
X017152Y012738D01*
X017236Y012654D01*
X017346Y012609D01*
X017464Y012609D01*
X017574Y012654D01*
X017657Y012737D01*
X028938Y012737D01*
X028902Y012701D01*
X028857Y012591D01*
X028857Y012473D01*
X028876Y012427D01*
X028726Y012577D01*
X028585Y012577D01*
X018157Y012577D01*
X018074Y012660D01*
X017964Y012705D01*
X017846Y012705D01*
X017736Y012660D01*
X017652Y012576D01*
X017607Y012466D01*
X017607Y012348D01*
X017652Y012238D01*
X017736Y012154D01*
X017846Y012109D01*
X017964Y012109D01*
X018074Y012154D01*
X018157Y012237D01*
X028585Y012237D01*
X028735Y012087D01*
X028745Y012077D01*
X027657Y012077D01*
X027574Y012160D01*
X027464Y012205D01*
X027346Y012205D01*
X027236Y012160D01*
X027153Y012077D01*
X017657Y012077D01*
X017574Y012160D01*
X017464Y012205D01*
X017346Y012205D01*
X017236Y012160D01*
X017152Y012076D01*
X017107Y011966D01*
X017107Y011848D01*
X017152Y011738D01*
X017236Y011654D01*
X017346Y011609D01*
X017464Y011609D01*
X017574Y011654D01*
X017657Y011737D01*
X027153Y011737D01*
X027233Y011657D01*
X027153Y011577D01*
X018657Y011577D01*
X018574Y011660D01*
X018464Y011705D01*
X018346Y011705D01*
X018236Y011660D01*
X018152Y011576D01*
X018107Y011466D01*
X018107Y011348D01*
X018152Y011238D01*
X018236Y011154D01*
X018346Y011109D01*
X018464Y011109D01*
X018574Y011154D01*
X018657Y011237D01*
X027153Y011237D01*
X027233Y011157D01*
X027153Y011077D01*
X015657Y011077D01*
X015574Y011160D01*
X015464Y011205D01*
X015346Y011205D01*
X015236Y011160D01*
X015152Y011076D01*
X015107Y010966D01*
X015107Y010848D01*
X015152Y010738D01*
X015236Y010654D01*
X015346Y010609D01*
X015464Y010609D01*
X015574Y010654D01*
X015657Y010737D01*
X027153Y010737D01*
X027233Y010657D01*
X027153Y010577D01*
X014657Y010577D01*
X014574Y010660D01*
X014464Y010705D01*
X014346Y010705D01*
X014236Y010660D01*
X014152Y010576D01*
X014107Y010466D01*
X009122Y010466D01*
X009142Y010564D02*
X014147Y010564D01*
X014107Y010466D02*
X014107Y010348D01*
X014152Y010238D01*
X014236Y010154D01*
X014346Y010109D01*
X014464Y010109D01*
X014574Y010154D01*
X014405Y010407D02*
X027405Y010407D01*
X042905Y010407D01*
X043171Y010269D02*
X046276Y010269D01*
X046178Y010170D02*
X044550Y010170D01*
X044574Y010160D02*
X044464Y010205D01*
X044346Y010205D01*
X044236Y010160D01*
X044153Y010077D01*
X034407Y010077D01*
X034324Y010160D01*
X034214Y010205D01*
X034096Y010205D01*
X033986Y010160D01*
X033902Y010076D01*
X033857Y009966D01*
X033857Y009848D01*
X033902Y009738D01*
X033986Y009654D01*
X034096Y009609D01*
X034214Y009609D01*
X034324Y009654D01*
X034407Y009737D01*
X044153Y009737D01*
X044236Y009654D01*
X044346Y009609D01*
X044464Y009609D01*
X044574Y009654D01*
X044658Y009738D01*
X044704Y009848D01*
X044704Y009966D01*
X044658Y010076D01*
X044574Y010160D01*
X044660Y010072D02*
X046079Y010072D01*
X045981Y009973D02*
X044701Y009973D01*
X044704Y009875D02*
X045882Y009875D01*
X045784Y009776D02*
X044674Y009776D01*
X044597Y009677D02*
X045685Y009677D01*
X046363Y009875D02*
X049107Y009875D01*
X049109Y009973D02*
X046461Y009973D01*
X046560Y010072D02*
X049150Y010072D01*
X049261Y010170D02*
X046659Y010170D01*
X046757Y010269D02*
X050650Y010269D01*
X050650Y010367D02*
X046856Y010367D01*
X046954Y010466D02*
X050554Y010466D01*
X050504Y010564D02*
X047053Y010564D01*
X047151Y010663D02*
X050504Y010663D01*
X050504Y010761D02*
X047250Y010761D01*
X047348Y010860D02*
X050504Y010860D01*
X050504Y010959D02*
X047447Y010959D01*
X047545Y011057D02*
X050512Y011057D01*
X050650Y011156D02*
X047644Y011156D01*
X047743Y011254D02*
X050650Y011254D01*
X050650Y011353D02*
X047841Y011353D01*
X047940Y011451D02*
X050568Y011451D01*
X050504Y011550D02*
X048038Y011550D01*
X048137Y011648D02*
X050504Y011648D01*
X050504Y011747D02*
X048235Y011747D01*
X048334Y011845D02*
X050504Y011845D01*
X050504Y011944D02*
X048432Y011944D01*
X048531Y012042D02*
X050504Y012042D01*
X050820Y011782D02*
X050820Y010782D01*
X050820Y009907D01*
X050484Y009875D02*
X049704Y009875D01*
X049701Y009973D02*
X050484Y009973D01*
X050484Y010072D02*
X049660Y010072D01*
X049550Y010170D02*
X050500Y010170D01*
X050484Y009776D02*
X049674Y009776D01*
X049597Y009677D02*
X050484Y009677D01*
X051087Y010466D02*
X051223Y010466D01*
X051173Y010564D02*
X051137Y010564D01*
X051137Y010663D02*
X051173Y010663D01*
X051173Y010761D02*
X051137Y010761D01*
X051137Y010860D02*
X051173Y010860D01*
X051173Y010959D02*
X051137Y010959D01*
X051129Y011057D02*
X051182Y011057D01*
X050990Y011156D02*
X052232Y011156D01*
X052296Y011254D02*
X050990Y011254D01*
X050990Y011353D02*
X052162Y011353D01*
X052116Y011451D02*
X051742Y011451D01*
X051807Y011550D02*
X052107Y011550D01*
X052155Y011782D02*
X052405Y011532D01*
X052405Y011845D01*
X052593Y012032D01*
X052593Y013970D01*
X050405Y016157D01*
X048405Y016157D01*
X045905Y018657D01*
X014905Y018657D01*
X009854Y013606D01*
X008407Y013606D01*
X007155Y013606D01*
X006503Y013324D02*
X000805Y013324D01*
X000805Y013422D02*
X006462Y013422D01*
X006445Y013521D02*
X000805Y013521D01*
X000805Y013619D02*
X006445Y013619D01*
X006445Y013718D02*
X000805Y013718D01*
X000805Y013816D02*
X006473Y013816D01*
X006514Y013915D02*
X000805Y013915D01*
X000805Y014013D02*
X006558Y014013D01*
X006656Y014112D02*
X000805Y014112D01*
X000805Y014210D02*
X006758Y014210D01*
X006996Y014309D02*
X000805Y014309D01*
X000805Y014408D02*
X010415Y014408D01*
X010514Y014506D02*
X000805Y014506D01*
X000805Y014605D02*
X010612Y014605D01*
X010711Y014703D02*
X000805Y014703D01*
X000805Y014802D02*
X010809Y014802D01*
X010908Y014900D02*
X000805Y014900D01*
X000805Y014999D02*
X011006Y014999D01*
X011105Y015097D02*
X000805Y015097D01*
X000805Y015196D02*
X011204Y015196D01*
X011302Y015294D02*
X000805Y015294D01*
X000805Y015393D02*
X011401Y015393D01*
X011499Y015491D02*
X000805Y015491D01*
X000805Y015590D02*
X011598Y015590D01*
X011696Y015689D02*
X000805Y015689D01*
X000805Y015787D02*
X011795Y015787D01*
X011893Y015886D02*
X008649Y015886D01*
X008841Y015984D02*
X011992Y015984D01*
X012090Y016083D02*
X008940Y016083D01*
X009021Y016181D02*
X012189Y016181D01*
X012288Y016280D02*
X009062Y016280D01*
X009103Y016378D02*
X012386Y016378D01*
X012465Y016477D02*
X012485Y016477D01*
X012564Y016575D02*
X012583Y016575D01*
X012662Y016674D02*
X012682Y016674D01*
X012761Y016773D02*
X012780Y016773D01*
X012860Y016871D02*
X012879Y016871D01*
X012958Y016970D02*
X012977Y016970D01*
X013057Y017068D02*
X013076Y017068D01*
X013155Y017167D02*
X013174Y017167D01*
X013254Y017265D02*
X013273Y017265D01*
X013352Y017364D02*
X013371Y017364D01*
X013451Y017462D02*
X013470Y017462D01*
X013549Y017561D02*
X013569Y017561D01*
X013648Y017659D02*
X013667Y017659D01*
X013746Y017758D02*
X013766Y017758D01*
X013845Y017857D02*
X013864Y017857D01*
X013944Y017955D02*
X013963Y017955D01*
X014042Y018054D02*
X014061Y018054D01*
X014141Y018152D02*
X014160Y018152D01*
X014239Y018251D02*
X014258Y018251D01*
X014338Y018349D02*
X014357Y018349D01*
X014436Y018448D02*
X014455Y018448D01*
X014535Y018546D02*
X014554Y018546D01*
X014633Y018645D02*
X014653Y018645D01*
X014735Y018727D02*
X014735Y018727D01*
X014655Y018907D02*
X046155Y018907D01*
X048655Y016407D01*
X051405Y016407D01*
X052780Y015032D01*
X052780Y011845D01*
X052718Y011782D01*
X052718Y011220D01*
X052405Y010907D01*
X052280Y010782D01*
X051490Y010782D01*
X051807Y010959D02*
X052107Y010959D01*
X052144Y011057D02*
X051798Y011057D01*
X052583Y010663D02*
X052743Y010663D01*
X051238Y011451D02*
X051073Y011451D01*
X051137Y011550D02*
X051173Y011550D01*
X051173Y011648D02*
X051137Y011648D01*
X051137Y011747D02*
X051173Y011747D01*
X051173Y011845D02*
X051137Y011845D01*
X051137Y011944D02*
X051173Y011944D01*
X051173Y012042D02*
X051137Y012042D01*
X051490Y011782D02*
X052155Y011782D01*
X052234Y011944D02*
X052264Y011944D01*
X052363Y012042D02*
X051807Y012042D01*
X052423Y012141D02*
X048629Y012141D01*
X048728Y012240D02*
X052423Y012240D01*
X052423Y012338D02*
X048827Y012338D01*
X048925Y012437D02*
X052423Y012437D01*
X052423Y012535D02*
X049024Y012535D01*
X049122Y012634D02*
X052098Y012634D01*
X051970Y012732D02*
X049221Y012732D01*
X049155Y012907D02*
X045155Y008907D01*
X044213Y009677D02*
X034347Y009677D01*
X034155Y009907D02*
X044405Y009907D01*
X044261Y010170D02*
X043090Y010170D01*
X042720Y010170D02*
X034300Y010170D01*
X034011Y010170D02*
X033550Y010170D01*
X033660Y010072D02*
X033900Y010072D01*
X033859Y009973D02*
X033701Y009973D01*
X033704Y009875D02*
X033857Y009875D01*
X033886Y009776D02*
X033674Y009776D01*
X033597Y009677D02*
X033963Y009677D01*
X033405Y009907D02*
X015905Y009907D01*
X016097Y009677D02*
X033213Y009677D01*
X033261Y010170D02*
X027590Y010170D01*
X027220Y010170D02*
X016050Y010170D01*
X015583Y010663D02*
X027227Y010663D01*
X027405Y010907D02*
X043905Y010907D01*
X044168Y010761D02*
X046769Y010761D01*
X046671Y010663D02*
X044083Y010663D01*
X044204Y010860D02*
X046868Y010860D01*
X046966Y010959D02*
X044204Y010959D01*
X044166Y011057D02*
X047065Y011057D01*
X047076Y011156D02*
X047163Y011156D01*
X047165Y011254D02*
X047262Y011254D01*
X047204Y011353D02*
X047360Y011353D01*
X047459Y011451D02*
X047204Y011451D01*
X047169Y011550D02*
X047557Y011550D01*
X047656Y011648D02*
X047086Y011648D01*
X046905Y011407D02*
X027405Y011407D01*
X018405Y011407D01*
X018141Y011550D02*
X000805Y011550D01*
X000805Y011648D02*
X017250Y011648D01*
X017148Y011747D02*
X000805Y011747D01*
X000805Y011845D02*
X017108Y011845D01*
X017107Y011944D02*
X000805Y011944D01*
X000805Y012042D02*
X017138Y012042D01*
X017217Y012141D02*
X000805Y012141D01*
X000805Y012240D02*
X017651Y012240D01*
X017611Y012338D02*
X000805Y012338D01*
X000805Y012437D02*
X017607Y012437D01*
X017635Y012535D02*
X000805Y012535D01*
X000805Y012634D02*
X017285Y012634D01*
X017158Y012732D02*
X000805Y012732D01*
X000805Y012831D02*
X017114Y012831D01*
X017107Y012929D02*
X008631Y012929D01*
X008834Y013028D02*
X017132Y013028D01*
X017202Y013126D02*
X016507Y013126D01*
X016464Y013109D02*
X016574Y013154D01*
X016657Y013237D01*
X027153Y013237D01*
X027236Y013154D01*
X027346Y013109D01*
X027464Y013109D01*
X027574Y013154D01*
X027657Y013237D01*
X044653Y013237D01*
X044736Y013154D01*
X044846Y013109D01*
X044964Y013109D01*
X045074Y013154D01*
X045158Y013238D01*
X045204Y013348D01*
X045204Y013466D01*
X045158Y013576D01*
X045074Y013660D01*
X044964Y013705D01*
X044846Y013705D01*
X044736Y013660D01*
X044653Y013577D01*
X027657Y013577D01*
X027577Y013657D01*
X027657Y013737D01*
X041653Y013737D01*
X041736Y013654D01*
X041846Y013609D01*
X041964Y013609D01*
X042074Y013654D01*
X042158Y013738D01*
X042204Y013848D01*
X042204Y013966D01*
X042158Y014076D01*
X042074Y014160D01*
X041964Y014205D01*
X041846Y014205D01*
X041736Y014160D01*
X041653Y014077D01*
X027657Y014077D01*
X027577Y014157D01*
X027657Y014237D01*
X043153Y014237D01*
X043236Y014154D01*
X043346Y014109D01*
X043464Y014109D01*
X043574Y014154D01*
X043658Y014238D01*
X043704Y014348D01*
X043704Y014466D01*
X043658Y014576D01*
X043574Y014660D01*
X043464Y014705D01*
X043346Y014705D01*
X043236Y014660D01*
X043153Y014577D01*
X027657Y014577D01*
X027574Y014660D01*
X027464Y014705D01*
X027346Y014705D01*
X027236Y014660D01*
X027153Y014577D01*
X015157Y014577D01*
X015074Y014660D01*
X014964Y014705D01*
X014846Y014705D01*
X014736Y014660D01*
X014652Y014576D01*
X014607Y014466D01*
X014607Y014348D01*
X014652Y014238D01*
X014736Y014154D01*
X014846Y014109D01*
X014964Y014109D01*
X015074Y014154D01*
X015157Y014237D01*
X027153Y014237D01*
X027233Y014157D01*
X027153Y014077D01*
X013657Y014077D01*
X013574Y014160D01*
X013464Y014205D01*
X013346Y014205D01*
X013236Y014160D01*
X013152Y014076D01*
X013107Y013966D01*
X013107Y013848D01*
X013152Y013738D01*
X013236Y013654D01*
X013346Y013609D01*
X013464Y013609D01*
X013574Y013654D01*
X013657Y013737D01*
X027153Y013737D01*
X027233Y013657D01*
X027153Y013577D01*
X016657Y013577D01*
X016574Y013660D01*
X016464Y013705D01*
X016346Y013705D01*
X016236Y013660D01*
X016152Y013576D01*
X016107Y013466D01*
X016107Y013348D01*
X016152Y013238D01*
X016236Y013154D01*
X016346Y013109D01*
X016464Y013109D01*
X016303Y013126D02*
X008933Y013126D01*
X009018Y013225D02*
X016165Y013225D01*
X016117Y013324D02*
X009059Y013324D01*
X009100Y013422D02*
X016107Y013422D01*
X016129Y013521D02*
X010009Y013521D01*
X010108Y013619D02*
X013320Y013619D01*
X013490Y013619D02*
X016195Y013619D01*
X016405Y013407D02*
X027405Y013407D01*
X044905Y013407D01*
X044695Y013619D02*
X041990Y013619D01*
X041820Y013619D02*
X027615Y013619D01*
X027638Y013718D02*
X041672Y013718D01*
X041905Y013907D02*
X027405Y013907D01*
X013405Y013907D01*
X013107Y013915D02*
X010403Y013915D01*
X010502Y014013D02*
X013126Y014013D01*
X013188Y014112D02*
X010600Y014112D01*
X010699Y014210D02*
X014680Y014210D01*
X014623Y014309D02*
X010797Y014309D01*
X010896Y014408D02*
X014607Y014408D01*
X014623Y014506D02*
X010994Y014506D01*
X011093Y014605D02*
X014681Y014605D01*
X014619Y014749D02*
X014725Y014855D01*
X014783Y014993D01*
X014783Y015144D01*
X014725Y015282D01*
X014619Y015388D01*
X014480Y015446D01*
X014330Y015446D01*
X014191Y015388D01*
X014085Y015282D01*
X014028Y015144D01*
X014028Y014993D01*
X014085Y014855D01*
X014191Y014749D01*
X014330Y014691D01*
X014480Y014691D01*
X014619Y014749D01*
X014672Y014802D02*
X015138Y014802D01*
X015085Y014855D02*
X015191Y014749D01*
X015330Y014691D01*
X015480Y014691D01*
X015619Y014749D01*
X015725Y014855D01*
X015783Y014993D01*
X015783Y015144D01*
X015725Y015282D01*
X015619Y015388D01*
X015480Y015446D01*
X015330Y015446D01*
X015191Y015388D01*
X015085Y015282D01*
X015028Y015144D01*
X015028Y014993D01*
X015085Y014855D01*
X015066Y014900D02*
X014744Y014900D01*
X014783Y014999D02*
X015028Y014999D01*
X015028Y015097D02*
X014783Y015097D01*
X014761Y015196D02*
X015049Y015196D01*
X015097Y015294D02*
X014713Y015294D01*
X014608Y015393D02*
X015202Y015393D01*
X015608Y015393D02*
X016226Y015393D01*
X016215Y015388D02*
X016109Y015282D01*
X016051Y015144D01*
X016051Y014993D01*
X016109Y014855D01*
X016215Y014749D01*
X016354Y014691D01*
X016504Y014691D01*
X016643Y014749D01*
X016749Y014855D01*
X016806Y014993D01*
X016806Y015144D01*
X016749Y015282D01*
X016643Y015388D01*
X016504Y015446D01*
X016354Y015446D01*
X016215Y015388D01*
X016121Y015294D02*
X015713Y015294D01*
X015761Y015196D02*
X016073Y015196D01*
X016051Y015097D02*
X015783Y015097D01*
X015783Y014999D02*
X016051Y014999D01*
X016090Y014900D02*
X015744Y014900D01*
X015672Y014802D02*
X016162Y014802D01*
X016324Y014703D02*
X015509Y014703D01*
X015301Y014703D02*
X014970Y014703D01*
X014840Y014703D02*
X014509Y014703D01*
X014301Y014703D02*
X013509Y014703D01*
X013480Y014691D02*
X013619Y014749D01*
X013725Y014855D01*
X013783Y014993D01*
X013783Y015144D01*
X013725Y015282D01*
X013619Y015388D01*
X013480Y015446D01*
X013330Y015446D01*
X013191Y015388D01*
X013085Y015282D01*
X013028Y015144D01*
X013028Y014993D01*
X013085Y014855D01*
X013191Y014749D01*
X013330Y014691D01*
X013480Y014691D01*
X013301Y014703D02*
X011192Y014703D01*
X011290Y014802D02*
X013138Y014802D01*
X013066Y014900D02*
X011389Y014900D01*
X011487Y014999D02*
X013028Y014999D01*
X013028Y015097D02*
X011586Y015097D01*
X011684Y015196D02*
X013049Y015196D01*
X013097Y015294D02*
X011783Y015294D01*
X011881Y015393D02*
X013202Y015393D01*
X013608Y015393D02*
X013763Y015393D01*
X013736Y015404D02*
X013846Y015359D01*
X013964Y015359D01*
X014074Y015404D01*
X014157Y015487D01*
X026653Y015487D01*
X026736Y015404D01*
X026846Y015359D01*
X026964Y015359D01*
X027074Y015404D01*
X027157Y015487D01*
X042153Y015487D01*
X042236Y015404D01*
X042346Y015359D01*
X042464Y015359D01*
X042574Y015404D01*
X042658Y015488D01*
X042704Y015598D01*
X042704Y015716D01*
X042658Y015826D01*
X042574Y015910D01*
X042464Y015955D01*
X042346Y015955D01*
X042236Y015910D01*
X042153Y015827D01*
X027157Y015827D01*
X027074Y015910D01*
X026964Y015955D01*
X026846Y015955D01*
X026736Y015910D01*
X026653Y015827D01*
X014157Y015827D01*
X014074Y015910D01*
X013964Y015955D01*
X013846Y015955D01*
X013736Y015910D01*
X013652Y015826D01*
X013607Y015716D01*
X013607Y015598D01*
X013652Y015488D01*
X013736Y015404D01*
X013713Y015294D02*
X014097Y015294D01*
X014049Y015196D02*
X013761Y015196D01*
X013783Y015097D02*
X014028Y015097D01*
X014028Y014999D02*
X013783Y014999D01*
X013744Y014900D02*
X014066Y014900D01*
X014138Y014802D02*
X013672Y014802D01*
X014905Y014407D02*
X027405Y014407D01*
X043405Y014407D01*
X043704Y014408D02*
X051914Y014408D01*
X051816Y014506D02*
X043687Y014506D01*
X043630Y014605D02*
X051717Y014605D01*
X051619Y014703D02*
X047033Y014703D01*
X047004Y014691D02*
X047143Y014749D01*
X047249Y014855D01*
X047306Y014993D01*
X047306Y015144D01*
X047249Y015282D01*
X047143Y015388D01*
X047004Y015446D01*
X046854Y015446D01*
X046715Y015388D01*
X046609Y015282D01*
X046551Y015144D01*
X046551Y014993D01*
X046609Y014855D01*
X046715Y014749D01*
X046854Y014691D01*
X047004Y014691D01*
X046824Y014703D02*
X046033Y014703D01*
X046004Y014691D02*
X046143Y014749D01*
X046249Y014855D01*
X046306Y014993D01*
X046306Y015144D01*
X046249Y015282D01*
X046143Y015388D01*
X046004Y015446D01*
X045854Y015446D01*
X045715Y015388D01*
X045609Y015282D01*
X045551Y015144D01*
X045551Y014993D01*
X045609Y014855D01*
X045715Y014749D01*
X045854Y014691D01*
X046004Y014691D01*
X045824Y014703D02*
X045033Y014703D01*
X045004Y014691D02*
X045143Y014749D01*
X045249Y014855D01*
X045306Y014993D01*
X045306Y015144D01*
X045249Y015282D01*
X045143Y015388D01*
X045004Y015446D01*
X044854Y015446D01*
X044715Y015388D01*
X044609Y015282D01*
X044551Y015144D01*
X044551Y014993D01*
X044609Y014855D01*
X044715Y014749D01*
X044854Y014691D01*
X045004Y014691D01*
X044824Y014703D02*
X044009Y014703D01*
X043980Y014691D02*
X044119Y014749D01*
X044225Y014855D01*
X044283Y014993D01*
X044283Y015144D01*
X044225Y015282D01*
X044119Y015388D01*
X043980Y015446D01*
X043830Y015446D01*
X043691Y015388D01*
X043585Y015282D01*
X043528Y015144D01*
X043528Y014993D01*
X043585Y014855D01*
X043691Y014749D01*
X043830Y014691D01*
X043980Y014691D01*
X043801Y014703D02*
X043470Y014703D01*
X043340Y014703D02*
X043009Y014703D01*
X042980Y014691D02*
X043119Y014749D01*
X043225Y014855D01*
X043283Y014993D01*
X043283Y015144D01*
X043225Y015282D01*
X043119Y015388D01*
X042980Y015446D01*
X042830Y015446D01*
X042691Y015388D01*
X042585Y015282D01*
X042528Y015144D01*
X042528Y014993D01*
X042585Y014855D01*
X042691Y014749D01*
X042830Y014691D01*
X042980Y014691D01*
X042801Y014703D02*
X042009Y014703D01*
X041980Y014691D02*
X042119Y014749D01*
X042225Y014855D01*
X042283Y014993D01*
X042283Y015144D01*
X042225Y015282D01*
X042119Y015388D01*
X041980Y015446D01*
X041830Y015446D01*
X041691Y015388D01*
X041585Y015282D01*
X041528Y015144D01*
X041528Y014993D01*
X041585Y014855D01*
X041691Y014749D01*
X041830Y014691D01*
X041980Y014691D01*
X041801Y014703D02*
X027470Y014703D01*
X027340Y014703D02*
X018533Y014703D01*
X018504Y014691D02*
X018643Y014749D01*
X018749Y014855D01*
X018806Y014993D01*
X018806Y015144D01*
X018749Y015282D01*
X018643Y015388D01*
X018504Y015446D01*
X018354Y015446D01*
X018215Y015388D01*
X018109Y015282D01*
X018051Y015144D01*
X018051Y014993D01*
X018109Y014855D01*
X018215Y014749D01*
X018354Y014691D01*
X018504Y014691D01*
X018324Y014703D02*
X017533Y014703D01*
X017504Y014691D02*
X017643Y014749D01*
X017749Y014855D01*
X017806Y014993D01*
X017806Y015144D01*
X017749Y015282D01*
X017643Y015388D01*
X017504Y015446D01*
X017354Y015446D01*
X017215Y015388D01*
X017109Y015282D01*
X017051Y015144D01*
X017051Y014993D01*
X017109Y014855D01*
X017215Y014749D01*
X017354Y014691D01*
X017504Y014691D01*
X017324Y014703D02*
X016533Y014703D01*
X016696Y014802D02*
X017162Y014802D01*
X017090Y014900D02*
X016768Y014900D01*
X016806Y014999D02*
X017051Y014999D01*
X017051Y015097D02*
X016806Y015097D01*
X016785Y015196D02*
X017073Y015196D01*
X017121Y015294D02*
X016737Y015294D01*
X016632Y015393D02*
X017226Y015393D01*
X017632Y015393D02*
X018226Y015393D01*
X018121Y015294D02*
X017737Y015294D01*
X017785Y015196D02*
X018073Y015196D01*
X018051Y015097D02*
X017806Y015097D01*
X017806Y014999D02*
X018051Y014999D01*
X018090Y014900D02*
X017768Y014900D01*
X017696Y014802D02*
X018162Y014802D01*
X018696Y014802D02*
X041638Y014802D01*
X041566Y014900D02*
X018768Y014900D01*
X018806Y014999D02*
X041528Y014999D01*
X041528Y015097D02*
X018806Y015097D01*
X018785Y015196D02*
X041549Y015196D01*
X041597Y015294D02*
X018737Y015294D01*
X018632Y015393D02*
X026763Y015393D01*
X027047Y015393D02*
X041702Y015393D01*
X042108Y015393D02*
X042263Y015393D01*
X042213Y015294D02*
X042597Y015294D01*
X042549Y015196D02*
X042261Y015196D01*
X042283Y015097D02*
X042528Y015097D01*
X042528Y014999D02*
X042283Y014999D01*
X042244Y014900D02*
X042566Y014900D01*
X042638Y014802D02*
X042172Y014802D01*
X043172Y014802D02*
X043638Y014802D01*
X043566Y014900D02*
X043244Y014900D01*
X043283Y014999D02*
X043528Y014999D01*
X043528Y015097D02*
X043283Y015097D01*
X043261Y015196D02*
X043549Y015196D01*
X043597Y015294D02*
X043213Y015294D01*
X043108Y015393D02*
X043702Y015393D01*
X044108Y015393D02*
X044726Y015393D01*
X044621Y015294D02*
X044213Y015294D01*
X044261Y015196D02*
X044573Y015196D01*
X044551Y015097D02*
X044283Y015097D01*
X044283Y014999D02*
X044551Y014999D01*
X044590Y014900D02*
X044244Y014900D01*
X044172Y014802D02*
X044662Y014802D01*
X045196Y014802D02*
X045662Y014802D01*
X045590Y014900D02*
X045268Y014900D01*
X045306Y014999D02*
X045551Y014999D01*
X045551Y015097D02*
X045306Y015097D01*
X045285Y015196D02*
X045573Y015196D01*
X045621Y015294D02*
X045237Y015294D01*
X045132Y015393D02*
X045726Y015393D01*
X046132Y015393D02*
X046726Y015393D01*
X046621Y015294D02*
X046237Y015294D01*
X046285Y015196D02*
X046573Y015196D01*
X046551Y015097D02*
X046306Y015097D01*
X046306Y014999D02*
X046551Y014999D01*
X046590Y014900D02*
X046268Y014900D01*
X046196Y014802D02*
X046662Y014802D01*
X047196Y014802D02*
X051520Y014802D01*
X051422Y014900D02*
X047268Y014900D01*
X047306Y014999D02*
X051323Y014999D01*
X051224Y015097D02*
X047306Y015097D01*
X047285Y015196D02*
X051126Y015196D01*
X051027Y015294D02*
X047237Y015294D01*
X047132Y015393D02*
X050929Y015393D01*
X050830Y015491D02*
X042659Y015491D01*
X042702Y015393D02*
X042547Y015393D01*
X042700Y015590D02*
X050732Y015590D01*
X050633Y015689D02*
X042704Y015689D01*
X042674Y015787D02*
X050535Y015787D01*
X050436Y015886D02*
X042599Y015886D01*
X042405Y015657D02*
X026905Y015657D01*
X013905Y015657D01*
X013636Y015787D02*
X012276Y015787D01*
X012374Y015886D02*
X013281Y015886D01*
X013236Y015904D02*
X013346Y015859D01*
X013464Y015859D01*
X013574Y015904D01*
X013657Y015987D01*
X033653Y015987D01*
X033736Y015904D01*
X033846Y015859D01*
X033964Y015859D01*
X034074Y015904D01*
X034158Y015988D01*
X034204Y016098D01*
X034204Y016216D01*
X034158Y016326D01*
X034074Y016410D01*
X033964Y016455D01*
X033846Y016455D01*
X033736Y016410D01*
X033653Y016327D01*
X013657Y016327D01*
X013574Y016410D01*
X013464Y016455D01*
X013346Y016455D01*
X013236Y016410D01*
X013152Y016326D01*
X013107Y016216D01*
X013107Y016098D01*
X013152Y015988D01*
X013236Y015904D01*
X013156Y015984D02*
X012473Y015984D01*
X012571Y016083D02*
X013113Y016083D01*
X013107Y016181D02*
X012670Y016181D01*
X012768Y016280D02*
X013133Y016280D01*
X013204Y016378D02*
X012867Y016378D01*
X012965Y016477D02*
X047845Y016477D01*
X047943Y016378D02*
X042106Y016378D01*
X042074Y016410D02*
X041964Y016455D01*
X041846Y016455D01*
X041736Y016410D01*
X041653Y016327D01*
X034907Y016327D01*
X034824Y016410D01*
X034714Y016455D01*
X034596Y016455D01*
X034486Y016410D01*
X034402Y016326D01*
X034357Y016216D01*
X034357Y016098D01*
X034402Y015988D01*
X034486Y015904D01*
X034596Y015859D01*
X034714Y015859D01*
X034824Y015904D01*
X034907Y015987D01*
X041653Y015987D01*
X041736Y015904D01*
X041846Y015859D01*
X041964Y015859D01*
X042074Y015904D01*
X042158Y015988D01*
X042204Y016098D01*
X042204Y016216D01*
X042158Y016326D01*
X042074Y016410D01*
X042177Y016280D02*
X048042Y016280D01*
X048140Y016181D02*
X042204Y016181D01*
X042197Y016083D02*
X048239Y016083D01*
X047746Y016575D02*
X013064Y016575D01*
X013162Y016674D02*
X047648Y016674D01*
X047549Y016773D02*
X013261Y016773D01*
X013359Y016871D02*
X047451Y016871D01*
X047352Y016970D02*
X013458Y016970D01*
X013557Y017068D02*
X047254Y017068D01*
X047155Y017167D02*
X013655Y017167D01*
X013754Y017265D02*
X047056Y017265D01*
X046958Y017364D02*
X013852Y017364D01*
X013951Y017462D02*
X046859Y017462D01*
X046761Y017561D02*
X014049Y017561D01*
X014148Y017659D02*
X046662Y017659D01*
X046564Y017758D02*
X014246Y017758D01*
X014345Y017857D02*
X046465Y017857D01*
X046367Y017955D02*
X014443Y017955D01*
X014542Y018054D02*
X046268Y018054D01*
X046170Y018152D02*
X014641Y018152D01*
X014739Y018251D02*
X046071Y018251D01*
X045973Y018349D02*
X014838Y018349D01*
X014936Y018448D02*
X045874Y018448D01*
X046559Y018743D02*
X048051Y018743D01*
X048024Y018653D02*
X048024Y018653D01*
X048024Y018161D01*
X048169Y017691D01*
X048446Y017285D01*
X048830Y016978D01*
X048830Y016978D01*
X049288Y016798D01*
X049778Y016762D01*
X049778Y016762D01*
X050258Y016871D01*
X050684Y017117D01*
X051018Y017478D01*
X051232Y017921D01*
X051305Y018407D01*
X051305Y018407D01*
X051232Y018893D01*
X051232Y018893D01*
X051018Y019336D01*
X051018Y019337D01*
X050684Y019697D01*
X050684Y019697D01*
X050258Y019943D01*
X050258Y019943D01*
X049778Y020052D01*
X049288Y020016D01*
X048830Y019836D01*
X048446Y019529D01*
X048169Y019123D01*
X048024Y018653D01*
X048024Y018645D02*
X046658Y018645D01*
X046756Y018546D02*
X048024Y018546D01*
X048024Y018448D02*
X046855Y018448D01*
X046953Y018349D02*
X048024Y018349D01*
X048024Y018251D02*
X047052Y018251D01*
X047150Y018152D02*
X048026Y018152D01*
X048024Y018161D02*
X048024Y018161D01*
X048057Y018054D02*
X047249Y018054D01*
X047347Y017955D02*
X048087Y017955D01*
X048117Y017857D02*
X047446Y017857D01*
X047545Y017758D02*
X048148Y017758D01*
X048169Y017691D02*
X048169Y017691D01*
X048190Y017659D02*
X047643Y017659D01*
X047742Y017561D02*
X048257Y017561D01*
X048324Y017462D02*
X047840Y017462D01*
X047939Y017364D02*
X048392Y017364D01*
X048446Y017285D02*
X048446Y017285D01*
X048446Y017285D01*
X048470Y017265D02*
X048037Y017265D01*
X048136Y017167D02*
X048594Y017167D01*
X048717Y017068D02*
X048234Y017068D01*
X048333Y016970D02*
X048852Y016970D01*
X049103Y016871D02*
X048431Y016871D01*
X048530Y016773D02*
X049633Y016773D01*
X049826Y016773D02*
X052205Y016773D01*
X052191Y016740D02*
X052191Y016574D01*
X052255Y016421D01*
X052372Y016304D01*
X052525Y016240D01*
X053285Y016240D01*
X053438Y016304D01*
X053514Y016380D01*
X053574Y016321D01*
X054067Y016321D01*
X054137Y016391D01*
X054137Y016923D01*
X054067Y016994D01*
X053574Y016994D01*
X053514Y016934D01*
X053438Y017010D01*
X053285Y017074D01*
X052525Y017074D01*
X052372Y017010D01*
X052255Y016893D01*
X052191Y016740D01*
X052191Y016674D02*
X048629Y016674D01*
X049288Y016798D02*
X049288Y016798D01*
X050258Y016871D02*
X052246Y016871D01*
X052331Y016970D02*
X050429Y016970D01*
X050599Y017068D02*
X052512Y017068D01*
X052525Y017240D02*
X052372Y017304D01*
X052255Y017421D01*
X052191Y017574D01*
X052191Y017740D01*
X052255Y017893D01*
X052372Y018010D01*
X052525Y018074D01*
X053285Y018074D01*
X053438Y018010D01*
X053514Y017934D01*
X053574Y017994D01*
X054067Y017994D01*
X054137Y017923D01*
X054137Y017391D01*
X054067Y017321D01*
X053574Y017321D01*
X053514Y017380D01*
X053438Y017304D01*
X053285Y017240D01*
X052525Y017240D01*
X052465Y017265D02*
X050821Y017265D01*
X050730Y017167D02*
X054320Y017167D01*
X054320Y017265D02*
X053345Y017265D01*
X053498Y017364D02*
X053531Y017364D01*
X053299Y017068D02*
X054320Y017068D01*
X054219Y016970D02*
X054091Y016970D01*
X054137Y016871D02*
X054173Y016871D01*
X054173Y016773D02*
X054137Y016773D01*
X054137Y016674D02*
X054173Y016674D01*
X054173Y016575D02*
X054137Y016575D01*
X054137Y016477D02*
X054173Y016477D01*
X054185Y016378D02*
X054125Y016378D01*
X054330Y016280D02*
X053380Y016280D01*
X053513Y016378D02*
X053516Y016378D01*
X054330Y016181D02*
X051871Y016181D01*
X051970Y016083D02*
X054330Y016083D01*
X054256Y015984D02*
X052068Y015984D01*
X052167Y015886D02*
X053212Y015886D01*
X053136Y015787D02*
X052265Y015787D01*
X052364Y015689D02*
X053107Y015689D01*
X053110Y015590D02*
X052463Y015590D01*
X052561Y015491D02*
X053013Y015491D01*
X052995Y015393D02*
X052660Y015393D01*
X052758Y015294D02*
X052995Y015294D01*
X052995Y015196D02*
X052857Y015196D01*
X052950Y015097D02*
X052995Y015097D01*
X052995Y014999D02*
X052950Y014999D01*
X052950Y014900D02*
X052995Y014900D01*
X052955Y014802D02*
X052950Y014802D01*
X052950Y014506D02*
X052957Y014506D01*
X052950Y014408D02*
X053045Y014408D01*
X052950Y014309D02*
X055492Y014309D01*
X055357Y014408D02*
X053390Y014408D01*
X053478Y014506D02*
X055296Y014506D01*
X055265Y014605D02*
X053516Y014605D01*
X053516Y014703D02*
X055265Y014703D01*
X055294Y014802D02*
X053481Y014802D01*
X053396Y014900D02*
X055351Y014900D01*
X055477Y014999D02*
X053315Y014999D01*
X053315Y015097D02*
X058735Y015097D01*
X058735Y015196D02*
X053315Y015196D01*
X053315Y015294D02*
X055528Y015294D01*
X055569Y015277D02*
X056241Y015277D01*
X056380Y015335D01*
X056487Y015442D01*
X056506Y015487D01*
X056726Y015487D01*
X056825Y015587D01*
X057154Y015915D01*
X057154Y016056D01*
X057154Y016139D01*
X057250Y016139D01*
X057320Y016210D01*
X057320Y016604D01*
X057268Y016657D01*
X057320Y016710D01*
X057320Y017104D01*
X057268Y017157D01*
X057320Y017210D01*
X057320Y017604D01*
X057268Y017657D01*
X057320Y017710D01*
X057320Y018104D01*
X057250Y018175D01*
X057154Y018175D01*
X057154Y018258D01*
X057154Y018399D01*
X056825Y018727D01*
X056825Y018727D01*
X056726Y018827D01*
X056506Y018827D01*
X056487Y018872D01*
X056380Y018979D01*
X056241Y019037D01*
X055569Y019037D01*
X055430Y018979D01*
X055323Y018872D01*
X055265Y018733D01*
X055265Y018581D01*
X055323Y018442D01*
X055430Y018335D01*
X055569Y018277D01*
X056241Y018277D01*
X056380Y018335D01*
X056487Y018442D01*
X056506Y018487D01*
X056585Y018487D01*
X056814Y018258D01*
X056814Y018175D01*
X056718Y018175D01*
X056647Y018104D01*
X056647Y017710D01*
X056700Y017657D01*
X056673Y017630D01*
X056575Y017727D01*
X056528Y017775D01*
X056487Y017872D01*
X056380Y017979D01*
X056241Y018037D01*
X055569Y018037D01*
X055430Y017979D01*
X055323Y017872D01*
X055265Y017733D01*
X055265Y017581D01*
X055323Y017442D01*
X055430Y017335D01*
X055569Y017277D01*
X056241Y017277D01*
X056380Y017335D01*
X056434Y017388D01*
X056585Y017237D01*
X056647Y017237D01*
X056647Y017210D01*
X056700Y017157D01*
X056647Y017104D01*
X056647Y017077D01*
X056585Y017077D01*
X056434Y016926D01*
X056380Y016979D01*
X056241Y017037D01*
X055569Y017037D01*
X055430Y016979D01*
X055323Y016872D01*
X055265Y016733D01*
X055265Y016581D01*
X055323Y016442D01*
X055430Y016335D01*
X055569Y016277D01*
X056241Y016277D01*
X056380Y016335D01*
X056487Y016442D01*
X056528Y016539D01*
X056575Y016587D01*
X056673Y016684D01*
X056700Y016657D01*
X056647Y016604D01*
X056647Y016210D01*
X056718Y016139D01*
X056814Y016139D01*
X056814Y016056D01*
X056585Y015827D01*
X056506Y015827D01*
X056487Y015872D01*
X056380Y015979D01*
X056241Y016037D01*
X055569Y016037D01*
X055430Y015979D01*
X055323Y015872D01*
X055265Y015733D01*
X055265Y015581D01*
X055323Y015442D01*
X055430Y015335D01*
X055569Y015277D01*
X055372Y015393D02*
X053547Y015393D01*
X053659Y015491D02*
X055302Y015491D01*
X055265Y015590D02*
X054314Y015590D01*
X054413Y015689D02*
X055265Y015689D01*
X055288Y015787D02*
X054511Y015787D01*
X054610Y015886D02*
X055336Y015886D01*
X055442Y015984D02*
X054650Y015984D01*
X054650Y016083D02*
X056814Y016083D01*
X056742Y015984D02*
X056368Y015984D01*
X056474Y015886D02*
X056643Y015886D01*
X056655Y015657D02*
X055905Y015657D01*
X056438Y015393D02*
X058372Y015393D01*
X058302Y015491D02*
X056730Y015491D01*
X056828Y015590D02*
X058265Y015590D01*
X058265Y015689D02*
X056927Y015689D01*
X057026Y015787D02*
X058288Y015787D01*
X058336Y015886D02*
X057124Y015886D01*
X057154Y015984D02*
X058442Y015984D01*
X058735Y016083D02*
X057154Y016083D01*
X057292Y016181D02*
X057482Y016181D01*
X057490Y016167D02*
X057518Y016139D01*
X057552Y016120D01*
X057590Y016109D01*
X057802Y016109D01*
X057802Y016383D01*
X057460Y016383D01*
X057460Y016240D01*
X057470Y016202D01*
X057490Y016167D01*
X057460Y016280D02*
X057320Y016280D01*
X057320Y016378D02*
X057460Y016378D01*
X057460Y016431D02*
X057802Y016431D01*
X057802Y016383D01*
X057850Y016383D01*
X057850Y016109D01*
X058063Y016109D01*
X058101Y016120D01*
X058135Y016139D01*
X058163Y016167D01*
X058183Y016202D01*
X058193Y016240D01*
X058193Y016383D01*
X057850Y016383D01*
X057850Y016431D01*
X057802Y016431D01*
X057802Y016609D01*
X057802Y016883D01*
X057460Y016883D01*
X057460Y016740D01*
X057470Y016702D01*
X057490Y016667D01*
X057500Y016657D01*
X057490Y016647D01*
X057470Y016613D01*
X057460Y016574D01*
X057460Y016431D01*
X057460Y016477D02*
X057320Y016477D01*
X057320Y016575D02*
X057460Y016575D01*
X057486Y016674D02*
X057285Y016674D01*
X057320Y016773D02*
X057460Y016773D01*
X057460Y016871D02*
X057320Y016871D01*
X057320Y016970D02*
X057460Y016970D01*
X057460Y016931D02*
X057802Y016931D01*
X057802Y016883D01*
X057850Y016883D01*
X057850Y016609D01*
X057850Y016431D01*
X058193Y016431D01*
X058193Y016574D01*
X058183Y016613D01*
X058163Y016647D01*
X058153Y016657D01*
X058163Y016667D01*
X058183Y016702D01*
X058193Y016740D01*
X058193Y016883D01*
X057850Y016883D01*
X057850Y016931D01*
X057802Y016931D01*
X057802Y017109D01*
X057802Y017383D01*
X057460Y017383D01*
X057460Y017240D01*
X057470Y017202D01*
X057490Y017167D01*
X057500Y017157D01*
X057490Y017147D01*
X057470Y017113D01*
X057460Y017074D01*
X057460Y016931D01*
X057460Y017068D02*
X057320Y017068D01*
X057277Y017167D02*
X057490Y017167D01*
X057460Y017265D02*
X057320Y017265D01*
X057320Y017364D02*
X057460Y017364D01*
X057460Y017431D02*
X057802Y017431D01*
X057802Y017383D01*
X057850Y017383D01*
X057850Y017109D01*
X057850Y016931D01*
X058193Y016931D01*
X058193Y017074D01*
X058183Y017113D01*
X058163Y017147D01*
X058153Y017157D01*
X058163Y017167D01*
X058183Y017202D01*
X058193Y017240D01*
X058193Y017383D01*
X057850Y017383D01*
X057850Y017431D01*
X057802Y017431D01*
X057802Y017609D01*
X057802Y017883D01*
X057460Y017883D01*
X057460Y017740D01*
X057470Y017702D01*
X057490Y017667D01*
X057500Y017657D01*
X057490Y017647D01*
X057470Y017613D01*
X057460Y017574D01*
X057460Y017431D01*
X057460Y017462D02*
X057320Y017462D01*
X057320Y017561D02*
X057460Y017561D01*
X057498Y017659D02*
X057270Y017659D01*
X057320Y017758D02*
X057460Y017758D01*
X057460Y017857D02*
X057320Y017857D01*
X057320Y017955D02*
X057460Y017955D01*
X057460Y017931D02*
X057460Y018074D01*
X057470Y018113D01*
X057490Y018147D01*
X057518Y018175D01*
X057552Y018194D01*
X057590Y018205D01*
X057802Y018205D01*
X057802Y017931D01*
X057802Y017883D01*
X057850Y017883D01*
X057850Y017609D01*
X057850Y017431D01*
X058193Y017431D01*
X058193Y017574D01*
X058183Y017613D01*
X058163Y017647D01*
X058153Y017657D01*
X058163Y017667D01*
X058183Y017702D01*
X058193Y017740D01*
X058193Y017883D01*
X057850Y017883D01*
X057850Y017931D01*
X057802Y017931D01*
X057460Y017931D01*
X057460Y018054D02*
X057320Y018054D01*
X057273Y018152D02*
X057495Y018152D01*
X057802Y018152D02*
X057850Y018152D01*
X057850Y018205D02*
X057850Y017931D01*
X058193Y017931D01*
X058193Y018074D01*
X058183Y018113D01*
X058163Y018147D01*
X058135Y018175D01*
X058101Y018194D01*
X058063Y018205D01*
X057850Y018205D01*
X057850Y018054D02*
X057802Y018054D01*
X057802Y017955D02*
X057850Y017955D01*
X057850Y017857D02*
X057802Y017857D01*
X057802Y017758D02*
X057850Y017758D01*
X057850Y017659D02*
X057802Y017659D01*
X057802Y017561D02*
X057850Y017561D01*
X057850Y017462D02*
X057802Y017462D01*
X057802Y017364D02*
X057850Y017364D01*
X057850Y017265D02*
X057802Y017265D01*
X057802Y017167D02*
X057850Y017167D01*
X057850Y017068D02*
X057802Y017068D01*
X057802Y016970D02*
X057850Y016970D01*
X057850Y016871D02*
X057802Y016871D01*
X057802Y016773D02*
X057850Y016773D01*
X057850Y016674D02*
X057802Y016674D01*
X057802Y016575D02*
X057850Y016575D01*
X057850Y016477D02*
X057802Y016477D01*
X057802Y016378D02*
X057850Y016378D01*
X057850Y016280D02*
X057802Y016280D01*
X057802Y016181D02*
X057850Y016181D01*
X058171Y016181D02*
X058735Y016181D01*
X058563Y016280D02*
X058193Y016280D01*
X058193Y016378D02*
X058386Y016378D01*
X058308Y016477D02*
X058193Y016477D01*
X058193Y016575D02*
X058268Y016575D01*
X058265Y016674D02*
X058167Y016674D01*
X058193Y016773D02*
X058282Y016773D01*
X058322Y016871D02*
X058193Y016871D01*
X058193Y016970D02*
X058420Y016970D01*
X058193Y017068D02*
X058735Y017068D01*
X058735Y017167D02*
X058162Y017167D01*
X058193Y017265D02*
X058735Y017265D01*
X058401Y017364D02*
X058193Y017364D01*
X058193Y017462D02*
X058314Y017462D01*
X058274Y017561D02*
X058193Y017561D01*
X058155Y017659D02*
X058265Y017659D01*
X058276Y017758D02*
X058193Y017758D01*
X058193Y017857D02*
X058316Y017857D01*
X058406Y017955D02*
X058193Y017955D01*
X058193Y018054D02*
X058735Y018054D01*
X058735Y018152D02*
X058158Y018152D01*
X058416Y018349D02*
X057154Y018349D01*
X057154Y018251D02*
X058735Y018251D01*
X058320Y018448D02*
X057105Y018448D01*
X057006Y018546D02*
X058280Y018546D01*
X058265Y018645D02*
X056908Y018645D01*
X056809Y018743D02*
X058270Y018743D01*
X058310Y018842D02*
X056500Y018842D01*
X056419Y018941D02*
X058391Y018941D01*
X058684Y019138D02*
X054660Y019138D01*
X054660Y019236D02*
X058586Y019236D01*
X058487Y019335D02*
X054660Y019335D01*
X054660Y019433D02*
X058389Y019433D01*
X058405Y019657D02*
X058905Y019157D01*
X058905Y018657D01*
X058905Y017657D01*
X058905Y016657D01*
X058905Y015657D01*
X058905Y014657D01*
X058905Y013657D01*
X058735Y013225D02*
X058189Y013225D01*
X058193Y013324D02*
X058457Y013324D01*
X058547Y013028D02*
X058193Y013028D01*
X058175Y013126D02*
X058735Y013126D01*
X057850Y013126D02*
X057802Y013126D01*
X057802Y013028D02*
X057850Y013028D01*
X057850Y013225D02*
X057802Y013225D01*
X057802Y013324D02*
X057850Y013324D01*
X057850Y013521D02*
X057802Y013521D01*
X057802Y013619D02*
X057850Y013619D01*
X057850Y013718D02*
X057802Y013718D01*
X057802Y013816D02*
X057850Y013816D01*
X057850Y014013D02*
X057802Y014013D01*
X057802Y014112D02*
X057850Y014112D01*
X058357Y014408D02*
X057145Y014408D01*
X057154Y014309D02*
X058492Y014309D01*
X058296Y014506D02*
X057046Y014506D01*
X056948Y014605D02*
X058265Y014605D01*
X058265Y014703D02*
X056849Y014703D01*
X056751Y014802D02*
X058294Y014802D01*
X058351Y014900D02*
X056459Y014900D01*
X056333Y014999D02*
X058477Y014999D01*
X058528Y015294D02*
X056283Y015294D01*
X056655Y015657D02*
X056984Y015986D01*
X056984Y016407D01*
X056647Y016378D02*
X056424Y016378D01*
X056502Y016477D02*
X056647Y016477D01*
X056647Y016575D02*
X056564Y016575D01*
X056662Y016674D02*
X056683Y016674D01*
X056655Y016907D02*
X056405Y016657D01*
X055905Y016657D01*
X055420Y016970D02*
X054760Y016970D01*
X054807Y016871D02*
X055322Y016871D01*
X055282Y016773D02*
X054807Y016773D01*
X054807Y016674D02*
X055265Y016674D01*
X055268Y016575D02*
X054807Y016575D01*
X054807Y016477D02*
X055308Y016477D01*
X055386Y016378D02*
X054794Y016378D01*
X054650Y016280D02*
X055563Y016280D01*
X056247Y016280D02*
X056647Y016280D01*
X056676Y016181D02*
X054650Y016181D01*
X054157Y015886D02*
X053599Y015886D01*
X052430Y016280D02*
X051773Y016280D01*
X051674Y016378D02*
X052297Y016378D01*
X052232Y016477D02*
X051576Y016477D01*
X051477Y016575D02*
X052191Y016575D01*
X052905Y016657D02*
X053820Y016657D01*
X053550Y016970D02*
X053479Y016970D01*
X054490Y016657D02*
X054490Y017657D01*
X054490Y019617D01*
X054530Y019657D01*
X052905Y019657D01*
X052406Y020024D02*
X049901Y020024D01*
X049778Y020052D02*
X049778Y020052D01*
X049406Y020024D02*
X010901Y020024D01*
X010778Y020052D02*
X010288Y020016D01*
X009830Y019836D01*
X009446Y019529D01*
X009169Y019123D01*
X009024Y018653D01*
X009024Y018161D01*
X009169Y017691D01*
X009446Y017285D01*
X009830Y016978D01*
X009830Y016978D01*
X010288Y016798D01*
X010778Y016762D01*
X010778Y016762D01*
X011258Y016871D01*
X011684Y017117D01*
X012018Y017478D01*
X012232Y017921D01*
X012305Y018407D01*
X012232Y018893D01*
X012232Y018893D01*
X012018Y019336D01*
X012018Y019337D01*
X011684Y019697D01*
X011684Y019697D01*
X011258Y019943D01*
X010778Y020052D01*
X010406Y020024D02*
X000805Y020024D01*
X000805Y019926D02*
X010059Y019926D01*
X009819Y019827D02*
X008069Y019827D01*
X008020Y019877D02*
X007871Y019877D01*
X007631Y019877D01*
X007525Y019772D01*
X007395Y019642D01*
X007395Y019493D01*
X007501Y019387D01*
X007650Y019387D01*
X007658Y019395D01*
X007658Y019269D01*
X007650Y019277D01*
X007501Y019277D01*
X007395Y019172D01*
X007395Y019104D01*
X007352Y019147D01*
X007218Y019147D01*
X007218Y019754D01*
X007218Y019754D01*
X007218Y019762D01*
X007112Y019867D01*
X006963Y019867D01*
X006665Y019569D01*
X006665Y019642D01*
X006545Y019762D01*
X006440Y019867D01*
X006200Y019867D01*
X006051Y019867D01*
X005931Y019747D01*
X005855Y019672D01*
X005650Y019877D01*
X005501Y019877D01*
X005261Y019877D01*
X005155Y019772D01*
X005025Y019642D01*
X005025Y019493D01*
X005131Y019387D01*
X005280Y019387D01*
X005410Y019517D01*
X005501Y019517D01*
X005505Y019513D01*
X005132Y019147D01*
X005131Y019147D01*
X005078Y019095D01*
X005026Y019043D01*
X005026Y019042D01*
X005025Y019042D01*
X005025Y018967D01*
X005024Y018894D01*
X005025Y018894D01*
X005025Y018893D01*
X005077Y018840D01*
X005129Y018788D01*
X005130Y018788D01*
X005131Y018787D01*
X005205Y018787D01*
X005278Y018786D01*
X005279Y018787D01*
X005770Y018787D01*
X005875Y018893D01*
X005875Y018963D01*
X005879Y018959D01*
X006051Y018787D01*
X006200Y018787D01*
X006291Y018787D01*
X006440Y018787D01*
X006560Y018907D01*
X006613Y018960D01*
X006613Y018893D01*
X006718Y018787D01*
X007352Y018787D01*
X007458Y018893D01*
X007458Y018960D01*
X007525Y018893D01*
X007631Y018787D01*
X007871Y018787D01*
X008020Y018787D01*
X008245Y019013D01*
X008245Y019153D01*
X008245Y019302D01*
X008210Y019337D01*
X008245Y019373D01*
X008245Y019503D01*
X008245Y019652D01*
X008020Y019877D01*
X008168Y019729D02*
X009696Y019729D01*
X009572Y019630D02*
X008245Y019630D01*
X008245Y019532D02*
X009449Y019532D01*
X009446Y019529D02*
X009446Y019529D01*
X009446Y019529D01*
X009380Y019433D02*
X008245Y019433D01*
X008212Y019335D02*
X009313Y019335D01*
X009246Y019236D02*
X008245Y019236D01*
X008245Y019138D02*
X009179Y019138D01*
X009169Y019123D02*
X009169Y019123D01*
X009143Y019039D02*
X008245Y019039D01*
X008173Y018941D02*
X009112Y018941D01*
X009082Y018842D02*
X008075Y018842D01*
X007576Y018842D02*
X007407Y018842D01*
X007458Y018941D02*
X007477Y018941D01*
X007395Y019138D02*
X007362Y019138D01*
X007460Y019236D02*
X007218Y019236D01*
X007218Y019335D02*
X007658Y019335D01*
X007454Y019433D02*
X007218Y019433D01*
X007218Y019532D02*
X007395Y019532D01*
X007395Y019630D02*
X007218Y019630D01*
X007218Y019729D02*
X007482Y019729D01*
X007581Y019827D02*
X007152Y019827D01*
X006923Y019827D02*
X006479Y019827D01*
X006578Y019729D02*
X006825Y019729D01*
X006726Y019630D02*
X006665Y019630D01*
X006011Y019827D02*
X005699Y019827D01*
X005798Y019729D02*
X005912Y019729D01*
X005424Y019433D02*
X005326Y019433D01*
X005323Y019335D02*
X005015Y019335D01*
X005015Y019412D02*
X005015Y019101D01*
X005018Y019030D01*
X005015Y019027D01*
X005015Y019023D01*
X004965Y018973D01*
X004895Y018897D01*
X004895Y018893D01*
X004845Y018843D01*
X004797Y018790D01*
X004793Y018790D01*
X004790Y018787D01*
X004719Y018787D01*
X004648Y018784D01*
X004645Y018787D01*
X004540Y018787D01*
X004420Y018787D01*
X004271Y018787D01*
X004165Y018893D01*
X004165Y019030D01*
X003933Y018789D01*
X003784Y018786D01*
X003677Y018889D01*
X003674Y019038D01*
X003784Y019153D01*
X003675Y019263D01*
X003675Y019412D01*
X003675Y019662D01*
X003781Y019767D01*
X003781Y019767D01*
X003901Y019887D01*
X004050Y019887D01*
X004271Y019887D01*
X004420Y019887D01*
X004631Y019887D01*
X004780Y019887D01*
X005005Y019662D01*
X005005Y019513D01*
X004960Y019467D01*
X005015Y019412D01*
X004993Y019433D02*
X005084Y019433D01*
X005025Y019532D02*
X005005Y019532D01*
X005005Y019630D02*
X005025Y019630D01*
X004938Y019729D02*
X005112Y019729D01*
X005211Y019827D02*
X004839Y019827D01*
X003841Y019827D02*
X000805Y019827D01*
X000805Y019729D02*
X003742Y019729D01*
X003675Y019630D02*
X000805Y019630D01*
X000805Y019532D02*
X003675Y019532D01*
X003675Y019433D02*
X000805Y019433D01*
X000805Y019335D02*
X001803Y019335D01*
X001805Y019335D02*
X001470Y019197D01*
X001214Y018941D01*
X001075Y018606D01*
X001075Y018244D01*
X001214Y017909D01*
X001470Y017653D01*
X001805Y017514D01*
X002167Y017514D01*
X002502Y017653D01*
X002758Y017909D01*
X002896Y018244D01*
X002896Y018606D01*
X002758Y018941D01*
X003676Y018941D01*
X003675Y019039D02*
X002659Y019039D01*
X002561Y019138D02*
X003769Y019138D01*
X003701Y019236D02*
X002406Y019236D01*
X002502Y019197D02*
X002167Y019335D01*
X001805Y019335D01*
X001565Y019236D02*
X000805Y019236D01*
X000805Y019138D02*
X001411Y019138D01*
X001312Y019039D02*
X000805Y019039D01*
X000805Y018941D02*
X001214Y018941D01*
X001173Y018842D02*
X000805Y018842D01*
X000805Y018743D02*
X001132Y018743D01*
X001091Y018645D02*
X000805Y018645D01*
X000805Y018546D02*
X001075Y018546D01*
X001075Y018448D02*
X000805Y018448D01*
X000805Y018349D02*
X001075Y018349D01*
X001075Y018251D02*
X000805Y018251D01*
X000805Y018152D02*
X001113Y018152D01*
X001154Y018054D02*
X000805Y018054D01*
X000805Y017955D02*
X001195Y017955D01*
X001266Y017857D02*
X000805Y017857D01*
X000805Y017758D02*
X001365Y017758D01*
X001463Y017659D02*
X000805Y017659D01*
X000805Y017561D02*
X001692Y017561D01*
X002280Y017561D02*
X009257Y017561D01*
X009190Y017659D02*
X002508Y017659D01*
X002607Y017758D02*
X009148Y017758D01*
X009169Y017691D02*
X009169Y017691D01*
X009117Y017857D02*
X002705Y017857D01*
X002777Y017955D02*
X009087Y017955D01*
X009057Y018054D02*
X002818Y018054D01*
X002858Y018152D02*
X009026Y018152D01*
X009024Y018161D02*
X009024Y018161D01*
X009024Y018251D02*
X002896Y018251D01*
X002896Y018349D02*
X009024Y018349D01*
X009024Y018448D02*
X002896Y018448D01*
X002896Y018546D02*
X009024Y018546D01*
X009024Y018645D02*
X002880Y018645D01*
X002839Y018743D02*
X009051Y018743D01*
X009024Y018653D02*
X009024Y018653D01*
X006663Y018842D02*
X006495Y018842D01*
X006593Y018941D02*
X006613Y018941D01*
X005996Y018842D02*
X005825Y018842D01*
X005875Y018941D02*
X005897Y018941D01*
X005121Y019138D02*
X005015Y019138D01*
X005015Y019236D02*
X005223Y019236D01*
X005025Y019039D02*
X005018Y019039D01*
X005025Y018941D02*
X004936Y018941D01*
X004845Y018842D02*
X005076Y018842D01*
X004216Y018842D02*
X003984Y018842D01*
X004079Y018941D02*
X004165Y018941D01*
X003726Y018842D02*
X002799Y018842D01*
X002758Y018941D02*
X002502Y019197D01*
X002168Y019335D02*
X003675Y019335D01*
X000805Y020123D02*
X059505Y020123D01*
X059505Y020024D02*
X053404Y020024D01*
X053523Y019926D02*
X059505Y019926D01*
X059505Y019827D02*
X053583Y019827D01*
X053560Y019433D02*
X054320Y019433D01*
X054320Y019335D02*
X053469Y019335D01*
X053374Y019071D02*
X053307Y019093D01*
X053237Y019104D01*
X052954Y019104D01*
X052954Y018706D01*
X052857Y018706D01*
X052857Y019104D01*
X052573Y019104D01*
X052504Y019093D01*
X052437Y019071D01*
X052374Y019039D01*
X051162Y019039D01*
X051209Y018941D02*
X052262Y018941D01*
X052267Y018948D02*
X052226Y018891D01*
X052194Y018829D01*
X052172Y018762D01*
X052164Y018706D01*
X052856Y018706D01*
X052856Y018609D01*
X052164Y018609D01*
X052172Y018552D01*
X052194Y018486D01*
X052226Y018423D01*
X052267Y018366D01*
X052317Y018316D01*
X052374Y018275D01*
X052437Y018243D01*
X052504Y018221D01*
X052573Y018210D01*
X052857Y018210D01*
X052857Y018608D01*
X052954Y018608D01*
X052954Y018210D01*
X053237Y018210D01*
X053307Y018221D01*
X053374Y018243D01*
X053436Y018275D01*
X053493Y018316D01*
X053543Y018366D01*
X053584Y018423D01*
X053616Y018486D01*
X053638Y018552D01*
X053647Y018609D01*
X052954Y018609D01*
X052954Y018706D01*
X053647Y018706D01*
X053638Y018762D01*
X053616Y018829D01*
X053584Y018891D01*
X053543Y018948D01*
X053493Y018998D01*
X053436Y019039D01*
X053374Y019071D01*
X053436Y019039D02*
X054320Y019039D01*
X054320Y018941D02*
X053548Y018941D01*
X053609Y018842D02*
X054320Y018842D01*
X054320Y018743D02*
X053641Y018743D01*
X053636Y018546D02*
X054320Y018546D01*
X054320Y018448D02*
X053597Y018448D01*
X053526Y018349D02*
X054320Y018349D01*
X054320Y018251D02*
X053389Y018251D01*
X053334Y018054D02*
X054320Y018054D01*
X054320Y018152D02*
X051267Y018152D01*
X051252Y018054D02*
X052476Y018054D01*
X052317Y017955D02*
X051237Y017955D01*
X051201Y017857D02*
X052240Y017857D01*
X052199Y017758D02*
X051153Y017758D01*
X051106Y017659D02*
X052191Y017659D01*
X052197Y017561D02*
X051058Y017561D01*
X051004Y017462D02*
X052238Y017462D01*
X052312Y017364D02*
X050913Y017364D01*
X050684Y017117D02*
X050684Y017117D01*
X050258Y016871D02*
X050258Y016871D01*
X050565Y016237D02*
X051335Y016237D01*
X052610Y014962D01*
X052610Y014192D01*
X050575Y016227D01*
X050565Y016237D01*
X050621Y016181D02*
X051390Y016181D01*
X051489Y016083D02*
X050720Y016083D01*
X050818Y015984D02*
X051588Y015984D01*
X051686Y015886D02*
X050917Y015886D01*
X051015Y015787D02*
X051785Y015787D01*
X051883Y015689D02*
X051114Y015689D01*
X051213Y015590D02*
X051982Y015590D01*
X052080Y015491D02*
X051311Y015491D01*
X051410Y015393D02*
X052179Y015393D01*
X052277Y015294D02*
X051508Y015294D01*
X051607Y015196D02*
X052376Y015196D01*
X052474Y015097D02*
X051705Y015097D01*
X051804Y014999D02*
X052573Y014999D01*
X052610Y014900D02*
X051902Y014900D01*
X052001Y014802D02*
X052610Y014802D01*
X052610Y014703D02*
X052099Y014703D01*
X052198Y014605D02*
X052610Y014605D01*
X052610Y014506D02*
X052296Y014506D01*
X052395Y014408D02*
X052610Y014408D01*
X052610Y014309D02*
X052494Y014309D01*
X052592Y014210D02*
X052610Y014210D01*
X052950Y014210D02*
X056814Y014210D01*
X056763Y014309D02*
X056318Y014309D01*
X056453Y014408D02*
X056664Y014408D01*
X056655Y014657D02*
X055905Y014657D01*
X056655Y014657D02*
X056984Y014328D01*
X056984Y013907D01*
X056647Y013915D02*
X056445Y013915D01*
X056510Y013816D02*
X056647Y013816D01*
X056647Y013718D02*
X056585Y013718D01*
X056405Y013657D02*
X055905Y013657D01*
X056405Y013657D02*
X056655Y013407D01*
X056984Y013407D01*
X057320Y013521D02*
X057460Y013521D01*
X057474Y013619D02*
X057306Y013619D01*
X057320Y013718D02*
X057466Y013718D01*
X057460Y013816D02*
X057320Y013816D01*
X056647Y014013D02*
X056298Y014013D01*
X056655Y014112D02*
X052950Y014112D01*
X052950Y014013D02*
X055512Y014013D01*
X055365Y013915D02*
X052950Y013915D01*
X052950Y013816D02*
X055300Y013816D01*
X055265Y013718D02*
X052950Y013718D01*
X052950Y013619D02*
X055265Y013619D01*
X055290Y013521D02*
X052950Y013521D01*
X052950Y013422D02*
X055343Y013422D01*
X055457Y013324D02*
X052950Y013324D01*
X052950Y013225D02*
X056647Y013225D01*
X056669Y013126D02*
X052950Y013126D01*
X052950Y013028D02*
X055547Y013028D01*
X055380Y012929D02*
X052950Y012929D01*
X052950Y012831D02*
X055306Y012831D01*
X055265Y012732D02*
X052950Y012732D01*
X052950Y012634D02*
X055265Y012634D01*
X055284Y012535D02*
X052950Y012535D01*
X052950Y012437D02*
X055328Y012437D01*
X055427Y012338D02*
X052950Y012338D01*
X052423Y012634D02*
X052338Y012634D01*
X051905Y012907D02*
X049155Y012907D01*
X049036Y013028D02*
X046178Y013028D01*
X046158Y013076D02*
X046074Y013160D01*
X045964Y013205D01*
X045846Y013205D01*
X045736Y013160D01*
X045653Y013077D01*
X033907Y013077D01*
X033824Y013160D01*
X033714Y013205D01*
X033596Y013205D01*
X033486Y013160D01*
X033402Y013076D01*
X033357Y012966D01*
X033357Y012848D01*
X033402Y012738D01*
X033483Y012657D01*
X033402Y012576D01*
X033357Y012466D01*
X033357Y012348D01*
X033402Y012238D01*
X033486Y012154D01*
X033596Y012109D01*
X033714Y012109D01*
X033824Y012154D01*
X033907Y012237D01*
X046153Y012237D01*
X046236Y012154D01*
X046346Y012109D01*
X046464Y012109D01*
X046574Y012154D01*
X046658Y012238D01*
X046704Y012348D01*
X046704Y012466D01*
X046658Y012576D01*
X046574Y012660D01*
X046464Y012705D01*
X046346Y012705D01*
X046236Y012660D01*
X046153Y012577D01*
X033907Y012577D01*
X033827Y012657D01*
X033907Y012737D01*
X045653Y012737D01*
X045736Y012654D01*
X045846Y012609D01*
X045964Y012609D01*
X046074Y012654D01*
X046158Y012738D01*
X046204Y012848D01*
X046204Y012966D01*
X046158Y013076D01*
X046108Y013126D02*
X052015Y013126D01*
X052420Y013126D02*
X052423Y013126D01*
X052423Y013225D02*
X045145Y013225D01*
X045193Y013324D02*
X052423Y013324D01*
X052423Y013422D02*
X045204Y013422D01*
X045181Y013521D02*
X052423Y013521D01*
X052423Y013619D02*
X045115Y013619D01*
X044665Y013225D02*
X027645Y013225D01*
X027507Y013126D02*
X032702Y013126D01*
X032905Y012907D02*
X017405Y012907D01*
X017525Y012634D02*
X017710Y012634D01*
X017652Y012732D02*
X028933Y012732D01*
X028874Y012634D02*
X018100Y012634D01*
X017905Y012407D02*
X028655Y012407D01*
X028905Y012157D01*
X030405Y012157D01*
X030655Y012407D01*
X032905Y012407D01*
X033175Y012535D02*
X033385Y012535D01*
X033357Y012437D02*
X033204Y012437D01*
X033200Y012338D02*
X033361Y012338D01*
X033401Y012240D02*
X033159Y012240D01*
X033043Y012141D02*
X033518Y012141D01*
X033793Y012141D02*
X045717Y012141D01*
X045905Y011907D02*
X027405Y011907D01*
X017405Y011907D01*
X017593Y012141D02*
X017768Y012141D01*
X018043Y012141D02*
X027217Y012141D01*
X027593Y012141D02*
X028681Y012141D01*
X028866Y012437D02*
X028872Y012437D01*
X028857Y012535D02*
X028767Y012535D01*
X029155Y012532D02*
X030280Y012532D01*
X030629Y012141D02*
X032768Y012141D01*
X033655Y012407D02*
X046405Y012407D01*
X046675Y012535D02*
X048543Y012535D01*
X048444Y012437D02*
X046704Y012437D01*
X046700Y012338D02*
X048346Y012338D01*
X048247Y012240D02*
X046659Y012240D01*
X046543Y012141D02*
X048149Y012141D01*
X048050Y012042D02*
X046172Y012042D01*
X046204Y011944D02*
X047952Y011944D01*
X047853Y011845D02*
X046203Y011845D01*
X046162Y011747D02*
X047754Y011747D01*
X046724Y011648D02*
X046060Y011648D01*
X045750Y011648D02*
X027586Y011648D01*
X027224Y011648D02*
X018586Y011648D01*
X018224Y011648D02*
X017560Y011648D01*
X018107Y011451D02*
X000805Y011451D01*
X000805Y011353D02*
X006899Y011353D01*
X006917Y011360D02*
X006827Y011323D01*
X006743Y011274D01*
X006666Y011215D01*
X006597Y011146D01*
X006538Y011069D01*
X006490Y010985D01*
X006452Y010896D01*
X006427Y010802D01*
X006415Y010707D01*
X007105Y010707D01*
X007105Y010607D01*
X006415Y010607D01*
X006427Y010512D01*
X006452Y010419D01*
X006490Y010329D01*
X006538Y010245D01*
X006597Y010168D01*
X006666Y010099D01*
X006743Y010040D01*
X006827Y009991D01*
X006917Y009954D01*
X007010Y009929D01*
X007105Y009917D01*
X007105Y010607D01*
X007205Y010607D01*
X007205Y009917D01*
X007300Y009929D01*
X007394Y009954D01*
X007483Y009991D01*
X007567Y010040D01*
X007644Y010099D01*
X007713Y010168D01*
X007772Y010245D01*
X007781Y010260D01*
X007790Y010245D01*
X007849Y010168D01*
X007918Y010099D01*
X007995Y010040D01*
X008079Y009991D01*
X008169Y009954D01*
X008262Y009929D01*
X008357Y009917D01*
X008357Y010607D01*
X008457Y010607D01*
X008457Y010707D01*
X008357Y010707D01*
X008357Y010607D01*
X007667Y010607D01*
X007205Y010607D01*
X007205Y010707D01*
X007105Y010707D01*
X007105Y011397D01*
X007010Y011385D01*
X006917Y011360D01*
X007105Y011353D02*
X007205Y011353D01*
X007205Y011397D02*
X007205Y010707D01*
X007667Y010707D01*
X008357Y010707D01*
X008357Y011397D01*
X008262Y011385D01*
X008169Y011360D01*
X008079Y011323D01*
X007995Y011274D01*
X007918Y011215D01*
X007849Y011146D01*
X007790Y011069D01*
X007781Y011054D01*
X007772Y011069D01*
X007713Y011146D01*
X007644Y011215D01*
X007567Y011274D01*
X007483Y011323D01*
X007394Y011360D01*
X007300Y011385D01*
X007205Y011397D01*
X007205Y011254D02*
X007105Y011254D01*
X007105Y011156D02*
X007205Y011156D01*
X007205Y011057D02*
X007105Y011057D01*
X007105Y010959D02*
X007205Y010959D01*
X007205Y010860D02*
X007105Y010860D01*
X007105Y010761D02*
X007205Y010761D01*
X007205Y010663D02*
X008357Y010663D01*
X008357Y010761D02*
X008457Y010761D01*
X008457Y010707D02*
X008457Y011397D01*
X008552Y011385D01*
X008646Y011360D01*
X008735Y011323D01*
X008819Y011274D01*
X008896Y011215D01*
X008965Y011146D01*
X009024Y011069D01*
X009073Y010985D01*
X009110Y010896D01*
X009135Y010802D01*
X009147Y010707D01*
X008457Y010707D01*
X008457Y010663D02*
X014243Y010663D01*
X014567Y010663D02*
X015227Y010663D01*
X015142Y010761D02*
X009140Y010761D01*
X009119Y010860D02*
X015107Y010860D01*
X015107Y010959D02*
X009084Y010959D01*
X009031Y011057D02*
X015144Y011057D01*
X015232Y011156D02*
X008956Y011156D01*
X008845Y011254D02*
X018145Y011254D01*
X018107Y011353D02*
X008663Y011353D01*
X008457Y011353D02*
X008357Y011353D01*
X008357Y011254D02*
X008457Y011254D01*
X008457Y011156D02*
X008357Y011156D01*
X008357Y011057D02*
X008457Y011057D01*
X008457Y010959D02*
X008357Y010959D01*
X008357Y010860D02*
X008457Y010860D01*
X008457Y010564D02*
X008357Y010564D01*
X008357Y010466D02*
X008457Y010466D01*
X008457Y010367D02*
X008357Y010367D01*
X008357Y010269D02*
X008457Y010269D01*
X008457Y010170D02*
X008357Y010170D01*
X008357Y010072D02*
X008457Y010072D01*
X008457Y009973D02*
X008357Y009973D01*
X008123Y009973D02*
X007439Y009973D01*
X007609Y010072D02*
X007954Y010072D01*
X007847Y010170D02*
X007715Y010170D01*
X007205Y010170D02*
X007105Y010170D01*
X007105Y010072D02*
X007205Y010072D01*
X007205Y009973D02*
X007105Y009973D01*
X006871Y009973D02*
X000805Y009973D01*
X000805Y010072D02*
X006702Y010072D01*
X006595Y010170D02*
X000805Y010170D01*
X000805Y010269D02*
X006524Y010269D01*
X006474Y010367D02*
X000805Y010367D01*
X000805Y010466D02*
X006440Y010466D01*
X006420Y010564D02*
X000805Y010564D01*
X000805Y010663D02*
X007105Y010663D01*
X007105Y010564D02*
X007205Y010564D01*
X007205Y010466D02*
X007105Y010466D01*
X007105Y010367D02*
X007205Y010367D01*
X007205Y010269D02*
X007105Y010269D01*
X006422Y010761D02*
X000805Y010761D01*
X000805Y010860D02*
X006443Y010860D01*
X006478Y010959D02*
X000805Y010959D01*
X000805Y011057D02*
X006531Y011057D01*
X006606Y011156D02*
X000805Y011156D01*
X000805Y011254D02*
X006717Y011254D01*
X007411Y011353D02*
X008151Y011353D01*
X007969Y011254D02*
X007593Y011254D01*
X007704Y011156D02*
X007858Y011156D01*
X007783Y011057D02*
X007779Y011057D01*
X009089Y010367D02*
X014107Y010367D01*
X014139Y010269D02*
X009038Y010269D01*
X008967Y010170D02*
X014220Y010170D01*
X015405Y010907D02*
X027405Y010907D01*
X027583Y010663D02*
X042743Y010663D01*
X043067Y010663D02*
X043727Y010663D01*
X043163Y010564D02*
X046572Y010564D01*
X046735Y011156D02*
X044079Y011156D01*
X043732Y011156D02*
X027579Y011156D01*
X027232Y011156D02*
X018576Y011156D01*
X018235Y011156D02*
X015579Y011156D01*
X017608Y013126D02*
X027303Y013126D01*
X027165Y013225D02*
X016645Y013225D01*
X016615Y013619D02*
X027195Y013619D01*
X027172Y013718D02*
X013638Y013718D01*
X013172Y013718D02*
X010206Y013718D01*
X010305Y013816D02*
X013120Y013816D01*
X013622Y014112D02*
X014838Y014112D01*
X014972Y014112D02*
X027188Y014112D01*
X027180Y014210D02*
X015130Y014210D01*
X015130Y014605D02*
X027181Y014605D01*
X027630Y014605D02*
X043181Y014605D01*
X043687Y014309D02*
X052013Y014309D01*
X052111Y014210D02*
X043630Y014210D01*
X043472Y014112D02*
X052210Y014112D01*
X052308Y014013D02*
X042184Y014013D01*
X042204Y013915D02*
X052407Y013915D01*
X052423Y013816D02*
X042190Y013816D01*
X042138Y013718D02*
X052423Y013718D01*
X048937Y012929D02*
X046204Y012929D01*
X046196Y012831D02*
X048838Y012831D01*
X048740Y012732D02*
X046152Y012732D01*
X046210Y012634D02*
X046025Y012634D01*
X045785Y012634D02*
X033850Y012634D01*
X033902Y012732D02*
X045658Y012732D01*
X045905Y012907D02*
X033655Y012907D01*
X033382Y013028D02*
X033178Y013028D01*
X033204Y012929D02*
X033357Y012929D01*
X033364Y012831D02*
X033196Y012831D01*
X033152Y012732D02*
X033408Y012732D01*
X033460Y012634D02*
X033100Y012634D01*
X033108Y013126D02*
X033452Y013126D01*
X033858Y013126D02*
X044803Y013126D01*
X045007Y013126D02*
X045702Y013126D01*
X046600Y012634D02*
X048641Y012634D01*
X046268Y012141D02*
X046093Y012141D01*
X043338Y014112D02*
X042122Y014112D01*
X041688Y014112D02*
X027622Y014112D01*
X027630Y014210D02*
X043180Y014210D01*
X042212Y015886D02*
X042030Y015886D01*
X042154Y015984D02*
X050338Y015984D01*
X054110Y017364D02*
X054200Y017364D01*
X054173Y017462D02*
X054137Y017462D01*
X054137Y017561D02*
X054173Y017561D01*
X054173Y017659D02*
X054137Y017659D01*
X054137Y017758D02*
X054173Y017758D01*
X054173Y017857D02*
X054137Y017857D01*
X054106Y017955D02*
X054205Y017955D01*
X054660Y018054D02*
X056647Y018054D01*
X056647Y017955D02*
X056404Y017955D01*
X056494Y017857D02*
X056647Y017857D01*
X056647Y017758D02*
X056545Y017758D01*
X056643Y017659D02*
X056698Y017659D01*
X056655Y017407D02*
X056405Y017657D01*
X055905Y017657D01*
X055401Y017364D02*
X054780Y017364D01*
X054807Y017462D02*
X055314Y017462D01*
X055274Y017561D02*
X054807Y017561D01*
X054807Y017659D02*
X055265Y017659D01*
X055276Y017758D02*
X054807Y017758D01*
X054807Y017857D02*
X055316Y017857D01*
X055406Y017955D02*
X054775Y017955D01*
X054660Y018152D02*
X056695Y018152D01*
X056814Y018251D02*
X054660Y018251D01*
X054660Y018349D02*
X055416Y018349D01*
X055320Y018448D02*
X054660Y018448D01*
X054660Y018546D02*
X055280Y018546D01*
X055265Y018645D02*
X054660Y018645D01*
X054660Y018743D02*
X055270Y018743D01*
X055310Y018842D02*
X054660Y018842D01*
X054660Y018941D02*
X055391Y018941D01*
X055905Y018657D02*
X056655Y018657D01*
X056984Y018328D01*
X056984Y017907D01*
X056723Y018349D02*
X056395Y018349D01*
X056490Y018448D02*
X056624Y018448D01*
X054660Y019039D02*
X058735Y019039D01*
X059075Y019039D02*
X059505Y019039D01*
X059505Y018941D02*
X059419Y018941D01*
X059500Y018842D02*
X059505Y018842D01*
X059505Y019138D02*
X059075Y019138D01*
X059066Y019236D02*
X059505Y019236D01*
X059505Y019335D02*
X058968Y019335D01*
X058869Y019433D02*
X059505Y019433D01*
X059505Y019532D02*
X058771Y019532D01*
X058672Y019630D02*
X059505Y019630D01*
X059505Y019729D02*
X058574Y019729D01*
X058405Y019657D02*
X054530Y019657D01*
X054320Y019236D02*
X051067Y019236D01*
X051114Y019138D02*
X054320Y019138D01*
X054320Y018645D02*
X052954Y018645D01*
X052856Y018645D02*
X051269Y018645D01*
X051254Y018743D02*
X052170Y018743D01*
X052201Y018842D02*
X051240Y018842D01*
X051284Y018546D02*
X052174Y018546D01*
X052213Y018448D02*
X051299Y018448D01*
X051296Y018349D02*
X052284Y018349D01*
X052421Y018251D02*
X051281Y018251D01*
X052267Y018948D02*
X052317Y018998D01*
X052374Y019039D01*
X052341Y019335D02*
X051019Y019335D01*
X050929Y019433D02*
X052250Y019433D01*
X052209Y019532D02*
X050837Y019532D01*
X050746Y019630D02*
X052191Y019630D01*
X052191Y019729D02*
X050629Y019729D01*
X050458Y019827D02*
X052228Y019827D01*
X052288Y019926D02*
X050287Y019926D01*
X049288Y020016D02*
X049288Y020016D01*
X049059Y019926D02*
X011287Y019926D01*
X011458Y019827D02*
X048819Y019827D01*
X048830Y019836D02*
X048830Y019836D01*
X048696Y019729D02*
X011629Y019729D01*
X011746Y019630D02*
X048572Y019630D01*
X048449Y019532D02*
X011837Y019532D01*
X011929Y019433D02*
X048380Y019433D01*
X048446Y019529D02*
X048446Y019529D01*
X048313Y019335D02*
X012019Y019335D01*
X012067Y019236D02*
X048246Y019236D01*
X048179Y019138D02*
X012114Y019138D01*
X012162Y019039D02*
X014547Y019039D01*
X014448Y018941D02*
X012209Y018941D01*
X012240Y018842D02*
X014350Y018842D01*
X014251Y018743D02*
X012254Y018743D01*
X012269Y018645D02*
X014153Y018645D01*
X014054Y018546D02*
X012284Y018546D01*
X012299Y018448D02*
X013955Y018448D01*
X013857Y018349D02*
X012296Y018349D01*
X012281Y018251D02*
X013758Y018251D01*
X013660Y018152D02*
X012267Y018152D01*
X012252Y018054D02*
X013561Y018054D01*
X013463Y017955D02*
X012237Y017955D01*
X012232Y017921D02*
X012232Y017921D01*
X012201Y017857D02*
X013364Y017857D01*
X013266Y017758D02*
X012153Y017758D01*
X012106Y017659D02*
X013167Y017659D01*
X013069Y017561D02*
X012058Y017561D01*
X012018Y017478D02*
X012018Y017478D01*
X012004Y017462D02*
X012970Y017462D01*
X012871Y017364D02*
X011913Y017364D01*
X011821Y017265D02*
X012773Y017265D01*
X012674Y017167D02*
X011730Y017167D01*
X011684Y017117D02*
X011684Y017117D01*
X011599Y017068D02*
X012576Y017068D01*
X012477Y016970D02*
X011429Y016970D01*
X011258Y016871D02*
X011258Y016871D01*
X012379Y016871D01*
X012280Y016773D02*
X010826Y016773D01*
X010633Y016773D02*
X009086Y016773D01*
X009045Y016871D02*
X010103Y016871D01*
X010288Y016798D02*
X010288Y016798D01*
X009852Y016970D02*
X008997Y016970D01*
X008898Y017068D02*
X009717Y017068D01*
X009594Y017167D02*
X008786Y017167D01*
X009324Y017462D02*
X000805Y017462D01*
X000805Y017364D02*
X009392Y017364D01*
X009446Y017285D02*
X009446Y017285D01*
X009446Y017285D01*
X009470Y017265D02*
X000805Y017265D01*
X000805Y017167D02*
X006776Y017167D01*
X006664Y017068D02*
X000805Y017068D01*
X000805Y016970D02*
X006565Y016970D01*
X006517Y016871D02*
X000805Y016871D01*
X000805Y016773D02*
X006476Y016773D01*
X006445Y016674D02*
X000805Y016674D01*
X000805Y016575D02*
X006445Y016575D01*
X006445Y016477D02*
X000805Y016477D01*
X000805Y016378D02*
X006459Y016378D01*
X006500Y016280D02*
X000805Y016280D01*
X000805Y016181D02*
X006541Y016181D01*
X006622Y016083D02*
X000805Y016083D01*
X000805Y015984D02*
X006721Y015984D01*
X006914Y015886D02*
X000805Y015886D01*
X007155Y016555D02*
X008407Y016555D01*
X012303Y016555D01*
X014655Y018907D01*
X008028Y017167D02*
X007534Y017167D01*
X007646Y017068D02*
X007916Y017068D01*
X007817Y016970D02*
X007745Y016970D01*
X007769Y016181D02*
X007793Y016181D01*
X007874Y016083D02*
X007688Y016083D01*
X007589Y015984D02*
X007973Y015984D01*
X008165Y015886D02*
X007397Y015886D01*
X007314Y014309D02*
X008248Y014309D01*
X008010Y014210D02*
X007552Y014210D01*
X007654Y014112D02*
X007908Y014112D01*
X007810Y014013D02*
X007753Y014013D01*
X008566Y014309D02*
X010317Y014309D01*
X010218Y014210D02*
X008804Y014210D01*
X008906Y014112D02*
X010120Y014112D01*
X010021Y014013D02*
X009004Y014013D01*
X009048Y013915D02*
X009922Y013915D01*
X009824Y013816D02*
X009089Y013816D01*
X007980Y013028D02*
X007582Y013028D01*
X007681Y013126D02*
X007882Y013126D01*
X007796Y013225D02*
X007766Y013225D01*
X006728Y013028D02*
X000805Y013028D01*
X000805Y013126D02*
X006630Y013126D01*
X006544Y013225D02*
X000805Y013225D01*
X000805Y012929D02*
X006932Y012929D01*
X007379Y012929D02*
X008184Y012929D01*
X011980Y015491D02*
X013651Y015491D01*
X013610Y015590D02*
X012078Y015590D01*
X012177Y015689D02*
X013607Y015689D01*
X013530Y015886D02*
X013712Y015886D01*
X013654Y015984D02*
X033656Y015984D01*
X033781Y015886D02*
X027099Y015886D01*
X026712Y015886D02*
X014099Y015886D01*
X013405Y016157D02*
X033905Y016157D01*
X034030Y015886D02*
X034531Y015886D01*
X034406Y015984D02*
X034154Y015984D01*
X034197Y016083D02*
X034363Y016083D01*
X034357Y016181D02*
X034204Y016181D01*
X034177Y016280D02*
X034383Y016280D01*
X034454Y016378D02*
X034106Y016378D01*
X033704Y016378D02*
X013606Y016378D01*
X014047Y015393D02*
X014202Y015393D01*
X000805Y020222D02*
X059505Y020222D01*
X053535Y017955D02*
X053493Y017955D01*
X052954Y018251D02*
X052857Y018251D01*
X052857Y018349D02*
X052954Y018349D01*
X052954Y018448D02*
X052857Y018448D01*
X052857Y018546D02*
X052954Y018546D01*
X052954Y018743D02*
X052857Y018743D01*
X052857Y018842D02*
X052954Y018842D01*
X052954Y018941D02*
X052857Y018941D01*
X052857Y019039D02*
X052954Y019039D01*
X052905Y017657D02*
X053820Y017657D01*
X054660Y017265D02*
X056556Y017265D01*
X056458Y017364D02*
X056409Y017364D01*
X056655Y017407D02*
X056984Y017407D01*
X056690Y017167D02*
X054660Y017167D01*
X054660Y017068D02*
X056576Y017068D01*
X056477Y016970D02*
X056390Y016970D01*
X056655Y016907D02*
X056984Y016907D01*
X048169Y019123D02*
X048169Y019123D01*
X048143Y019039D02*
X046264Y019039D01*
X046362Y018941D02*
X048112Y018941D01*
X048082Y018842D02*
X046461Y018842D01*
X041704Y016378D02*
X034856Y016378D01*
X034655Y016157D02*
X041905Y016157D01*
X041781Y015886D02*
X034780Y015886D01*
X034904Y015984D02*
X041656Y015984D01*
X056263Y013028D02*
X056536Y013028D01*
X056437Y012929D02*
X056430Y012929D01*
X056498Y013324D02*
X056353Y013324D01*
X057802Y012831D02*
X057850Y012831D01*
X057850Y012732D02*
X057802Y012732D01*
X057802Y012634D02*
X057850Y012634D01*
X057850Y012535D02*
X057802Y012535D01*
X057802Y012437D02*
X057850Y012437D01*
X057850Y012338D02*
X057802Y012338D01*
X057802Y012240D02*
X057850Y012240D01*
X057850Y012141D02*
X057802Y012141D01*
X056984Y011986D02*
X056984Y012407D01*
X056702Y011944D02*
X056416Y011944D01*
X056498Y011845D02*
X056603Y011845D01*
X058193Y008298D02*
X058519Y008298D01*
X058735Y008199D02*
X058181Y008199D01*
X058186Y008101D02*
X058735Y008101D01*
X058485Y008002D02*
X058193Y008002D01*
X049778Y004552D02*
X049778Y004552D01*
X049288Y004516D02*
X049288Y004516D01*
X049132Y004455D02*
X048693Y004455D01*
X048595Y004356D02*
X048881Y004356D01*
X048830Y004336D02*
X048830Y004336D01*
X048732Y004258D02*
X048496Y004258D01*
X048397Y004159D02*
X048608Y004159D01*
X048485Y004060D02*
X048299Y004060D01*
X048200Y003962D02*
X048400Y003962D01*
X048446Y004029D02*
X048446Y004029D01*
X048446Y004029D01*
X048332Y003863D02*
X048102Y003863D01*
X048003Y003765D02*
X048265Y003765D01*
X048198Y003666D02*
X047905Y003666D01*
X047806Y003568D02*
X048151Y003568D01*
X048169Y003623D02*
X048169Y003623D01*
X045687Y002385D02*
X042529Y002385D01*
X042654Y002484D02*
X045588Y002484D01*
X050258Y001371D02*
X050258Y001371D01*
X050308Y001400D02*
X059505Y001400D01*
X059505Y001498D02*
X050478Y001498D01*
X050649Y001597D02*
X059505Y001597D01*
X059505Y001695D02*
X050757Y001695D01*
X050684Y001617D02*
X050684Y001617D01*
X059505Y001104D02*
X000805Y001104D01*
X000805Y001991D02*
X001775Y001991D01*
X001537Y002090D02*
X000805Y002090D01*
X000805Y002188D02*
X001399Y002188D01*
X001301Y002287D02*
X000805Y002287D01*
X000805Y002385D02*
X001209Y002385D01*
X001168Y002484D02*
X000805Y002484D01*
X000805Y002582D02*
X001127Y002582D01*
X001087Y002681D02*
X000805Y002681D01*
X000805Y002779D02*
X001075Y002779D01*
X001075Y002878D02*
X000805Y002878D01*
X000805Y002976D02*
X001075Y002976D01*
X001077Y003075D02*
X000805Y003075D01*
X000805Y003174D02*
X001118Y003174D01*
X001159Y003272D02*
X000805Y003272D01*
X000805Y003371D02*
X001200Y003371D01*
X001278Y003469D02*
X000805Y003469D01*
X000805Y003568D02*
X001377Y003568D01*
X001482Y003666D02*
X000805Y003666D01*
X043162Y006130D02*
X043648Y006130D01*
X043571Y006228D02*
X043240Y006228D01*
X043280Y006327D02*
X043530Y006327D01*
X043528Y006426D02*
X043283Y006426D01*
X043265Y006524D02*
X043545Y006524D01*
X043587Y006623D02*
X043223Y006623D01*
X043125Y006721D02*
X043685Y006721D01*
X044125Y006721D02*
X044709Y006721D01*
X044610Y006623D02*
X044223Y006623D01*
X044265Y006524D02*
X044569Y006524D01*
X044551Y006426D02*
X044283Y006426D01*
X044280Y006327D02*
X044553Y006327D01*
X044594Y006228D02*
X044240Y006228D01*
X044162Y006130D02*
X044672Y006130D01*
D28*
X045655Y005345D02*
X045655Y005157D01*
X045655Y005345D02*
X046280Y005970D01*
X051968Y005970D01*
X052593Y006595D01*
X052593Y010095D01*
X052905Y010407D01*
X052218Y012907D02*
X051905Y012907D01*
X053218Y014657D02*
X053155Y014720D01*
X053155Y015407D01*
X053405Y015657D01*
X054155Y015657D01*
X054490Y015992D01*
X054490Y016657D01*
D29*
X023655Y005407D02*
X023655Y003470D01*
X023655Y002907D01*
X024405Y002157D01*
X029468Y002157D01*
X023655Y002907D02*
X021342Y002907D01*
X019042Y002907D01*
D30*
X023655Y005407D03*
M02*
