G75*
G70*
%OFA0B0*%
%FSLAX24Y24*%
%IPPOS*%
%LPD*%
%AMOC8*
5,1,8,0,0,1.08239X$1,22.5*
%
%ADD10C,0.0000*%
%ADD11C,0.0100*%
%ADD12C,0.0080*%
%ADD13C,0.0050*%
%ADD14C,0.0020*%
%ADD15C,0.0060*%
%ADD16R,0.0240X0.0620*%
%ADD17C,0.0401*%
%ADD18C,0.0040*%
%ADD19R,0.0750X0.0600*%
D10*
X000655Y000907D02*
X000655Y020407D01*
X059655Y020407D01*
X059655Y000907D01*
X000655Y000907D01*
X010064Y002907D02*
X010066Y002955D01*
X010072Y003003D01*
X010082Y003050D01*
X010095Y003096D01*
X010113Y003141D01*
X010133Y003185D01*
X010158Y003227D01*
X010186Y003266D01*
X010216Y003303D01*
X010250Y003337D01*
X010287Y003369D01*
X010325Y003398D01*
X010366Y003423D01*
X010409Y003445D01*
X010454Y003463D01*
X010500Y003477D01*
X010547Y003488D01*
X010595Y003495D01*
X010643Y003498D01*
X010691Y003497D01*
X010739Y003492D01*
X010787Y003483D01*
X010833Y003471D01*
X010878Y003454D01*
X010922Y003434D01*
X010964Y003411D01*
X011004Y003384D01*
X011042Y003354D01*
X011077Y003321D01*
X011109Y003285D01*
X011139Y003247D01*
X011165Y003206D01*
X011187Y003163D01*
X011207Y003119D01*
X011222Y003074D01*
X011234Y003027D01*
X011242Y002979D01*
X011246Y002931D01*
X011246Y002883D01*
X011242Y002835D01*
X011234Y002787D01*
X011222Y002740D01*
X011207Y002695D01*
X011187Y002651D01*
X011165Y002608D01*
X011139Y002567D01*
X011109Y002529D01*
X011077Y002493D01*
X011042Y002460D01*
X011004Y002430D01*
X010964Y002403D01*
X010922Y002380D01*
X010878Y002360D01*
X010833Y002343D01*
X010787Y002331D01*
X010739Y002322D01*
X010691Y002317D01*
X010643Y002316D01*
X010595Y002319D01*
X010547Y002326D01*
X010500Y002337D01*
X010454Y002351D01*
X010409Y002369D01*
X010366Y002391D01*
X010325Y002416D01*
X010287Y002445D01*
X010250Y002477D01*
X010216Y002511D01*
X010186Y002548D01*
X010158Y002587D01*
X010133Y002629D01*
X010113Y002673D01*
X010095Y002718D01*
X010082Y002764D01*
X010072Y002811D01*
X010066Y002859D01*
X010064Y002907D01*
X049064Y002907D02*
X049066Y002955D01*
X049072Y003003D01*
X049082Y003050D01*
X049095Y003096D01*
X049113Y003141D01*
X049133Y003185D01*
X049158Y003227D01*
X049186Y003266D01*
X049216Y003303D01*
X049250Y003337D01*
X049287Y003369D01*
X049325Y003398D01*
X049366Y003423D01*
X049409Y003445D01*
X049454Y003463D01*
X049500Y003477D01*
X049547Y003488D01*
X049595Y003495D01*
X049643Y003498D01*
X049691Y003497D01*
X049739Y003492D01*
X049787Y003483D01*
X049833Y003471D01*
X049878Y003454D01*
X049922Y003434D01*
X049964Y003411D01*
X050004Y003384D01*
X050042Y003354D01*
X050077Y003321D01*
X050109Y003285D01*
X050139Y003247D01*
X050165Y003206D01*
X050187Y003163D01*
X050207Y003119D01*
X050222Y003074D01*
X050234Y003027D01*
X050242Y002979D01*
X050246Y002931D01*
X050246Y002883D01*
X050242Y002835D01*
X050234Y002787D01*
X050222Y002740D01*
X050207Y002695D01*
X050187Y002651D01*
X050165Y002608D01*
X050139Y002567D01*
X050109Y002529D01*
X050077Y002493D01*
X050042Y002460D01*
X050004Y002430D01*
X049964Y002403D01*
X049922Y002380D01*
X049878Y002360D01*
X049833Y002343D01*
X049787Y002331D01*
X049739Y002322D01*
X049691Y002317D01*
X049643Y002316D01*
X049595Y002319D01*
X049547Y002326D01*
X049500Y002337D01*
X049454Y002351D01*
X049409Y002369D01*
X049366Y002391D01*
X049325Y002416D01*
X049287Y002445D01*
X049250Y002477D01*
X049216Y002511D01*
X049186Y002548D01*
X049158Y002587D01*
X049133Y002629D01*
X049113Y002673D01*
X049095Y002718D01*
X049082Y002764D01*
X049072Y002811D01*
X049066Y002859D01*
X049064Y002907D01*
X049064Y018407D02*
X049066Y018455D01*
X049072Y018503D01*
X049082Y018550D01*
X049095Y018596D01*
X049113Y018641D01*
X049133Y018685D01*
X049158Y018727D01*
X049186Y018766D01*
X049216Y018803D01*
X049250Y018837D01*
X049287Y018869D01*
X049325Y018898D01*
X049366Y018923D01*
X049409Y018945D01*
X049454Y018963D01*
X049500Y018977D01*
X049547Y018988D01*
X049595Y018995D01*
X049643Y018998D01*
X049691Y018997D01*
X049739Y018992D01*
X049787Y018983D01*
X049833Y018971D01*
X049878Y018954D01*
X049922Y018934D01*
X049964Y018911D01*
X050004Y018884D01*
X050042Y018854D01*
X050077Y018821D01*
X050109Y018785D01*
X050139Y018747D01*
X050165Y018706D01*
X050187Y018663D01*
X050207Y018619D01*
X050222Y018574D01*
X050234Y018527D01*
X050242Y018479D01*
X050246Y018431D01*
X050246Y018383D01*
X050242Y018335D01*
X050234Y018287D01*
X050222Y018240D01*
X050207Y018195D01*
X050187Y018151D01*
X050165Y018108D01*
X050139Y018067D01*
X050109Y018029D01*
X050077Y017993D01*
X050042Y017960D01*
X050004Y017930D01*
X049964Y017903D01*
X049922Y017880D01*
X049878Y017860D01*
X049833Y017843D01*
X049787Y017831D01*
X049739Y017822D01*
X049691Y017817D01*
X049643Y017816D01*
X049595Y017819D01*
X049547Y017826D01*
X049500Y017837D01*
X049454Y017851D01*
X049409Y017869D01*
X049366Y017891D01*
X049325Y017916D01*
X049287Y017945D01*
X049250Y017977D01*
X049216Y018011D01*
X049186Y018048D01*
X049158Y018087D01*
X049133Y018129D01*
X049113Y018173D01*
X049095Y018218D01*
X049082Y018264D01*
X049072Y018311D01*
X049066Y018359D01*
X049064Y018407D01*
X010064Y018407D02*
X010066Y018455D01*
X010072Y018503D01*
X010082Y018550D01*
X010095Y018596D01*
X010113Y018641D01*
X010133Y018685D01*
X010158Y018727D01*
X010186Y018766D01*
X010216Y018803D01*
X010250Y018837D01*
X010287Y018869D01*
X010325Y018898D01*
X010366Y018923D01*
X010409Y018945D01*
X010454Y018963D01*
X010500Y018977D01*
X010547Y018988D01*
X010595Y018995D01*
X010643Y018998D01*
X010691Y018997D01*
X010739Y018992D01*
X010787Y018983D01*
X010833Y018971D01*
X010878Y018954D01*
X010922Y018934D01*
X010964Y018911D01*
X011004Y018884D01*
X011042Y018854D01*
X011077Y018821D01*
X011109Y018785D01*
X011139Y018747D01*
X011165Y018706D01*
X011187Y018663D01*
X011207Y018619D01*
X011222Y018574D01*
X011234Y018527D01*
X011242Y018479D01*
X011246Y018431D01*
X011246Y018383D01*
X011242Y018335D01*
X011234Y018287D01*
X011222Y018240D01*
X011207Y018195D01*
X011187Y018151D01*
X011165Y018108D01*
X011139Y018067D01*
X011109Y018029D01*
X011077Y017993D01*
X011042Y017960D01*
X011004Y017930D01*
X010964Y017903D01*
X010922Y017880D01*
X010878Y017860D01*
X010833Y017843D01*
X010787Y017831D01*
X010739Y017822D01*
X010691Y017817D01*
X010643Y017816D01*
X010595Y017819D01*
X010547Y017826D01*
X010500Y017837D01*
X010454Y017851D01*
X010409Y017869D01*
X010366Y017891D01*
X010325Y017916D01*
X010287Y017945D01*
X010250Y017977D01*
X010216Y018011D01*
X010186Y018048D01*
X010158Y018087D01*
X010133Y018129D01*
X010113Y018173D01*
X010095Y018218D01*
X010082Y018264D01*
X010072Y018311D01*
X010066Y018359D01*
X010064Y018407D01*
D11*
X029780Y004345D02*
X029968Y004157D01*
X031280Y004157D01*
X030030Y003095D02*
X029780Y003345D01*
X030030Y003095D02*
X031280Y003095D01*
X030030Y002095D02*
X029780Y002345D01*
X030030Y002095D02*
X031280Y002095D01*
X034655Y001657D02*
X041655Y001657D01*
X041655Y003657D01*
X034655Y003657D01*
X034655Y001657D01*
X051072Y009771D02*
X051074Y009798D01*
X051080Y009825D01*
X051089Y009851D01*
X051102Y009875D01*
X051118Y009898D01*
X051137Y009917D01*
X051159Y009934D01*
X051183Y009948D01*
X051208Y009958D01*
X051235Y009965D01*
X051262Y009968D01*
X051290Y009967D01*
X051317Y009962D01*
X051343Y009954D01*
X051367Y009942D01*
X051390Y009926D01*
X051411Y009908D01*
X051428Y009887D01*
X051443Y009863D01*
X051454Y009838D01*
X051462Y009812D01*
X051466Y009785D01*
X051466Y009757D01*
X051462Y009730D01*
X051454Y009704D01*
X051443Y009679D01*
X051428Y009655D01*
X051411Y009634D01*
X051390Y009616D01*
X051368Y009600D01*
X051343Y009588D01*
X051317Y009580D01*
X051290Y009575D01*
X051262Y009574D01*
X051235Y009577D01*
X051208Y009584D01*
X051183Y009594D01*
X051159Y009608D01*
X051137Y009625D01*
X051118Y009644D01*
X051102Y009667D01*
X051089Y009691D01*
X051080Y009717D01*
X051074Y009744D01*
X051072Y009771D01*
X051655Y016157D02*
X052405Y016157D01*
X052405Y020157D01*
X051655Y020157D01*
X051655Y016157D01*
X052405Y016157D02*
X054155Y016157D01*
X054155Y020157D01*
X052405Y020157D01*
D12*
X031612Y015720D02*
X031415Y015720D01*
X031415Y009594D01*
X031612Y009594D01*
X031612Y015720D01*
X031415Y015720D02*
X028698Y015720D01*
X028698Y009594D01*
X031415Y009594D01*
X031061Y008978D02*
X029250Y008978D01*
X029250Y008801D01*
X028433Y008787D02*
X027825Y009395D01*
X024739Y009395D01*
X024378Y009033D01*
X025106Y007407D02*
X025108Y007479D01*
X025114Y007550D01*
X025124Y007621D01*
X025137Y007691D01*
X025155Y007760D01*
X025176Y007829D01*
X025201Y007896D01*
X025230Y007961D01*
X025263Y008025D01*
X025298Y008087D01*
X025338Y008147D01*
X025380Y008205D01*
X025425Y008260D01*
X025474Y008313D01*
X025525Y008363D01*
X025579Y008410D01*
X025636Y008454D01*
X025695Y008494D01*
X025755Y008532D01*
X025818Y008566D01*
X025883Y008597D01*
X025950Y008624D01*
X026017Y008647D01*
X026086Y008666D01*
X026156Y008682D01*
X026227Y008694D01*
X026298Y008702D01*
X026369Y008706D01*
X026441Y008706D01*
X026512Y008702D01*
X026583Y008694D01*
X026654Y008682D01*
X026724Y008666D01*
X026793Y008647D01*
X026860Y008624D01*
X026927Y008597D01*
X026992Y008566D01*
X027054Y008532D01*
X027115Y008494D01*
X027174Y008454D01*
X027231Y008410D01*
X027285Y008363D01*
X027336Y008313D01*
X027385Y008260D01*
X027430Y008205D01*
X027472Y008147D01*
X027512Y008087D01*
X027547Y008025D01*
X027580Y007961D01*
X027609Y007896D01*
X027634Y007829D01*
X027655Y007760D01*
X027673Y007691D01*
X027686Y007621D01*
X027696Y007550D01*
X027702Y007479D01*
X027704Y007407D01*
X027702Y007335D01*
X027696Y007264D01*
X027686Y007193D01*
X027673Y007123D01*
X027655Y007054D01*
X027634Y006985D01*
X027609Y006918D01*
X027580Y006853D01*
X027547Y006789D01*
X027512Y006727D01*
X027472Y006667D01*
X027430Y006609D01*
X027385Y006554D01*
X027336Y006501D01*
X027285Y006451D01*
X027231Y006404D01*
X027174Y006360D01*
X027115Y006320D01*
X027055Y006282D01*
X026992Y006248D01*
X026927Y006217D01*
X026860Y006190D01*
X026793Y006167D01*
X026724Y006148D01*
X026654Y006132D01*
X026583Y006120D01*
X026512Y006112D01*
X026441Y006108D01*
X026369Y006108D01*
X026298Y006112D01*
X026227Y006120D01*
X026156Y006132D01*
X026086Y006148D01*
X026017Y006167D01*
X025950Y006190D01*
X025883Y006217D01*
X025818Y006248D01*
X025755Y006282D01*
X025695Y006320D01*
X025636Y006360D01*
X025579Y006404D01*
X025525Y006451D01*
X025474Y006501D01*
X025425Y006554D01*
X025380Y006609D01*
X025338Y006667D01*
X025298Y006727D01*
X025263Y006789D01*
X025230Y006853D01*
X025201Y006918D01*
X025176Y006985D01*
X025155Y007054D01*
X025137Y007123D01*
X025124Y007193D01*
X025114Y007264D01*
X025108Y007335D01*
X025106Y007407D01*
X024378Y006027D02*
X024986Y005419D01*
X028097Y005419D01*
X028132Y005421D01*
X028167Y005426D01*
X028201Y005435D01*
X028233Y005448D01*
X028264Y005464D01*
X028294Y005483D01*
X028321Y005505D01*
X028346Y005530D01*
X028368Y005557D01*
X028387Y005586D01*
X028403Y005618D01*
X028416Y005650D01*
X028425Y005684D01*
X028430Y005719D01*
X028432Y005754D01*
X029250Y007836D02*
X031061Y007836D01*
X031061Y008013D01*
X030549Y008013D02*
X030549Y008801D01*
X031061Y008801D02*
X031061Y008978D01*
X029250Y008013D02*
X029250Y007836D01*
X034955Y006697D02*
X034955Y004117D01*
X036355Y004117D01*
X036355Y006697D01*
X034955Y006697D01*
X039155Y005657D02*
X048155Y005657D01*
X048155Y004657D01*
X039155Y004657D01*
X039155Y005657D01*
X050945Y009447D02*
X053365Y009447D01*
X053365Y011867D01*
X050945Y011867D01*
X050945Y009447D01*
X052658Y003893D02*
X052658Y003421D01*
X053052Y003657D01*
X052658Y003893D01*
X006633Y002122D02*
X000901Y002122D01*
X000901Y019193D01*
X006633Y019193D01*
X006633Y002122D01*
X002303Y008620D02*
X000935Y008620D01*
X002303Y008620D02*
X002303Y012694D01*
X000915Y012694D01*
D13*
X020968Y004782D02*
X021144Y004607D01*
X020910Y004607D01*
X020968Y004432D02*
X020968Y004782D01*
X021395Y004782D02*
X021512Y004666D01*
X021647Y004724D02*
X021705Y004782D01*
X021822Y004782D01*
X021880Y004724D01*
X021880Y004490D01*
X021822Y004432D01*
X021705Y004432D01*
X021647Y004490D01*
X021512Y004432D02*
X021278Y004432D01*
X021395Y004432D02*
X021395Y004782D01*
X021395Y004282D02*
X021395Y003932D01*
X021512Y003932D02*
X021278Y003932D01*
X021144Y003990D02*
X020910Y004224D01*
X020910Y003990D01*
X020968Y003932D01*
X021085Y003932D01*
X021144Y003990D01*
X021144Y004224D01*
X021085Y004282D01*
X020968Y004282D01*
X020910Y004224D01*
X021395Y004282D02*
X021512Y004166D01*
X021647Y004224D02*
X021705Y004282D01*
X021822Y004282D01*
X021880Y004224D01*
X021880Y003990D01*
X021822Y003932D01*
X021705Y003932D01*
X021647Y003990D01*
X025773Y002557D02*
X025948Y002382D01*
X025715Y002382D01*
X025773Y002207D02*
X025773Y002557D01*
X026083Y002499D02*
X026142Y002557D01*
X026258Y002557D01*
X026317Y002499D01*
X026317Y002265D01*
X026258Y002207D01*
X026142Y002207D01*
X026083Y002265D01*
X026446Y002207D02*
X026562Y002207D01*
X026504Y002207D02*
X026504Y002557D01*
X026562Y002557D02*
X026446Y002557D01*
X026453Y001782D02*
X026337Y001782D01*
X026278Y001724D01*
X026278Y001666D01*
X026337Y001607D01*
X026453Y001607D01*
X026512Y001666D01*
X026512Y001724D01*
X026453Y001782D01*
X026453Y001607D02*
X026512Y001549D01*
X026512Y001490D01*
X026453Y001432D01*
X026337Y001432D01*
X026278Y001490D01*
X026278Y001549D01*
X026337Y001607D01*
X026647Y001490D02*
X026705Y001432D01*
X026822Y001432D01*
X026880Y001490D01*
X026880Y001724D01*
X026822Y001782D01*
X026705Y001782D01*
X026647Y001724D01*
X023630Y001990D02*
X023572Y001932D01*
X023455Y001932D01*
X023397Y001990D01*
X023262Y001932D02*
X023028Y001932D01*
X023145Y001932D02*
X023145Y002282D01*
X023262Y002166D01*
X023397Y002224D02*
X023455Y002282D01*
X023572Y002282D01*
X023630Y002224D01*
X023630Y001990D01*
X022894Y001932D02*
X022660Y001932D01*
X022777Y001932D02*
X022777Y002282D01*
X022894Y002166D01*
X026229Y004866D02*
X026463Y004866D01*
X026346Y004866D02*
X026346Y005216D01*
X026463Y005099D01*
X026597Y004866D02*
X026831Y004866D01*
X026831Y005216D01*
X028660Y005111D02*
X028718Y005170D01*
X028894Y005170D01*
X028894Y005053D01*
X028835Y004995D01*
X028718Y004995D01*
X028660Y005053D01*
X028660Y005111D01*
X028777Y005286D02*
X028894Y005170D01*
X028777Y005286D02*
X028660Y005345D01*
X029145Y005345D02*
X029262Y005228D01*
X029397Y005286D02*
X029455Y005345D01*
X029572Y005345D01*
X029630Y005286D01*
X029630Y005053D01*
X029572Y004995D01*
X029455Y004995D01*
X029397Y005053D01*
X029262Y004995D02*
X029028Y004995D01*
X029145Y004995D02*
X029145Y005345D01*
X030160Y005345D02*
X030394Y005345D01*
X030394Y005170D01*
X030277Y005228D01*
X030218Y005228D01*
X030160Y005170D01*
X030160Y005053D01*
X030218Y004995D01*
X030335Y004995D01*
X030394Y005053D01*
X030528Y004995D02*
X030762Y004995D01*
X030645Y004995D02*
X030645Y005345D01*
X030762Y005228D01*
X030897Y005286D02*
X030955Y005345D01*
X031072Y005345D01*
X031130Y005286D01*
X031130Y005053D01*
X031072Y004995D01*
X030955Y004995D01*
X030897Y005053D01*
X031410Y004724D02*
X031410Y004666D01*
X031468Y004607D01*
X031585Y004607D01*
X031644Y004666D01*
X031644Y004724D01*
X031585Y004782D01*
X031468Y004782D01*
X031410Y004724D01*
X031468Y004607D02*
X031410Y004549D01*
X031410Y004490D01*
X031468Y004432D01*
X031585Y004432D01*
X031644Y004490D01*
X031644Y004549D01*
X031585Y004607D01*
X031778Y004549D02*
X031778Y004490D01*
X031837Y004432D01*
X031953Y004432D01*
X032012Y004490D01*
X032147Y004432D02*
X032263Y004549D01*
X032205Y004549D02*
X032380Y004549D01*
X032380Y004432D02*
X032380Y004782D01*
X032205Y004782D01*
X032147Y004724D01*
X032147Y004607D01*
X032205Y004549D01*
X032012Y004724D02*
X031953Y004782D01*
X031837Y004782D01*
X031778Y004724D01*
X031778Y004666D01*
X031837Y004607D01*
X031778Y004549D01*
X031837Y004607D02*
X031895Y004607D01*
X031837Y004282D02*
X031778Y004224D01*
X031778Y004166D01*
X031837Y004107D01*
X031778Y004049D01*
X031778Y003990D01*
X031837Y003932D01*
X031953Y003932D01*
X032012Y003990D01*
X032147Y003932D02*
X032263Y004049D01*
X032205Y004049D02*
X032380Y004049D01*
X032380Y003932D02*
X032380Y004282D01*
X032205Y004282D01*
X032147Y004224D01*
X032147Y004107D01*
X032205Y004049D01*
X032012Y004224D02*
X031953Y004282D01*
X031837Y004282D01*
X031837Y004107D02*
X031895Y004107D01*
X031644Y003990D02*
X031644Y003932D01*
X031644Y003990D02*
X031410Y004224D01*
X031410Y004282D01*
X031644Y004282D01*
X031837Y003782D02*
X031778Y003724D01*
X031778Y003666D01*
X031837Y003607D01*
X031778Y003549D01*
X031778Y003490D01*
X031837Y003432D01*
X031953Y003432D01*
X032012Y003490D01*
X032147Y003432D02*
X032263Y003549D01*
X032205Y003549D02*
X032380Y003549D01*
X032380Y003432D02*
X032380Y003782D01*
X032205Y003782D01*
X032147Y003724D01*
X032147Y003607D01*
X032205Y003549D01*
X032012Y003724D02*
X031953Y003782D01*
X031837Y003782D01*
X031837Y003607D02*
X031895Y003607D01*
X031644Y003607D02*
X031468Y003607D01*
X031410Y003549D01*
X031410Y003490D01*
X031468Y003432D01*
X031585Y003432D01*
X031644Y003490D01*
X031644Y003607D01*
X031527Y003724D01*
X031410Y003782D01*
X031468Y003282D02*
X031585Y003282D01*
X031644Y003224D01*
X031468Y003282D02*
X031410Y003224D01*
X031410Y003166D01*
X031644Y002932D01*
X031410Y002932D01*
X031468Y002782D02*
X031410Y002724D01*
X031410Y002666D01*
X031468Y002607D01*
X031410Y002549D01*
X031410Y002490D01*
X031468Y002432D01*
X031585Y002432D01*
X031644Y002490D01*
X031778Y002432D02*
X032012Y002432D01*
X031895Y002432D02*
X031895Y002782D01*
X032012Y002666D01*
X032147Y002724D02*
X032205Y002782D01*
X032322Y002782D01*
X032380Y002724D01*
X032380Y002490D01*
X032322Y002432D01*
X032205Y002432D01*
X032147Y002490D01*
X032205Y002282D02*
X032147Y002224D01*
X032147Y002107D01*
X032205Y002049D01*
X032380Y002049D01*
X032263Y002049D02*
X032147Y001932D01*
X032012Y001990D02*
X031953Y001932D01*
X031837Y001932D01*
X031778Y001990D01*
X031778Y002049D01*
X031837Y002107D01*
X031895Y002107D01*
X031837Y002107D02*
X031778Y002166D01*
X031778Y002224D01*
X031837Y002282D01*
X031953Y002282D01*
X032012Y002224D01*
X032205Y002282D02*
X032380Y002282D01*
X032380Y001932D01*
X031644Y001990D02*
X031585Y001932D01*
X031468Y001932D01*
X031410Y001990D01*
X031410Y002107D01*
X031468Y002166D01*
X031527Y002166D01*
X031644Y002107D01*
X031644Y002282D01*
X031410Y002282D01*
X031468Y002607D02*
X031527Y002607D01*
X031644Y002724D02*
X031585Y002782D01*
X031468Y002782D01*
X031778Y002932D02*
X032012Y002932D01*
X031895Y002932D02*
X031895Y003282D01*
X032012Y003166D01*
X032147Y003224D02*
X032205Y003282D01*
X032322Y003282D01*
X032380Y003224D01*
X032380Y002990D01*
X032322Y002932D01*
X032205Y002932D01*
X032147Y002990D01*
X030630Y001724D02*
X030630Y001490D01*
X030572Y001432D01*
X030455Y001432D01*
X030397Y001490D01*
X030262Y001490D02*
X030203Y001432D01*
X030087Y001432D01*
X030028Y001490D01*
X030028Y001724D01*
X030087Y001782D01*
X030203Y001782D01*
X030262Y001724D01*
X030262Y001666D01*
X030203Y001607D01*
X030028Y001607D01*
X030397Y001724D02*
X030455Y001782D01*
X030572Y001782D01*
X030630Y001724D01*
X032410Y001532D02*
X032410Y001474D01*
X032644Y001240D01*
X032644Y001182D01*
X032778Y001182D02*
X033012Y001182D01*
X032895Y001182D02*
X032895Y001532D01*
X033012Y001416D01*
X033147Y001474D02*
X033205Y001532D01*
X033322Y001532D01*
X033380Y001474D01*
X033380Y001240D01*
X033322Y001182D01*
X033205Y001182D01*
X033147Y001240D01*
X033660Y001240D02*
X033660Y001299D01*
X033718Y001357D01*
X033835Y001357D01*
X033894Y001416D01*
X033894Y001474D01*
X033835Y001532D01*
X033718Y001532D01*
X033660Y001474D01*
X033660Y001416D01*
X033718Y001357D01*
X033835Y001357D02*
X033894Y001299D01*
X033894Y001240D01*
X033835Y001182D01*
X033718Y001182D01*
X033660Y001240D01*
X034028Y001182D02*
X034262Y001182D01*
X034145Y001182D02*
X034145Y001532D01*
X034262Y001416D01*
X034397Y001474D02*
X034455Y001532D01*
X034572Y001532D01*
X034630Y001474D01*
X034630Y001240D01*
X034572Y001182D01*
X034455Y001182D01*
X034397Y001240D01*
X032644Y001532D02*
X032410Y001532D01*
X040292Y004282D02*
X040525Y004282D01*
X040408Y004282D02*
X040408Y003932D01*
X040660Y003932D02*
X040777Y004049D01*
X040718Y004049D02*
X040894Y004049D01*
X040894Y003932D02*
X040894Y004282D01*
X040718Y004282D01*
X040660Y004224D01*
X040660Y004107D01*
X040718Y004049D01*
X041028Y004107D02*
X041262Y004107D01*
X041262Y004166D02*
X041145Y004282D01*
X041028Y004166D01*
X041028Y003932D01*
X041262Y003932D02*
X041262Y004166D01*
X041397Y004282D02*
X041397Y003990D01*
X041455Y003932D01*
X041572Y003932D01*
X041630Y003990D01*
X041630Y004282D01*
X042580Y004035D02*
X042580Y001279D01*
X044261Y001279D01*
X044261Y001082D01*
X045049Y001082D01*
X045049Y001279D01*
X046730Y001279D01*
X046730Y004035D01*
X042580Y004035D01*
X042380Y003047D02*
X042147Y002814D01*
X042205Y002872D02*
X042030Y003047D01*
X042030Y002814D02*
X042380Y002814D01*
X042030Y002679D02*
X042030Y002445D01*
X042380Y002445D01*
X042322Y002311D02*
X042264Y002311D01*
X042205Y002252D01*
X042205Y002077D01*
X042030Y002077D02*
X042030Y002252D01*
X042088Y002311D01*
X042147Y002311D01*
X042205Y002252D01*
X042322Y002311D02*
X042380Y002252D01*
X042380Y002077D01*
X042030Y002077D01*
X044261Y001279D02*
X045049Y001279D01*
X046919Y001870D02*
X047214Y001574D01*
X047214Y002165D01*
X046919Y001870D01*
X046927Y001878D02*
X047214Y001878D01*
X047214Y001926D02*
X046976Y001926D01*
X047024Y001975D02*
X047214Y001975D01*
X047214Y002024D02*
X047073Y002024D01*
X047121Y002072D02*
X047214Y002072D01*
X047214Y002121D02*
X047170Y002121D01*
X047214Y001829D02*
X046959Y001829D01*
X047008Y001781D02*
X047214Y001781D01*
X047214Y001732D02*
X047056Y001732D01*
X047105Y001684D02*
X047214Y001684D01*
X047214Y001635D02*
X047153Y001635D01*
X047202Y001587D02*
X047214Y001587D01*
X046987Y002385D02*
X046929Y002444D01*
X046929Y002502D01*
X046987Y002560D01*
X047279Y002560D01*
X047279Y002502D02*
X047279Y002619D01*
X047279Y002754D02*
X047279Y002987D01*
X047279Y002870D02*
X046929Y002870D01*
X046929Y003122D02*
X047162Y003122D01*
X047279Y003239D01*
X047162Y003355D01*
X046929Y003355D01*
X046987Y003490D02*
X046929Y003549D01*
X046929Y003665D01*
X046987Y003724D01*
X047104Y003724D01*
X047104Y003607D01*
X047220Y003724D02*
X047279Y003665D01*
X047279Y003549D01*
X047220Y003490D01*
X046987Y003490D01*
X047104Y003355D02*
X047104Y003122D01*
X047162Y003858D02*
X047279Y003975D01*
X046929Y003975D01*
X046929Y003858D02*
X046929Y004092D01*
X048515Y005032D02*
X048748Y005032D01*
X048515Y005266D01*
X048515Y005324D01*
X048573Y005382D01*
X048690Y005382D01*
X048748Y005324D01*
X048883Y005324D02*
X048942Y005382D01*
X049058Y005382D01*
X049117Y005324D01*
X049117Y005090D01*
X049058Y005032D01*
X048942Y005032D01*
X048883Y005090D01*
X048883Y005207D01*
X049000Y005207D01*
X049252Y005207D02*
X049485Y005207D01*
X049485Y005266D02*
X049368Y005382D01*
X049252Y005266D01*
X049252Y005032D01*
X049485Y005032D02*
X049485Y005266D01*
X049620Y005382D02*
X049853Y005382D01*
X049737Y005382D02*
X049737Y005032D01*
X050047Y005090D02*
X050047Y005382D01*
X050105Y005382D02*
X049988Y005382D01*
X050047Y005090D02*
X050105Y005032D01*
X050163Y005032D01*
X050222Y005090D01*
X050905Y005386D02*
X050905Y005502D01*
X050963Y005561D01*
X050963Y005695D02*
X050905Y005754D01*
X050905Y005871D01*
X050963Y005929D01*
X051022Y005929D01*
X051080Y005871D01*
X051080Y005812D01*
X051080Y005871D02*
X051139Y005929D01*
X051197Y005929D01*
X051255Y005871D01*
X051255Y005754D01*
X051197Y005695D01*
X051197Y005561D02*
X051255Y005502D01*
X051255Y005386D01*
X051197Y005327D01*
X050963Y005327D01*
X050905Y005386D01*
X051780Y005386D02*
X051838Y005327D01*
X052072Y005327D01*
X052130Y005386D01*
X052130Y005502D01*
X052072Y005561D01*
X052072Y005695D02*
X052130Y005754D01*
X052130Y005871D01*
X052072Y005929D01*
X052014Y005929D01*
X051780Y005695D01*
X051780Y005929D01*
X051838Y006064D02*
X051897Y006064D01*
X051955Y006122D01*
X051955Y006239D01*
X051897Y006297D01*
X051838Y006297D01*
X051780Y006239D01*
X051780Y006122D01*
X051838Y006064D01*
X051955Y006122D02*
X052014Y006064D01*
X052072Y006064D01*
X052130Y006122D01*
X052130Y006239D01*
X052072Y006297D01*
X052014Y006297D01*
X051955Y006239D01*
X051255Y006181D02*
X050905Y006181D01*
X050905Y006297D02*
X050905Y006064D01*
X051139Y006064D02*
X051255Y006181D01*
X051838Y005561D02*
X051780Y005502D01*
X051780Y005386D01*
X050235Y006282D02*
X050235Y006632D01*
X050060Y006632D01*
X050002Y006574D01*
X050002Y006457D01*
X050060Y006399D01*
X050235Y006399D01*
X050118Y006399D02*
X050002Y006282D01*
X049867Y006340D02*
X049808Y006282D01*
X049692Y006282D01*
X049633Y006340D01*
X049633Y006457D01*
X049692Y006516D01*
X049750Y006516D01*
X049867Y006457D01*
X049867Y006632D01*
X049633Y006632D01*
X049498Y006457D02*
X049323Y006632D01*
X049323Y006282D01*
X049265Y006457D02*
X049498Y006457D01*
X048985Y006340D02*
X048927Y006282D01*
X048810Y006282D01*
X048752Y006340D01*
X048617Y006282D02*
X048383Y006516D01*
X048383Y006574D01*
X048442Y006632D01*
X048558Y006632D01*
X048617Y006574D01*
X048752Y006574D02*
X048810Y006632D01*
X048927Y006632D01*
X048985Y006574D01*
X048985Y006340D01*
X048617Y006282D02*
X048383Y006282D01*
X048248Y006282D02*
X048248Y006340D01*
X048015Y006574D01*
X048015Y006632D01*
X048248Y006632D01*
X053305Y006990D02*
X053305Y007107D01*
X053363Y007166D01*
X053305Y007300D02*
X053539Y007534D01*
X053597Y007534D01*
X053655Y007476D01*
X053655Y007359D01*
X053597Y007300D01*
X053597Y007166D02*
X053655Y007107D01*
X053655Y006990D01*
X053597Y006932D01*
X053363Y006932D01*
X053305Y006990D01*
X053305Y007300D02*
X053305Y007534D01*
X053363Y007669D02*
X053305Y007727D01*
X053305Y007844D01*
X053363Y007902D01*
X053597Y007902D01*
X053655Y007844D01*
X053655Y007727D01*
X053597Y007669D01*
X053539Y007669D01*
X053480Y007727D01*
X053480Y007902D01*
X054280Y009144D02*
X054280Y009261D01*
X054280Y009202D02*
X054630Y009202D01*
X054630Y009144D02*
X054630Y009261D01*
X054572Y009390D02*
X054339Y009390D01*
X054280Y009448D01*
X054280Y009565D01*
X054339Y009623D01*
X054280Y009758D02*
X054280Y009991D01*
X054280Y009875D02*
X054630Y009875D01*
X054514Y009758D01*
X054572Y009623D02*
X054630Y009565D01*
X054630Y009448D01*
X054572Y009390D01*
X054938Y009745D02*
X054880Y009804D01*
X054880Y009921D01*
X054938Y009979D01*
X054997Y009979D01*
X055055Y009921D01*
X055055Y009804D01*
X055114Y009745D01*
X055172Y009745D01*
X055230Y009804D01*
X055230Y009921D01*
X055172Y009979D01*
X055172Y010114D02*
X055230Y010172D01*
X055230Y010289D01*
X055172Y010347D01*
X055114Y010347D01*
X054880Y010114D01*
X054880Y010347D01*
X054630Y010243D02*
X054280Y010243D01*
X054280Y010126D02*
X054280Y010360D01*
X054514Y010126D02*
X054630Y010243D01*
X047280Y012254D02*
X047280Y012371D01*
X047222Y012429D01*
X046988Y012429D01*
X046930Y012371D01*
X046930Y012254D01*
X046988Y012195D01*
X047222Y012195D01*
X047280Y012254D01*
X047047Y012312D02*
X046930Y012429D01*
X046930Y012564D02*
X046930Y012797D01*
X046930Y012681D02*
X047280Y012681D01*
X047164Y012564D01*
X050555Y013490D02*
X050555Y013607D01*
X050613Y013666D01*
X050555Y013800D02*
X050789Y014034D01*
X050847Y014034D01*
X050905Y013976D01*
X050905Y013859D01*
X050847Y013800D01*
X050847Y013666D02*
X050905Y013607D01*
X050905Y013490D01*
X050847Y013432D01*
X050613Y013432D01*
X050555Y013490D01*
X050555Y013800D02*
X050555Y014034D01*
X050613Y014169D02*
X050555Y014227D01*
X050555Y014344D01*
X050613Y014402D01*
X050730Y014402D01*
X050789Y014344D01*
X050789Y014285D01*
X050730Y014169D01*
X050905Y014169D01*
X050905Y014402D01*
X051118Y014344D02*
X051118Y014227D01*
X051176Y014169D01*
X051410Y014402D01*
X051176Y014402D01*
X051118Y014344D01*
X051176Y014169D02*
X051410Y014169D01*
X051468Y014227D01*
X051468Y014344D01*
X051410Y014402D01*
X051410Y014034D02*
X051351Y014034D01*
X051293Y013976D01*
X051234Y014034D01*
X051176Y014034D01*
X051118Y013976D01*
X051118Y013859D01*
X051176Y013800D01*
X051176Y013666D02*
X051118Y013607D01*
X051118Y013490D01*
X051176Y013432D01*
X051410Y013432D01*
X051468Y013490D01*
X051468Y013607D01*
X051410Y013666D01*
X051410Y013800D02*
X051468Y013859D01*
X051468Y013976D01*
X051410Y014034D01*
X051293Y013976D02*
X051293Y013917D01*
X048880Y014740D02*
X048822Y014682D01*
X048705Y014682D01*
X048647Y014740D01*
X048512Y014682D02*
X048278Y014682D01*
X048144Y014740D02*
X048085Y014682D01*
X047968Y014682D01*
X047910Y014740D01*
X047910Y014799D01*
X047968Y014857D01*
X048144Y014857D01*
X048144Y014740D01*
X048144Y014857D02*
X048027Y014974D01*
X047910Y015032D01*
X048278Y014974D02*
X048337Y015032D01*
X048453Y015032D01*
X048512Y014974D01*
X048647Y014974D02*
X048705Y015032D01*
X048822Y015032D01*
X048880Y014974D01*
X048880Y014740D01*
X048512Y014682D02*
X048278Y014916D01*
X048278Y014974D01*
X050555Y014932D02*
X050905Y014932D01*
X050905Y015107D01*
X050847Y015166D01*
X050730Y015166D01*
X050672Y015107D01*
X050672Y014932D01*
X050672Y015049D02*
X050555Y015166D01*
X050730Y015300D02*
X050730Y015534D01*
X050789Y015669D02*
X050730Y015727D01*
X050730Y015902D01*
X050614Y015902D02*
X050847Y015902D01*
X050905Y015844D01*
X050905Y015727D01*
X050847Y015669D01*
X050789Y015669D01*
X050614Y015669D02*
X050555Y015727D01*
X050555Y015844D01*
X050614Y015902D01*
X051118Y015844D02*
X051118Y015727D01*
X051176Y015669D01*
X051234Y015669D01*
X051293Y015727D01*
X051293Y015844D01*
X051234Y015902D01*
X051176Y015902D01*
X051118Y015844D01*
X051293Y015844D02*
X051351Y015902D01*
X051410Y015902D01*
X051468Y015844D01*
X051468Y015727D01*
X051410Y015669D01*
X051351Y015669D01*
X051293Y015727D01*
X051293Y015534D02*
X051293Y015300D01*
X051468Y015476D01*
X051118Y015476D01*
X050905Y015476D02*
X050730Y015300D01*
X050555Y015476D02*
X050905Y015476D01*
X051118Y015166D02*
X051234Y015049D01*
X051234Y015107D02*
X051234Y014932D01*
X051118Y014932D02*
X051468Y014932D01*
X051468Y015107D01*
X051410Y015166D01*
X051293Y015166D01*
X051234Y015107D01*
X054180Y014402D02*
X054180Y014169D01*
X054414Y014402D01*
X054472Y014402D01*
X054530Y014344D01*
X054530Y014227D01*
X054472Y014169D01*
X054472Y014034D02*
X054414Y014034D01*
X054355Y013976D01*
X054297Y014034D01*
X054238Y014034D01*
X054180Y013976D01*
X054180Y013859D01*
X054238Y013800D01*
X054238Y013666D02*
X054180Y013607D01*
X054180Y013490D01*
X054238Y013432D01*
X054472Y013432D01*
X054530Y013490D01*
X054530Y013607D01*
X054472Y013666D01*
X054472Y013800D02*
X054530Y013859D01*
X054530Y013976D01*
X054472Y014034D01*
X054355Y013976D02*
X054355Y013917D01*
X054938Y018745D02*
X054880Y018804D01*
X054880Y018921D01*
X054938Y018979D01*
X054997Y018979D01*
X055055Y018921D01*
X055055Y018804D01*
X055114Y018745D01*
X055172Y018745D01*
X055230Y018804D01*
X055230Y018921D01*
X055172Y018979D01*
X055114Y019114D02*
X055230Y019231D01*
X054880Y019231D01*
X054880Y019347D02*
X054880Y019114D01*
X051380Y019200D02*
X051380Y019317D01*
X051380Y019258D02*
X051030Y019258D01*
X051030Y019200D02*
X051030Y019317D01*
X051030Y019445D02*
X051264Y019679D01*
X051322Y019679D01*
X051380Y019621D01*
X051380Y019504D01*
X051322Y019445D01*
X051030Y019445D02*
X051030Y019679D01*
X051088Y019814D02*
X051030Y019872D01*
X051030Y019989D01*
X051088Y020047D01*
X051322Y020047D02*
X051380Y019989D01*
X051380Y019872D01*
X051322Y019814D01*
X051088Y019814D01*
X031380Y016532D02*
X031263Y016532D01*
X031322Y016532D02*
X031322Y016182D01*
X031380Y016182D02*
X031263Y016182D01*
X031135Y016240D02*
X031076Y016182D01*
X030959Y016182D01*
X030901Y016240D01*
X030766Y016182D02*
X030533Y016182D01*
X030650Y016182D02*
X030650Y016532D01*
X030766Y016416D01*
X030901Y016474D02*
X030959Y016532D01*
X031076Y016532D01*
X031135Y016474D01*
X031135Y016240D01*
X024880Y014224D02*
X024880Y013990D01*
X024822Y013932D01*
X024705Y013932D01*
X024647Y013990D01*
X024512Y013932D02*
X024278Y014166D01*
X024278Y014224D01*
X024337Y014282D01*
X024453Y014282D01*
X024512Y014224D01*
X024647Y014224D02*
X024705Y014282D01*
X024822Y014282D01*
X024880Y014224D01*
X024512Y013932D02*
X024278Y013932D01*
X024895Y013282D02*
X024895Y012932D01*
X025012Y012932D02*
X024778Y012932D01*
X025012Y013166D02*
X024895Y013282D01*
X025147Y013224D02*
X025205Y013282D01*
X025322Y013282D01*
X025380Y013224D01*
X025380Y012990D01*
X025322Y012932D01*
X025205Y012932D01*
X025147Y012990D01*
X025205Y012282D02*
X025147Y012224D01*
X025147Y012107D01*
X025205Y012049D01*
X025380Y012049D01*
X025263Y012049D02*
X025147Y011932D01*
X025012Y011932D02*
X024778Y011932D01*
X024895Y011932D02*
X024895Y012282D01*
X025012Y012166D01*
X025205Y012282D02*
X025380Y012282D01*
X025380Y011932D01*
X031544Y008607D02*
X031544Y008257D01*
X031661Y008257D02*
X031427Y008257D01*
X031661Y008491D02*
X031544Y008607D01*
X031796Y008549D02*
X031854Y008607D01*
X032029Y008607D01*
X032029Y008257D01*
X031854Y008257D01*
X031796Y008315D01*
X031796Y008549D01*
X035283Y007302D02*
X035516Y007302D01*
X035516Y007127D01*
X035400Y007186D01*
X035341Y007186D01*
X035283Y007127D01*
X035283Y007010D01*
X035341Y006952D01*
X035458Y006952D01*
X035516Y007010D01*
X035651Y007010D02*
X035709Y006952D01*
X035826Y006952D01*
X035885Y007010D01*
X035885Y007244D01*
X035826Y007302D01*
X035709Y007302D01*
X035651Y007244D01*
X036013Y007302D02*
X036130Y007302D01*
X036072Y007302D02*
X036072Y006952D01*
X036130Y006952D02*
X036013Y006952D01*
X051530Y002564D02*
X051588Y002564D01*
X051822Y002797D01*
X051880Y002797D01*
X051880Y002564D01*
X051880Y002429D02*
X051880Y002195D01*
X051705Y002195D01*
X051764Y002312D01*
X051764Y002371D01*
X051705Y002429D01*
X051588Y002429D01*
X051530Y002371D01*
X051530Y002254D01*
X051588Y002195D01*
X051530Y002061D02*
X051647Y001944D01*
X051647Y002002D02*
X051647Y001827D01*
X051530Y001827D02*
X051880Y001827D01*
X051880Y002002D01*
X051822Y002061D01*
X051705Y002061D01*
X051647Y002002D01*
X053930Y001932D02*
X054280Y001932D01*
X054280Y002107D01*
X054222Y002166D01*
X054105Y002166D01*
X054047Y002107D01*
X054047Y001932D01*
X054047Y002049D02*
X053930Y002166D01*
X053988Y002300D02*
X053930Y002359D01*
X053930Y002476D01*
X053988Y002534D01*
X054105Y002534D01*
X054164Y002476D01*
X054164Y002417D01*
X054105Y002300D01*
X054280Y002300D01*
X054280Y002534D01*
X054222Y002669D02*
X054164Y002669D01*
X054105Y002727D01*
X054105Y002844D01*
X054047Y002902D01*
X053988Y002902D01*
X053930Y002844D01*
X053930Y002727D01*
X053988Y002669D01*
X054047Y002669D01*
X054105Y002727D01*
X054105Y002844D02*
X054164Y002902D01*
X054222Y002902D01*
X054280Y002844D01*
X054280Y002727D01*
X054222Y002669D01*
X054293Y003145D02*
X054293Y003320D01*
X054234Y003378D01*
X054001Y003378D01*
X053943Y003320D01*
X053943Y003145D01*
X054293Y003145D01*
X054234Y003513D02*
X054293Y003571D01*
X054293Y003688D01*
X054234Y003746D01*
X054176Y003746D01*
X054118Y003688D01*
X054059Y003746D01*
X054001Y003746D01*
X053943Y003688D01*
X053943Y003571D01*
X054001Y003513D01*
X054118Y003630D02*
X054118Y003688D01*
X054176Y003881D02*
X054234Y003881D01*
X054293Y003940D01*
X054293Y004056D01*
X054234Y004115D01*
X054176Y004115D01*
X054118Y004056D01*
X054118Y003940D01*
X054176Y003881D01*
X054118Y003940D02*
X054059Y003881D01*
X054001Y003881D01*
X053943Y003940D01*
X053943Y004056D01*
X054001Y004115D01*
X054059Y004115D01*
X054118Y004056D01*
X054222Y004432D02*
X053988Y004432D01*
X053930Y004490D01*
X053930Y004607D01*
X053988Y004666D01*
X053988Y004800D02*
X053930Y004859D01*
X053930Y004976D01*
X053988Y005034D01*
X054047Y005034D01*
X054105Y004976D01*
X054105Y004917D01*
X054105Y004976D02*
X054164Y005034D01*
X054222Y005034D01*
X054280Y004976D01*
X054280Y004859D01*
X054222Y004800D01*
X054222Y004666D02*
X054280Y004607D01*
X054280Y004490D01*
X054222Y004432D01*
X054105Y005169D02*
X054105Y005402D01*
X053930Y005344D02*
X054280Y005344D01*
X054105Y005169D01*
X006463Y001851D02*
X006229Y001501D01*
X006094Y001559D02*
X006036Y001501D01*
X005919Y001501D01*
X005861Y001559D01*
X005861Y001676D01*
X005919Y001734D01*
X005978Y001734D01*
X006094Y001676D01*
X006094Y001851D01*
X005861Y001851D01*
X006229Y001851D02*
X006463Y001501D01*
D14*
X025875Y002947D02*
X025877Y002970D01*
X025883Y002992D01*
X025892Y003014D01*
X025905Y003033D01*
X025920Y003050D01*
X025938Y003064D01*
X025959Y003075D01*
X025981Y003083D01*
X026003Y003087D01*
X026027Y003087D01*
X026049Y003083D01*
X026071Y003075D01*
X026092Y003064D01*
X026110Y003050D01*
X026125Y003033D01*
X026138Y003014D01*
X026147Y002992D01*
X026153Y002970D01*
X026155Y002947D01*
X026153Y002924D01*
X026147Y002902D01*
X026138Y002880D01*
X026125Y002861D01*
X026110Y002844D01*
X026092Y002830D01*
X026071Y002819D01*
X026049Y002811D01*
X026027Y002807D01*
X026003Y002807D01*
X025981Y002811D01*
X025959Y002819D01*
X025938Y002830D01*
X025920Y002844D01*
X025905Y002861D01*
X025892Y002880D01*
X025883Y002902D01*
X025877Y002924D01*
X025875Y002947D01*
X047605Y009307D02*
X047605Y012007D01*
X047905Y012007D02*
X047905Y009307D01*
X048855Y008646D02*
X048900Y008678D01*
X048942Y008714D01*
X048982Y008753D01*
X049019Y008794D01*
X049053Y008838D01*
X049084Y008885D01*
X049112Y008933D01*
X049136Y008983D01*
X049157Y009034D01*
X049174Y009087D01*
X049188Y009141D01*
X049197Y009196D01*
X049203Y009251D01*
X049205Y009307D01*
X049205Y012007D01*
X048905Y012007D02*
X048905Y009307D01*
X047955Y009089D02*
X047940Y009123D01*
X047927Y009159D01*
X047918Y009195D01*
X047911Y009232D01*
X047906Y009269D01*
X047905Y009307D01*
X048855Y009089D02*
X048870Y009123D01*
X048883Y009159D01*
X048892Y009195D01*
X048899Y009232D01*
X048904Y009269D01*
X048905Y009307D01*
X047955Y008646D02*
X047910Y008678D01*
X047868Y008714D01*
X047828Y008753D01*
X047791Y008795D01*
X047757Y008838D01*
X047726Y008885D01*
X047698Y008933D01*
X047674Y008983D01*
X047653Y009034D01*
X047636Y009087D01*
X047622Y009141D01*
X047613Y009196D01*
X047607Y009251D01*
X047605Y009307D01*
X048405Y010257D02*
X048405Y010407D01*
X048405Y010907D02*
X048405Y011057D01*
X047605Y012007D02*
X047607Y012063D01*
X047613Y012118D01*
X047622Y012173D01*
X047636Y012227D01*
X047653Y012280D01*
X047674Y012331D01*
X047698Y012381D01*
X047726Y012429D01*
X047757Y012476D01*
X047791Y012520D01*
X047828Y012561D01*
X047868Y012600D01*
X047910Y012636D01*
X047955Y012668D01*
X047955Y012225D02*
X047940Y012191D01*
X047927Y012155D01*
X047918Y012119D01*
X047911Y012082D01*
X047906Y012045D01*
X047905Y012007D01*
X048855Y012225D02*
X048870Y012191D01*
X048883Y012155D01*
X048892Y012119D01*
X048899Y012082D01*
X048904Y012045D01*
X048905Y012007D01*
X049205Y012007D02*
X049203Y012063D01*
X049197Y012118D01*
X049188Y012173D01*
X049174Y012227D01*
X049157Y012280D01*
X049136Y012331D01*
X049112Y012381D01*
X049084Y012429D01*
X049053Y012476D01*
X049019Y012519D01*
X048982Y012561D01*
X048942Y012600D01*
X048900Y012636D01*
X048855Y012668D01*
D15*
X048855Y012907D02*
X049255Y012907D01*
X049272Y012905D01*
X049289Y012901D01*
X049305Y012894D01*
X049319Y012884D01*
X049332Y012871D01*
X049342Y012857D01*
X049349Y012841D01*
X049353Y012824D01*
X049355Y012807D01*
X049355Y008507D01*
X049353Y008490D01*
X049349Y008473D01*
X049342Y008457D01*
X049332Y008443D01*
X049319Y008430D01*
X049305Y008420D01*
X049289Y008413D01*
X049272Y008409D01*
X049255Y008407D01*
X048855Y008407D01*
X047955Y008407D02*
X047555Y008407D01*
X047538Y008409D01*
X047521Y008413D01*
X047505Y008420D01*
X047491Y008430D01*
X047478Y008443D01*
X047468Y008457D01*
X047461Y008473D01*
X047457Y008490D01*
X047455Y008507D01*
X047455Y012807D01*
X047457Y012824D01*
X047461Y012841D01*
X047468Y012857D01*
X047478Y012871D01*
X047491Y012884D01*
X047505Y012894D01*
X047521Y012901D01*
X047538Y012905D01*
X047555Y012907D01*
X047955Y012907D01*
X048155Y010907D02*
X048405Y010907D01*
X048655Y010907D01*
X048655Y010757D02*
X048155Y010757D01*
X048155Y010557D01*
X048655Y010557D01*
X048655Y010757D01*
X048655Y010407D02*
X048405Y010407D01*
X048155Y010407D01*
X055405Y010457D02*
X056655Y010457D01*
X056655Y010207D01*
X058155Y010207D01*
X058155Y010457D01*
X059405Y010457D01*
X059405Y001857D01*
X055405Y001857D01*
X055405Y010457D01*
X055405Y010857D02*
X059405Y010857D01*
X059405Y019457D01*
X058155Y019457D01*
X058155Y019207D01*
X056655Y019207D01*
X056655Y019457D01*
X058155Y019457D01*
X058155Y018957D02*
X056655Y018957D01*
X056655Y018357D01*
X058155Y018357D01*
X058155Y018957D01*
X056655Y019457D02*
X055405Y019457D01*
X055405Y010857D01*
X056655Y010457D02*
X058155Y010457D01*
X058155Y009957D02*
X056655Y009957D01*
X056655Y009357D01*
X058155Y009357D01*
X058155Y009957D01*
X058155Y008957D02*
X056655Y008957D01*
X056655Y008357D01*
X058155Y008357D01*
X058155Y008957D01*
X058155Y007957D02*
X056655Y007957D01*
X056655Y007357D01*
X058155Y007357D01*
X058155Y007957D01*
X058155Y006957D02*
X056655Y006957D01*
X056655Y006357D01*
X058155Y006357D01*
X058155Y006957D01*
X058155Y005957D02*
X056655Y005957D01*
X056655Y005357D01*
X058155Y005357D01*
X058155Y005957D01*
X058155Y004957D02*
X056655Y004957D01*
X056655Y004357D01*
X058155Y004357D01*
X058155Y004957D01*
X058155Y003957D02*
X056655Y003957D01*
X056655Y003357D01*
X058155Y003357D01*
X058155Y003957D01*
X058155Y002957D02*
X056655Y002957D01*
X056655Y002357D01*
X058155Y002357D01*
X058155Y002957D01*
X058155Y011357D02*
X056655Y011357D01*
X056655Y011957D01*
X058155Y011957D01*
X058155Y011357D01*
X058155Y012357D02*
X056655Y012357D01*
X056655Y012957D01*
X058155Y012957D01*
X058155Y012357D01*
X058155Y013357D02*
X056655Y013357D01*
X056655Y013957D01*
X058155Y013957D01*
X058155Y013357D01*
X058155Y014357D02*
X056655Y014357D01*
X056655Y014957D01*
X058155Y014957D01*
X058155Y014357D01*
X058155Y015357D02*
X056655Y015357D01*
X056655Y015957D01*
X058155Y015957D01*
X058155Y015357D01*
X058155Y016357D02*
X056655Y016357D01*
X056655Y016957D01*
X058155Y016957D01*
X058155Y016357D01*
X058155Y017357D02*
X056655Y017357D01*
X056655Y017957D01*
X058155Y017957D01*
X058155Y017357D01*
X027173Y004622D02*
X025637Y004622D01*
X025637Y002693D02*
X027173Y002693D01*
D16*
X053125Y003657D03*
D17*
X028256Y009218D03*
X024555Y005596D03*
D18*
X033975Y005876D02*
X034022Y005829D01*
X033975Y005876D02*
X033975Y005969D01*
X034022Y006016D01*
X034069Y006016D01*
X034115Y005969D01*
X034115Y005922D01*
X034115Y005969D02*
X034162Y006016D01*
X034209Y006016D01*
X034255Y005969D01*
X034255Y005876D01*
X034209Y005829D01*
X034205Y005106D02*
X034252Y005059D01*
X034252Y004966D01*
X034205Y004919D01*
X034205Y005106D02*
X034158Y005106D01*
X033971Y004919D01*
X033971Y005106D01*
X033975Y004255D02*
X033975Y004068D01*
X033975Y004161D02*
X034255Y004161D01*
X034162Y004068D01*
X036815Y006177D02*
X036815Y006364D01*
X036675Y006317D02*
X036955Y006317D01*
X036815Y006177D01*
D19*
X057780Y006657D03*
X057780Y007657D03*
X057780Y008657D03*
X057780Y009657D03*
X057780Y011657D03*
X057780Y012657D03*
X057780Y013657D03*
X057780Y014657D03*
X057780Y015657D03*
X057780Y016657D03*
X057780Y017657D03*
X057780Y018657D03*
X057780Y005657D03*
X057780Y004657D03*
X057780Y003657D03*
X057780Y002657D03*
M02*
