G75*
G70*
%OFA0B0*%
%FSLAX24Y24*%
%IPPOS*%
%LPD*%
%AMOC8*
5,1,8,0,0,1.08239X$1,22.5*
%
%ADD10C,0.0000*%
%ADD11C,0.0100*%
%ADD12C,0.0050*%
%ADD13C,0.0060*%
%ADD14C,0.0080*%
%ADD15R,0.0059X0.0118*%
%ADD16R,0.0118X0.0118*%
%ADD17C,0.0040*%
%ADD18C,0.0000*%
D10*
X000655Y000907D02*
X000655Y020407D01*
X059655Y020407D01*
X059655Y000907D01*
X000655Y000907D01*
X010064Y002907D02*
X010066Y002955D01*
X010072Y003003D01*
X010082Y003050D01*
X010095Y003096D01*
X010113Y003141D01*
X010133Y003185D01*
X010158Y003227D01*
X010186Y003266D01*
X010216Y003303D01*
X010250Y003337D01*
X010287Y003369D01*
X010325Y003398D01*
X010366Y003423D01*
X010409Y003445D01*
X010454Y003463D01*
X010500Y003477D01*
X010547Y003488D01*
X010595Y003495D01*
X010643Y003498D01*
X010691Y003497D01*
X010739Y003492D01*
X010787Y003483D01*
X010833Y003471D01*
X010878Y003454D01*
X010922Y003434D01*
X010964Y003411D01*
X011004Y003384D01*
X011042Y003354D01*
X011077Y003321D01*
X011109Y003285D01*
X011139Y003247D01*
X011165Y003206D01*
X011187Y003163D01*
X011207Y003119D01*
X011222Y003074D01*
X011234Y003027D01*
X011242Y002979D01*
X011246Y002931D01*
X011246Y002883D01*
X011242Y002835D01*
X011234Y002787D01*
X011222Y002740D01*
X011207Y002695D01*
X011187Y002651D01*
X011165Y002608D01*
X011139Y002567D01*
X011109Y002529D01*
X011077Y002493D01*
X011042Y002460D01*
X011004Y002430D01*
X010964Y002403D01*
X010922Y002380D01*
X010878Y002360D01*
X010833Y002343D01*
X010787Y002331D01*
X010739Y002322D01*
X010691Y002317D01*
X010643Y002316D01*
X010595Y002319D01*
X010547Y002326D01*
X010500Y002337D01*
X010454Y002351D01*
X010409Y002369D01*
X010366Y002391D01*
X010325Y002416D01*
X010287Y002445D01*
X010250Y002477D01*
X010216Y002511D01*
X010186Y002548D01*
X010158Y002587D01*
X010133Y002629D01*
X010113Y002673D01*
X010095Y002718D01*
X010082Y002764D01*
X010072Y002811D01*
X010066Y002859D01*
X010064Y002907D01*
X049064Y002907D02*
X049066Y002955D01*
X049072Y003003D01*
X049082Y003050D01*
X049095Y003096D01*
X049113Y003141D01*
X049133Y003185D01*
X049158Y003227D01*
X049186Y003266D01*
X049216Y003303D01*
X049250Y003337D01*
X049287Y003369D01*
X049325Y003398D01*
X049366Y003423D01*
X049409Y003445D01*
X049454Y003463D01*
X049500Y003477D01*
X049547Y003488D01*
X049595Y003495D01*
X049643Y003498D01*
X049691Y003497D01*
X049739Y003492D01*
X049787Y003483D01*
X049833Y003471D01*
X049878Y003454D01*
X049922Y003434D01*
X049964Y003411D01*
X050004Y003384D01*
X050042Y003354D01*
X050077Y003321D01*
X050109Y003285D01*
X050139Y003247D01*
X050165Y003206D01*
X050187Y003163D01*
X050207Y003119D01*
X050222Y003074D01*
X050234Y003027D01*
X050242Y002979D01*
X050246Y002931D01*
X050246Y002883D01*
X050242Y002835D01*
X050234Y002787D01*
X050222Y002740D01*
X050207Y002695D01*
X050187Y002651D01*
X050165Y002608D01*
X050139Y002567D01*
X050109Y002529D01*
X050077Y002493D01*
X050042Y002460D01*
X050004Y002430D01*
X049964Y002403D01*
X049922Y002380D01*
X049878Y002360D01*
X049833Y002343D01*
X049787Y002331D01*
X049739Y002322D01*
X049691Y002317D01*
X049643Y002316D01*
X049595Y002319D01*
X049547Y002326D01*
X049500Y002337D01*
X049454Y002351D01*
X049409Y002369D01*
X049366Y002391D01*
X049325Y002416D01*
X049287Y002445D01*
X049250Y002477D01*
X049216Y002511D01*
X049186Y002548D01*
X049158Y002587D01*
X049133Y002629D01*
X049113Y002673D01*
X049095Y002718D01*
X049082Y002764D01*
X049072Y002811D01*
X049066Y002859D01*
X049064Y002907D01*
X049064Y018407D02*
X049066Y018455D01*
X049072Y018503D01*
X049082Y018550D01*
X049095Y018596D01*
X049113Y018641D01*
X049133Y018685D01*
X049158Y018727D01*
X049186Y018766D01*
X049216Y018803D01*
X049250Y018837D01*
X049287Y018869D01*
X049325Y018898D01*
X049366Y018923D01*
X049409Y018945D01*
X049454Y018963D01*
X049500Y018977D01*
X049547Y018988D01*
X049595Y018995D01*
X049643Y018998D01*
X049691Y018997D01*
X049739Y018992D01*
X049787Y018983D01*
X049833Y018971D01*
X049878Y018954D01*
X049922Y018934D01*
X049964Y018911D01*
X050004Y018884D01*
X050042Y018854D01*
X050077Y018821D01*
X050109Y018785D01*
X050139Y018747D01*
X050165Y018706D01*
X050187Y018663D01*
X050207Y018619D01*
X050222Y018574D01*
X050234Y018527D01*
X050242Y018479D01*
X050246Y018431D01*
X050246Y018383D01*
X050242Y018335D01*
X050234Y018287D01*
X050222Y018240D01*
X050207Y018195D01*
X050187Y018151D01*
X050165Y018108D01*
X050139Y018067D01*
X050109Y018029D01*
X050077Y017993D01*
X050042Y017960D01*
X050004Y017930D01*
X049964Y017903D01*
X049922Y017880D01*
X049878Y017860D01*
X049833Y017843D01*
X049787Y017831D01*
X049739Y017822D01*
X049691Y017817D01*
X049643Y017816D01*
X049595Y017819D01*
X049547Y017826D01*
X049500Y017837D01*
X049454Y017851D01*
X049409Y017869D01*
X049366Y017891D01*
X049325Y017916D01*
X049287Y017945D01*
X049250Y017977D01*
X049216Y018011D01*
X049186Y018048D01*
X049158Y018087D01*
X049133Y018129D01*
X049113Y018173D01*
X049095Y018218D01*
X049082Y018264D01*
X049072Y018311D01*
X049066Y018359D01*
X049064Y018407D01*
X010064Y018407D02*
X010066Y018455D01*
X010072Y018503D01*
X010082Y018550D01*
X010095Y018596D01*
X010113Y018641D01*
X010133Y018685D01*
X010158Y018727D01*
X010186Y018766D01*
X010216Y018803D01*
X010250Y018837D01*
X010287Y018869D01*
X010325Y018898D01*
X010366Y018923D01*
X010409Y018945D01*
X010454Y018963D01*
X010500Y018977D01*
X010547Y018988D01*
X010595Y018995D01*
X010643Y018998D01*
X010691Y018997D01*
X010739Y018992D01*
X010787Y018983D01*
X010833Y018971D01*
X010878Y018954D01*
X010922Y018934D01*
X010964Y018911D01*
X011004Y018884D01*
X011042Y018854D01*
X011077Y018821D01*
X011109Y018785D01*
X011139Y018747D01*
X011165Y018706D01*
X011187Y018663D01*
X011207Y018619D01*
X011222Y018574D01*
X011234Y018527D01*
X011242Y018479D01*
X011246Y018431D01*
X011246Y018383D01*
X011242Y018335D01*
X011234Y018287D01*
X011222Y018240D01*
X011207Y018195D01*
X011187Y018151D01*
X011165Y018108D01*
X011139Y018067D01*
X011109Y018029D01*
X011077Y017993D01*
X011042Y017960D01*
X011004Y017930D01*
X010964Y017903D01*
X010922Y017880D01*
X010878Y017860D01*
X010833Y017843D01*
X010787Y017831D01*
X010739Y017822D01*
X010691Y017817D01*
X010643Y017816D01*
X010595Y017819D01*
X010547Y017826D01*
X010500Y017837D01*
X010454Y017851D01*
X010409Y017869D01*
X010366Y017891D01*
X010325Y017916D01*
X010287Y017945D01*
X010250Y017977D01*
X010216Y018011D01*
X010186Y018048D01*
X010158Y018087D01*
X010133Y018129D01*
X010113Y018173D01*
X010095Y018218D01*
X010082Y018264D01*
X010072Y018311D01*
X010066Y018359D01*
X010064Y018407D01*
D11*
X013205Y018394D02*
X013392Y018207D01*
X013579Y018394D01*
X013579Y018768D01*
X013813Y018487D02*
X013906Y018581D01*
X014093Y018581D01*
X014186Y018487D01*
X014186Y018394D01*
X013813Y018394D01*
X013813Y018487D02*
X013813Y018300D01*
X013906Y018207D01*
X014093Y018207D01*
X014421Y018207D02*
X014421Y018581D01*
X014607Y018581D02*
X014421Y018394D01*
X014607Y018581D02*
X014701Y018581D01*
X014927Y018487D02*
X015020Y018581D01*
X015301Y018581D01*
X015207Y018394D02*
X015020Y018394D01*
X014927Y018487D01*
X014927Y018207D02*
X015207Y018207D01*
X015301Y018300D01*
X015207Y018394D01*
X015535Y018581D02*
X015628Y018581D01*
X015628Y018207D01*
X015535Y018207D02*
X015721Y018207D01*
X015940Y018300D02*
X015940Y018487D01*
X016033Y018581D01*
X016220Y018581D01*
X016313Y018487D01*
X016313Y018300D01*
X016220Y018207D01*
X016033Y018207D01*
X015940Y018300D01*
X016548Y018207D02*
X016548Y018581D01*
X016828Y018581D01*
X016921Y018487D01*
X016921Y018207D01*
X016446Y017768D02*
X016446Y017207D01*
X016726Y017207D01*
X016820Y017300D01*
X016820Y017487D01*
X016726Y017581D01*
X016446Y017581D01*
X016212Y017487D02*
X016212Y017207D01*
X015839Y017207D02*
X015839Y017581D01*
X016119Y017581D01*
X016212Y017487D01*
X015527Y017581D02*
X015527Y017207D01*
X015620Y017207D02*
X015433Y017207D01*
X015199Y017300D02*
X015106Y017207D01*
X014826Y017207D01*
X014826Y017020D02*
X014826Y017581D01*
X015106Y017581D01*
X015199Y017487D01*
X015199Y017300D01*
X015433Y017581D02*
X015527Y017581D01*
X015527Y017768D02*
X015527Y017861D01*
X014592Y017581D02*
X014592Y017114D01*
X014498Y017020D01*
X014405Y017020D01*
X014311Y017207D02*
X014592Y017207D01*
X014311Y017207D02*
X014218Y017300D01*
X014218Y017581D01*
X013906Y017581D02*
X013906Y017207D01*
X013813Y017207D02*
X014000Y017207D01*
X013579Y017207D02*
X013299Y017207D01*
X013205Y017300D01*
X013205Y017487D01*
X013299Y017581D01*
X013579Y017581D01*
X013579Y017768D02*
X013579Y017207D01*
X013813Y017581D02*
X013906Y017581D01*
X013906Y017768D02*
X013906Y017861D01*
X013205Y018394D02*
X013205Y018768D01*
X013205Y019207D02*
X013485Y019207D01*
X013579Y019300D01*
X013579Y019674D01*
X013485Y019768D01*
X013205Y019768D01*
X013205Y019207D01*
X013813Y019207D02*
X014000Y019207D01*
X013906Y019207D02*
X013906Y019768D01*
X013813Y019768D02*
X014000Y019768D01*
X014218Y019768D02*
X014218Y019674D01*
X014405Y019487D01*
X014405Y019207D01*
X014405Y019487D02*
X014592Y019674D01*
X014592Y019768D01*
X014826Y019768D02*
X015106Y019768D01*
X015199Y019674D01*
X015199Y019487D01*
X015106Y019394D01*
X014826Y019394D01*
X014826Y019207D02*
X014826Y019768D01*
X015433Y019581D02*
X015527Y019581D01*
X015527Y019207D01*
X015620Y019207D02*
X015433Y019207D01*
X015839Y019207D02*
X015839Y019581D01*
X016119Y019581D01*
X016212Y019487D01*
X016212Y019207D01*
X016446Y019207D02*
X016726Y019207D01*
X016820Y019300D01*
X016820Y019487D01*
X016726Y019581D01*
X016446Y019581D01*
X016446Y019768D02*
X016446Y019207D01*
X017054Y019300D02*
X017147Y019394D01*
X017428Y019394D01*
X017428Y019487D02*
X017428Y019207D01*
X017147Y019207D01*
X017054Y019300D01*
X017147Y019581D02*
X017334Y019581D01*
X017428Y019487D01*
X017662Y019207D02*
X017848Y019207D01*
X017755Y019207D02*
X017755Y019768D01*
X017662Y019768D01*
X018067Y019768D02*
X018160Y019768D01*
X018160Y019207D01*
X018067Y019207D02*
X018254Y019207D01*
X019080Y019300D02*
X019173Y019207D01*
X019360Y019207D01*
X019453Y019300D01*
X019453Y019394D01*
X019360Y019487D01*
X019173Y019487D01*
X019080Y019581D01*
X019080Y019674D01*
X019173Y019768D01*
X019360Y019768D01*
X019453Y019674D01*
X019687Y019487D02*
X019687Y019300D01*
X019781Y019207D01*
X020061Y019207D01*
X020295Y019300D02*
X020388Y019207D01*
X020575Y019207D01*
X020669Y019300D01*
X020669Y019487D01*
X020575Y019581D01*
X020388Y019581D01*
X020295Y019487D01*
X020295Y019300D01*
X020061Y019581D02*
X019781Y019581D01*
X019687Y019487D01*
X020903Y019394D02*
X021090Y019581D01*
X021183Y019581D01*
X021409Y019487D02*
X021409Y019300D01*
X021503Y019207D01*
X021689Y019207D01*
X021783Y019394D02*
X021409Y019394D01*
X021409Y019487D02*
X021503Y019581D01*
X021689Y019581D01*
X021783Y019487D01*
X021783Y019394D01*
X020903Y019207D02*
X020903Y019581D01*
X022625Y019768D02*
X022625Y019207D01*
X022998Y019207D02*
X022998Y019768D01*
X022811Y019581D01*
X022625Y019768D01*
X023232Y019487D02*
X023232Y019300D01*
X023326Y019207D01*
X023513Y019207D01*
X023606Y019300D01*
X023606Y019487D01*
X023513Y019581D01*
X023326Y019581D01*
X023232Y019487D01*
X023840Y019487D02*
X023840Y019300D01*
X023933Y019207D01*
X024214Y019207D01*
X024214Y019768D01*
X024214Y019581D02*
X023933Y019581D01*
X023840Y019487D01*
X024448Y019581D02*
X024448Y019300D01*
X024541Y019207D01*
X024821Y019207D01*
X024821Y019581D01*
X025055Y019768D02*
X025149Y019768D01*
X025149Y019207D01*
X025242Y019207D02*
X025055Y019207D01*
X025461Y019300D02*
X025461Y019487D01*
X025554Y019581D01*
X025741Y019581D01*
X025834Y019487D01*
X025834Y019394D01*
X025461Y019394D01*
X025461Y019300D02*
X025554Y019207D01*
X025741Y019207D01*
X019757Y017487D02*
X019757Y017207D01*
X019477Y017207D01*
X019383Y017300D01*
X019477Y017394D01*
X019757Y017394D01*
X019757Y017487D02*
X019664Y017581D01*
X019477Y017581D01*
X019149Y017581D02*
X018869Y017581D01*
X018776Y017487D01*
X018776Y017300D01*
X018869Y017207D01*
X019149Y017207D01*
X018565Y017207D02*
X018565Y017300D01*
X018472Y017300D01*
X018472Y017207D01*
X018565Y017207D01*
X018254Y017207D02*
X018067Y017207D01*
X018160Y017207D02*
X018160Y017768D01*
X018067Y017768D01*
X017755Y017768D02*
X017755Y017207D01*
X017662Y017207D02*
X017848Y017207D01*
X017428Y017207D02*
X017147Y017207D01*
X017054Y017300D01*
X017147Y017394D01*
X017428Y017394D01*
X017428Y017487D02*
X017428Y017207D01*
X017428Y017487D02*
X017334Y017581D01*
X017147Y017581D01*
X017662Y017768D02*
X017755Y017768D01*
X017763Y018207D02*
X018137Y018207D01*
X017950Y018207D02*
X017950Y018768D01*
X017763Y018581D01*
X018675Y018674D02*
X018768Y018768D01*
X018955Y018768D01*
X019048Y018674D01*
X018675Y018300D01*
X018768Y018207D01*
X018955Y018207D01*
X019048Y018300D01*
X019048Y018674D01*
X018675Y018674D02*
X018675Y018300D01*
X018464Y018300D02*
X018464Y018207D01*
X018371Y018207D01*
X018371Y018300D01*
X018464Y018300D01*
X015628Y018768D02*
X015628Y018861D01*
X015527Y019768D02*
X015527Y019861D01*
D12*
X003514Y015932D02*
X003281Y015932D01*
X003397Y015932D02*
X003397Y016282D01*
X003281Y016166D01*
X003146Y016224D02*
X003146Y016107D01*
X003087Y016049D01*
X002912Y016049D01*
X002912Y015932D02*
X002912Y016282D01*
X003087Y016282D01*
X003146Y016224D01*
X002777Y016224D02*
X002719Y016282D01*
X002602Y016282D01*
X002544Y016224D01*
X002544Y016166D01*
X002602Y016107D01*
X002719Y016107D01*
X002777Y016049D01*
X002777Y015990D01*
X002719Y015932D01*
X002602Y015932D01*
X002544Y015990D01*
X002415Y015932D02*
X002298Y015932D01*
X002357Y015932D02*
X002357Y016282D01*
X002415Y016282D02*
X002298Y016282D01*
X002164Y016224D02*
X002105Y016282D01*
X001930Y016282D01*
X001930Y015932D01*
X002105Y015932D01*
X002164Y015990D01*
X002164Y016224D01*
X001811Y015797D02*
X030000Y015797D01*
X030000Y005679D01*
X001811Y005679D01*
X001811Y015797D01*
X030311Y015797D02*
X030311Y005679D01*
X058500Y005679D01*
X058500Y015797D01*
X030311Y015797D01*
X030430Y015932D02*
X030605Y015932D01*
X030664Y015990D01*
X030664Y016224D01*
X030605Y016282D01*
X030430Y016282D01*
X030430Y015932D01*
X030798Y015932D02*
X030915Y015932D01*
X030857Y015932D02*
X030857Y016282D01*
X030915Y016282D02*
X030798Y016282D01*
X031044Y016224D02*
X031044Y016166D01*
X031102Y016107D01*
X031219Y016107D01*
X031277Y016049D01*
X031277Y015990D01*
X031219Y015932D01*
X031102Y015932D01*
X031044Y015990D01*
X031044Y016224D02*
X031102Y016282D01*
X031219Y016282D01*
X031277Y016224D01*
X031412Y016282D02*
X031587Y016282D01*
X031646Y016224D01*
X031646Y016107D01*
X031587Y016049D01*
X031412Y016049D01*
X031412Y015932D02*
X031412Y016282D01*
X031781Y016224D02*
X031839Y016282D01*
X031956Y016282D01*
X032014Y016224D01*
X032014Y016166D01*
X031781Y015932D01*
X032014Y015932D01*
X049325Y012007D02*
X049325Y011657D01*
X049325Y011774D02*
X049500Y011774D01*
X049559Y011832D01*
X049559Y011949D01*
X049500Y012007D01*
X049325Y012007D01*
X049442Y011774D02*
X049559Y011657D01*
X049694Y011832D02*
X049927Y011832D01*
X050062Y011715D02*
X050062Y011657D01*
X050062Y011715D02*
X050295Y011949D01*
X050295Y012007D01*
X050062Y012007D01*
X049869Y012007D02*
X049694Y011832D01*
X049869Y011657D02*
X049869Y012007D01*
X049869Y011007D02*
X049694Y010832D01*
X049927Y010832D01*
X050062Y010832D02*
X050237Y010832D01*
X050295Y010774D01*
X050295Y010715D01*
X050237Y010657D01*
X050120Y010657D01*
X050062Y010715D01*
X050062Y010832D01*
X050179Y010949D01*
X050295Y011007D01*
X049869Y011007D02*
X049869Y010657D01*
X049559Y010657D02*
X049442Y010774D01*
X049500Y010774D02*
X049325Y010774D01*
X049325Y010657D02*
X049325Y011007D01*
X049500Y011007D01*
X049559Y010949D01*
X049559Y010832D01*
X049500Y010774D01*
X050634Y009382D02*
X050575Y009324D01*
X050575Y009090D01*
X050634Y009032D01*
X050750Y009032D01*
X050809Y009090D01*
X050944Y009032D02*
X051177Y009266D01*
X051177Y009324D01*
X051119Y009382D01*
X051002Y009382D01*
X050944Y009324D01*
X050809Y009324D02*
X050750Y009382D01*
X050634Y009382D01*
X051312Y009207D02*
X051545Y009207D01*
X051487Y009032D02*
X051487Y009382D01*
X051312Y009207D01*
X051177Y009032D02*
X050944Y009032D01*
X056680Y009432D02*
X056680Y009782D01*
X056855Y009782D01*
X056914Y009724D01*
X056914Y009607D01*
X056855Y009549D01*
X056680Y009549D01*
X056797Y009549D02*
X056914Y009432D01*
X057048Y009432D02*
X057048Y009782D01*
X057282Y009432D01*
X057282Y009782D01*
X057417Y009666D02*
X057533Y009782D01*
X057533Y009432D01*
X057417Y009432D02*
X057650Y009432D01*
X057785Y009490D02*
X057843Y009432D01*
X057960Y009432D01*
X058019Y009490D01*
X058019Y009724D01*
X057960Y009782D01*
X057843Y009782D01*
X057785Y009724D01*
X057785Y009666D01*
X057843Y009607D01*
X058019Y009607D01*
X057960Y014432D02*
X058019Y014490D01*
X058019Y014549D01*
X057960Y014607D01*
X057785Y014607D01*
X057785Y014490D01*
X057843Y014432D01*
X057960Y014432D01*
X057785Y014607D02*
X057902Y014724D01*
X058019Y014782D01*
X057533Y014782D02*
X057417Y014666D01*
X057533Y014782D02*
X057533Y014432D01*
X057417Y014432D02*
X057650Y014432D01*
X057282Y014432D02*
X057282Y014782D01*
X057048Y014782D02*
X057282Y014432D01*
X057048Y014432D02*
X057048Y014782D01*
X056914Y014724D02*
X056914Y014607D01*
X056855Y014549D01*
X056680Y014549D01*
X056797Y014549D02*
X056914Y014432D01*
X056680Y014432D02*
X056680Y014782D01*
X056855Y014782D01*
X056914Y014724D01*
X054545Y015782D02*
X054312Y015782D01*
X054545Y016016D01*
X054545Y016074D01*
X054487Y016132D01*
X054370Y016132D01*
X054312Y016074D01*
X054177Y016132D02*
X053944Y016132D01*
X053944Y015957D01*
X054060Y016016D01*
X054119Y016016D01*
X054177Y015957D01*
X054177Y015840D01*
X054119Y015782D01*
X054002Y015782D01*
X053944Y015840D01*
X053809Y015782D02*
X053692Y015899D01*
X053750Y015899D02*
X053575Y015899D01*
X053575Y015782D02*
X053575Y016132D01*
X053750Y016132D01*
X053809Y016074D01*
X053809Y015957D01*
X053750Y015899D01*
X053680Y018182D02*
X053680Y018532D01*
X053855Y018532D01*
X053914Y018474D01*
X053914Y018357D01*
X053855Y018299D01*
X053680Y018299D01*
X053797Y018299D02*
X053914Y018182D01*
X054048Y018240D02*
X054107Y018182D01*
X054224Y018182D01*
X054282Y018240D01*
X054282Y018357D01*
X054224Y018416D01*
X054165Y018416D01*
X054048Y018357D01*
X054048Y018532D01*
X054282Y018532D01*
X054417Y018474D02*
X054475Y018532D01*
X054592Y018532D01*
X054650Y018474D01*
X054650Y018416D01*
X054592Y018357D01*
X054650Y018299D01*
X054650Y018240D01*
X054592Y018182D01*
X054475Y018182D01*
X054417Y018240D01*
X054533Y018357D02*
X054592Y018357D01*
X056680Y018432D02*
X056680Y018782D01*
X056855Y018782D01*
X056914Y018724D01*
X056914Y018607D01*
X056855Y018549D01*
X056680Y018549D01*
X056797Y018549D02*
X056914Y018432D01*
X057048Y018432D02*
X057048Y018782D01*
X057282Y018432D01*
X057282Y018782D01*
X057417Y018666D02*
X057533Y018782D01*
X057533Y018432D01*
X057417Y018432D02*
X057650Y018432D01*
X057785Y018432D02*
X057785Y018490D01*
X058019Y018724D01*
X058019Y018782D01*
X057785Y018782D01*
X057843Y003032D02*
X057960Y003032D01*
X058019Y002974D01*
X058019Y002916D01*
X057960Y002857D01*
X057843Y002857D01*
X057785Y002916D01*
X057785Y002974D01*
X057843Y003032D01*
X057843Y002857D02*
X057785Y002799D01*
X057785Y002740D01*
X057843Y002682D01*
X057960Y002682D01*
X058019Y002740D01*
X058019Y002799D01*
X057960Y002857D01*
X057650Y002682D02*
X057417Y002682D01*
X057533Y002682D02*
X057533Y003032D01*
X057417Y002916D01*
X057282Y003032D02*
X057282Y002682D01*
X057048Y003032D01*
X057048Y002682D01*
X056914Y002682D02*
X056797Y002799D01*
X056855Y002799D02*
X056680Y002799D01*
X056680Y002682D02*
X056680Y003032D01*
X056855Y003032D01*
X056914Y002974D01*
X056914Y002857D01*
X056855Y002799D01*
X033780Y002739D02*
X033430Y002739D01*
X033605Y002564D01*
X033605Y002797D01*
X032780Y002797D02*
X032780Y002564D01*
X032780Y002681D02*
X032430Y002681D01*
X032547Y002564D01*
X032605Y002429D02*
X032722Y002429D01*
X032780Y002371D01*
X032780Y002254D01*
X032722Y002195D01*
X032605Y002195D02*
X032547Y002312D01*
X032547Y002371D01*
X032605Y002429D01*
X032430Y002429D02*
X032430Y002195D01*
X032605Y002195D01*
X032605Y002061D02*
X032663Y002002D01*
X032663Y001827D01*
X032663Y001944D02*
X032780Y002061D01*
X032605Y002061D02*
X032488Y002061D01*
X032430Y002002D01*
X032430Y001827D01*
X032780Y001827D01*
X033430Y001827D02*
X033430Y002002D01*
X033488Y002061D01*
X033722Y002061D01*
X033780Y002002D01*
X033780Y001827D01*
X033430Y001827D01*
X033430Y001692D02*
X033430Y001459D01*
X033780Y001459D01*
X033780Y001692D01*
X033605Y001576D02*
X033605Y001459D01*
X033780Y001324D02*
X033780Y001091D01*
X033430Y001091D01*
X031780Y001091D02*
X031780Y001324D01*
X031780Y001459D02*
X031780Y001692D01*
X031780Y001827D02*
X031430Y001827D01*
X031430Y002002D01*
X031488Y002061D01*
X031722Y002061D01*
X031780Y002002D01*
X031780Y001827D01*
X031605Y001576D02*
X031605Y001459D01*
X031430Y001459D02*
X031780Y001459D01*
X031430Y001459D02*
X031430Y001692D01*
X030780Y001827D02*
X030430Y001827D01*
X030430Y002002D01*
X030488Y002061D01*
X030605Y002061D01*
X030663Y002002D01*
X030663Y001827D01*
X030663Y001944D02*
X030780Y002061D01*
X030722Y002195D02*
X030780Y002254D01*
X030780Y002371D01*
X030722Y002429D01*
X030605Y002429D01*
X030547Y002371D01*
X030547Y002312D01*
X030605Y002195D01*
X030430Y002195D01*
X030430Y002429D01*
X030488Y002564D02*
X030430Y002622D01*
X030430Y002739D01*
X030488Y002797D01*
X030722Y002564D01*
X030780Y002622D01*
X030780Y002739D01*
X030722Y002797D01*
X030488Y002797D01*
X030488Y002564D02*
X030722Y002564D01*
X031430Y002622D02*
X031430Y002739D01*
X031488Y002797D01*
X031547Y002797D01*
X031605Y002739D01*
X031663Y002797D01*
X031722Y002797D01*
X031780Y002739D01*
X031780Y002622D01*
X031722Y002564D01*
X031780Y002429D02*
X031780Y002195D01*
X031780Y002312D02*
X031430Y002312D01*
X031547Y002195D01*
X031488Y002564D02*
X031430Y002622D01*
X031605Y002681D02*
X031605Y002739D01*
X029780Y002739D02*
X029780Y002622D01*
X029722Y002564D01*
X029663Y002429D02*
X029430Y002429D01*
X029488Y002564D02*
X029430Y002622D01*
X029430Y002739D01*
X029488Y002797D01*
X029547Y002797D01*
X029605Y002739D01*
X029663Y002797D01*
X029722Y002797D01*
X029780Y002739D01*
X029605Y002739D02*
X029605Y002681D01*
X029663Y002429D02*
X029780Y002312D01*
X029663Y002195D01*
X029430Y002195D01*
X029488Y002061D02*
X029547Y002061D01*
X029605Y002002D01*
X029663Y002061D01*
X029722Y002061D01*
X029780Y002002D01*
X029780Y001886D01*
X029722Y001827D01*
X029605Y001944D02*
X029605Y002002D01*
X029488Y002061D02*
X029430Y002002D01*
X029430Y001886D01*
X029488Y001827D01*
X028780Y001827D02*
X028430Y001827D01*
X028430Y002002D01*
X028488Y002061D01*
X028605Y002061D01*
X028663Y002002D01*
X028663Y001827D01*
X028663Y001944D02*
X028780Y002061D01*
X028605Y002195D02*
X028605Y002429D01*
X028488Y002564D02*
X028430Y002622D01*
X028430Y002739D01*
X028488Y002797D01*
X028547Y002797D01*
X028780Y002564D01*
X028780Y002797D01*
X028780Y002371D02*
X028430Y002371D01*
X028605Y002195D01*
X027780Y002254D02*
X027722Y002195D01*
X027780Y002254D02*
X027780Y002371D01*
X027722Y002429D01*
X027605Y002429D01*
X027547Y002371D01*
X027547Y002312D01*
X027605Y002195D01*
X027430Y002195D01*
X027430Y002429D01*
X027430Y002564D02*
X027663Y002564D01*
X027780Y002681D01*
X027663Y002797D01*
X027430Y002797D01*
X026780Y002797D02*
X026780Y002564D01*
X026780Y002681D02*
X026430Y002681D01*
X026547Y002564D01*
X026605Y002429D02*
X026605Y002195D01*
X026430Y002371D01*
X026780Y002371D01*
X026780Y002061D02*
X026663Y001944D01*
X026663Y002002D02*
X026663Y001827D01*
X026780Y001827D02*
X026430Y001827D01*
X026430Y002002D01*
X026488Y002061D01*
X026605Y002061D01*
X026663Y002002D01*
X025780Y001944D02*
X025430Y001944D01*
X025547Y001827D01*
X025780Y001827D02*
X025780Y002061D01*
X025780Y002195D02*
X025547Y002429D01*
X025488Y002429D01*
X025430Y002371D01*
X025430Y002254D01*
X025488Y002195D01*
X025780Y002195D02*
X025780Y002429D01*
X025663Y002564D02*
X025430Y002564D01*
X025430Y002797D02*
X025663Y002797D01*
X025780Y002681D01*
X025663Y002564D01*
X024780Y002622D02*
X024722Y002564D01*
X024488Y002797D01*
X024722Y002797D01*
X024780Y002739D01*
X024780Y002622D01*
X024722Y002564D02*
X024488Y002564D01*
X024430Y002622D01*
X024430Y002739D01*
X024488Y002797D01*
X024605Y002429D02*
X024605Y002196D01*
X024430Y002371D01*
X024780Y002371D01*
X024780Y002061D02*
X024663Y001944D01*
X024663Y002002D02*
X024663Y001827D01*
X024780Y001827D02*
X024430Y001827D01*
X024430Y002002D01*
X024488Y002061D01*
X024605Y002061D01*
X024663Y002002D01*
X031430Y001091D02*
X031780Y001091D01*
X033430Y002312D02*
X033780Y002312D01*
X033780Y002195D02*
X033780Y002429D01*
X033547Y002195D02*
X033430Y002312D01*
D13*
X048305Y002907D02*
X048307Y002980D01*
X048313Y003053D01*
X048323Y003125D01*
X048337Y003197D01*
X048354Y003268D01*
X048376Y003338D01*
X048401Y003407D01*
X048430Y003474D01*
X048462Y003539D01*
X048498Y003603D01*
X048538Y003665D01*
X048580Y003724D01*
X048626Y003781D01*
X048675Y003835D01*
X048727Y003887D01*
X048781Y003936D01*
X048838Y003982D01*
X048897Y004024D01*
X048959Y004064D01*
X049023Y004100D01*
X049088Y004132D01*
X049155Y004161D01*
X049224Y004186D01*
X049294Y004208D01*
X049365Y004225D01*
X049437Y004239D01*
X049509Y004249D01*
X049582Y004255D01*
X049655Y004257D01*
X049728Y004255D01*
X049801Y004249D01*
X049873Y004239D01*
X049945Y004225D01*
X050016Y004208D01*
X050086Y004186D01*
X050155Y004161D01*
X050222Y004132D01*
X050287Y004100D01*
X050351Y004064D01*
X050413Y004024D01*
X050472Y003982D01*
X050529Y003936D01*
X050583Y003887D01*
X050635Y003835D01*
X050684Y003781D01*
X050730Y003724D01*
X050772Y003665D01*
X050812Y003603D01*
X050848Y003539D01*
X050880Y003474D01*
X050909Y003407D01*
X050934Y003338D01*
X050956Y003268D01*
X050973Y003197D01*
X050987Y003125D01*
X050997Y003053D01*
X051003Y002980D01*
X051005Y002907D01*
X051003Y002834D01*
X050997Y002761D01*
X050987Y002689D01*
X050973Y002617D01*
X050956Y002546D01*
X050934Y002476D01*
X050909Y002407D01*
X050880Y002340D01*
X050848Y002275D01*
X050812Y002211D01*
X050772Y002149D01*
X050730Y002090D01*
X050684Y002033D01*
X050635Y001979D01*
X050583Y001927D01*
X050529Y001878D01*
X050472Y001832D01*
X050413Y001790D01*
X050351Y001750D01*
X050287Y001714D01*
X050222Y001682D01*
X050155Y001653D01*
X050086Y001628D01*
X050016Y001606D01*
X049945Y001589D01*
X049873Y001575D01*
X049801Y001565D01*
X049728Y001559D01*
X049655Y001557D01*
X049582Y001559D01*
X049509Y001565D01*
X049437Y001575D01*
X049365Y001589D01*
X049294Y001606D01*
X049224Y001628D01*
X049155Y001653D01*
X049088Y001682D01*
X049023Y001714D01*
X048959Y001750D01*
X048897Y001790D01*
X048838Y001832D01*
X048781Y001878D01*
X048727Y001927D01*
X048675Y001979D01*
X048626Y002033D01*
X048580Y002090D01*
X048538Y002149D01*
X048498Y002211D01*
X048462Y002275D01*
X048430Y002340D01*
X048401Y002407D01*
X048376Y002476D01*
X048354Y002546D01*
X048337Y002617D01*
X048323Y002689D01*
X048313Y002761D01*
X048307Y002834D01*
X048305Y002907D01*
X009305Y002907D02*
X009307Y002980D01*
X009313Y003053D01*
X009323Y003125D01*
X009337Y003197D01*
X009354Y003268D01*
X009376Y003338D01*
X009401Y003407D01*
X009430Y003474D01*
X009462Y003539D01*
X009498Y003603D01*
X009538Y003665D01*
X009580Y003724D01*
X009626Y003781D01*
X009675Y003835D01*
X009727Y003887D01*
X009781Y003936D01*
X009838Y003982D01*
X009897Y004024D01*
X009959Y004064D01*
X010023Y004100D01*
X010088Y004132D01*
X010155Y004161D01*
X010224Y004186D01*
X010294Y004208D01*
X010365Y004225D01*
X010437Y004239D01*
X010509Y004249D01*
X010582Y004255D01*
X010655Y004257D01*
X010728Y004255D01*
X010801Y004249D01*
X010873Y004239D01*
X010945Y004225D01*
X011016Y004208D01*
X011086Y004186D01*
X011155Y004161D01*
X011222Y004132D01*
X011287Y004100D01*
X011351Y004064D01*
X011413Y004024D01*
X011472Y003982D01*
X011529Y003936D01*
X011583Y003887D01*
X011635Y003835D01*
X011684Y003781D01*
X011730Y003724D01*
X011772Y003665D01*
X011812Y003603D01*
X011848Y003539D01*
X011880Y003474D01*
X011909Y003407D01*
X011934Y003338D01*
X011956Y003268D01*
X011973Y003197D01*
X011987Y003125D01*
X011997Y003053D01*
X012003Y002980D01*
X012005Y002907D01*
X012003Y002834D01*
X011997Y002761D01*
X011987Y002689D01*
X011973Y002617D01*
X011956Y002546D01*
X011934Y002476D01*
X011909Y002407D01*
X011880Y002340D01*
X011848Y002275D01*
X011812Y002211D01*
X011772Y002149D01*
X011730Y002090D01*
X011684Y002033D01*
X011635Y001979D01*
X011583Y001927D01*
X011529Y001878D01*
X011472Y001832D01*
X011413Y001790D01*
X011351Y001750D01*
X011287Y001714D01*
X011222Y001682D01*
X011155Y001653D01*
X011086Y001628D01*
X011016Y001606D01*
X010945Y001589D01*
X010873Y001575D01*
X010801Y001565D01*
X010728Y001559D01*
X010655Y001557D01*
X010582Y001559D01*
X010509Y001565D01*
X010437Y001575D01*
X010365Y001589D01*
X010294Y001606D01*
X010224Y001628D01*
X010155Y001653D01*
X010088Y001682D01*
X010023Y001714D01*
X009959Y001750D01*
X009897Y001790D01*
X009838Y001832D01*
X009781Y001878D01*
X009727Y001927D01*
X009675Y001979D01*
X009626Y002033D01*
X009580Y002090D01*
X009538Y002149D01*
X009498Y002211D01*
X009462Y002275D01*
X009430Y002340D01*
X009401Y002407D01*
X009376Y002476D01*
X009354Y002546D01*
X009337Y002617D01*
X009323Y002689D01*
X009313Y002761D01*
X009307Y002834D01*
X009305Y002907D01*
X009305Y018407D02*
X009307Y018480D01*
X009313Y018553D01*
X009323Y018625D01*
X009337Y018697D01*
X009354Y018768D01*
X009376Y018838D01*
X009401Y018907D01*
X009430Y018974D01*
X009462Y019039D01*
X009498Y019103D01*
X009538Y019165D01*
X009580Y019224D01*
X009626Y019281D01*
X009675Y019335D01*
X009727Y019387D01*
X009781Y019436D01*
X009838Y019482D01*
X009897Y019524D01*
X009959Y019564D01*
X010023Y019600D01*
X010088Y019632D01*
X010155Y019661D01*
X010224Y019686D01*
X010294Y019708D01*
X010365Y019725D01*
X010437Y019739D01*
X010509Y019749D01*
X010582Y019755D01*
X010655Y019757D01*
X010728Y019755D01*
X010801Y019749D01*
X010873Y019739D01*
X010945Y019725D01*
X011016Y019708D01*
X011086Y019686D01*
X011155Y019661D01*
X011222Y019632D01*
X011287Y019600D01*
X011351Y019564D01*
X011413Y019524D01*
X011472Y019482D01*
X011529Y019436D01*
X011583Y019387D01*
X011635Y019335D01*
X011684Y019281D01*
X011730Y019224D01*
X011772Y019165D01*
X011812Y019103D01*
X011848Y019039D01*
X011880Y018974D01*
X011909Y018907D01*
X011934Y018838D01*
X011956Y018768D01*
X011973Y018697D01*
X011987Y018625D01*
X011997Y018553D01*
X012003Y018480D01*
X012005Y018407D01*
X012003Y018334D01*
X011997Y018261D01*
X011987Y018189D01*
X011973Y018117D01*
X011956Y018046D01*
X011934Y017976D01*
X011909Y017907D01*
X011880Y017840D01*
X011848Y017775D01*
X011812Y017711D01*
X011772Y017649D01*
X011730Y017590D01*
X011684Y017533D01*
X011635Y017479D01*
X011583Y017427D01*
X011529Y017378D01*
X011472Y017332D01*
X011413Y017290D01*
X011351Y017250D01*
X011287Y017214D01*
X011222Y017182D01*
X011155Y017153D01*
X011086Y017128D01*
X011016Y017106D01*
X010945Y017089D01*
X010873Y017075D01*
X010801Y017065D01*
X010728Y017059D01*
X010655Y017057D01*
X010582Y017059D01*
X010509Y017065D01*
X010437Y017075D01*
X010365Y017089D01*
X010294Y017106D01*
X010224Y017128D01*
X010155Y017153D01*
X010088Y017182D01*
X010023Y017214D01*
X009959Y017250D01*
X009897Y017290D01*
X009838Y017332D01*
X009781Y017378D01*
X009727Y017427D01*
X009675Y017479D01*
X009626Y017533D01*
X009580Y017590D01*
X009538Y017649D01*
X009498Y017711D01*
X009462Y017775D01*
X009430Y017840D01*
X009401Y017907D01*
X009376Y017976D01*
X009354Y018046D01*
X009337Y018117D01*
X009323Y018189D01*
X009313Y018261D01*
X009307Y018334D01*
X009305Y018407D01*
X048305Y018407D02*
X048307Y018480D01*
X048313Y018553D01*
X048323Y018625D01*
X048337Y018697D01*
X048354Y018768D01*
X048376Y018838D01*
X048401Y018907D01*
X048430Y018974D01*
X048462Y019039D01*
X048498Y019103D01*
X048538Y019165D01*
X048580Y019224D01*
X048626Y019281D01*
X048675Y019335D01*
X048727Y019387D01*
X048781Y019436D01*
X048838Y019482D01*
X048897Y019524D01*
X048959Y019564D01*
X049023Y019600D01*
X049088Y019632D01*
X049155Y019661D01*
X049224Y019686D01*
X049294Y019708D01*
X049365Y019725D01*
X049437Y019739D01*
X049509Y019749D01*
X049582Y019755D01*
X049655Y019757D01*
X049728Y019755D01*
X049801Y019749D01*
X049873Y019739D01*
X049945Y019725D01*
X050016Y019708D01*
X050086Y019686D01*
X050155Y019661D01*
X050222Y019632D01*
X050287Y019600D01*
X050351Y019564D01*
X050413Y019524D01*
X050472Y019482D01*
X050529Y019436D01*
X050583Y019387D01*
X050635Y019335D01*
X050684Y019281D01*
X050730Y019224D01*
X050772Y019165D01*
X050812Y019103D01*
X050848Y019039D01*
X050880Y018974D01*
X050909Y018907D01*
X050934Y018838D01*
X050956Y018768D01*
X050973Y018697D01*
X050987Y018625D01*
X050997Y018553D01*
X051003Y018480D01*
X051005Y018407D01*
X051003Y018334D01*
X050997Y018261D01*
X050987Y018189D01*
X050973Y018117D01*
X050956Y018046D01*
X050934Y017976D01*
X050909Y017907D01*
X050880Y017840D01*
X050848Y017775D01*
X050812Y017711D01*
X050772Y017649D01*
X050730Y017590D01*
X050684Y017533D01*
X050635Y017479D01*
X050583Y017427D01*
X050529Y017378D01*
X050472Y017332D01*
X050413Y017290D01*
X050351Y017250D01*
X050287Y017214D01*
X050222Y017182D01*
X050155Y017153D01*
X050086Y017128D01*
X050016Y017106D01*
X049945Y017089D01*
X049873Y017075D01*
X049801Y017065D01*
X049728Y017059D01*
X049655Y017057D01*
X049582Y017059D01*
X049509Y017065D01*
X049437Y017075D01*
X049365Y017089D01*
X049294Y017106D01*
X049224Y017128D01*
X049155Y017153D01*
X049088Y017182D01*
X049023Y017214D01*
X048959Y017250D01*
X048897Y017290D01*
X048838Y017332D01*
X048781Y017378D01*
X048727Y017427D01*
X048675Y017479D01*
X048626Y017533D01*
X048580Y017590D01*
X048538Y017649D01*
X048498Y017711D01*
X048462Y017775D01*
X048430Y017840D01*
X048401Y017907D01*
X048376Y017976D01*
X048354Y018046D01*
X048337Y018117D01*
X048323Y018189D01*
X048313Y018261D01*
X048307Y018334D01*
X048305Y018407D01*
D14*
X049025Y018407D02*
X049027Y018457D01*
X049033Y018507D01*
X049043Y018556D01*
X049057Y018604D01*
X049074Y018651D01*
X049095Y018696D01*
X049120Y018740D01*
X049148Y018781D01*
X049180Y018820D01*
X049214Y018857D01*
X049251Y018891D01*
X049291Y018921D01*
X049333Y018948D01*
X049377Y018972D01*
X049423Y018993D01*
X049470Y019009D01*
X049518Y019022D01*
X049568Y019031D01*
X049617Y019036D01*
X049668Y019037D01*
X049718Y019034D01*
X049767Y019027D01*
X049816Y019016D01*
X049864Y019001D01*
X049910Y018983D01*
X049955Y018961D01*
X049998Y018935D01*
X050039Y018906D01*
X050078Y018874D01*
X050114Y018839D01*
X050146Y018801D01*
X050176Y018761D01*
X050203Y018718D01*
X050226Y018674D01*
X050245Y018628D01*
X050261Y018580D01*
X050273Y018531D01*
X050281Y018482D01*
X050285Y018432D01*
X050285Y018382D01*
X050281Y018332D01*
X050273Y018283D01*
X050261Y018234D01*
X050245Y018186D01*
X050226Y018140D01*
X050203Y018096D01*
X050176Y018053D01*
X050146Y018013D01*
X050114Y017975D01*
X050078Y017940D01*
X050039Y017908D01*
X049998Y017879D01*
X049955Y017853D01*
X049910Y017831D01*
X049864Y017813D01*
X049816Y017798D01*
X049767Y017787D01*
X049718Y017780D01*
X049668Y017777D01*
X049617Y017778D01*
X049568Y017783D01*
X049518Y017792D01*
X049470Y017805D01*
X049423Y017821D01*
X049377Y017842D01*
X049333Y017866D01*
X049291Y017893D01*
X049251Y017923D01*
X049214Y017957D01*
X049180Y017994D01*
X049148Y018033D01*
X049120Y018074D01*
X049095Y018118D01*
X049074Y018163D01*
X049057Y018210D01*
X049043Y018258D01*
X049033Y018307D01*
X049027Y018357D01*
X049025Y018407D01*
X010025Y018407D02*
X010027Y018457D01*
X010033Y018507D01*
X010043Y018556D01*
X010057Y018604D01*
X010074Y018651D01*
X010095Y018696D01*
X010120Y018740D01*
X010148Y018781D01*
X010180Y018820D01*
X010214Y018857D01*
X010251Y018891D01*
X010291Y018921D01*
X010333Y018948D01*
X010377Y018972D01*
X010423Y018993D01*
X010470Y019009D01*
X010518Y019022D01*
X010568Y019031D01*
X010617Y019036D01*
X010668Y019037D01*
X010718Y019034D01*
X010767Y019027D01*
X010816Y019016D01*
X010864Y019001D01*
X010910Y018983D01*
X010955Y018961D01*
X010998Y018935D01*
X011039Y018906D01*
X011078Y018874D01*
X011114Y018839D01*
X011146Y018801D01*
X011176Y018761D01*
X011203Y018718D01*
X011226Y018674D01*
X011245Y018628D01*
X011261Y018580D01*
X011273Y018531D01*
X011281Y018482D01*
X011285Y018432D01*
X011285Y018382D01*
X011281Y018332D01*
X011273Y018283D01*
X011261Y018234D01*
X011245Y018186D01*
X011226Y018140D01*
X011203Y018096D01*
X011176Y018053D01*
X011146Y018013D01*
X011114Y017975D01*
X011078Y017940D01*
X011039Y017908D01*
X010998Y017879D01*
X010955Y017853D01*
X010910Y017831D01*
X010864Y017813D01*
X010816Y017798D01*
X010767Y017787D01*
X010718Y017780D01*
X010668Y017777D01*
X010617Y017778D01*
X010568Y017783D01*
X010518Y017792D01*
X010470Y017805D01*
X010423Y017821D01*
X010377Y017842D01*
X010333Y017866D01*
X010291Y017893D01*
X010251Y017923D01*
X010214Y017957D01*
X010180Y017994D01*
X010148Y018033D01*
X010120Y018074D01*
X010095Y018118D01*
X010074Y018163D01*
X010057Y018210D01*
X010043Y018258D01*
X010033Y018307D01*
X010027Y018357D01*
X010025Y018407D01*
X013418Y004177D02*
X013418Y001637D01*
X015818Y001637D01*
X015818Y004177D01*
X015788Y004177D02*
X013418Y004177D01*
X010025Y002907D02*
X010027Y002957D01*
X010033Y003007D01*
X010043Y003056D01*
X010057Y003104D01*
X010074Y003151D01*
X010095Y003196D01*
X010120Y003240D01*
X010148Y003281D01*
X010180Y003320D01*
X010214Y003357D01*
X010251Y003391D01*
X010291Y003421D01*
X010333Y003448D01*
X010377Y003472D01*
X010423Y003493D01*
X010470Y003509D01*
X010518Y003522D01*
X010568Y003531D01*
X010617Y003536D01*
X010668Y003537D01*
X010718Y003534D01*
X010767Y003527D01*
X010816Y003516D01*
X010864Y003501D01*
X010910Y003483D01*
X010955Y003461D01*
X010998Y003435D01*
X011039Y003406D01*
X011078Y003374D01*
X011114Y003339D01*
X011146Y003301D01*
X011176Y003261D01*
X011203Y003218D01*
X011226Y003174D01*
X011245Y003128D01*
X011261Y003080D01*
X011273Y003031D01*
X011281Y002982D01*
X011285Y002932D01*
X011285Y002882D01*
X011281Y002832D01*
X011273Y002783D01*
X011261Y002734D01*
X011245Y002686D01*
X011226Y002640D01*
X011203Y002596D01*
X011176Y002553D01*
X011146Y002513D01*
X011114Y002475D01*
X011078Y002440D01*
X011039Y002408D01*
X010998Y002379D01*
X010955Y002353D01*
X010910Y002331D01*
X010864Y002313D01*
X010816Y002298D01*
X010767Y002287D01*
X010718Y002280D01*
X010668Y002277D01*
X010617Y002278D01*
X010568Y002283D01*
X010518Y002292D01*
X010470Y002305D01*
X010423Y002321D01*
X010377Y002342D01*
X010333Y002366D01*
X010291Y002393D01*
X010251Y002423D01*
X010214Y002457D01*
X010180Y002494D01*
X010148Y002533D01*
X010120Y002574D01*
X010095Y002618D01*
X010074Y002663D01*
X010057Y002710D01*
X010043Y002758D01*
X010033Y002807D01*
X010027Y002857D01*
X010025Y002907D01*
X018992Y004177D02*
X018992Y001637D01*
X019022Y001637D02*
X021392Y001637D01*
X021392Y004177D01*
X018992Y004177D01*
X049025Y002907D02*
X049027Y002957D01*
X049033Y003007D01*
X049043Y003056D01*
X049057Y003104D01*
X049074Y003151D01*
X049095Y003196D01*
X049120Y003240D01*
X049148Y003281D01*
X049180Y003320D01*
X049214Y003357D01*
X049251Y003391D01*
X049291Y003421D01*
X049333Y003448D01*
X049377Y003472D01*
X049423Y003493D01*
X049470Y003509D01*
X049518Y003522D01*
X049568Y003531D01*
X049617Y003536D01*
X049668Y003537D01*
X049718Y003534D01*
X049767Y003527D01*
X049816Y003516D01*
X049864Y003501D01*
X049910Y003483D01*
X049955Y003461D01*
X049998Y003435D01*
X050039Y003406D01*
X050078Y003374D01*
X050114Y003339D01*
X050146Y003301D01*
X050176Y003261D01*
X050203Y003218D01*
X050226Y003174D01*
X050245Y003128D01*
X050261Y003080D01*
X050273Y003031D01*
X050281Y002982D01*
X050285Y002932D01*
X050285Y002882D01*
X050281Y002832D01*
X050273Y002783D01*
X050261Y002734D01*
X050245Y002686D01*
X050226Y002640D01*
X050203Y002596D01*
X050176Y002553D01*
X050146Y002513D01*
X050114Y002475D01*
X050078Y002440D01*
X050039Y002408D01*
X049998Y002379D01*
X049955Y002353D01*
X049910Y002331D01*
X049864Y002313D01*
X049816Y002298D01*
X049767Y002287D01*
X049718Y002280D01*
X049668Y002277D01*
X049617Y002278D01*
X049568Y002283D01*
X049518Y002292D01*
X049470Y002305D01*
X049423Y002321D01*
X049377Y002342D01*
X049333Y002366D01*
X049291Y002393D01*
X049251Y002423D01*
X049214Y002457D01*
X049180Y002494D01*
X049148Y002533D01*
X049120Y002574D01*
X049095Y002618D01*
X049074Y002663D01*
X049057Y002710D01*
X049043Y002758D01*
X049033Y002807D01*
X049027Y002857D01*
X049025Y002907D01*
D15*
X033891Y003716D03*
X033419Y003716D03*
X031891Y003716D03*
X031419Y003716D03*
X029891Y003716D03*
X029419Y003716D03*
X027891Y003716D03*
X027419Y003716D03*
X025891Y003716D03*
X025419Y003716D03*
D16*
X025655Y003716D03*
X027655Y003716D03*
X029655Y003716D03*
X031655Y003716D03*
X033655Y003716D03*
D17*
X056992Y003183D02*
X057819Y003183D01*
X057819Y005131D02*
X056992Y005131D01*
X056992Y007183D02*
X057819Y007183D01*
X057819Y009131D02*
X056992Y009131D01*
X056992Y012183D02*
X057819Y012183D01*
X057819Y014131D02*
X056992Y014131D01*
X056992Y016183D02*
X057819Y016183D01*
X057819Y018131D02*
X056992Y018131D01*
D18*
X042488Y018099D02*
X042310Y018099D01*
X042310Y018095D02*
X042488Y018095D01*
X042488Y018091D02*
X042310Y018091D01*
X042310Y018087D02*
X042488Y018087D01*
X042488Y018083D02*
X042310Y018083D01*
X042310Y018079D02*
X042488Y018079D01*
X042488Y018075D02*
X042310Y018075D01*
X042310Y018071D02*
X042488Y018071D01*
X042488Y018068D02*
X042310Y018068D01*
X042310Y018064D02*
X042488Y018064D01*
X042488Y018060D02*
X042310Y018060D01*
X042310Y018056D02*
X042488Y018056D01*
X042488Y018052D02*
X042310Y018052D01*
X042310Y018048D02*
X042488Y018048D01*
X042488Y018044D02*
X042310Y018044D01*
X042310Y018040D02*
X042488Y018040D01*
X042488Y018036D02*
X042310Y018036D01*
X042310Y018037D02*
X042310Y018104D01*
X042310Y018113D01*
X042310Y018121D01*
X042309Y018129D01*
X042308Y018135D01*
X042308Y018142D01*
X042488Y018142D01*
X042488Y018138D02*
X042308Y018138D01*
X042309Y018134D02*
X042488Y018134D01*
X042488Y018131D02*
X042309Y018131D01*
X042309Y018127D02*
X042488Y018127D01*
X042488Y018123D02*
X042310Y018123D01*
X042310Y018119D02*
X042488Y018119D01*
X042488Y018115D02*
X042310Y018115D01*
X042310Y018111D02*
X042488Y018111D01*
X042488Y018107D02*
X042310Y018107D01*
X042310Y018103D02*
X042488Y018103D01*
X042488Y018146D02*
X042307Y018146D01*
X042306Y018149D02*
X042308Y018142D01*
X042306Y018149D02*
X042305Y018155D01*
X042303Y018161D01*
X042302Y018167D01*
X042299Y018172D01*
X042297Y018177D01*
X042295Y018182D01*
X042488Y018182D01*
X042488Y018186D02*
X042292Y018186D01*
X042295Y018182D01*
X042297Y018178D02*
X042488Y018178D01*
X042488Y018174D02*
X042299Y018174D01*
X042300Y018170D02*
X042488Y018170D01*
X042488Y018166D02*
X042302Y018166D01*
X042303Y018162D02*
X042488Y018162D01*
X042488Y018158D02*
X042304Y018158D01*
X042305Y018154D02*
X042488Y018154D01*
X042488Y018150D02*
X042306Y018150D01*
X042292Y018186D02*
X042289Y018190D01*
X042488Y018190D01*
X042488Y018194D02*
X042286Y018194D01*
X042286Y018193D02*
X042289Y018190D01*
X042286Y018193D02*
X042283Y018195D01*
X042279Y018198D01*
X042275Y018201D01*
X042271Y018204D01*
X042266Y018206D01*
X042261Y018208D01*
X042256Y018210D01*
X042251Y018212D01*
X042245Y018214D01*
X042238Y018215D01*
X042231Y018216D01*
X042224Y018217D01*
X042216Y018218D01*
X042208Y018219D01*
X042199Y018219D01*
X042191Y018220D01*
X042182Y018220D01*
X041863Y018220D01*
X041863Y018321D01*
X042200Y018321D01*
X042200Y018270D01*
X042304Y018292D01*
X042304Y018304D01*
X042488Y018304D01*
X042488Y018308D02*
X042304Y018308D01*
X042304Y018312D02*
X042488Y018312D01*
X042488Y018316D02*
X042304Y018316D01*
X042304Y018319D02*
X042304Y018312D01*
X042304Y018304D01*
X042304Y018300D02*
X042488Y018300D01*
X042488Y018296D02*
X042304Y018296D01*
X042302Y018292D02*
X042488Y018292D01*
X042488Y018288D02*
X042284Y018288D01*
X042265Y018284D02*
X042488Y018284D01*
X042488Y018280D02*
X042247Y018280D01*
X042229Y018276D02*
X042488Y018276D01*
X042488Y018272D02*
X042210Y018272D01*
X042200Y018272D02*
X041863Y018272D01*
X041863Y018268D02*
X042488Y018268D01*
X042488Y018264D02*
X041863Y018264D01*
X041863Y018260D02*
X042488Y018260D01*
X042488Y018256D02*
X041863Y018256D01*
X041863Y018253D02*
X042488Y018253D01*
X042488Y018249D02*
X041863Y018249D01*
X041863Y018245D02*
X042488Y018245D01*
X042488Y018241D02*
X041863Y018241D01*
X041863Y018237D02*
X042488Y018237D01*
X042488Y018233D02*
X041863Y018233D01*
X041863Y018229D02*
X042488Y018229D01*
X042488Y018225D02*
X041863Y018225D01*
X041863Y018221D02*
X042488Y018221D01*
X042488Y018217D02*
X042229Y018217D01*
X042249Y018213D02*
X042488Y018213D01*
X042488Y018209D02*
X042260Y018209D01*
X042269Y018205D02*
X042488Y018205D01*
X042488Y018201D02*
X042276Y018201D01*
X042281Y018197D02*
X042488Y018197D01*
X042488Y018319D02*
X042304Y018319D01*
X042303Y018326D01*
X042302Y018332D01*
X042301Y018339D01*
X042488Y018339D01*
X042488Y018335D02*
X042302Y018335D01*
X042302Y018331D02*
X042488Y018331D01*
X042488Y018327D02*
X042303Y018327D01*
X042303Y018323D02*
X042488Y018323D01*
X042488Y018343D02*
X042300Y018343D01*
X042300Y018345D02*
X042301Y018339D01*
X042300Y018345D02*
X042298Y018351D01*
X042297Y018357D01*
X042295Y018362D01*
X042292Y018367D01*
X042290Y018371D01*
X042287Y018376D01*
X042285Y018380D01*
X042281Y018382D01*
X042278Y018385D01*
X042488Y018385D01*
X042488Y018381D02*
X042282Y018381D01*
X042285Y018378D02*
X042488Y018378D01*
X042488Y018374D02*
X042288Y018374D01*
X042290Y018370D02*
X042488Y018370D01*
X042488Y018366D02*
X042293Y018366D01*
X042294Y018362D02*
X042488Y018362D01*
X042488Y018358D02*
X042296Y018358D01*
X042297Y018354D02*
X042488Y018354D01*
X042488Y018350D02*
X042299Y018350D01*
X042300Y018347D02*
X042488Y018347D01*
X042488Y018389D02*
X042273Y018389D01*
X042275Y018388D02*
X042278Y018385D01*
X042275Y018388D02*
X042271Y018391D01*
X042266Y018394D01*
X042262Y018396D01*
X042257Y018398D01*
X042253Y018400D01*
X042247Y018402D01*
X042241Y018404D01*
X042235Y018405D01*
X042488Y018405D01*
X042488Y018401D02*
X042250Y018401D01*
X042259Y018397D02*
X042488Y018397D01*
X042488Y018393D02*
X042267Y018393D01*
X042235Y018405D02*
X042229Y018407D01*
X042222Y018408D01*
X042215Y018409D01*
X042207Y018409D01*
X042199Y018410D01*
X042192Y018411D01*
X042184Y018411D01*
X042175Y018411D01*
X041883Y018411D01*
X041875Y018411D01*
X041867Y018410D01*
X041858Y018410D01*
X041850Y018409D01*
X041843Y018408D01*
X041836Y018407D01*
X041829Y018406D01*
X041822Y018405D01*
X041817Y018403D01*
X041811Y018401D01*
X041489Y018401D01*
X041499Y018397D01*
X041507Y018392D01*
X041514Y018387D01*
X041521Y018381D01*
X041527Y018374D01*
X041772Y018374D01*
X041771Y018373D02*
X041773Y018377D01*
X041776Y018381D01*
X041779Y018383D01*
X041783Y018386D01*
X041787Y018389D01*
X041511Y018389D01*
X041516Y018385D02*
X041782Y018385D01*
X041778Y018381D02*
X041520Y018381D01*
X041524Y018378D02*
X041775Y018378D01*
X041771Y018373D02*
X041768Y018368D01*
X041766Y018363D01*
X041764Y018358D01*
X041536Y018358D01*
X041537Y018357D02*
X041540Y018348D01*
X041542Y018338D01*
X041543Y018327D01*
X041544Y018316D01*
X041756Y018316D01*
X041756Y018319D02*
X041544Y018319D01*
X041544Y018316D02*
X041544Y018256D01*
X041756Y018256D01*
X041756Y018253D02*
X041544Y018253D01*
X041544Y018256D02*
X041544Y018249D01*
X041756Y018249D01*
X041756Y018245D02*
X041543Y018245D01*
X041544Y018249D02*
X041543Y018241D01*
X041756Y018241D01*
X041756Y018295D01*
X041756Y018304D01*
X041544Y018304D01*
X041544Y018308D02*
X041756Y018308D01*
X041756Y018312D02*
X041544Y018312D01*
X041544Y018323D02*
X041757Y018323D01*
X041757Y018326D02*
X041758Y018333D01*
X041759Y018340D01*
X041761Y018346D01*
X041762Y018352D01*
X041764Y018358D01*
X041763Y018354D02*
X041538Y018354D01*
X041537Y018357D02*
X041532Y018366D01*
X041768Y018366D01*
X041770Y018370D02*
X041530Y018370D01*
X041532Y018366D02*
X041527Y018374D01*
X041534Y018362D02*
X041766Y018362D01*
X041762Y018350D02*
X041539Y018350D01*
X041540Y018347D02*
X041761Y018347D01*
X041760Y018343D02*
X041541Y018343D01*
X041542Y018339D02*
X041759Y018339D01*
X041758Y018335D02*
X041543Y018335D01*
X041543Y018331D02*
X041758Y018331D01*
X041757Y018327D02*
X041544Y018327D01*
X041544Y018300D02*
X041756Y018300D01*
X041756Y018304D02*
X041756Y018312D01*
X041756Y018319D01*
X041757Y018326D01*
X041756Y018296D02*
X041544Y018296D01*
X041544Y018292D02*
X041756Y018292D01*
X041756Y018288D02*
X041544Y018288D01*
X041544Y018284D02*
X041756Y018284D01*
X041756Y018280D02*
X041544Y018280D01*
X041544Y018276D02*
X041756Y018276D01*
X041756Y018272D02*
X041544Y018272D01*
X041544Y018268D02*
X041756Y018268D01*
X041756Y018264D02*
X041544Y018264D01*
X041544Y018260D02*
X041756Y018260D01*
X041756Y018241D02*
X041756Y018233D01*
X041541Y018233D01*
X041539Y018226D01*
X041536Y018220D01*
X041532Y018213D01*
X041528Y018207D01*
X041523Y018202D01*
X041517Y018197D01*
X041759Y018197D01*
X041759Y018196D02*
X041758Y018202D01*
X041757Y018210D01*
X041756Y018217D01*
X041534Y018217D01*
X041536Y018221D02*
X041756Y018221D01*
X041756Y018217D02*
X041756Y018225D01*
X041538Y018225D01*
X041539Y018229D02*
X041756Y018229D01*
X041756Y018225D02*
X041756Y018233D01*
X041756Y018237D02*
X041542Y018237D01*
X041543Y018241D02*
X041541Y018233D01*
X041531Y018213D02*
X041757Y018213D01*
X041757Y018209D02*
X041529Y018209D01*
X041525Y018205D02*
X041758Y018205D01*
X041758Y018201D02*
X041521Y018201D01*
X041517Y018197D02*
X041511Y018193D01*
X041505Y018189D01*
X041497Y018185D01*
X041489Y018182D01*
X041763Y018182D01*
X041762Y018184D02*
X041761Y018190D01*
X041506Y018190D01*
X041511Y018194D02*
X041760Y018194D01*
X041759Y018196D02*
X041761Y018190D01*
X041762Y018186D02*
X041498Y018186D01*
X041489Y018182D02*
X041480Y018179D01*
X041470Y018176D01*
X041460Y018174D01*
X041470Y018172D01*
X041480Y018170D01*
X041768Y018170D01*
X041768Y018168D02*
X041766Y018173D01*
X041764Y018179D01*
X041762Y018184D01*
X041764Y018178D02*
X041476Y018178D01*
X041480Y018170D02*
X041490Y018166D01*
X041498Y018163D01*
X041506Y018159D01*
X041512Y018154D01*
X041519Y018149D01*
X041525Y018143D01*
X041530Y018137D01*
X041535Y018131D01*
X041825Y018131D01*
X041822Y018131D02*
X041817Y018132D01*
X041811Y018134D01*
X041532Y018134D01*
X041535Y018131D02*
X041538Y018124D01*
X041541Y018116D01*
X041544Y018108D01*
X041546Y018099D01*
X042201Y018099D01*
X042201Y018095D02*
X041546Y018095D01*
X041547Y018091D02*
X042201Y018091D01*
X042201Y018087D02*
X041547Y018087D01*
X041547Y018089D02*
X041547Y018080D01*
X041547Y018018D01*
X041546Y018006D01*
X041545Y017995D01*
X041542Y017985D01*
X041741Y017985D01*
X041740Y017986D02*
X041739Y017992D01*
X041738Y017999D01*
X041737Y018006D01*
X041736Y018013D01*
X041735Y018020D01*
X041547Y018020D01*
X041547Y018016D02*
X041736Y018016D01*
X041736Y018012D02*
X041547Y018012D01*
X041547Y018008D02*
X041736Y018008D01*
X041737Y018005D02*
X041546Y018005D01*
X041546Y018001D02*
X041737Y018001D01*
X041738Y017997D02*
X041545Y017997D01*
X041544Y017993D02*
X041739Y017993D01*
X041740Y017989D02*
X041543Y017989D01*
X041542Y017985D02*
X041537Y017975D01*
X041532Y017966D01*
X041525Y017958D01*
X041517Y017951D01*
X041508Y017945D01*
X041499Y017940D01*
X041488Y017935D01*
X041475Y017931D01*
X041461Y017927D01*
X041446Y017924D01*
X041431Y017923D01*
X041413Y017921D01*
X041395Y017921D01*
X040987Y017921D01*
X040987Y018411D01*
X041428Y018411D01*
X041442Y018410D01*
X041455Y018409D01*
X041467Y018407D01*
X041479Y018405D01*
X041489Y018401D01*
X041498Y018397D02*
X041801Y018397D01*
X041800Y018397D02*
X041805Y018399D01*
X041811Y018401D01*
X041800Y018397D02*
X041795Y018395D01*
X041791Y018392D01*
X041787Y018389D01*
X041793Y018393D02*
X041506Y018393D01*
X041476Y018405D02*
X041825Y018405D01*
X041852Y018409D02*
X041454Y018409D01*
X041412Y018323D02*
X041105Y018323D01*
X041105Y018319D02*
X041417Y018319D01*
X041418Y018318D02*
X041416Y018320D01*
X041412Y018322D01*
X041409Y018324D01*
X041405Y018326D01*
X041400Y018327D01*
X041396Y018328D01*
X041390Y018329D01*
X041385Y018330D01*
X041380Y018330D01*
X041373Y018331D01*
X041105Y018331D01*
X041377Y018331D01*
X041403Y018327D02*
X041105Y018327D01*
X041105Y018331D02*
X041105Y018216D01*
X041373Y018216D01*
X041380Y018216D01*
X041385Y018216D01*
X041390Y018217D01*
X041396Y018218D01*
X041400Y018219D01*
X041405Y018221D01*
X041105Y018221D01*
X041105Y018217D02*
X041388Y018217D01*
X041405Y018221D02*
X041409Y018222D01*
X041412Y018224D01*
X041416Y018227D01*
X041418Y018229D01*
X041105Y018229D01*
X041105Y018233D02*
X041421Y018233D01*
X041421Y018232D02*
X041423Y018235D01*
X041424Y018239D01*
X041425Y018243D01*
X041426Y018247D01*
X041426Y018251D01*
X041426Y018297D01*
X041426Y018301D01*
X041425Y018305D01*
X041424Y018309D01*
X041423Y018312D01*
X041105Y018312D01*
X041105Y018316D02*
X041421Y018316D01*
X041421Y018315D02*
X041418Y018318D01*
X041421Y018315D02*
X041423Y018312D01*
X041425Y018308D02*
X041105Y018308D01*
X041105Y018304D02*
X041426Y018304D01*
X041426Y018300D02*
X041105Y018300D01*
X041105Y018296D02*
X041426Y018296D01*
X041426Y018292D02*
X041105Y018292D01*
X041105Y018288D02*
X041426Y018288D01*
X041426Y018284D02*
X041105Y018284D01*
X041105Y018280D02*
X041426Y018280D01*
X041426Y018276D02*
X041105Y018276D01*
X041105Y018272D02*
X041426Y018272D01*
X041426Y018268D02*
X041105Y018268D01*
X041105Y018264D02*
X041426Y018264D01*
X041426Y018260D02*
X041105Y018260D01*
X041105Y018256D02*
X041426Y018256D01*
X041426Y018253D02*
X041105Y018253D01*
X041105Y018249D02*
X041426Y018249D01*
X041426Y018245D02*
X041105Y018245D01*
X041105Y018241D02*
X041425Y018241D01*
X041423Y018237D02*
X041105Y018237D01*
X041105Y018225D02*
X041413Y018225D01*
X041418Y018229D02*
X041421Y018232D01*
X041462Y018174D02*
X041766Y018174D01*
X041768Y018168D02*
X041771Y018164D01*
X041773Y018159D01*
X041776Y018155D01*
X041779Y018152D01*
X041783Y018149D01*
X041787Y018146D01*
X041522Y018146D01*
X041526Y018142D02*
X041793Y018142D01*
X041791Y018143D02*
X041787Y018146D01*
X041791Y018143D02*
X041795Y018140D01*
X041800Y018138D01*
X041805Y018136D01*
X041811Y018134D01*
X041801Y018138D02*
X041529Y018138D01*
X041537Y018127D02*
X041851Y018127D01*
X041850Y018127D02*
X041843Y018128D01*
X041836Y018129D01*
X041829Y018130D01*
X041822Y018131D01*
X041850Y018127D02*
X041858Y018126D01*
X041867Y018126D01*
X041875Y018125D01*
X041883Y018125D01*
X042201Y018125D01*
X042201Y018012D01*
X041842Y018012D01*
X041842Y018070D01*
X041735Y018051D01*
X041735Y018037D01*
X041735Y018028D01*
X041547Y018028D01*
X041547Y018024D02*
X041735Y018024D01*
X041735Y018020D02*
X041735Y018028D01*
X041735Y018032D02*
X041547Y018032D01*
X041547Y018036D02*
X041735Y018036D01*
X041735Y018040D02*
X041547Y018040D01*
X041547Y018044D02*
X041735Y018044D01*
X041735Y018048D02*
X041547Y018048D01*
X041547Y018052D02*
X041739Y018052D01*
X041759Y018056D02*
X041547Y018056D01*
X041547Y018060D02*
X041781Y018060D01*
X041802Y018064D02*
X041547Y018064D01*
X041547Y018068D02*
X041822Y018068D01*
X041842Y018068D02*
X042201Y018068D01*
X042201Y018071D02*
X041547Y018071D01*
X041547Y018075D02*
X042201Y018075D01*
X042201Y018079D02*
X041547Y018079D01*
X041547Y018083D02*
X042201Y018083D01*
X042201Y018064D02*
X041842Y018064D01*
X041842Y018060D02*
X042201Y018060D01*
X042201Y018056D02*
X041842Y018056D01*
X041842Y018052D02*
X042201Y018052D01*
X042201Y018048D02*
X041842Y018048D01*
X041842Y018044D02*
X042201Y018044D01*
X042201Y018040D02*
X041842Y018040D01*
X041842Y018036D02*
X042201Y018036D01*
X042201Y018032D02*
X041842Y018032D01*
X041842Y018028D02*
X042201Y018028D01*
X042201Y018024D02*
X041842Y018024D01*
X041842Y018020D02*
X042201Y018020D01*
X042201Y018016D02*
X041842Y018016D01*
X041829Y017923D02*
X041821Y017923D01*
X041815Y017924D01*
X041808Y017926D01*
X041802Y017927D01*
X041795Y017929D01*
X041790Y017931D01*
X041784Y017933D01*
X041779Y017935D01*
X041774Y017937D01*
X041770Y017940D01*
X041766Y017942D01*
X041762Y017944D01*
X041759Y017948D01*
X041756Y017951D01*
X041754Y017955D01*
X041751Y017959D01*
X041748Y017964D01*
X041746Y017969D01*
X041533Y017969D01*
X041531Y017965D02*
X041748Y017965D01*
X041750Y017961D02*
X041527Y017961D01*
X041524Y017957D02*
X041752Y017957D01*
X041755Y017953D02*
X041519Y017953D01*
X041515Y017949D02*
X041758Y017949D01*
X041762Y017945D02*
X041509Y017945D01*
X041503Y017942D02*
X041767Y017942D01*
X041773Y017938D02*
X041495Y017938D01*
X041485Y017934D02*
X041781Y017934D01*
X041791Y017930D02*
X041473Y017930D01*
X041455Y017926D02*
X041807Y017926D01*
X041829Y017923D02*
X041837Y017922D01*
X041846Y017921D01*
X041855Y017921D01*
X041864Y017921D01*
X042182Y017921D01*
X042191Y017921D01*
X042199Y017921D01*
X042208Y017922D01*
X042216Y017923D01*
X042224Y017923D01*
X042231Y017924D01*
X042238Y017926D01*
X042245Y017927D01*
X042251Y017929D01*
X042256Y017931D01*
X042261Y017933D01*
X042266Y017935D01*
X042271Y017937D01*
X042275Y017940D01*
X042279Y017942D01*
X042283Y017944D01*
X042286Y017948D01*
X042289Y017951D01*
X042292Y017955D01*
X042295Y017959D01*
X042297Y017964D01*
X042299Y017969D01*
X042488Y017969D01*
X042488Y017965D02*
X042298Y017965D01*
X042299Y017969D02*
X042302Y017974D01*
X042303Y017980D01*
X042305Y017986D01*
X042306Y017992D01*
X042308Y017999D01*
X042308Y018006D01*
X042309Y018013D01*
X042310Y018020D01*
X042488Y018020D01*
X042488Y018016D02*
X042309Y018016D01*
X042309Y018012D02*
X042488Y018012D01*
X042488Y018008D02*
X042309Y018008D01*
X042308Y018005D02*
X042488Y018005D01*
X042488Y018001D02*
X042308Y018001D01*
X042307Y017997D02*
X042488Y017997D01*
X042488Y017993D02*
X042306Y017993D01*
X042306Y017989D02*
X042488Y017989D01*
X042488Y017985D02*
X042305Y017985D01*
X042304Y017981D02*
X042488Y017981D01*
X042488Y017977D02*
X042302Y017977D01*
X042301Y017973D02*
X042488Y017973D01*
X042488Y017961D02*
X042296Y017961D01*
X042293Y017957D02*
X042488Y017957D01*
X042488Y017953D02*
X042291Y017953D01*
X042287Y017949D02*
X042488Y017949D01*
X042488Y017945D02*
X042283Y017945D01*
X042278Y017942D02*
X042488Y017942D01*
X042488Y017938D02*
X042272Y017938D01*
X042264Y017934D02*
X042488Y017934D01*
X042488Y017930D02*
X042255Y017930D01*
X042239Y017926D02*
X042488Y017926D01*
X042488Y017922D02*
X042209Y017922D01*
X042310Y018020D02*
X042310Y018028D01*
X042488Y018028D01*
X042488Y018024D02*
X042310Y018024D01*
X042310Y018028D02*
X042310Y018037D01*
X042310Y018032D02*
X042488Y018032D01*
X042488Y017918D02*
X039421Y017918D01*
X039421Y017922D02*
X039600Y017922D01*
X039600Y017921D02*
X039600Y018411D01*
X039720Y018411D01*
X039720Y018012D01*
X040105Y018012D01*
X040218Y018012D01*
X040216Y018008D02*
X040105Y018008D01*
X040105Y018005D02*
X040213Y018005D01*
X040211Y018001D02*
X040105Y018001D01*
X040105Y017997D02*
X040209Y017997D01*
X040206Y017993D02*
X040105Y017993D01*
X040105Y017989D02*
X040204Y017989D01*
X040201Y017985D02*
X040105Y017985D01*
X040105Y017981D02*
X040199Y017981D01*
X040197Y017977D02*
X040105Y017977D01*
X040105Y017973D02*
X040194Y017973D01*
X040193Y017969D02*
X040105Y017969D01*
X040105Y017965D02*
X040191Y017965D01*
X040188Y017961D02*
X040105Y017961D01*
X040105Y017957D02*
X040186Y017957D01*
X040183Y017953D02*
X040105Y017953D01*
X040105Y017949D02*
X040181Y017949D01*
X040179Y017945D02*
X040105Y017945D01*
X040105Y017942D02*
X040176Y017942D01*
X040174Y017938D02*
X040105Y017938D01*
X040105Y017934D02*
X040172Y017934D01*
X040169Y017930D02*
X040105Y017930D01*
X040105Y017926D02*
X040167Y017926D01*
X040164Y017922D02*
X040105Y017922D01*
X040105Y017921D02*
X040105Y018012D01*
X040105Y017921D02*
X039600Y017921D01*
X039600Y017926D02*
X039421Y017926D01*
X039421Y017930D02*
X039600Y017930D01*
X039600Y017934D02*
X039421Y017934D01*
X039421Y017938D02*
X039600Y017938D01*
X039600Y017942D02*
X039421Y017942D01*
X039421Y017945D02*
X039600Y017945D01*
X039600Y017949D02*
X039421Y017949D01*
X039421Y017953D02*
X039600Y017953D01*
X039600Y017957D02*
X039421Y017957D01*
X039421Y017961D02*
X039600Y017961D01*
X039600Y017965D02*
X039421Y017965D01*
X039421Y017969D02*
X039600Y017969D01*
X039600Y017973D02*
X039421Y017973D01*
X039421Y017977D02*
X039600Y017977D01*
X039600Y017981D02*
X039421Y017981D01*
X039421Y017985D02*
X039600Y017985D01*
X039600Y017989D02*
X039421Y017989D01*
X039421Y017993D02*
X039600Y017993D01*
X039600Y017997D02*
X039421Y017997D01*
X039421Y018001D02*
X039600Y018001D01*
X039600Y018005D02*
X039421Y018005D01*
X039421Y018008D02*
X039600Y018008D01*
X039600Y018012D02*
X039421Y018012D01*
X039421Y018016D02*
X039600Y018016D01*
X039600Y018020D02*
X039421Y018020D01*
X039421Y018024D02*
X039600Y018024D01*
X039600Y018028D02*
X039421Y018028D01*
X039421Y018032D02*
X039600Y018032D01*
X039600Y018036D02*
X039421Y018036D01*
X039421Y018040D02*
X039600Y018040D01*
X039600Y018044D02*
X039421Y018044D01*
X039421Y018048D02*
X039600Y018048D01*
X039600Y018052D02*
X039421Y018052D01*
X039421Y018056D02*
X039600Y018056D01*
X039600Y018060D02*
X039421Y018060D01*
X039421Y018064D02*
X039600Y018064D01*
X039600Y018068D02*
X039421Y018068D01*
X039421Y018071D02*
X039600Y018071D01*
X039600Y018075D02*
X039421Y018075D01*
X039421Y018079D02*
X039600Y018079D01*
X039600Y018083D02*
X039421Y018083D01*
X039421Y018087D02*
X039600Y018087D01*
X039600Y018091D02*
X039421Y018091D01*
X039421Y018095D02*
X039600Y018095D01*
X039600Y018099D02*
X039421Y018099D01*
X039421Y018103D02*
X039600Y018103D01*
X039600Y018107D02*
X039421Y018107D01*
X039421Y018111D02*
X039600Y018111D01*
X039600Y018115D02*
X039421Y018115D01*
X039421Y018119D02*
X039600Y018119D01*
X039600Y018123D02*
X039421Y018123D01*
X039421Y018127D02*
X039600Y018127D01*
X039600Y018131D02*
X039421Y018131D01*
X039421Y018134D02*
X039600Y018134D01*
X039600Y018138D02*
X039421Y018138D01*
X039421Y018142D02*
X039600Y018142D01*
X039600Y018146D02*
X039421Y018146D01*
X039421Y018150D02*
X039600Y018150D01*
X039600Y018154D02*
X039421Y018154D01*
X039421Y018158D02*
X039600Y018158D01*
X039600Y018162D02*
X039421Y018162D01*
X039421Y018166D02*
X039600Y018166D01*
X039600Y018170D02*
X039421Y018170D01*
X039421Y018174D02*
X039600Y018174D01*
X039600Y018178D02*
X039421Y018178D01*
X039421Y018182D02*
X039600Y018182D01*
X039600Y018186D02*
X039421Y018186D01*
X039421Y018190D02*
X039600Y018190D01*
X039600Y018194D02*
X039421Y018194D01*
X039421Y018197D02*
X039600Y018197D01*
X039600Y018201D02*
X039421Y018201D01*
X039421Y018205D02*
X039600Y018205D01*
X039600Y018209D02*
X039421Y018209D01*
X039421Y018213D02*
X039600Y018213D01*
X039600Y018217D02*
X039421Y018217D01*
X039421Y018221D02*
X039600Y018221D01*
X039600Y018225D02*
X039421Y018225D01*
X039421Y018229D02*
X039600Y018229D01*
X039600Y018233D02*
X039421Y018233D01*
X039421Y018237D02*
X039600Y018237D01*
X039600Y018241D02*
X039421Y018241D01*
X039421Y018245D02*
X039600Y018245D01*
X039600Y018249D02*
X039421Y018249D01*
X039421Y018253D02*
X039600Y018253D01*
X039600Y018256D02*
X039421Y018256D01*
X039421Y018260D02*
X039600Y018260D01*
X039600Y018264D02*
X039421Y018264D01*
X039421Y018268D02*
X039600Y018268D01*
X039600Y018272D02*
X039421Y018272D01*
X039421Y018276D02*
X039600Y018276D01*
X039600Y018280D02*
X039421Y018280D01*
X039421Y018284D02*
X039600Y018284D01*
X039600Y018288D02*
X039421Y018288D01*
X039421Y018292D02*
X039600Y018292D01*
X039600Y018296D02*
X039421Y018296D01*
X039421Y018300D02*
X039600Y018300D01*
X039600Y018304D02*
X039421Y018304D01*
X039421Y018308D02*
X039600Y018308D01*
X039600Y018312D02*
X039421Y018312D01*
X039421Y018316D02*
X039600Y018316D01*
X039600Y018319D02*
X039421Y018319D01*
X039421Y018323D02*
X039600Y018323D01*
X039600Y018327D02*
X039421Y018327D01*
X039421Y018331D02*
X039600Y018331D01*
X039600Y018335D02*
X039421Y018335D01*
X039421Y018339D02*
X039600Y018339D01*
X039600Y018343D02*
X039421Y018343D01*
X039421Y018347D02*
X039600Y018347D01*
X039600Y018350D02*
X039421Y018350D01*
X039421Y018354D02*
X039600Y018354D01*
X039600Y018358D02*
X039421Y018358D01*
X039421Y018362D02*
X039600Y018362D01*
X039600Y018366D02*
X039421Y018366D01*
X039421Y018370D02*
X039600Y018370D01*
X039600Y018374D02*
X039421Y018374D01*
X039421Y018378D02*
X039600Y018378D01*
X039600Y018381D02*
X039421Y018381D01*
X039421Y018385D02*
X039600Y018385D01*
X039600Y018389D02*
X039421Y018389D01*
X039421Y018393D02*
X039600Y018393D01*
X039600Y018397D02*
X039421Y018397D01*
X039421Y018401D02*
X039600Y018401D01*
X039600Y018405D02*
X039421Y018405D01*
X039421Y018409D02*
X039600Y018409D01*
X039720Y018409D02*
X040454Y018409D01*
X040455Y018411D02*
X040569Y018411D01*
X040865Y017921D01*
X040731Y017921D01*
X040669Y018029D01*
X040345Y018029D01*
X040284Y017921D01*
X040164Y017921D01*
X040455Y018411D01*
X040451Y018405D02*
X039720Y018405D01*
X039720Y018401D02*
X040449Y018401D01*
X040447Y018397D02*
X039720Y018397D01*
X039720Y018393D02*
X040444Y018393D01*
X040443Y018389D02*
X039720Y018389D01*
X039720Y018385D02*
X040440Y018385D01*
X040438Y018381D02*
X039720Y018381D01*
X039720Y018378D02*
X040436Y018378D01*
X040433Y018374D02*
X039720Y018374D01*
X039720Y018370D02*
X040431Y018370D01*
X040429Y018366D02*
X039720Y018366D01*
X039720Y018362D02*
X040426Y018362D01*
X040424Y018358D02*
X039720Y018358D01*
X039720Y018354D02*
X040421Y018354D01*
X040419Y018350D02*
X039720Y018350D01*
X039720Y018347D02*
X040417Y018347D01*
X040414Y018343D02*
X039720Y018343D01*
X039720Y018339D02*
X040412Y018339D01*
X040410Y018335D02*
X039720Y018335D01*
X039720Y018331D02*
X040407Y018331D01*
X040405Y018327D02*
X039720Y018327D01*
X039720Y018323D02*
X040402Y018323D01*
X040400Y018319D02*
X039720Y018319D01*
X039720Y018316D02*
X040398Y018316D01*
X040395Y018312D02*
X039720Y018312D01*
X039720Y018308D02*
X040393Y018308D01*
X040391Y018304D02*
X039720Y018304D01*
X039720Y018300D02*
X040388Y018300D01*
X040386Y018296D02*
X039720Y018296D01*
X039720Y018292D02*
X040383Y018292D01*
X040381Y018288D02*
X039720Y018288D01*
X039720Y018284D02*
X040380Y018284D01*
X040377Y018280D02*
X039720Y018280D01*
X039720Y018276D02*
X040375Y018276D01*
X040373Y018272D02*
X039720Y018272D01*
X039720Y018268D02*
X040370Y018268D01*
X040368Y018264D02*
X039720Y018264D01*
X039720Y018260D02*
X040366Y018260D01*
X040363Y018256D02*
X039720Y018256D01*
X039720Y018253D02*
X040361Y018253D01*
X040358Y018249D02*
X039720Y018249D01*
X039720Y018245D02*
X040356Y018245D01*
X040354Y018241D02*
X039720Y018241D01*
X039720Y018237D02*
X040351Y018237D01*
X040349Y018233D02*
X039720Y018233D01*
X039720Y018229D02*
X040347Y018229D01*
X040344Y018225D02*
X039720Y018225D01*
X039720Y018221D02*
X040342Y018221D01*
X040339Y018217D02*
X039720Y018217D01*
X039720Y018213D02*
X040337Y018213D01*
X040335Y018209D02*
X039720Y018209D01*
X039720Y018205D02*
X040332Y018205D01*
X040330Y018201D02*
X039720Y018201D01*
X039720Y018197D02*
X040328Y018197D01*
X040325Y018194D02*
X039720Y018194D01*
X039720Y018190D02*
X040323Y018190D01*
X040320Y018186D02*
X039720Y018186D01*
X039720Y018182D02*
X040319Y018182D01*
X040317Y018178D02*
X039720Y018178D01*
X039720Y018174D02*
X040314Y018174D01*
X040312Y018170D02*
X039720Y018170D01*
X039720Y018166D02*
X040310Y018166D01*
X040307Y018162D02*
X039720Y018162D01*
X039720Y018158D02*
X040305Y018158D01*
X040302Y018154D02*
X039720Y018154D01*
X039720Y018150D02*
X040300Y018150D01*
X040298Y018146D02*
X039720Y018146D01*
X039720Y018142D02*
X040295Y018142D01*
X040293Y018138D02*
X039720Y018138D01*
X039720Y018134D02*
X040291Y018134D01*
X040288Y018131D02*
X039720Y018131D01*
X039720Y018127D02*
X040286Y018127D01*
X040283Y018123D02*
X039720Y018123D01*
X039720Y018119D02*
X040281Y018119D01*
X040279Y018115D02*
X039720Y018115D01*
X039720Y018111D02*
X040276Y018111D01*
X040274Y018107D02*
X039720Y018107D01*
X039720Y018103D02*
X040272Y018103D01*
X040269Y018099D02*
X039720Y018099D01*
X039720Y018095D02*
X040267Y018095D01*
X040264Y018091D02*
X039720Y018091D01*
X039720Y018087D02*
X040262Y018087D01*
X040260Y018083D02*
X039720Y018083D01*
X039720Y018079D02*
X040257Y018079D01*
X040256Y018075D02*
X039720Y018075D01*
X039720Y018071D02*
X040254Y018071D01*
X040251Y018068D02*
X039720Y018068D01*
X039720Y018064D02*
X040249Y018064D01*
X040246Y018060D02*
X039720Y018060D01*
X039720Y018056D02*
X040244Y018056D01*
X040242Y018052D02*
X039720Y018052D01*
X039720Y018048D02*
X040239Y018048D01*
X040237Y018044D02*
X039720Y018044D01*
X039720Y018040D02*
X040235Y018040D01*
X040232Y018036D02*
X039720Y018036D01*
X039720Y018032D02*
X040230Y018032D01*
X040227Y018028D02*
X039720Y018028D01*
X039720Y018024D02*
X040225Y018024D01*
X040223Y018020D02*
X039720Y018020D01*
X039720Y018016D02*
X040220Y018016D01*
X040311Y017969D02*
X040703Y017969D01*
X040701Y017973D02*
X040314Y017973D01*
X040316Y017977D02*
X040698Y017977D01*
X040696Y017981D02*
X040318Y017981D01*
X040319Y017985D02*
X040694Y017985D01*
X040692Y017989D02*
X040322Y017989D01*
X040324Y017993D02*
X040690Y017993D01*
X040688Y017997D02*
X040326Y017997D01*
X040328Y018001D02*
X040686Y018001D01*
X040683Y018005D02*
X040331Y018005D01*
X040333Y018008D02*
X040681Y018008D01*
X040679Y018012D02*
X040335Y018012D01*
X040337Y018016D02*
X040676Y018016D01*
X040674Y018020D02*
X040340Y018020D01*
X040342Y018024D02*
X040672Y018024D01*
X040669Y018028D02*
X040344Y018028D01*
X040309Y017965D02*
X040705Y017965D01*
X040707Y017961D02*
X040307Y017961D01*
X040305Y017957D02*
X040710Y017957D01*
X040712Y017953D02*
X040302Y017953D01*
X040300Y017949D02*
X040714Y017949D01*
X040717Y017945D02*
X040298Y017945D01*
X040296Y017942D02*
X040719Y017942D01*
X040721Y017938D02*
X040293Y017938D01*
X040291Y017934D02*
X040724Y017934D01*
X040726Y017930D02*
X040289Y017930D01*
X040287Y017926D02*
X040728Y017926D01*
X040730Y017922D02*
X040284Y017922D01*
X040396Y018118D02*
X040621Y018118D01*
X040507Y018318D01*
X040506Y018321D01*
X040396Y018118D01*
X040396Y018119D02*
X040621Y018119D01*
X040619Y018123D02*
X040398Y018123D01*
X040400Y018127D02*
X040616Y018127D01*
X040614Y018131D02*
X040402Y018131D01*
X040405Y018134D02*
X040612Y018134D01*
X040610Y018138D02*
X040407Y018138D01*
X040409Y018142D02*
X040607Y018142D01*
X040605Y018146D02*
X040411Y018146D01*
X040413Y018150D02*
X040603Y018150D01*
X040601Y018154D02*
X040415Y018154D01*
X040417Y018158D02*
X040598Y018158D01*
X040596Y018162D02*
X040420Y018162D01*
X040422Y018166D02*
X040594Y018166D01*
X040591Y018170D02*
X040424Y018170D01*
X040426Y018174D02*
X040589Y018174D01*
X040587Y018178D02*
X040428Y018178D01*
X040430Y018182D02*
X040585Y018182D01*
X040582Y018186D02*
X040433Y018186D01*
X040435Y018190D02*
X040580Y018190D01*
X040578Y018194D02*
X040437Y018194D01*
X040439Y018197D02*
X040576Y018197D01*
X040573Y018201D02*
X040441Y018201D01*
X040443Y018205D02*
X040571Y018205D01*
X040569Y018209D02*
X040444Y018209D01*
X040447Y018213D02*
X040568Y018213D01*
X040565Y018217D02*
X040449Y018217D01*
X040451Y018221D02*
X040563Y018221D01*
X040561Y018225D02*
X040453Y018225D01*
X040455Y018229D02*
X040559Y018229D01*
X040556Y018233D02*
X040457Y018233D01*
X040460Y018237D02*
X040554Y018237D01*
X040552Y018241D02*
X040462Y018241D01*
X040464Y018245D02*
X040550Y018245D01*
X040547Y018249D02*
X040466Y018249D01*
X040468Y018253D02*
X040545Y018253D01*
X040543Y018256D02*
X040470Y018256D01*
X040472Y018260D02*
X040541Y018260D01*
X040538Y018264D02*
X040475Y018264D01*
X040477Y018268D02*
X040536Y018268D01*
X040534Y018272D02*
X040479Y018272D01*
X040481Y018276D02*
X040532Y018276D01*
X040529Y018280D02*
X040483Y018280D01*
X040485Y018284D02*
X040527Y018284D01*
X040525Y018288D02*
X040488Y018288D01*
X040490Y018292D02*
X040523Y018292D01*
X040520Y018296D02*
X040492Y018296D01*
X040494Y018300D02*
X040518Y018300D01*
X040516Y018304D02*
X040496Y018304D01*
X040498Y018308D02*
X040513Y018308D01*
X040511Y018312D02*
X040500Y018312D01*
X040503Y018316D02*
X040509Y018316D01*
X040507Y018319D02*
X040505Y018319D01*
X040594Y018370D02*
X040987Y018370D01*
X040987Y018374D02*
X040592Y018374D01*
X040589Y018378D02*
X040987Y018378D01*
X040987Y018381D02*
X040587Y018381D01*
X040585Y018385D02*
X040987Y018385D01*
X040987Y018389D02*
X040582Y018389D01*
X040580Y018393D02*
X040987Y018393D01*
X040987Y018397D02*
X040577Y018397D01*
X040575Y018401D02*
X040987Y018401D01*
X040987Y018405D02*
X040573Y018405D01*
X040570Y018409D02*
X040987Y018409D01*
X040987Y018366D02*
X040597Y018366D01*
X040599Y018362D02*
X040987Y018362D01*
X040987Y018358D02*
X040601Y018358D01*
X040604Y018354D02*
X040987Y018354D01*
X040987Y018350D02*
X040606Y018350D01*
X040609Y018347D02*
X040987Y018347D01*
X040987Y018343D02*
X040611Y018343D01*
X040614Y018339D02*
X040987Y018339D01*
X040987Y018335D02*
X040616Y018335D01*
X040618Y018331D02*
X040987Y018331D01*
X040987Y018327D02*
X040621Y018327D01*
X040623Y018323D02*
X040987Y018323D01*
X040987Y018319D02*
X040626Y018319D01*
X040628Y018316D02*
X040987Y018316D01*
X040987Y018312D02*
X040630Y018312D01*
X040632Y018308D02*
X040987Y018308D01*
X040987Y018304D02*
X040634Y018304D01*
X040637Y018300D02*
X040987Y018300D01*
X040987Y018296D02*
X040639Y018296D01*
X040641Y018292D02*
X040987Y018292D01*
X040987Y018288D02*
X040644Y018288D01*
X040646Y018284D02*
X040987Y018284D01*
X040987Y018280D02*
X040649Y018280D01*
X040651Y018276D02*
X040987Y018276D01*
X040987Y018272D02*
X040653Y018272D01*
X040656Y018268D02*
X040987Y018268D01*
X040987Y018264D02*
X040658Y018264D01*
X040661Y018260D02*
X040987Y018260D01*
X040987Y018256D02*
X040663Y018256D01*
X040665Y018253D02*
X040987Y018253D01*
X040987Y018249D02*
X040668Y018249D01*
X040670Y018245D02*
X040987Y018245D01*
X040987Y018241D02*
X040673Y018241D01*
X040675Y018237D02*
X040987Y018237D01*
X040987Y018233D02*
X040677Y018233D01*
X040680Y018229D02*
X040987Y018229D01*
X040987Y018225D02*
X040682Y018225D01*
X040685Y018221D02*
X040987Y018221D01*
X040987Y018217D02*
X040687Y018217D01*
X040689Y018213D02*
X040987Y018213D01*
X040987Y018209D02*
X040692Y018209D01*
X040694Y018205D02*
X040987Y018205D01*
X040987Y018201D02*
X040696Y018201D01*
X040698Y018197D02*
X040987Y018197D01*
X040987Y018194D02*
X040701Y018194D01*
X040703Y018190D02*
X040987Y018190D01*
X040987Y018186D02*
X040705Y018186D01*
X040708Y018182D02*
X040987Y018182D01*
X040987Y018178D02*
X040710Y018178D01*
X040713Y018174D02*
X040987Y018174D01*
X040987Y018170D02*
X040715Y018170D01*
X040717Y018166D02*
X040987Y018166D01*
X040987Y018162D02*
X040720Y018162D01*
X040722Y018158D02*
X040987Y018158D01*
X040987Y018154D02*
X040725Y018154D01*
X040727Y018150D02*
X040987Y018150D01*
X040987Y018146D02*
X040729Y018146D01*
X040732Y018142D02*
X040987Y018142D01*
X040987Y018138D02*
X040734Y018138D01*
X040737Y018134D02*
X040987Y018134D01*
X040987Y018131D02*
X040739Y018131D01*
X040741Y018127D02*
X040987Y018127D01*
X040987Y018123D02*
X040744Y018123D01*
X040746Y018119D02*
X040987Y018119D01*
X040987Y018115D02*
X040749Y018115D01*
X040751Y018111D02*
X040987Y018111D01*
X040987Y018107D02*
X040753Y018107D01*
X040756Y018103D02*
X040987Y018103D01*
X040987Y018099D02*
X040757Y018099D01*
X040760Y018095D02*
X040987Y018095D01*
X040987Y018091D02*
X040762Y018091D01*
X040764Y018087D02*
X040987Y018087D01*
X040987Y018083D02*
X040767Y018083D01*
X040769Y018079D02*
X040987Y018079D01*
X040987Y018075D02*
X040772Y018075D01*
X040774Y018071D02*
X040987Y018071D01*
X040987Y018068D02*
X040777Y018068D01*
X040779Y018064D02*
X040987Y018064D01*
X040987Y018060D02*
X040781Y018060D01*
X040784Y018056D02*
X040987Y018056D01*
X040987Y018052D02*
X040786Y018052D01*
X040789Y018048D02*
X040987Y018048D01*
X040987Y018044D02*
X040791Y018044D01*
X040793Y018040D02*
X040987Y018040D01*
X040987Y018036D02*
X040796Y018036D01*
X040798Y018032D02*
X040987Y018032D01*
X040987Y018028D02*
X040801Y018028D01*
X040803Y018024D02*
X040987Y018024D01*
X040987Y018020D02*
X040805Y018020D01*
X040808Y018016D02*
X040987Y018016D01*
X040987Y018012D02*
X040810Y018012D01*
X040813Y018008D02*
X040987Y018008D01*
X040987Y018005D02*
X040815Y018005D01*
X040817Y018001D02*
X040987Y018001D01*
X040987Y017997D02*
X040819Y017997D01*
X040821Y017993D02*
X040987Y017993D01*
X040987Y017989D02*
X040824Y017989D01*
X040826Y017985D02*
X040987Y017985D01*
X040987Y017981D02*
X040828Y017981D01*
X040831Y017977D02*
X040987Y017977D01*
X040987Y017973D02*
X040833Y017973D01*
X040836Y017969D02*
X040987Y017969D01*
X040987Y017965D02*
X040838Y017965D01*
X040840Y017961D02*
X040987Y017961D01*
X040987Y017957D02*
X040843Y017957D01*
X040845Y017953D02*
X040987Y017953D01*
X040987Y017949D02*
X040848Y017949D01*
X040850Y017945D02*
X040987Y017945D01*
X040987Y017942D02*
X040852Y017942D01*
X040855Y017938D02*
X040987Y017938D01*
X040987Y017934D02*
X040857Y017934D01*
X040860Y017930D02*
X040987Y017930D01*
X040987Y017926D02*
X040862Y017926D01*
X040865Y017922D02*
X040987Y017922D01*
X041105Y018009D02*
X041373Y018009D01*
X041377Y018009D01*
X041381Y018010D01*
X041383Y018010D01*
X041386Y018010D01*
X041389Y018010D01*
X041392Y018010D01*
X041395Y018011D01*
X041398Y018011D01*
X041401Y018012D01*
X041403Y018012D01*
X041405Y018013D01*
X041408Y018013D01*
X041410Y018014D01*
X041412Y018015D01*
X041413Y018016D01*
X041415Y018017D01*
X041417Y018018D01*
X041419Y018019D01*
X041421Y018021D01*
X041422Y018022D01*
X041424Y018024D01*
X041425Y018026D01*
X041426Y018028D01*
X041105Y018028D01*
X041105Y018024D02*
X041423Y018024D01*
X041420Y018020D02*
X041105Y018020D01*
X041105Y018016D02*
X041414Y018016D01*
X041402Y018012D02*
X041105Y018012D01*
X041105Y018009D02*
X041105Y018133D01*
X041373Y018133D01*
X041377Y018133D01*
X041381Y018133D01*
X041383Y018133D01*
X041386Y018133D01*
X041389Y018133D01*
X041392Y018133D01*
X041395Y018132D01*
X041398Y018132D01*
X041401Y018131D01*
X041403Y018131D01*
X041405Y018131D01*
X041408Y018131D01*
X041410Y018130D01*
X041412Y018130D01*
X041413Y018129D01*
X041415Y018128D01*
X041417Y018127D01*
X041105Y018127D01*
X041105Y018131D02*
X041409Y018131D01*
X041417Y018127D02*
X041419Y018125D01*
X041421Y018124D01*
X041422Y018122D01*
X041424Y018120D01*
X041425Y018118D01*
X041426Y018116D01*
X041427Y018114D01*
X041428Y018111D01*
X041105Y018111D01*
X041105Y018115D02*
X041427Y018115D01*
X041428Y018111D02*
X041429Y018109D01*
X041430Y018106D01*
X041430Y018103D01*
X041105Y018103D01*
X041105Y018107D02*
X041429Y018107D01*
X041430Y018103D02*
X041431Y018100D01*
X041431Y018097D01*
X041431Y018094D01*
X041431Y018091D01*
X041105Y018091D01*
X041105Y018087D02*
X041431Y018087D01*
X041431Y018083D02*
X041105Y018083D01*
X041105Y018079D02*
X041431Y018079D01*
X041431Y018075D02*
X041105Y018075D01*
X041105Y018071D02*
X041431Y018071D01*
X041431Y018068D02*
X041105Y018068D01*
X041105Y018064D02*
X041431Y018064D01*
X041431Y018060D02*
X041105Y018060D01*
X041105Y018056D02*
X041431Y018056D01*
X041431Y018054D02*
X041431Y018091D01*
X041431Y018095D02*
X041105Y018095D01*
X041105Y018099D02*
X041431Y018099D01*
X041425Y018119D02*
X041105Y018119D01*
X041105Y018123D02*
X041422Y018123D01*
X041431Y018054D02*
X041431Y018051D01*
X041431Y018047D01*
X041431Y018044D01*
X041105Y018044D01*
X041105Y018048D02*
X041431Y018048D01*
X041431Y018052D02*
X041105Y018052D01*
X041105Y018040D02*
X041430Y018040D01*
X041430Y018041D02*
X041431Y018044D01*
X041430Y018041D02*
X041430Y018038D01*
X041429Y018035D01*
X041428Y018033D01*
X041427Y018030D01*
X041426Y018028D01*
X041428Y018032D02*
X041105Y018032D01*
X041105Y018036D02*
X041429Y018036D01*
X041423Y017922D02*
X041836Y017922D01*
X041746Y017969D02*
X041744Y017974D01*
X041742Y017980D01*
X041740Y017986D01*
X041742Y017981D02*
X041540Y017981D01*
X041538Y017977D02*
X041743Y017977D01*
X041744Y017973D02*
X041536Y017973D01*
X041547Y018089D02*
X041546Y018099D01*
X041545Y018103D02*
X042201Y018103D01*
X042201Y018107D02*
X041544Y018107D01*
X041543Y018111D02*
X042201Y018111D01*
X042201Y018115D02*
X041542Y018115D01*
X041540Y018119D02*
X042201Y018119D01*
X042201Y018123D02*
X041539Y018123D01*
X041518Y018150D02*
X041782Y018150D01*
X041778Y018154D02*
X041513Y018154D01*
X041507Y018158D02*
X041775Y018158D01*
X041772Y018162D02*
X041501Y018162D01*
X041492Y018166D02*
X041770Y018166D01*
X041863Y018276D02*
X042200Y018276D01*
X042200Y018280D02*
X041863Y018280D01*
X041863Y018284D02*
X042200Y018284D01*
X042200Y018288D02*
X041863Y018288D01*
X041863Y018292D02*
X042200Y018292D01*
X042200Y018296D02*
X041863Y018296D01*
X041863Y018300D02*
X042200Y018300D01*
X042200Y018304D02*
X041863Y018304D01*
X041863Y018308D02*
X042200Y018308D01*
X042200Y018312D02*
X041863Y018312D01*
X041863Y018316D02*
X042200Y018316D01*
X042200Y018319D02*
X041863Y018319D01*
X042208Y018409D02*
X042488Y018409D01*
X042488Y018413D02*
X039421Y018413D01*
X039421Y018417D02*
X042488Y018417D01*
X042488Y018421D02*
X039421Y018421D01*
X039421Y018425D02*
X042488Y018425D01*
X042488Y018429D02*
X039421Y018429D01*
X039421Y018433D02*
X042488Y018433D01*
X042488Y018437D02*
X039421Y018437D01*
X039421Y018441D02*
X042488Y018441D01*
X042488Y018444D02*
X039421Y018444D01*
X039421Y018448D02*
X042488Y018448D01*
X042488Y018452D02*
X039421Y018452D01*
X039421Y018456D02*
X042488Y018456D01*
X042488Y018460D02*
X039421Y018460D01*
X039421Y018464D02*
X042488Y018464D01*
X042488Y018468D02*
X039421Y018468D01*
X039421Y018472D02*
X042488Y018472D01*
X042488Y018476D02*
X039421Y018476D01*
X039421Y018480D02*
X042488Y018480D01*
X042488Y018484D02*
X039421Y018484D01*
X039421Y018488D02*
X042488Y018488D01*
X042488Y018492D02*
X039421Y018492D01*
X039421Y018496D02*
X042488Y018496D01*
X042488Y018500D02*
X039421Y018500D01*
X039421Y018504D02*
X042488Y018504D01*
X042488Y018507D02*
X039421Y018507D01*
X039421Y018511D02*
X042488Y018511D01*
X042488Y018515D02*
X039421Y018515D01*
X039421Y018519D02*
X042488Y018519D01*
X042488Y018523D02*
X039421Y018523D01*
X039421Y018527D02*
X042488Y018527D01*
X042488Y018531D02*
X039421Y018531D01*
X039421Y018535D02*
X042488Y018535D01*
X042488Y018539D02*
X039421Y018539D01*
X039421Y018543D02*
X042488Y018543D01*
X042488Y018547D02*
X039421Y018547D01*
X039421Y018551D02*
X042488Y018551D01*
X042488Y018555D02*
X039421Y018555D01*
X039421Y018559D02*
X042488Y018559D01*
X042488Y018563D02*
X039421Y018563D01*
X039421Y018567D02*
X042488Y018567D01*
X042488Y018570D02*
X039421Y018570D01*
X039421Y018574D02*
X042488Y018574D01*
X042488Y018578D02*
X039421Y018578D01*
X039421Y018582D02*
X042488Y018582D01*
X042488Y018586D02*
X039421Y018586D01*
X039421Y018590D02*
X042488Y018590D01*
X042488Y018594D02*
X039421Y018594D01*
X039421Y018598D02*
X042488Y018598D01*
X042488Y018602D02*
X039421Y018602D01*
X039421Y018606D02*
X042488Y018606D01*
X042488Y018610D02*
X039421Y018610D01*
X039421Y018614D02*
X042488Y018614D01*
X042488Y018618D02*
X039421Y018618D01*
X039421Y018622D02*
X042488Y018622D01*
X042488Y018626D02*
X039421Y018626D01*
X039421Y018630D02*
X042488Y018630D01*
X042488Y018633D02*
X039421Y018633D01*
X039421Y018637D02*
X042488Y018637D01*
X042488Y018641D02*
X039421Y018641D01*
X039421Y018645D02*
X042488Y018645D01*
X042488Y018649D02*
X039421Y018649D01*
X039421Y018653D02*
X042488Y018653D01*
X042488Y018657D02*
X039421Y018657D01*
X039421Y018661D02*
X042488Y018661D01*
X042488Y018665D02*
X039421Y018665D01*
X039421Y018669D02*
X042488Y018669D01*
X042488Y018673D02*
X039421Y018673D01*
X039421Y018677D02*
X042488Y018677D01*
X042488Y018681D02*
X039421Y018681D01*
X042488Y018681D01*
X042488Y017652D01*
X039421Y017652D01*
X039421Y018681D01*
X039253Y018411D02*
X038987Y018144D01*
X038987Y017921D01*
X038868Y017921D01*
X038868Y018141D01*
X038601Y018411D01*
X038760Y018411D01*
X038936Y018228D01*
X039113Y018411D01*
X039253Y018411D01*
X039252Y018409D02*
X039112Y018409D01*
X039108Y018405D02*
X039248Y018405D01*
X039244Y018401D02*
X039104Y018401D01*
X039100Y018397D02*
X039240Y018397D01*
X039236Y018393D02*
X039096Y018393D01*
X039092Y018389D02*
X039232Y018389D01*
X039228Y018385D02*
X039089Y018385D01*
X039085Y018381D02*
X039224Y018381D01*
X039220Y018378D02*
X039081Y018378D01*
X039077Y018374D02*
X039216Y018374D01*
X039212Y018370D02*
X039073Y018370D01*
X039069Y018366D02*
X039208Y018366D01*
X039204Y018362D02*
X039066Y018362D01*
X039062Y018358D02*
X039200Y018358D01*
X039196Y018354D02*
X039059Y018354D01*
X039055Y018350D02*
X039193Y018350D01*
X039189Y018347D02*
X039051Y018347D01*
X039047Y018343D02*
X039185Y018343D01*
X039181Y018339D02*
X039043Y018339D01*
X039039Y018335D02*
X039177Y018335D01*
X039173Y018331D02*
X039035Y018331D01*
X039032Y018327D02*
X039169Y018327D01*
X039165Y018323D02*
X039028Y018323D01*
X039024Y018319D02*
X039161Y018319D01*
X039157Y018316D02*
X039020Y018316D01*
X039016Y018312D02*
X039153Y018312D01*
X039149Y018308D02*
X039012Y018308D01*
X039008Y018304D02*
X039145Y018304D01*
X039141Y018300D02*
X039005Y018300D01*
X039002Y018296D02*
X039137Y018296D01*
X039133Y018292D02*
X038998Y018292D01*
X038994Y018288D02*
X039130Y018288D01*
X039127Y018284D02*
X038990Y018284D01*
X038986Y018280D02*
X039123Y018280D01*
X039119Y018276D02*
X038982Y018276D01*
X038978Y018272D02*
X039115Y018272D01*
X039111Y018268D02*
X038975Y018268D01*
X038971Y018264D02*
X039107Y018264D01*
X039103Y018260D02*
X038967Y018260D01*
X038963Y018256D02*
X039099Y018256D01*
X039095Y018253D02*
X038959Y018253D01*
X038955Y018249D02*
X039091Y018249D01*
X039087Y018245D02*
X038951Y018245D01*
X038947Y018241D02*
X039083Y018241D01*
X039079Y018237D02*
X038944Y018237D01*
X038941Y018233D02*
X039075Y018233D01*
X039071Y018229D02*
X038937Y018229D01*
X038936Y018229D02*
X038781Y018229D01*
X038777Y018233D02*
X038932Y018233D01*
X038928Y018237D02*
X038773Y018237D01*
X038769Y018241D02*
X038924Y018241D01*
X038920Y018245D02*
X038765Y018245D01*
X038761Y018249D02*
X038916Y018249D01*
X038913Y018253D02*
X038757Y018253D01*
X038754Y018256D02*
X038909Y018256D01*
X038905Y018260D02*
X038750Y018260D01*
X038746Y018264D02*
X038901Y018264D01*
X038897Y018268D02*
X038742Y018268D01*
X038739Y018272D02*
X038893Y018272D01*
X038890Y018276D02*
X038735Y018276D01*
X038731Y018280D02*
X038886Y018280D01*
X038882Y018284D02*
X038727Y018284D01*
X038723Y018288D02*
X038879Y018288D01*
X038875Y018292D02*
X038719Y018292D01*
X038715Y018296D02*
X038872Y018296D01*
X038868Y018300D02*
X038711Y018300D01*
X038707Y018304D02*
X038864Y018304D01*
X038860Y018308D02*
X038703Y018308D01*
X038699Y018312D02*
X038856Y018312D01*
X038852Y018316D02*
X038695Y018316D01*
X038692Y018319D02*
X038849Y018319D01*
X038845Y018323D02*
X038688Y018323D01*
X038684Y018327D02*
X038841Y018327D01*
X038837Y018331D02*
X038680Y018331D01*
X038676Y018335D02*
X038833Y018335D01*
X038830Y018339D02*
X038672Y018339D01*
X038668Y018343D02*
X038826Y018343D01*
X038822Y018347D02*
X038664Y018347D01*
X038661Y018350D02*
X038819Y018350D01*
X038815Y018354D02*
X038657Y018354D01*
X038653Y018358D02*
X038811Y018358D01*
X038808Y018362D02*
X038649Y018362D01*
X038645Y018366D02*
X038804Y018366D01*
X038800Y018370D02*
X038641Y018370D01*
X038637Y018374D02*
X038796Y018374D01*
X038792Y018378D02*
X038633Y018378D01*
X038630Y018381D02*
X038789Y018381D01*
X038785Y018385D02*
X038626Y018385D01*
X038622Y018389D02*
X038781Y018389D01*
X038777Y018393D02*
X038618Y018393D01*
X038614Y018397D02*
X038773Y018397D01*
X038769Y018401D02*
X038610Y018401D01*
X038606Y018405D02*
X038766Y018405D01*
X038762Y018409D02*
X038602Y018409D01*
X038530Y018409D02*
X037937Y018409D01*
X037937Y018411D02*
X038530Y018411D01*
X038530Y018321D01*
X038293Y018321D01*
X038293Y017921D01*
X038173Y017921D01*
X038173Y018321D01*
X037937Y018321D01*
X037937Y018411D01*
X037937Y018405D02*
X038530Y018405D01*
X038530Y018401D02*
X037937Y018401D01*
X037937Y018397D02*
X038530Y018397D01*
X038530Y018393D02*
X037937Y018393D01*
X037937Y018389D02*
X038530Y018389D01*
X038530Y018385D02*
X037937Y018385D01*
X037937Y018381D02*
X038530Y018381D01*
X038530Y018378D02*
X037937Y018378D01*
X037937Y018374D02*
X038530Y018374D01*
X038530Y018370D02*
X037937Y018370D01*
X037937Y018366D02*
X038530Y018366D01*
X038530Y018362D02*
X037937Y018362D01*
X037937Y018358D02*
X038530Y018358D01*
X038530Y018354D02*
X037937Y018354D01*
X037937Y018350D02*
X038530Y018350D01*
X038530Y018347D02*
X037937Y018347D01*
X037937Y018343D02*
X038530Y018343D01*
X038530Y018339D02*
X037937Y018339D01*
X037937Y018335D02*
X038530Y018335D01*
X038530Y018331D02*
X037937Y018331D01*
X037937Y018327D02*
X038530Y018327D01*
X038530Y018323D02*
X037937Y018323D01*
X037783Y018323D02*
X037663Y018323D01*
X037663Y018319D02*
X037783Y018319D01*
X037783Y018316D02*
X037663Y018316D01*
X037663Y018312D02*
X037783Y018312D01*
X037783Y018308D02*
X037663Y018308D01*
X037663Y018304D02*
X037783Y018304D01*
X037783Y018300D02*
X037663Y018300D01*
X037663Y018296D02*
X037783Y018296D01*
X037783Y018292D02*
X037663Y018292D01*
X037663Y018288D02*
X037783Y018288D01*
X037783Y018284D02*
X037663Y018284D01*
X037663Y018280D02*
X037783Y018280D01*
X037783Y018276D02*
X037663Y018276D01*
X037663Y018272D02*
X037783Y018272D01*
X037783Y018268D02*
X037663Y018268D01*
X037663Y018264D02*
X037783Y018264D01*
X037783Y018260D02*
X037663Y018260D01*
X037663Y018256D02*
X037783Y018256D01*
X037783Y018253D02*
X037663Y018253D01*
X037663Y018249D02*
X037783Y018249D01*
X037783Y018245D02*
X037663Y018245D01*
X037663Y018241D02*
X037783Y018241D01*
X037783Y018237D02*
X037663Y018237D01*
X037663Y018233D02*
X037783Y018233D01*
X037783Y018229D02*
X037663Y018229D01*
X037663Y018225D02*
X037783Y018225D01*
X037783Y018221D02*
X037663Y018221D01*
X037663Y018217D02*
X037783Y018217D01*
X037783Y018213D02*
X037663Y018213D01*
X037663Y018209D02*
X037783Y018209D01*
X037783Y018205D02*
X037663Y018205D01*
X037663Y018201D02*
X037783Y018201D01*
X037783Y018197D02*
X037663Y018197D01*
X037663Y018194D02*
X037783Y018194D01*
X037783Y018190D02*
X037663Y018190D01*
X037663Y018186D02*
X037783Y018186D01*
X037783Y018182D02*
X037663Y018182D01*
X037663Y018178D02*
X037783Y018178D01*
X037783Y018174D02*
X037663Y018174D01*
X037663Y018170D02*
X037783Y018170D01*
X037783Y018166D02*
X037663Y018166D01*
X037663Y018162D02*
X037783Y018162D01*
X037783Y018158D02*
X037663Y018158D01*
X037663Y018154D02*
X037783Y018154D01*
X037783Y018150D02*
X037663Y018150D01*
X037663Y018146D02*
X037783Y018146D01*
X037783Y018142D02*
X037663Y018142D01*
X037663Y018138D02*
X037783Y018138D01*
X037783Y018134D02*
X037663Y018134D01*
X037663Y018131D02*
X037783Y018131D01*
X037783Y018127D02*
X037663Y018127D01*
X037663Y018123D02*
X037783Y018123D01*
X037783Y018119D02*
X037663Y018119D01*
X037663Y018115D02*
X037783Y018115D01*
X037783Y018111D02*
X037663Y018111D01*
X037663Y018107D02*
X037783Y018107D01*
X037783Y018103D02*
X037663Y018103D01*
X037663Y018099D02*
X037783Y018099D01*
X037783Y018095D02*
X037663Y018095D01*
X037663Y018091D02*
X037783Y018091D01*
X037783Y018087D02*
X037663Y018087D01*
X037663Y018083D02*
X037783Y018083D01*
X037783Y018079D02*
X037663Y018079D01*
X037663Y018075D02*
X037783Y018075D01*
X037783Y018071D02*
X037663Y018071D01*
X037663Y018068D02*
X037783Y018068D01*
X037783Y018064D02*
X037663Y018064D01*
X037663Y018060D02*
X037783Y018060D01*
X037783Y018056D02*
X037663Y018056D01*
X037663Y018052D02*
X037783Y018052D01*
X037783Y018048D02*
X037663Y018048D01*
X037663Y018044D02*
X037783Y018044D01*
X037783Y018040D02*
X037663Y018040D01*
X037663Y018036D02*
X037783Y018036D01*
X037783Y018032D02*
X037663Y018032D01*
X037663Y018028D02*
X037783Y018028D01*
X037783Y018024D02*
X037663Y018024D01*
X037663Y018020D02*
X037783Y018020D01*
X037783Y018016D02*
X037663Y018016D01*
X037663Y018012D02*
X037783Y018012D01*
X037783Y018008D02*
X037663Y018008D01*
X037663Y018005D02*
X037783Y018005D01*
X037783Y018001D02*
X037663Y018001D01*
X037663Y017997D02*
X037783Y017997D01*
X037783Y017993D02*
X037663Y017993D01*
X037663Y017989D02*
X037783Y017989D01*
X037783Y017985D02*
X037663Y017985D01*
X037663Y017981D02*
X037783Y017981D01*
X037783Y017977D02*
X037663Y017977D01*
X037663Y017973D02*
X037783Y017973D01*
X037783Y017969D02*
X037663Y017969D01*
X037663Y017965D02*
X037783Y017965D01*
X037783Y017961D02*
X037663Y017961D01*
X037663Y017957D02*
X037783Y017957D01*
X037783Y017953D02*
X037663Y017953D01*
X037663Y017949D02*
X037783Y017949D01*
X037783Y017945D02*
X037663Y017945D01*
X037663Y017942D02*
X037783Y017942D01*
X037783Y017938D02*
X037663Y017938D01*
X037663Y017934D02*
X037783Y017934D01*
X037783Y017930D02*
X037663Y017930D01*
X037663Y017926D02*
X037783Y017926D01*
X037783Y017922D02*
X037663Y017922D01*
X037663Y017921D02*
X037663Y018411D01*
X037783Y018411D01*
X037783Y017921D01*
X037663Y017921D01*
X037529Y017922D02*
X037024Y017922D01*
X037024Y017921D02*
X037529Y017921D01*
X037529Y018012D01*
X037024Y018012D01*
X037024Y018008D02*
X037529Y018008D01*
X037529Y018005D02*
X037024Y018005D01*
X037024Y018001D02*
X037529Y018001D01*
X037529Y017997D02*
X037024Y017997D01*
X037024Y017993D02*
X037529Y017993D01*
X037529Y017989D02*
X037024Y017989D01*
X037024Y017985D02*
X037529Y017985D01*
X037529Y017981D02*
X037024Y017981D01*
X037024Y017977D02*
X037529Y017977D01*
X037529Y017973D02*
X037024Y017973D01*
X037024Y017969D02*
X037529Y017969D01*
X037529Y017965D02*
X037024Y017965D01*
X037024Y017961D02*
X037529Y017961D01*
X037529Y017957D02*
X037024Y017957D01*
X037024Y017953D02*
X037529Y017953D01*
X037529Y017949D02*
X037024Y017949D01*
X037024Y017945D02*
X037529Y017945D01*
X037529Y017942D02*
X037024Y017942D01*
X037024Y017938D02*
X037529Y017938D01*
X037529Y017934D02*
X037024Y017934D01*
X037024Y017930D02*
X037529Y017930D01*
X037529Y017926D02*
X037024Y017926D01*
X037024Y017921D02*
X037024Y018411D01*
X037145Y018411D01*
X037145Y018012D01*
X037529Y018012D01*
X037663Y018327D02*
X037783Y018327D01*
X037783Y018331D02*
X037663Y018331D01*
X037663Y018335D02*
X037783Y018335D01*
X037783Y018339D02*
X037663Y018339D01*
X037663Y018343D02*
X037783Y018343D01*
X037783Y018347D02*
X037663Y018347D01*
X037663Y018350D02*
X037783Y018350D01*
X037783Y018354D02*
X037663Y018354D01*
X037663Y018358D02*
X037783Y018358D01*
X037783Y018362D02*
X037663Y018362D01*
X037663Y018366D02*
X037783Y018366D01*
X037783Y018370D02*
X037663Y018370D01*
X037663Y018374D02*
X037783Y018374D01*
X037783Y018378D02*
X037663Y018378D01*
X037663Y018381D02*
X037783Y018381D01*
X037783Y018385D02*
X037663Y018385D01*
X037663Y018389D02*
X037783Y018389D01*
X037783Y018393D02*
X037663Y018393D01*
X037663Y018397D02*
X037783Y018397D01*
X037783Y018401D02*
X037663Y018401D01*
X037663Y018405D02*
X037783Y018405D01*
X037783Y018409D02*
X037663Y018409D01*
X038173Y018319D02*
X038293Y018319D01*
X038293Y018316D02*
X038173Y018316D01*
X038173Y018312D02*
X038293Y018312D01*
X038293Y018308D02*
X038173Y018308D01*
X038173Y018304D02*
X038293Y018304D01*
X038293Y018300D02*
X038173Y018300D01*
X038173Y018296D02*
X038293Y018296D01*
X038293Y018292D02*
X038173Y018292D01*
X038173Y018288D02*
X038293Y018288D01*
X038293Y018284D02*
X038173Y018284D01*
X038173Y018280D02*
X038293Y018280D01*
X038293Y018276D02*
X038173Y018276D01*
X038173Y018272D02*
X038293Y018272D01*
X038293Y018268D02*
X038173Y018268D01*
X038173Y018264D02*
X038293Y018264D01*
X038293Y018260D02*
X038173Y018260D01*
X038173Y018256D02*
X038293Y018256D01*
X038293Y018253D02*
X038173Y018253D01*
X038173Y018249D02*
X038293Y018249D01*
X038293Y018245D02*
X038173Y018245D01*
X038173Y018241D02*
X038293Y018241D01*
X038293Y018237D02*
X038173Y018237D01*
X038173Y018233D02*
X038293Y018233D01*
X038293Y018229D02*
X038173Y018229D01*
X038173Y018225D02*
X038293Y018225D01*
X038293Y018221D02*
X038173Y018221D01*
X038173Y018217D02*
X038293Y018217D01*
X038293Y018213D02*
X038173Y018213D01*
X038173Y018209D02*
X038293Y018209D01*
X038293Y018205D02*
X038173Y018205D01*
X038173Y018201D02*
X038293Y018201D01*
X038293Y018197D02*
X038173Y018197D01*
X038173Y018194D02*
X038293Y018194D01*
X038293Y018190D02*
X038173Y018190D01*
X038173Y018186D02*
X038293Y018186D01*
X038293Y018182D02*
X038173Y018182D01*
X038173Y018178D02*
X038293Y018178D01*
X038293Y018174D02*
X038173Y018174D01*
X038173Y018170D02*
X038293Y018170D01*
X038293Y018166D02*
X038173Y018166D01*
X038173Y018162D02*
X038293Y018162D01*
X038293Y018158D02*
X038173Y018158D01*
X038173Y018154D02*
X038293Y018154D01*
X038293Y018150D02*
X038173Y018150D01*
X038173Y018146D02*
X038293Y018146D01*
X038293Y018142D02*
X038173Y018142D01*
X038173Y018138D02*
X038293Y018138D01*
X038293Y018134D02*
X038173Y018134D01*
X038173Y018131D02*
X038293Y018131D01*
X038293Y018127D02*
X038173Y018127D01*
X038173Y018123D02*
X038293Y018123D01*
X038293Y018119D02*
X038173Y018119D01*
X038173Y018115D02*
X038293Y018115D01*
X038293Y018111D02*
X038173Y018111D01*
X038173Y018107D02*
X038293Y018107D01*
X038293Y018103D02*
X038173Y018103D01*
X038173Y018099D02*
X038293Y018099D01*
X038293Y018095D02*
X038173Y018095D01*
X038173Y018091D02*
X038293Y018091D01*
X038293Y018087D02*
X038173Y018087D01*
X038173Y018083D02*
X038293Y018083D01*
X038293Y018079D02*
X038173Y018079D01*
X038173Y018075D02*
X038293Y018075D01*
X038293Y018071D02*
X038173Y018071D01*
X038173Y018068D02*
X038293Y018068D01*
X038293Y018064D02*
X038173Y018064D01*
X038173Y018060D02*
X038293Y018060D01*
X038293Y018056D02*
X038173Y018056D01*
X038173Y018052D02*
X038293Y018052D01*
X038293Y018048D02*
X038173Y018048D01*
X038173Y018044D02*
X038293Y018044D01*
X038293Y018040D02*
X038173Y018040D01*
X038173Y018036D02*
X038293Y018036D01*
X038293Y018032D02*
X038173Y018032D01*
X038173Y018028D02*
X038293Y018028D01*
X038293Y018024D02*
X038173Y018024D01*
X038173Y018020D02*
X038293Y018020D01*
X038293Y018016D02*
X038173Y018016D01*
X038173Y018012D02*
X038293Y018012D01*
X038293Y018008D02*
X038173Y018008D01*
X038173Y018005D02*
X038293Y018005D01*
X038293Y018001D02*
X038173Y018001D01*
X038173Y017997D02*
X038293Y017997D01*
X038293Y017993D02*
X038173Y017993D01*
X038173Y017989D02*
X038293Y017989D01*
X038293Y017985D02*
X038173Y017985D01*
X038173Y017981D02*
X038293Y017981D01*
X038293Y017977D02*
X038173Y017977D01*
X038173Y017973D02*
X038293Y017973D01*
X038293Y017969D02*
X038173Y017969D01*
X038173Y017965D02*
X038293Y017965D01*
X038293Y017961D02*
X038173Y017961D01*
X038173Y017957D02*
X038293Y017957D01*
X038293Y017953D02*
X038173Y017953D01*
X038173Y017949D02*
X038293Y017949D01*
X038293Y017945D02*
X038173Y017945D01*
X038173Y017942D02*
X038293Y017942D01*
X038293Y017938D02*
X038173Y017938D01*
X038173Y017934D02*
X038293Y017934D01*
X038293Y017930D02*
X038173Y017930D01*
X038173Y017926D02*
X038293Y017926D01*
X038293Y017922D02*
X038173Y017922D01*
X038785Y018225D02*
X039068Y018225D01*
X039064Y018221D02*
X038789Y018221D01*
X038793Y018217D02*
X039060Y018217D01*
X039056Y018213D02*
X038797Y018213D01*
X038801Y018209D02*
X039052Y018209D01*
X039048Y018205D02*
X038805Y018205D01*
X038809Y018201D02*
X039044Y018201D01*
X039040Y018197D02*
X038813Y018197D01*
X038817Y018194D02*
X039036Y018194D01*
X039032Y018190D02*
X038820Y018190D01*
X038823Y018186D02*
X039028Y018186D01*
X039024Y018182D02*
X038827Y018182D01*
X038831Y018178D02*
X039020Y018178D01*
X039016Y018174D02*
X038835Y018174D01*
X038839Y018170D02*
X039012Y018170D01*
X039008Y018166D02*
X038843Y018166D01*
X038847Y018162D02*
X039005Y018162D01*
X039001Y018158D02*
X038851Y018158D01*
X038855Y018154D02*
X038997Y018154D01*
X038993Y018150D02*
X038859Y018150D01*
X038863Y018146D02*
X038989Y018146D01*
X038987Y018142D02*
X038867Y018142D01*
X038868Y018138D02*
X038987Y018138D01*
X038987Y018134D02*
X038868Y018134D01*
X038868Y018131D02*
X038987Y018131D01*
X038987Y018127D02*
X038868Y018127D01*
X038868Y018123D02*
X038987Y018123D01*
X038987Y018119D02*
X038868Y018119D01*
X038868Y018115D02*
X038987Y018115D01*
X038987Y018111D02*
X038868Y018111D01*
X038868Y018107D02*
X038987Y018107D01*
X038987Y018103D02*
X038868Y018103D01*
X038868Y018099D02*
X038987Y018099D01*
X038987Y018095D02*
X038868Y018095D01*
X038868Y018091D02*
X038987Y018091D01*
X038987Y018087D02*
X038868Y018087D01*
X038868Y018083D02*
X038987Y018083D01*
X038987Y018079D02*
X038868Y018079D01*
X038868Y018075D02*
X038987Y018075D01*
X038987Y018071D02*
X038868Y018071D01*
X038868Y018068D02*
X038987Y018068D01*
X038987Y018064D02*
X038868Y018064D01*
X038868Y018060D02*
X038987Y018060D01*
X038987Y018056D02*
X038868Y018056D01*
X038868Y018052D02*
X038987Y018052D01*
X038987Y018048D02*
X038868Y018048D01*
X038868Y018044D02*
X038987Y018044D01*
X038987Y018040D02*
X038868Y018040D01*
X038868Y018036D02*
X038987Y018036D01*
X038987Y018032D02*
X038868Y018032D01*
X038868Y018028D02*
X038987Y018028D01*
X038987Y018024D02*
X038868Y018024D01*
X038868Y018020D02*
X038987Y018020D01*
X038987Y018016D02*
X038868Y018016D01*
X038868Y018012D02*
X038987Y018012D01*
X038987Y018008D02*
X038868Y018008D01*
X038868Y018005D02*
X038987Y018005D01*
X038987Y018001D02*
X038868Y018001D01*
X038868Y017997D02*
X038987Y017997D01*
X038987Y017993D02*
X038868Y017993D01*
X038868Y017989D02*
X038987Y017989D01*
X038987Y017985D02*
X038868Y017985D01*
X038868Y017981D02*
X038987Y017981D01*
X038987Y017977D02*
X038868Y017977D01*
X038868Y017973D02*
X038987Y017973D01*
X038987Y017969D02*
X038868Y017969D01*
X038868Y017965D02*
X038987Y017965D01*
X038987Y017961D02*
X038868Y017961D01*
X038868Y017957D02*
X038987Y017957D01*
X038987Y017953D02*
X038868Y017953D01*
X038868Y017949D02*
X038987Y017949D01*
X038987Y017945D02*
X038868Y017945D01*
X038868Y017942D02*
X038987Y017942D01*
X038987Y017938D02*
X038868Y017938D01*
X038868Y017934D02*
X038987Y017934D01*
X038987Y017930D02*
X038868Y017930D01*
X038868Y017926D02*
X038987Y017926D01*
X038987Y017922D02*
X038868Y017922D01*
X039421Y017914D02*
X042488Y017914D01*
X042488Y017910D02*
X039421Y017910D01*
X039421Y017906D02*
X042488Y017906D01*
X042488Y017902D02*
X039421Y017902D01*
X039421Y017898D02*
X042488Y017898D01*
X042488Y017894D02*
X039421Y017894D01*
X039421Y017890D02*
X042488Y017890D01*
X042488Y017886D02*
X039421Y017886D01*
X039421Y017882D02*
X042488Y017882D01*
X042488Y017879D02*
X039421Y017879D01*
X039421Y017875D02*
X042488Y017875D01*
X042488Y017871D02*
X039421Y017871D01*
X039421Y017867D02*
X042488Y017867D01*
X042488Y017863D02*
X039421Y017863D01*
X039421Y017859D02*
X042488Y017859D01*
X042488Y017855D02*
X039421Y017855D01*
X039421Y017851D02*
X042488Y017851D01*
X042488Y017847D02*
X039421Y017847D01*
X039421Y017843D02*
X042488Y017843D01*
X042488Y017839D02*
X039421Y017839D01*
X039421Y017835D02*
X042488Y017835D01*
X042488Y017831D02*
X039421Y017831D01*
X039421Y017827D02*
X042488Y017827D01*
X042488Y017823D02*
X039421Y017823D01*
X039421Y017819D02*
X042488Y017819D01*
X042488Y017816D02*
X039421Y017816D01*
X039421Y017812D02*
X042488Y017812D01*
X042488Y017808D02*
X039421Y017808D01*
X039421Y017804D02*
X042488Y017804D01*
X042488Y017800D02*
X039421Y017800D01*
X039421Y017796D02*
X042488Y017796D01*
X042488Y017792D02*
X039421Y017792D01*
X039421Y017788D02*
X042488Y017788D01*
X042488Y017784D02*
X039421Y017784D01*
X039421Y017780D02*
X042488Y017780D01*
X042488Y017776D02*
X039421Y017776D01*
X039421Y017772D02*
X042488Y017772D01*
X042488Y017768D02*
X039421Y017768D01*
X039421Y017764D02*
X042488Y017764D01*
X042488Y017760D02*
X039421Y017760D01*
X039421Y017756D02*
X042488Y017756D01*
X042488Y017753D02*
X039421Y017753D01*
X039421Y017749D02*
X042488Y017749D01*
X042488Y017745D02*
X039421Y017745D01*
X039421Y017741D02*
X042488Y017741D01*
X042488Y017737D02*
X039421Y017737D01*
X039421Y017733D02*
X042488Y017733D01*
X042488Y017729D02*
X039421Y017729D01*
X039421Y017725D02*
X042488Y017725D01*
X042488Y017721D02*
X039421Y017721D01*
X039421Y017717D02*
X042488Y017717D01*
X042488Y017713D02*
X039421Y017713D01*
X039421Y017709D02*
X042488Y017709D01*
X042488Y017705D02*
X039421Y017705D01*
X039421Y017701D02*
X042488Y017701D01*
X042488Y017697D02*
X039421Y017697D01*
X039421Y017694D02*
X042488Y017694D01*
X042488Y017690D02*
X039421Y017690D01*
X039421Y017686D02*
X042488Y017686D01*
X042488Y017682D02*
X039421Y017682D01*
X039421Y017678D02*
X042488Y017678D01*
X042488Y017674D02*
X039421Y017674D01*
X039421Y017670D02*
X042488Y017670D01*
X042488Y017666D02*
X039421Y017666D01*
X039421Y017662D02*
X042488Y017662D01*
X042488Y017658D02*
X039421Y017658D01*
X039421Y017654D02*
X042488Y017654D01*
X037145Y018016D02*
X037024Y018016D01*
X037024Y018020D02*
X037145Y018020D01*
X037145Y018024D02*
X037024Y018024D01*
X037024Y018028D02*
X037145Y018028D01*
X037145Y018032D02*
X037024Y018032D01*
X037024Y018036D02*
X037145Y018036D01*
X037145Y018040D02*
X037024Y018040D01*
X037024Y018044D02*
X037145Y018044D01*
X037145Y018048D02*
X037024Y018048D01*
X037024Y018052D02*
X037145Y018052D01*
X037145Y018056D02*
X037024Y018056D01*
X037024Y018060D02*
X037145Y018060D01*
X037145Y018064D02*
X037024Y018064D01*
X037024Y018068D02*
X037145Y018068D01*
X037145Y018071D02*
X037024Y018071D01*
X037024Y018075D02*
X037145Y018075D01*
X037145Y018079D02*
X037024Y018079D01*
X037024Y018083D02*
X037145Y018083D01*
X037145Y018087D02*
X037024Y018087D01*
X037024Y018091D02*
X037145Y018091D01*
X037145Y018095D02*
X037024Y018095D01*
X037024Y018099D02*
X037145Y018099D01*
X037145Y018103D02*
X037024Y018103D01*
X037024Y018107D02*
X037145Y018107D01*
X037145Y018111D02*
X037024Y018111D01*
X037024Y018115D02*
X037145Y018115D01*
X037145Y018119D02*
X037024Y018119D01*
X037024Y018123D02*
X037145Y018123D01*
X037145Y018127D02*
X037024Y018127D01*
X037024Y018131D02*
X037145Y018131D01*
X037145Y018134D02*
X037024Y018134D01*
X037024Y018138D02*
X037145Y018138D01*
X037145Y018142D02*
X037024Y018142D01*
X037024Y018146D02*
X037145Y018146D01*
X037145Y018150D02*
X037024Y018150D01*
X037024Y018154D02*
X037145Y018154D01*
X037145Y018158D02*
X037024Y018158D01*
X037024Y018162D02*
X037145Y018162D01*
X037145Y018166D02*
X037024Y018166D01*
X037024Y018170D02*
X037145Y018170D01*
X037145Y018174D02*
X037024Y018174D01*
X037024Y018178D02*
X037145Y018178D01*
X037145Y018182D02*
X037024Y018182D01*
X037024Y018186D02*
X037145Y018186D01*
X037145Y018190D02*
X037024Y018190D01*
X037024Y018194D02*
X037145Y018194D01*
X037145Y018197D02*
X037024Y018197D01*
X037024Y018201D02*
X037145Y018201D01*
X037145Y018205D02*
X037024Y018205D01*
X037024Y018209D02*
X037145Y018209D01*
X037145Y018213D02*
X037024Y018213D01*
X037024Y018217D02*
X037145Y018217D01*
X037145Y018221D02*
X037024Y018221D01*
X037024Y018225D02*
X037145Y018225D01*
X037145Y018229D02*
X037024Y018229D01*
X037024Y018233D02*
X037145Y018233D01*
X037145Y018237D02*
X037024Y018237D01*
X037024Y018241D02*
X037145Y018241D01*
X037145Y018245D02*
X037024Y018245D01*
X037024Y018249D02*
X037145Y018249D01*
X037145Y018253D02*
X037024Y018253D01*
X037024Y018256D02*
X037145Y018256D01*
X037145Y018260D02*
X037024Y018260D01*
X037024Y018264D02*
X037145Y018264D01*
X037145Y018268D02*
X037024Y018268D01*
X037024Y018272D02*
X037145Y018272D01*
X037145Y018276D02*
X037024Y018276D01*
X037024Y018280D02*
X037145Y018280D01*
X037145Y018284D02*
X037024Y018284D01*
X037024Y018288D02*
X037145Y018288D01*
X037145Y018292D02*
X037024Y018292D01*
X037024Y018296D02*
X037145Y018296D01*
X037145Y018300D02*
X037024Y018300D01*
X037024Y018304D02*
X037145Y018304D01*
X037145Y018308D02*
X037024Y018308D01*
X037024Y018312D02*
X037145Y018312D01*
X037145Y018316D02*
X037024Y018316D01*
X037024Y018319D02*
X037145Y018319D01*
X037145Y018323D02*
X037024Y018323D01*
X037024Y018327D02*
X037145Y018327D01*
X037145Y018331D02*
X037024Y018331D01*
X037024Y018335D02*
X037145Y018335D01*
X037145Y018339D02*
X037024Y018339D01*
X037024Y018343D02*
X037145Y018343D01*
X037145Y018347D02*
X037024Y018347D01*
X037024Y018350D02*
X037145Y018350D01*
X037145Y018354D02*
X037024Y018354D01*
X037024Y018358D02*
X037145Y018358D01*
X037145Y018362D02*
X037024Y018362D01*
X037024Y018366D02*
X037145Y018366D01*
X037145Y018370D02*
X037024Y018370D01*
X037024Y018374D02*
X037145Y018374D01*
X037145Y018378D02*
X037024Y018378D01*
X037024Y018381D02*
X037145Y018381D01*
X037145Y018385D02*
X037024Y018385D01*
X037024Y018389D02*
X037145Y018389D01*
X037145Y018393D02*
X037024Y018393D01*
X037024Y018397D02*
X037145Y018397D01*
X037145Y018401D02*
X037024Y018401D01*
X037024Y018405D02*
X037145Y018405D01*
X037145Y018409D02*
X037024Y018409D01*
X036724Y018217D02*
X036603Y018217D01*
X036605Y018213D02*
X036726Y018213D01*
X036728Y018209D02*
X036607Y018209D01*
X036609Y018205D02*
X036731Y018205D01*
X036733Y018201D02*
X036611Y018201D01*
X036614Y018197D02*
X036736Y018197D01*
X036738Y018194D02*
X036616Y018194D01*
X036618Y018190D02*
X036741Y018190D01*
X036743Y018186D02*
X036620Y018186D01*
X036623Y018182D02*
X036745Y018182D01*
X036748Y018178D02*
X036625Y018178D01*
X036627Y018174D02*
X036750Y018174D01*
X036753Y018170D02*
X036629Y018170D01*
X036631Y018166D02*
X036755Y018166D01*
X036756Y018162D02*
X036633Y018162D01*
X036635Y018158D02*
X036759Y018158D01*
X036761Y018154D02*
X036637Y018154D01*
X036640Y018150D02*
X036764Y018150D01*
X036766Y018146D02*
X036642Y018146D01*
X036644Y018142D02*
X036768Y018142D01*
X036771Y018138D02*
X036646Y018138D01*
X036648Y018134D02*
X036773Y018134D01*
X036776Y018131D02*
X036651Y018131D01*
X036653Y018127D02*
X036778Y018127D01*
X036780Y018123D02*
X036655Y018123D01*
X036657Y018119D02*
X036783Y018119D01*
X036785Y018115D02*
X036546Y018115D01*
X036317Y018115D01*
X036319Y018119D02*
X036433Y018119D01*
X036433Y018118D02*
X036543Y018321D01*
X036546Y018318D01*
X036546Y018411D01*
X036493Y018411D01*
X036201Y017921D01*
X036320Y017921D01*
X036382Y018029D01*
X036546Y018029D01*
X036546Y018118D01*
X036433Y018118D01*
X036436Y018123D02*
X036321Y018123D01*
X036323Y018127D02*
X036438Y018127D01*
X036440Y018131D02*
X036326Y018131D01*
X036328Y018134D02*
X036442Y018134D01*
X036444Y018138D02*
X036331Y018138D01*
X036333Y018142D02*
X036445Y018142D01*
X036448Y018146D02*
X036335Y018146D01*
X036338Y018150D02*
X036450Y018150D01*
X036452Y018154D02*
X036340Y018154D01*
X036342Y018158D02*
X036454Y018158D01*
X036456Y018162D02*
X036345Y018162D01*
X036347Y018166D02*
X036458Y018166D01*
X036460Y018170D02*
X036350Y018170D01*
X036352Y018174D02*
X036463Y018174D01*
X036465Y018178D02*
X036354Y018178D01*
X036357Y018182D02*
X036467Y018182D01*
X036469Y018186D02*
X036359Y018186D01*
X036361Y018190D02*
X036471Y018190D01*
X036473Y018194D02*
X036364Y018194D01*
X036366Y018197D02*
X036476Y018197D01*
X036478Y018201D02*
X036369Y018201D01*
X036371Y018205D02*
X036480Y018205D01*
X036482Y018209D02*
X036373Y018209D01*
X036376Y018213D02*
X036484Y018213D01*
X036486Y018217D02*
X036378Y018217D01*
X036380Y018221D02*
X036489Y018221D01*
X036491Y018225D02*
X036382Y018225D01*
X036384Y018229D02*
X036493Y018229D01*
X036495Y018233D02*
X036387Y018233D01*
X036389Y018237D02*
X036497Y018237D01*
X036499Y018241D02*
X036391Y018241D01*
X036394Y018245D02*
X036501Y018245D01*
X036504Y018249D02*
X036396Y018249D01*
X036398Y018253D02*
X036506Y018253D01*
X036507Y018256D02*
X036401Y018256D01*
X036403Y018260D02*
X036509Y018260D01*
X036511Y018264D02*
X036405Y018264D01*
X036408Y018268D02*
X036513Y018268D01*
X036516Y018272D02*
X036410Y018272D01*
X036413Y018276D02*
X036518Y018276D01*
X036520Y018280D02*
X036415Y018280D01*
X036417Y018284D02*
X036522Y018284D01*
X036524Y018288D02*
X036420Y018288D01*
X036422Y018292D02*
X036526Y018292D01*
X036528Y018296D02*
X036424Y018296D01*
X036427Y018300D02*
X036531Y018300D01*
X036533Y018304D02*
X036429Y018304D01*
X036432Y018308D02*
X036535Y018308D01*
X036537Y018312D02*
X036434Y018312D01*
X036436Y018316D02*
X036539Y018316D01*
X036541Y018319D02*
X036439Y018319D01*
X036441Y018323D02*
X036546Y018323D01*
X036660Y018323D01*
X036662Y018319D02*
X036546Y018319D01*
X036545Y018319D01*
X036546Y018318D02*
X036546Y018411D01*
X036607Y018411D01*
X036902Y017921D01*
X036768Y017921D01*
X036707Y018029D01*
X036546Y018029D01*
X036546Y018118D01*
X036658Y018118D01*
X036546Y018318D01*
X036548Y018316D02*
X036665Y018316D01*
X036667Y018312D02*
X036550Y018312D01*
X036552Y018308D02*
X036669Y018308D01*
X036672Y018304D02*
X036554Y018304D01*
X036557Y018300D02*
X036674Y018300D01*
X036677Y018296D02*
X036559Y018296D01*
X036561Y018292D02*
X036679Y018292D01*
X036681Y018288D02*
X036563Y018288D01*
X036565Y018284D02*
X036684Y018284D01*
X036686Y018280D02*
X036568Y018280D01*
X036569Y018276D02*
X036689Y018276D01*
X036691Y018272D02*
X036571Y018272D01*
X036573Y018268D02*
X036693Y018268D01*
X036695Y018264D02*
X036576Y018264D01*
X036578Y018260D02*
X036697Y018260D01*
X036700Y018256D02*
X036580Y018256D01*
X036582Y018253D02*
X036702Y018253D01*
X036704Y018249D02*
X036585Y018249D01*
X036587Y018245D02*
X036707Y018245D01*
X036709Y018241D02*
X036589Y018241D01*
X036591Y018237D02*
X036712Y018237D01*
X036714Y018233D02*
X036594Y018233D01*
X036596Y018229D02*
X036716Y018229D01*
X036719Y018225D02*
X036598Y018225D01*
X036600Y018221D02*
X036721Y018221D01*
X036657Y018327D02*
X036546Y018327D01*
X036443Y018327D01*
X036445Y018331D02*
X036546Y018331D01*
X036655Y018331D01*
X036653Y018335D02*
X036546Y018335D01*
X036447Y018335D01*
X036450Y018339D02*
X036546Y018339D01*
X036650Y018339D01*
X036648Y018343D02*
X036546Y018343D01*
X036452Y018343D01*
X036454Y018347D02*
X036546Y018347D01*
X036645Y018347D01*
X036643Y018350D02*
X036546Y018350D01*
X036457Y018350D01*
X036459Y018354D02*
X036546Y018354D01*
X036640Y018354D01*
X036638Y018358D02*
X036546Y018358D01*
X036461Y018358D01*
X036464Y018362D02*
X036546Y018362D01*
X036636Y018362D01*
X036633Y018366D02*
X036546Y018366D01*
X036466Y018366D01*
X036469Y018370D02*
X036546Y018370D01*
X036631Y018370D01*
X036629Y018374D02*
X036546Y018374D01*
X036471Y018374D01*
X036473Y018378D02*
X036546Y018378D01*
X036627Y018378D01*
X036625Y018381D02*
X036546Y018381D01*
X036476Y018381D01*
X036478Y018385D02*
X036546Y018385D01*
X036622Y018385D01*
X036620Y018389D02*
X036546Y018389D01*
X036480Y018389D01*
X036483Y018393D02*
X036546Y018393D01*
X036617Y018393D01*
X036615Y018397D02*
X036546Y018397D01*
X036485Y018397D01*
X036488Y018401D02*
X036546Y018401D01*
X036613Y018401D01*
X036610Y018405D02*
X036546Y018405D01*
X036490Y018405D01*
X036492Y018409D02*
X036546Y018409D01*
X036608Y018409D01*
X036098Y018411D02*
X036098Y018323D01*
X035693Y018323D01*
X035571Y018323D01*
X035571Y018319D02*
X035693Y018319D01*
X035693Y018316D02*
X035571Y018316D01*
X035571Y018312D02*
X035693Y018312D01*
X035693Y018308D02*
X035571Y018308D01*
X035571Y018304D02*
X035693Y018304D01*
X035693Y018300D02*
X035571Y018300D01*
X035571Y018296D02*
X035693Y018296D01*
X035693Y018292D02*
X035571Y018292D01*
X035571Y018288D02*
X035693Y018288D01*
X035693Y018284D02*
X035571Y018284D01*
X035571Y018280D02*
X035693Y018280D01*
X035693Y018276D02*
X035571Y018276D01*
X035571Y018272D02*
X035693Y018272D01*
X035693Y018268D02*
X035571Y018268D01*
X035571Y018264D02*
X035693Y018264D01*
X035693Y018260D02*
X035571Y018260D01*
X035571Y018256D02*
X035693Y018256D01*
X035693Y018253D02*
X035571Y018253D01*
X035571Y018249D02*
X035693Y018249D01*
X035693Y018245D02*
X035571Y018245D01*
X035571Y018241D02*
X035693Y018241D01*
X035693Y018237D02*
X035571Y018237D01*
X035571Y018233D02*
X035693Y018233D01*
X035693Y018229D02*
X035571Y018229D01*
X035571Y018225D02*
X035693Y018225D01*
X035693Y018221D02*
X035571Y018221D01*
X035571Y018217D02*
X035929Y018217D01*
X035929Y018218D02*
X035929Y018132D01*
X035693Y018132D01*
X035693Y018012D01*
X036104Y018012D01*
X035571Y018012D01*
X035571Y018008D02*
X036104Y018008D01*
X036104Y018005D02*
X035571Y018005D01*
X035571Y018001D02*
X036104Y018001D01*
X036104Y017997D02*
X035571Y017997D01*
X035571Y017993D02*
X036104Y017993D01*
X036104Y017989D02*
X035571Y017989D01*
X035571Y017985D02*
X036104Y017985D01*
X036104Y017981D02*
X035571Y017981D01*
X035571Y017977D02*
X036104Y017977D01*
X036104Y017973D02*
X035571Y017973D01*
X035571Y017969D02*
X036104Y017969D01*
X036104Y017965D02*
X035571Y017965D01*
X035571Y017961D02*
X036104Y017961D01*
X036104Y017957D02*
X035571Y017957D01*
X035571Y017953D02*
X036104Y017953D01*
X036104Y017949D02*
X035571Y017949D01*
X035571Y017945D02*
X036104Y017945D01*
X036104Y017942D02*
X035571Y017942D01*
X035571Y017938D02*
X036104Y017938D01*
X036104Y017934D02*
X035571Y017934D01*
X035571Y017930D02*
X036104Y017930D01*
X036104Y017926D02*
X035571Y017926D01*
X035571Y017922D02*
X036104Y017922D01*
X036104Y017921D02*
X035571Y017921D01*
X035571Y018411D01*
X036098Y018411D01*
X036098Y018409D02*
X035571Y018409D01*
X035571Y018405D02*
X036098Y018405D01*
X036098Y018401D02*
X035571Y018401D01*
X035571Y018397D02*
X036098Y018397D01*
X036098Y018393D02*
X035571Y018393D01*
X035571Y018389D02*
X036098Y018389D01*
X036098Y018385D02*
X035571Y018385D01*
X035571Y018381D02*
X036098Y018381D01*
X036098Y018378D02*
X035571Y018378D01*
X035571Y018374D02*
X036098Y018374D01*
X036098Y018370D02*
X035571Y018370D01*
X035571Y018366D02*
X036098Y018366D01*
X036098Y018362D02*
X035571Y018362D01*
X035571Y018358D02*
X036098Y018358D01*
X036098Y018354D02*
X035571Y018354D01*
X035571Y018350D02*
X036098Y018350D01*
X036098Y018347D02*
X035571Y018347D01*
X035571Y018343D02*
X036098Y018343D01*
X036098Y018339D02*
X035571Y018339D01*
X035571Y018335D02*
X036098Y018335D01*
X036098Y018331D02*
X035571Y018331D01*
X035571Y018327D02*
X036098Y018327D01*
X035929Y018218D02*
X035693Y018218D01*
X035693Y018323D01*
X035571Y018213D02*
X035929Y018213D01*
X035929Y018209D02*
X035571Y018209D01*
X035571Y018205D02*
X035929Y018205D01*
X035929Y018201D02*
X035571Y018201D01*
X035571Y018197D02*
X035929Y018197D01*
X035929Y018194D02*
X035571Y018194D01*
X035571Y018190D02*
X035929Y018190D01*
X035929Y018186D02*
X035571Y018186D01*
X035571Y018182D02*
X035929Y018182D01*
X035929Y018178D02*
X035571Y018178D01*
X035571Y018174D02*
X035929Y018174D01*
X035929Y018170D02*
X035571Y018170D01*
X035571Y018166D02*
X035929Y018166D01*
X035929Y018162D02*
X035571Y018162D01*
X035571Y018158D02*
X035929Y018158D01*
X035929Y018154D02*
X035571Y018154D01*
X035571Y018150D02*
X035929Y018150D01*
X035929Y018146D02*
X035571Y018146D01*
X035571Y018142D02*
X035929Y018142D01*
X035929Y018138D02*
X035571Y018138D01*
X035571Y018134D02*
X035929Y018134D01*
X036104Y018012D02*
X036104Y017921D01*
X036202Y017922D02*
X036321Y017922D01*
X036323Y017926D02*
X036204Y017926D01*
X036207Y017930D02*
X036325Y017930D01*
X036328Y017934D02*
X036209Y017934D01*
X036212Y017938D02*
X036330Y017938D01*
X036332Y017942D02*
X036214Y017942D01*
X036216Y017945D02*
X036335Y017945D01*
X036337Y017949D02*
X036219Y017949D01*
X036221Y017953D02*
X036339Y017953D01*
X036342Y017957D02*
X036223Y017957D01*
X036226Y017961D02*
X036344Y017961D01*
X036346Y017965D02*
X036228Y017965D01*
X036231Y017969D02*
X036348Y017969D01*
X036351Y017973D02*
X036233Y017973D01*
X036235Y017977D02*
X036353Y017977D01*
X036355Y017981D02*
X036238Y017981D01*
X036240Y017985D02*
X036358Y017985D01*
X036360Y017989D02*
X036242Y017989D01*
X036245Y017993D02*
X036362Y017993D01*
X036364Y017997D02*
X036247Y017997D01*
X036249Y018001D02*
X036367Y018001D01*
X036369Y018005D02*
X036252Y018005D01*
X036254Y018008D02*
X036371Y018008D01*
X036374Y018012D02*
X036256Y018012D01*
X036258Y018016D02*
X036376Y018016D01*
X036378Y018020D02*
X036260Y018020D01*
X036263Y018024D02*
X036381Y018024D01*
X036382Y018028D02*
X036265Y018028D01*
X036267Y018032D02*
X036546Y018032D01*
X036835Y018032D01*
X036837Y018028D02*
X036707Y018028D01*
X036709Y018024D02*
X036840Y018024D01*
X036842Y018020D02*
X036712Y018020D01*
X036714Y018016D02*
X036844Y018016D01*
X036847Y018012D02*
X036716Y018012D01*
X036718Y018008D02*
X036849Y018008D01*
X036852Y018005D02*
X036721Y018005D01*
X036723Y018001D02*
X036854Y018001D01*
X036856Y017997D02*
X036725Y017997D01*
X036727Y017993D02*
X036859Y017993D01*
X036861Y017989D02*
X036730Y017989D01*
X036732Y017985D02*
X036864Y017985D01*
X036866Y017981D02*
X036734Y017981D01*
X036736Y017977D02*
X036868Y017977D01*
X036871Y017973D02*
X036739Y017973D01*
X036741Y017969D02*
X036873Y017969D01*
X036876Y017965D02*
X036743Y017965D01*
X036745Y017961D02*
X036878Y017961D01*
X036880Y017957D02*
X036748Y017957D01*
X036750Y017953D02*
X036882Y017953D01*
X036884Y017949D02*
X036752Y017949D01*
X036754Y017945D02*
X036887Y017945D01*
X036889Y017942D02*
X036756Y017942D01*
X036758Y017938D02*
X036891Y017938D01*
X036894Y017934D02*
X036760Y017934D01*
X036762Y017930D02*
X036896Y017930D01*
X036899Y017926D02*
X036765Y017926D01*
X036767Y017922D02*
X036901Y017922D01*
X036832Y018036D02*
X036546Y018036D01*
X036270Y018036D01*
X036272Y018040D02*
X036546Y018040D01*
X036830Y018040D01*
X036828Y018044D02*
X036546Y018044D01*
X036275Y018044D01*
X036277Y018048D02*
X036546Y018048D01*
X036825Y018048D01*
X036823Y018052D02*
X036546Y018052D01*
X036279Y018052D01*
X036282Y018056D02*
X036546Y018056D01*
X036820Y018056D01*
X036819Y018060D02*
X036546Y018060D01*
X036284Y018060D01*
X036286Y018064D02*
X036546Y018064D01*
X036817Y018064D01*
X036814Y018068D02*
X036546Y018068D01*
X036289Y018068D01*
X036291Y018071D02*
X036546Y018071D01*
X036812Y018071D01*
X036809Y018075D02*
X036546Y018075D01*
X036294Y018075D01*
X036296Y018079D02*
X036546Y018079D01*
X036807Y018079D01*
X036804Y018083D02*
X036546Y018083D01*
X036298Y018083D01*
X036301Y018087D02*
X036546Y018087D01*
X036802Y018087D01*
X036800Y018091D02*
X036546Y018091D01*
X036303Y018091D01*
X036305Y018095D02*
X036546Y018095D01*
X036797Y018095D01*
X036795Y018099D02*
X036546Y018099D01*
X036308Y018099D01*
X036310Y018103D02*
X036546Y018103D01*
X036792Y018103D01*
X036790Y018107D02*
X036546Y018107D01*
X036313Y018107D01*
X036315Y018111D02*
X036546Y018111D01*
X036788Y018111D01*
X035693Y018103D02*
X035571Y018103D01*
X035571Y018107D02*
X035693Y018107D01*
X035693Y018111D02*
X035571Y018111D01*
X035571Y018115D02*
X035693Y018115D01*
X035693Y018119D02*
X035571Y018119D01*
X035571Y018123D02*
X035693Y018123D01*
X035693Y018127D02*
X035571Y018127D01*
X035571Y018131D02*
X035693Y018131D01*
X035693Y018099D02*
X035571Y018099D01*
X035571Y018095D02*
X035693Y018095D01*
X035693Y018091D02*
X035571Y018091D01*
X035571Y018087D02*
X035693Y018087D01*
X035693Y018083D02*
X035571Y018083D01*
X035571Y018079D02*
X035693Y018079D01*
X035693Y018075D02*
X035571Y018075D01*
X035571Y018071D02*
X035693Y018071D01*
X035693Y018068D02*
X035571Y018068D01*
X035571Y018064D02*
X035693Y018064D01*
X035693Y018060D02*
X035571Y018060D01*
X035571Y018056D02*
X035693Y018056D01*
X035693Y018052D02*
X035571Y018052D01*
X035571Y018048D02*
X035693Y018048D01*
X035693Y018044D02*
X035571Y018044D01*
X035571Y018040D02*
X035693Y018040D01*
X035693Y018036D02*
X035571Y018036D01*
X035571Y018032D02*
X035693Y018032D01*
X035693Y018028D02*
X035571Y018028D01*
X035571Y018024D02*
X035693Y018024D01*
X035693Y018020D02*
X035571Y018020D01*
X035571Y018016D02*
X035693Y018016D01*
X035426Y017921D02*
X035255Y017921D01*
X035101Y018060D01*
X035252Y018060D01*
X035256Y018056D02*
X035106Y018056D01*
X035110Y018052D02*
X035262Y018052D01*
X035267Y018048D02*
X035115Y018048D01*
X035119Y018044D02*
X035272Y018044D01*
X035277Y018040D02*
X035123Y018040D01*
X035128Y018036D02*
X035282Y018036D01*
X035287Y018032D02*
X035131Y018032D01*
X035136Y018028D02*
X035292Y018028D01*
X035297Y018024D02*
X035140Y018024D01*
X035145Y018020D02*
X035302Y018020D01*
X035307Y018016D02*
X035149Y018016D01*
X035153Y018012D02*
X035312Y018012D01*
X035317Y018008D02*
X035158Y018008D01*
X035162Y018005D02*
X035321Y018005D01*
X035326Y018001D02*
X035167Y018001D01*
X035171Y017997D02*
X035331Y017997D01*
X035336Y017993D02*
X035176Y017993D01*
X035180Y017989D02*
X035341Y017989D01*
X035346Y017985D02*
X035184Y017985D01*
X035189Y017981D02*
X035351Y017981D01*
X035356Y017977D02*
X035193Y017977D01*
X035197Y017973D02*
X035361Y017973D01*
X035366Y017969D02*
X035201Y017969D01*
X035206Y017965D02*
X035371Y017965D01*
X035376Y017961D02*
X035210Y017961D01*
X035214Y017957D02*
X035381Y017957D01*
X035385Y017953D02*
X035219Y017953D01*
X035223Y017949D02*
X035390Y017949D01*
X035395Y017945D02*
X035228Y017945D01*
X035232Y017942D02*
X035400Y017942D01*
X035405Y017938D02*
X035237Y017938D01*
X035241Y017934D02*
X035410Y017934D01*
X035415Y017930D02*
X035245Y017930D01*
X035250Y017926D02*
X035420Y017926D01*
X035425Y017922D02*
X035254Y017922D01*
X035247Y018064D02*
X035101Y018064D01*
X035097Y018064D01*
X035101Y018068D02*
X035092Y018068D01*
X035088Y018071D02*
X035101Y018071D01*
X035237Y018071D01*
X035242Y018068D02*
X035101Y018068D01*
X035101Y018075D02*
X035084Y018075D01*
X035079Y018079D02*
X035101Y018079D01*
X035227Y018079D01*
X035232Y018075D02*
X035101Y018075D01*
X035101Y018083D02*
X035075Y018083D01*
X035070Y018087D02*
X035101Y018087D01*
X035217Y018087D01*
X035222Y018083D02*
X035101Y018083D01*
X035101Y018091D02*
X035067Y018091D01*
X035062Y018095D02*
X035101Y018095D01*
X035207Y018095D01*
X035202Y018099D02*
X035101Y018099D01*
X035058Y018099D01*
X035054Y018103D02*
X035101Y018103D01*
X035197Y018103D01*
X035194Y018106D02*
X035426Y017921D01*
X035321Y018115D02*
X035311Y018112D01*
X035300Y018109D01*
X035288Y018107D01*
X035274Y018106D01*
X035260Y018106D01*
X035194Y018106D01*
X035212Y018091D02*
X035101Y018091D01*
X035101Y018107D02*
X034819Y018107D01*
X034819Y018111D02*
X035101Y018111D01*
X035306Y018111D01*
X035319Y018115D02*
X035101Y018115D01*
X034819Y018115D01*
X034819Y018119D02*
X035101Y018119D01*
X035328Y018119D01*
X035330Y018120D02*
X035321Y018115D01*
X035330Y018120D02*
X035339Y018124D01*
X035346Y018130D01*
X035353Y018135D01*
X035359Y018143D01*
X035364Y018150D01*
X035101Y018150D01*
X034819Y018150D01*
X034819Y018146D02*
X035101Y018146D01*
X035361Y018146D01*
X035358Y018142D02*
X035101Y018142D01*
X034819Y018142D01*
X034819Y018138D02*
X035101Y018138D01*
X035355Y018138D01*
X035351Y018134D02*
X035101Y018134D01*
X034819Y018134D01*
X034819Y018131D02*
X035101Y018131D01*
X035347Y018131D01*
X035342Y018127D02*
X035101Y018127D01*
X034819Y018127D01*
X034819Y018123D02*
X035101Y018123D01*
X035336Y018123D01*
X035364Y018150D02*
X035368Y018159D01*
X035371Y018168D01*
X035373Y018178D01*
X035101Y018178D01*
X034819Y018178D01*
X034819Y018182D02*
X035101Y018182D01*
X035374Y018182D01*
X035374Y018186D02*
X035101Y018186D01*
X034819Y018186D01*
X034819Y018190D02*
X035101Y018190D01*
X035375Y018190D01*
X035375Y018189D02*
X035373Y018178D01*
X035373Y018174D02*
X035101Y018174D01*
X034819Y018174D01*
X034819Y018170D02*
X035101Y018170D01*
X035372Y018170D01*
X035370Y018166D02*
X035101Y018166D01*
X034819Y018166D01*
X034819Y018162D02*
X035101Y018162D01*
X035369Y018162D01*
X035367Y018158D02*
X035101Y018158D01*
X034819Y018158D01*
X034819Y018154D02*
X035101Y018154D01*
X035366Y018154D01*
X035375Y018189D02*
X035375Y018199D01*
X035375Y018316D01*
X035252Y018316D01*
X035251Y018317D02*
X035247Y018319D01*
X035243Y018320D01*
X035238Y018322D01*
X035233Y018323D01*
X035228Y018324D01*
X035222Y018325D01*
X035215Y018325D01*
X035209Y018325D01*
X035101Y018325D01*
X035101Y018411D01*
X034819Y018411D01*
X034819Y017921D01*
X034938Y017921D01*
X034938Y018106D01*
X035050Y018106D01*
X035101Y018060D01*
X035101Y018191D01*
X034938Y018191D01*
X034938Y018325D01*
X035101Y018325D01*
X035101Y018411D01*
X035260Y018411D01*
X035274Y018410D01*
X035288Y018409D01*
X035300Y018407D01*
X035311Y018405D01*
X035321Y018401D01*
X035320Y018401D02*
X035101Y018401D01*
X034819Y018401D01*
X034819Y018397D02*
X035101Y018397D01*
X035329Y018397D01*
X035330Y018397D02*
X035339Y018392D01*
X035346Y018387D01*
X035353Y018381D01*
X035359Y018374D01*
X035101Y018374D01*
X034819Y018374D01*
X034819Y018378D02*
X035101Y018378D01*
X035355Y018378D01*
X035352Y018381D02*
X035101Y018381D01*
X034819Y018381D01*
X034819Y018385D02*
X035101Y018385D01*
X035348Y018385D01*
X035343Y018389D02*
X035101Y018389D01*
X034819Y018389D01*
X034819Y018393D02*
X035101Y018393D01*
X035337Y018393D01*
X035330Y018397D02*
X035321Y018401D01*
X035309Y018405D02*
X035101Y018405D01*
X034819Y018405D01*
X034819Y018409D02*
X035101Y018409D01*
X035287Y018409D01*
X035359Y018374D02*
X035364Y018366D01*
X035101Y018366D01*
X034819Y018366D01*
X034819Y018370D02*
X035101Y018370D01*
X035361Y018370D01*
X035364Y018366D02*
X035368Y018357D01*
X035371Y018348D01*
X035373Y018338D01*
X035375Y018327D01*
X035101Y018327D01*
X034819Y018327D01*
X034819Y018323D02*
X034938Y018323D01*
X034938Y018319D02*
X034819Y018319D01*
X034819Y018316D02*
X034938Y018316D01*
X034938Y018312D02*
X034819Y018312D01*
X034819Y018308D02*
X034938Y018308D01*
X034938Y018304D02*
X034819Y018304D01*
X034819Y018300D02*
X034938Y018300D01*
X034938Y018296D02*
X034819Y018296D01*
X034819Y018292D02*
X034938Y018292D01*
X034938Y018288D02*
X034819Y018288D01*
X034819Y018284D02*
X034938Y018284D01*
X034938Y018280D02*
X034819Y018280D01*
X034819Y018276D02*
X034938Y018276D01*
X034938Y018272D02*
X034819Y018272D01*
X034819Y018268D02*
X034938Y018268D01*
X034938Y018264D02*
X034819Y018264D01*
X034819Y018260D02*
X034938Y018260D01*
X034938Y018256D02*
X034819Y018256D01*
X034819Y018253D02*
X034938Y018253D01*
X034938Y018249D02*
X034819Y018249D01*
X034819Y018245D02*
X034938Y018245D01*
X034938Y018241D02*
X034819Y018241D01*
X034819Y018237D02*
X034938Y018237D01*
X034938Y018233D02*
X034819Y018233D01*
X034819Y018229D02*
X034938Y018229D01*
X034938Y018225D02*
X034819Y018225D01*
X034819Y018221D02*
X034938Y018221D01*
X034938Y018217D02*
X034819Y018217D01*
X034819Y018213D02*
X034938Y018213D01*
X034938Y018209D02*
X034819Y018209D01*
X034819Y018205D02*
X034938Y018205D01*
X034938Y018201D02*
X034819Y018201D01*
X034819Y018197D02*
X034938Y018197D01*
X034938Y018194D02*
X034819Y018194D01*
X034819Y018103D02*
X034938Y018103D01*
X034938Y018099D02*
X034819Y018099D01*
X034819Y018095D02*
X034938Y018095D01*
X034938Y018091D02*
X034819Y018091D01*
X034819Y018087D02*
X034938Y018087D01*
X034938Y018083D02*
X034819Y018083D01*
X034819Y018079D02*
X034938Y018079D01*
X034938Y018075D02*
X034819Y018075D01*
X034819Y018071D02*
X034938Y018071D01*
X034938Y018068D02*
X034819Y018068D01*
X034819Y018064D02*
X034938Y018064D01*
X034938Y018060D02*
X034819Y018060D01*
X034819Y018056D02*
X034938Y018056D01*
X034938Y018052D02*
X034819Y018052D01*
X034819Y018048D02*
X034938Y018048D01*
X034938Y018044D02*
X034819Y018044D01*
X034819Y018040D02*
X034938Y018040D01*
X034938Y018036D02*
X034819Y018036D01*
X034819Y018032D02*
X034938Y018032D01*
X034938Y018028D02*
X034819Y018028D01*
X034819Y018024D02*
X034938Y018024D01*
X034938Y018020D02*
X034819Y018020D01*
X034819Y018016D02*
X034938Y018016D01*
X034938Y018012D02*
X034819Y018012D01*
X034819Y018008D02*
X034938Y018008D01*
X034938Y018005D02*
X034819Y018005D01*
X034819Y018001D02*
X034938Y018001D01*
X034938Y017997D02*
X034819Y017997D01*
X034819Y017993D02*
X034938Y017993D01*
X034938Y017989D02*
X034819Y017989D01*
X034819Y017985D02*
X034938Y017985D01*
X034938Y017981D02*
X034819Y017981D01*
X034819Y017977D02*
X034938Y017977D01*
X034938Y017973D02*
X034819Y017973D01*
X034819Y017969D02*
X034938Y017969D01*
X034938Y017965D02*
X034819Y017965D01*
X034819Y017961D02*
X034938Y017961D01*
X034938Y017957D02*
X034819Y017957D01*
X034819Y017953D02*
X034938Y017953D01*
X034938Y017949D02*
X034819Y017949D01*
X034819Y017945D02*
X034938Y017945D01*
X034938Y017942D02*
X034819Y017942D01*
X034819Y017938D02*
X034938Y017938D01*
X034938Y017934D02*
X034819Y017934D01*
X034819Y017930D02*
X034938Y017930D01*
X034938Y017926D02*
X034819Y017926D01*
X034819Y017922D02*
X034938Y017922D01*
X035101Y018060D02*
X035101Y018191D01*
X035209Y018191D01*
X035215Y018191D01*
X035222Y018192D01*
X035228Y018193D01*
X035233Y018194D01*
X035375Y018194D01*
X035375Y018197D02*
X035244Y018197D01*
X035243Y018196D02*
X035247Y018198D01*
X035251Y018200D01*
X035254Y018203D01*
X035256Y018206D01*
X035258Y018209D01*
X035375Y018209D01*
X035375Y018205D02*
X035256Y018205D01*
X035258Y018209D02*
X035260Y018213D01*
X035375Y018213D01*
X035375Y018217D02*
X035262Y018217D01*
X035262Y018216D02*
X035263Y018221D01*
X035375Y018221D01*
X035375Y018225D02*
X035263Y018225D01*
X035263Y018230D01*
X035263Y018287D01*
X035263Y018292D01*
X035375Y018292D01*
X035375Y018296D02*
X035263Y018296D01*
X035262Y018300D01*
X035375Y018300D01*
X035375Y018304D02*
X035260Y018304D01*
X035258Y018308D01*
X035375Y018308D01*
X035375Y018312D02*
X035256Y018312D01*
X035256Y018311D02*
X035254Y018314D01*
X035251Y018317D01*
X035246Y018319D02*
X035375Y018319D01*
X035375Y018316D02*
X035375Y018327D01*
X035375Y018323D02*
X035235Y018323D01*
X035256Y018311D02*
X035258Y018308D01*
X035260Y018304D02*
X035262Y018300D01*
X035263Y018296D02*
X035263Y018292D01*
X035263Y018288D02*
X035375Y018288D01*
X035375Y018284D02*
X035263Y018284D01*
X035263Y018280D02*
X035375Y018280D01*
X035375Y018276D02*
X035263Y018276D01*
X035263Y018272D02*
X035375Y018272D01*
X035375Y018268D02*
X035263Y018268D01*
X035263Y018264D02*
X035375Y018264D01*
X035375Y018260D02*
X035263Y018260D01*
X035263Y018256D02*
X035375Y018256D01*
X035375Y018253D02*
X035263Y018253D01*
X035263Y018249D02*
X035375Y018249D01*
X035375Y018245D02*
X035263Y018245D01*
X035263Y018241D02*
X035375Y018241D01*
X035375Y018237D02*
X035263Y018237D01*
X035263Y018233D02*
X035375Y018233D01*
X035375Y018229D02*
X035263Y018229D01*
X035263Y018225D02*
X035263Y018221D01*
X035262Y018216D02*
X035260Y018213D01*
X035251Y018201D02*
X035375Y018201D01*
X035374Y018331D02*
X035101Y018331D01*
X034819Y018331D01*
X034819Y018335D02*
X035101Y018335D01*
X035374Y018335D01*
X035373Y018339D02*
X035101Y018339D01*
X034819Y018339D01*
X034819Y018343D02*
X035101Y018343D01*
X035373Y018343D01*
X035372Y018347D02*
X035101Y018347D01*
X034819Y018347D01*
X034819Y018350D02*
X035101Y018350D01*
X035370Y018350D01*
X035369Y018354D02*
X035101Y018354D01*
X034819Y018354D01*
X034819Y018358D02*
X035101Y018358D01*
X035368Y018358D01*
X035366Y018362D02*
X035101Y018362D01*
X034819Y018362D01*
X034622Y018335D02*
X034348Y018335D01*
X034067Y018335D01*
X034067Y018331D02*
X034348Y018331D01*
X034622Y018331D01*
X034623Y018327D02*
X034621Y018338D01*
X034619Y018348D01*
X034616Y018357D01*
X034612Y018366D01*
X034607Y018374D01*
X034601Y018381D01*
X034594Y018387D01*
X034586Y018392D01*
X034577Y018397D01*
X034348Y018397D01*
X034067Y018397D01*
X034067Y018393D02*
X034348Y018393D01*
X034584Y018393D01*
X034590Y018389D02*
X034348Y018389D01*
X034067Y018389D01*
X034067Y018385D02*
X034348Y018385D01*
X034595Y018385D01*
X034599Y018381D02*
X034348Y018381D01*
X034067Y018381D01*
X034067Y018378D02*
X034348Y018378D01*
X034603Y018378D01*
X034606Y018374D02*
X034348Y018374D01*
X034067Y018374D01*
X034067Y018370D02*
X034348Y018370D01*
X034609Y018370D01*
X034611Y018366D02*
X034348Y018366D01*
X034067Y018366D01*
X034067Y018362D02*
X034348Y018362D01*
X034614Y018362D01*
X034615Y018358D02*
X034348Y018358D01*
X034067Y018358D01*
X034067Y018354D02*
X034348Y018354D01*
X034617Y018354D01*
X034618Y018350D02*
X034348Y018350D01*
X034067Y018350D01*
X034067Y018347D02*
X034348Y018347D01*
X034619Y018347D01*
X034620Y018343D02*
X034348Y018343D01*
X034067Y018343D01*
X034067Y018339D02*
X034348Y018339D01*
X034621Y018339D01*
X034623Y018327D02*
X034348Y018327D01*
X034067Y018327D01*
X034067Y018323D02*
X034185Y018323D01*
X034185Y018325D02*
X034185Y018191D01*
X034348Y018191D01*
X034348Y018060D01*
X034500Y018060D01*
X034505Y018056D02*
X034353Y018056D01*
X034357Y018052D02*
X034509Y018052D01*
X034514Y018048D02*
X034362Y018048D01*
X034366Y018044D02*
X034519Y018044D01*
X034524Y018040D02*
X034370Y018040D01*
X034375Y018036D02*
X034529Y018036D01*
X034534Y018032D02*
X034379Y018032D01*
X034383Y018028D02*
X034539Y018028D01*
X034544Y018024D02*
X034387Y018024D01*
X034392Y018020D02*
X034549Y018020D01*
X034554Y018016D02*
X034396Y018016D01*
X034400Y018012D02*
X034559Y018012D01*
X034564Y018008D02*
X034405Y018008D01*
X034409Y018005D02*
X034569Y018005D01*
X034573Y018001D02*
X034414Y018001D01*
X034418Y017997D02*
X034578Y017997D01*
X034583Y017993D02*
X034423Y017993D01*
X034427Y017989D02*
X034588Y017989D01*
X034593Y017985D02*
X034431Y017985D01*
X034436Y017981D02*
X034598Y017981D01*
X034603Y017977D02*
X034440Y017977D01*
X034444Y017973D02*
X034608Y017973D01*
X034613Y017969D02*
X034448Y017969D01*
X034453Y017965D02*
X034618Y017965D01*
X034624Y017961D02*
X034457Y017961D01*
X034461Y017957D02*
X034629Y017957D01*
X034633Y017953D02*
X034466Y017953D01*
X034470Y017949D02*
X034638Y017949D01*
X034643Y017945D02*
X034475Y017945D01*
X034479Y017942D02*
X034648Y017942D01*
X034653Y017938D02*
X034484Y017938D01*
X034488Y017934D02*
X034658Y017934D01*
X034663Y017930D02*
X034492Y017930D01*
X034497Y017926D02*
X034668Y017926D01*
X034673Y017922D02*
X034501Y017922D01*
X034502Y017921D02*
X034348Y018060D01*
X034298Y018106D01*
X034185Y018106D01*
X034185Y017921D01*
X034067Y017921D01*
X034067Y018411D01*
X034348Y018411D01*
X034348Y018325D01*
X034185Y018325D01*
X034185Y018319D02*
X034067Y018319D01*
X034067Y018316D02*
X034185Y018316D01*
X034185Y018312D02*
X034067Y018312D01*
X034067Y018308D02*
X034185Y018308D01*
X034185Y018304D02*
X034067Y018304D01*
X034067Y018300D02*
X034185Y018300D01*
X034185Y018296D02*
X034067Y018296D01*
X034067Y018292D02*
X034185Y018292D01*
X034185Y018288D02*
X034067Y018288D01*
X034067Y018284D02*
X034185Y018284D01*
X034185Y018280D02*
X034067Y018280D01*
X034067Y018276D02*
X034185Y018276D01*
X034185Y018272D02*
X034067Y018272D01*
X034067Y018268D02*
X034185Y018268D01*
X034185Y018264D02*
X034067Y018264D01*
X034067Y018260D02*
X034185Y018260D01*
X034185Y018256D02*
X034067Y018256D01*
X034067Y018253D02*
X034185Y018253D01*
X034185Y018249D02*
X034067Y018249D01*
X034067Y018245D02*
X034185Y018245D01*
X034185Y018241D02*
X034067Y018241D01*
X034067Y018237D02*
X034185Y018237D01*
X034185Y018233D02*
X034067Y018233D01*
X034067Y018229D02*
X034185Y018229D01*
X034185Y018225D02*
X034067Y018225D01*
X034067Y018221D02*
X034185Y018221D01*
X034185Y018217D02*
X034067Y018217D01*
X034067Y018213D02*
X034185Y018213D01*
X034185Y018209D02*
X034067Y018209D01*
X034067Y018205D02*
X034185Y018205D01*
X034185Y018201D02*
X034067Y018201D01*
X034067Y018197D02*
X034185Y018197D01*
X034185Y018194D02*
X034067Y018194D01*
X034067Y018190D02*
X034348Y018190D01*
X034623Y018190D01*
X034623Y018189D02*
X034621Y018178D01*
X034348Y018178D01*
X034067Y018178D01*
X034067Y018182D02*
X034348Y018182D01*
X034622Y018182D01*
X034622Y018186D02*
X034348Y018186D01*
X034067Y018186D01*
X034067Y018174D02*
X034348Y018174D01*
X034620Y018174D01*
X034621Y018178D02*
X034619Y018168D01*
X034616Y018159D01*
X034612Y018150D01*
X034607Y018143D01*
X034601Y018135D01*
X034594Y018130D01*
X034586Y018124D01*
X034577Y018120D01*
X034569Y018115D01*
X034558Y018112D01*
X034547Y018109D01*
X034535Y018107D01*
X034521Y018106D01*
X034507Y018106D01*
X034441Y018106D01*
X034674Y017921D01*
X034502Y017921D01*
X034495Y018064D02*
X034348Y018064D01*
X034344Y018064D01*
X034348Y018068D02*
X034340Y018068D01*
X034335Y018071D02*
X034348Y018071D01*
X034485Y018071D01*
X034490Y018068D02*
X034348Y018068D01*
X034348Y018075D02*
X034331Y018075D01*
X034327Y018079D02*
X034348Y018079D01*
X034475Y018079D01*
X034480Y018075D02*
X034348Y018075D01*
X034348Y018083D02*
X034322Y018083D01*
X034319Y018087D02*
X034348Y018087D01*
X034464Y018087D01*
X034469Y018083D02*
X034348Y018083D01*
X034348Y018091D02*
X034315Y018091D01*
X034310Y018095D02*
X034348Y018095D01*
X034454Y018095D01*
X034449Y018099D02*
X034348Y018099D01*
X034306Y018099D01*
X034301Y018103D02*
X034348Y018103D01*
X034444Y018103D01*
X034459Y018091D02*
X034348Y018091D01*
X034348Y018107D02*
X034067Y018107D01*
X034067Y018111D02*
X034348Y018111D01*
X034553Y018111D01*
X034567Y018115D02*
X034348Y018115D01*
X034067Y018115D01*
X034067Y018119D02*
X034348Y018119D01*
X034576Y018119D01*
X034583Y018123D02*
X034348Y018123D01*
X034067Y018123D01*
X034067Y018127D02*
X034348Y018127D01*
X034589Y018127D01*
X034594Y018131D02*
X034348Y018131D01*
X034067Y018131D01*
X034067Y018134D02*
X034348Y018134D01*
X034599Y018134D01*
X034603Y018138D02*
X034348Y018138D01*
X034067Y018138D01*
X034067Y018142D02*
X034348Y018142D01*
X034606Y018142D01*
X034609Y018146D02*
X034348Y018146D01*
X034067Y018146D01*
X034067Y018150D02*
X034348Y018150D01*
X034611Y018150D01*
X034613Y018154D02*
X034348Y018154D01*
X034067Y018154D01*
X034067Y018158D02*
X034348Y018158D01*
X034615Y018158D01*
X034617Y018162D02*
X034348Y018162D01*
X034067Y018162D01*
X034067Y018166D02*
X034348Y018166D01*
X034618Y018166D01*
X034619Y018170D02*
X034348Y018170D01*
X034067Y018170D01*
X034067Y018103D02*
X034185Y018103D01*
X034185Y018099D02*
X034067Y018099D01*
X034067Y018095D02*
X034185Y018095D01*
X034185Y018091D02*
X034067Y018091D01*
X034067Y018087D02*
X034185Y018087D01*
X034185Y018083D02*
X034067Y018083D01*
X034067Y018079D02*
X034185Y018079D01*
X034185Y018075D02*
X034067Y018075D01*
X034067Y018071D02*
X034185Y018071D01*
X034185Y018068D02*
X034067Y018068D01*
X034067Y018064D02*
X034185Y018064D01*
X034185Y018060D02*
X034067Y018060D01*
X034067Y018056D02*
X034185Y018056D01*
X034185Y018052D02*
X034067Y018052D01*
X034067Y018048D02*
X034185Y018048D01*
X034185Y018044D02*
X034067Y018044D01*
X034067Y018040D02*
X034185Y018040D01*
X034185Y018036D02*
X034067Y018036D01*
X034067Y018032D02*
X034185Y018032D01*
X034185Y018028D02*
X034067Y018028D01*
X034067Y018024D02*
X034185Y018024D01*
X034185Y018020D02*
X034067Y018020D01*
X034067Y018016D02*
X034185Y018016D01*
X034185Y018012D02*
X034067Y018012D01*
X034067Y018008D02*
X034185Y018008D01*
X034185Y018005D02*
X034067Y018005D01*
X034067Y018001D02*
X034185Y018001D01*
X034185Y017997D02*
X034067Y017997D01*
X034067Y017993D02*
X034185Y017993D01*
X034185Y017989D02*
X034067Y017989D01*
X034067Y017985D02*
X034185Y017985D01*
X034185Y017981D02*
X034067Y017981D01*
X034067Y017977D02*
X034185Y017977D01*
X034185Y017973D02*
X034067Y017973D01*
X034067Y017969D02*
X034185Y017969D01*
X034185Y017965D02*
X034067Y017965D01*
X034067Y017961D02*
X034185Y017961D01*
X034185Y017957D02*
X034067Y017957D01*
X034067Y017953D02*
X034185Y017953D01*
X034185Y017949D02*
X034067Y017949D01*
X034067Y017945D02*
X034185Y017945D01*
X034185Y017942D02*
X034067Y017942D01*
X034067Y017938D02*
X034185Y017938D01*
X034185Y017934D02*
X034067Y017934D01*
X034067Y017930D02*
X034185Y017930D01*
X034185Y017926D02*
X034067Y017926D01*
X034067Y017922D02*
X034185Y017922D01*
X034348Y018060D02*
X034348Y018191D01*
X034457Y018191D01*
X034463Y018191D01*
X034469Y018192D01*
X034475Y018193D01*
X034481Y018194D01*
X034485Y018194D01*
X034490Y018196D01*
X034494Y018198D01*
X034498Y018200D01*
X034501Y018203D01*
X034504Y018206D01*
X034506Y018209D01*
X034623Y018209D01*
X034623Y018205D02*
X034503Y018205D01*
X034506Y018209D02*
X034507Y018213D01*
X034623Y018213D01*
X034623Y018217D02*
X034509Y018217D01*
X034508Y018216D02*
X034510Y018221D01*
X034623Y018221D01*
X034623Y018225D02*
X034510Y018225D01*
X034510Y018230D01*
X034510Y018287D01*
X034510Y018292D01*
X034623Y018292D01*
X034623Y018296D02*
X034510Y018296D01*
X034508Y018300D01*
X034507Y018304D01*
X034623Y018304D01*
X034623Y018308D02*
X034506Y018308D01*
X034504Y018311D01*
X034501Y018314D01*
X034498Y018317D01*
X034494Y018319D01*
X034490Y018320D01*
X034485Y018322D01*
X034481Y018323D01*
X034475Y018324D01*
X034469Y018325D01*
X034463Y018325D01*
X034457Y018325D01*
X034348Y018325D01*
X034348Y018411D01*
X034507Y018411D01*
X034521Y018410D01*
X034535Y018409D01*
X034547Y018407D01*
X034558Y018405D01*
X034569Y018401D01*
X034577Y018397D01*
X034568Y018401D02*
X034348Y018401D01*
X034067Y018401D01*
X034067Y018405D02*
X034348Y018405D01*
X034556Y018405D01*
X034533Y018409D02*
X034348Y018409D01*
X034067Y018409D01*
X033850Y018405D02*
X033729Y018405D01*
X033729Y018401D02*
X033850Y018401D01*
X033850Y018397D02*
X033729Y018397D01*
X033729Y018393D02*
X033850Y018393D01*
X033850Y018389D02*
X033729Y018389D01*
X033729Y018385D02*
X033850Y018385D01*
X033850Y018381D02*
X033729Y018381D01*
X033729Y018378D02*
X033850Y018378D01*
X033850Y018374D02*
X033729Y018374D01*
X033729Y018370D02*
X033850Y018370D01*
X033850Y018366D02*
X033729Y018366D01*
X033729Y018362D02*
X033850Y018362D01*
X033850Y018358D02*
X033729Y018358D01*
X033729Y018354D02*
X033850Y018354D01*
X033850Y018350D02*
X033729Y018350D01*
X033729Y018347D02*
X033850Y018347D01*
X033850Y018343D02*
X033729Y018343D01*
X033729Y018339D02*
X033850Y018339D01*
X033850Y018335D02*
X033729Y018335D01*
X033729Y018331D02*
X033850Y018331D01*
X033850Y018327D02*
X033729Y018327D01*
X033729Y018323D02*
X033850Y018323D01*
X033850Y018319D02*
X033729Y018319D01*
X033729Y018316D02*
X033850Y018316D01*
X033850Y018312D02*
X033729Y018312D01*
X033729Y018308D02*
X033850Y018308D01*
X033850Y018304D02*
X033729Y018304D01*
X033729Y018300D02*
X033850Y018300D01*
X033850Y018296D02*
X033729Y018296D01*
X033729Y018292D02*
X033850Y018292D01*
X033850Y018288D02*
X033729Y018288D01*
X033729Y018284D02*
X033850Y018284D01*
X033850Y018280D02*
X033729Y018280D01*
X033729Y018276D02*
X033850Y018276D01*
X033850Y018272D02*
X033729Y018272D01*
X033729Y018268D02*
X033850Y018268D01*
X033850Y018264D02*
X033729Y018264D01*
X033729Y018260D02*
X033850Y018260D01*
X033850Y018256D02*
X033729Y018256D01*
X033729Y018253D02*
X033850Y018253D01*
X033850Y018249D02*
X033729Y018249D01*
X033729Y018245D02*
X033850Y018245D01*
X033850Y018241D02*
X033729Y018241D01*
X033729Y018237D02*
X033850Y018237D01*
X033850Y018233D02*
X033729Y018233D01*
X033729Y018229D02*
X033850Y018229D01*
X033850Y018225D02*
X033729Y018225D01*
X033729Y018221D02*
X033850Y018221D01*
X033850Y018217D02*
X033729Y018217D01*
X033729Y018213D02*
X033850Y018213D01*
X033850Y018209D02*
X033729Y018209D01*
X033729Y018205D02*
X033850Y018205D01*
X033850Y018201D02*
X033729Y018201D01*
X033729Y018197D02*
X033850Y018197D01*
X033850Y018194D02*
X033729Y018194D01*
X033729Y018190D02*
X033850Y018190D01*
X033850Y018186D02*
X033729Y018186D01*
X033729Y018182D02*
X033850Y018182D01*
X033850Y018178D02*
X033729Y018178D01*
X033729Y018174D02*
X033850Y018174D01*
X033850Y018170D02*
X033729Y018170D01*
X033729Y018166D02*
X033850Y018166D01*
X033850Y018162D02*
X033729Y018162D01*
X033729Y018158D02*
X033850Y018158D01*
X033850Y018154D02*
X033729Y018154D01*
X033729Y018150D02*
X033850Y018150D01*
X033850Y018146D02*
X033729Y018146D01*
X033729Y018142D02*
X033850Y018142D01*
X033850Y018138D02*
X033729Y018138D01*
X033729Y018134D02*
X033850Y018134D01*
X033850Y018131D02*
X033729Y018131D01*
X033729Y018127D02*
X033850Y018127D01*
X033850Y018123D02*
X033729Y018123D01*
X033729Y018119D02*
X033850Y018119D01*
X033850Y018115D02*
X033729Y018115D01*
X033729Y018111D02*
X033850Y018111D01*
X033850Y018107D02*
X033729Y018107D01*
X033729Y018103D02*
X033850Y018103D01*
X033850Y018099D02*
X033729Y018099D01*
X033729Y018095D02*
X033850Y018095D01*
X033850Y018091D02*
X033729Y018091D01*
X033729Y018087D02*
X033850Y018087D01*
X033850Y018083D02*
X033729Y018083D01*
X033729Y018079D02*
X033850Y018079D01*
X033850Y018075D02*
X033729Y018075D01*
X033729Y018071D02*
X033850Y018071D01*
X033850Y018068D02*
X033729Y018068D01*
X033729Y018064D02*
X033850Y018064D01*
X033850Y018060D02*
X033729Y018060D01*
X033729Y018056D02*
X033850Y018056D01*
X033850Y018052D02*
X033729Y018052D01*
X033729Y018048D02*
X033850Y018048D01*
X033850Y018044D02*
X033729Y018044D01*
X033729Y018040D02*
X033850Y018040D01*
X033850Y018037D02*
X033850Y018028D01*
X033729Y018028D01*
X033729Y018024D02*
X033850Y018024D01*
X033849Y018020D02*
X033729Y018020D01*
X033729Y018016D02*
X033849Y018016D01*
X033849Y018013D02*
X033848Y018006D01*
X033847Y017999D01*
X033846Y017992D01*
X033845Y017986D01*
X033843Y017980D01*
X033841Y017974D01*
X033839Y017969D01*
X033279Y017969D01*
X033277Y017974D01*
X033275Y017980D01*
X033274Y017986D01*
X033272Y017992D01*
X033271Y017999D01*
X033270Y018006D01*
X033270Y018013D01*
X033269Y018020D01*
X033388Y018020D01*
X033388Y018016D02*
X033269Y018016D01*
X033270Y018012D02*
X033849Y018012D01*
X033849Y018013D02*
X033849Y018020D01*
X033850Y018028D01*
X033850Y018032D02*
X033729Y018032D01*
X033729Y018036D02*
X033850Y018036D01*
X033850Y018037D02*
X033850Y018411D01*
X033729Y018411D01*
X033729Y018012D01*
X033388Y018012D01*
X033388Y018411D01*
X033269Y018411D01*
X033269Y018037D01*
X033269Y018028D01*
X033388Y018028D01*
X033388Y018024D02*
X033269Y018024D01*
X033269Y018020D02*
X033269Y018028D01*
X033269Y018032D02*
X033388Y018032D01*
X033388Y018036D02*
X033269Y018036D01*
X033269Y018040D02*
X033388Y018040D01*
X033388Y018044D02*
X033269Y018044D01*
X033269Y018048D02*
X033388Y018048D01*
X033388Y018052D02*
X033269Y018052D01*
X033269Y018056D02*
X033388Y018056D01*
X033388Y018060D02*
X033269Y018060D01*
X033269Y018064D02*
X033388Y018064D01*
X033388Y018068D02*
X033269Y018068D01*
X033269Y018071D02*
X033388Y018071D01*
X033388Y018075D02*
X033269Y018075D01*
X033269Y018079D02*
X033388Y018079D01*
X033388Y018083D02*
X033269Y018083D01*
X033269Y018087D02*
X033388Y018087D01*
X033388Y018091D02*
X033269Y018091D01*
X033269Y018095D02*
X033388Y018095D01*
X033388Y018099D02*
X033269Y018099D01*
X033269Y018103D02*
X033388Y018103D01*
X033388Y018107D02*
X033269Y018107D01*
X033269Y018111D02*
X033388Y018111D01*
X033388Y018115D02*
X033269Y018115D01*
X033269Y018119D02*
X033388Y018119D01*
X033388Y018123D02*
X033269Y018123D01*
X033269Y018127D02*
X033388Y018127D01*
X033388Y018131D02*
X033269Y018131D01*
X033269Y018134D02*
X033388Y018134D01*
X033388Y018138D02*
X033269Y018138D01*
X033269Y018142D02*
X033388Y018142D01*
X033388Y018146D02*
X033269Y018146D01*
X033269Y018150D02*
X033388Y018150D01*
X033388Y018154D02*
X033269Y018154D01*
X033269Y018158D02*
X033388Y018158D01*
X033388Y018162D02*
X033269Y018162D01*
X033269Y018166D02*
X033388Y018166D01*
X033388Y018170D02*
X033269Y018170D01*
X033269Y018174D02*
X033388Y018174D01*
X033388Y018178D02*
X033269Y018178D01*
X033269Y018182D02*
X033388Y018182D01*
X033388Y018186D02*
X033269Y018186D01*
X033269Y018190D02*
X033388Y018190D01*
X033388Y018194D02*
X033269Y018194D01*
X033269Y018197D02*
X033388Y018197D01*
X033388Y018201D02*
X033269Y018201D01*
X033269Y018205D02*
X033388Y018205D01*
X033388Y018209D02*
X033269Y018209D01*
X033269Y018213D02*
X033388Y018213D01*
X033388Y018217D02*
X033269Y018217D01*
X033269Y018221D02*
X033388Y018221D01*
X033388Y018225D02*
X033269Y018225D01*
X033269Y018229D02*
X033388Y018229D01*
X033388Y018233D02*
X033269Y018233D01*
X033269Y018237D02*
X033388Y018237D01*
X033388Y018241D02*
X033269Y018241D01*
X033269Y018245D02*
X033388Y018245D01*
X033388Y018249D02*
X033269Y018249D01*
X033269Y018253D02*
X033388Y018253D01*
X033388Y018256D02*
X033269Y018256D01*
X033269Y018260D02*
X033388Y018260D01*
X033388Y018264D02*
X033269Y018264D01*
X033269Y018268D02*
X033388Y018268D01*
X033388Y018272D02*
X033269Y018272D01*
X033269Y018276D02*
X033388Y018276D01*
X033388Y018280D02*
X033269Y018280D01*
X033269Y018284D02*
X033388Y018284D01*
X033388Y018288D02*
X033269Y018288D01*
X033269Y018292D02*
X033388Y018292D01*
X033388Y018296D02*
X033269Y018296D01*
X033269Y018300D02*
X033388Y018300D01*
X033388Y018304D02*
X033269Y018304D01*
X033269Y018308D02*
X033388Y018308D01*
X033388Y018312D02*
X033269Y018312D01*
X033269Y018316D02*
X033388Y018316D01*
X033388Y018319D02*
X033269Y018319D01*
X033269Y018323D02*
X033388Y018323D01*
X033388Y018327D02*
X033269Y018327D01*
X033269Y018331D02*
X033388Y018331D01*
X033388Y018335D02*
X033269Y018335D01*
X033269Y018339D02*
X033388Y018339D01*
X033388Y018343D02*
X033269Y018343D01*
X033269Y018347D02*
X033388Y018347D01*
X033388Y018350D02*
X033269Y018350D01*
X033269Y018354D02*
X033388Y018354D01*
X033388Y018358D02*
X033269Y018358D01*
X033269Y018362D02*
X033388Y018362D01*
X033388Y018366D02*
X033269Y018366D01*
X033269Y018370D02*
X033388Y018370D01*
X033388Y018374D02*
X033269Y018374D01*
X033269Y018378D02*
X033388Y018378D01*
X033388Y018381D02*
X033269Y018381D01*
X033269Y018385D02*
X033388Y018385D01*
X033388Y018389D02*
X033269Y018389D01*
X033269Y018393D02*
X033388Y018393D01*
X033388Y018397D02*
X033269Y018397D01*
X033269Y018401D02*
X033388Y018401D01*
X033388Y018405D02*
X033269Y018405D01*
X033269Y018409D02*
X033388Y018409D01*
X033054Y018343D02*
X032513Y018343D01*
X032513Y018340D02*
X032514Y018346D01*
X032516Y018352D01*
X032518Y018358D01*
X033049Y018358D01*
X033050Y018357D02*
X033051Y018351D01*
X033053Y018345D01*
X033054Y018339D01*
X032512Y018339D01*
X032513Y018340D02*
X032511Y018333D01*
X032510Y018326D01*
X032509Y018319D01*
X032617Y018319D01*
X032617Y018321D02*
X032617Y018220D01*
X032936Y018220D01*
X032944Y018220D01*
X032953Y018219D01*
X032962Y018219D01*
X032970Y018218D01*
X032977Y018217D01*
X032985Y018216D01*
X032992Y018215D01*
X032998Y018214D01*
X033004Y018212D01*
X033009Y018210D01*
X033015Y018208D01*
X033020Y018206D01*
X033024Y018204D01*
X033029Y018201D01*
X032512Y018201D01*
X032511Y018202D02*
X032510Y018210D01*
X032509Y018217D01*
X032983Y018217D01*
X033002Y018213D02*
X032510Y018213D01*
X032510Y018209D02*
X033014Y018209D01*
X033023Y018205D02*
X032511Y018205D01*
X032511Y018202D02*
X032513Y018196D01*
X032514Y018190D01*
X033042Y018190D01*
X033045Y018186D01*
X032515Y018186D01*
X032516Y018184D02*
X032514Y018190D01*
X032513Y018194D02*
X033039Y018194D01*
X033039Y018193D02*
X033042Y018190D01*
X033039Y018193D02*
X033036Y018195D01*
X033032Y018198D01*
X033029Y018201D01*
X033034Y018197D02*
X032512Y018197D01*
X032516Y018184D02*
X032518Y018179D01*
X032520Y018173D01*
X032522Y018168D01*
X032525Y018164D01*
X032527Y018159D01*
X032530Y018155D01*
X032534Y018152D01*
X032537Y018149D01*
X032541Y018146D01*
X033060Y018146D01*
X033059Y018149D02*
X033061Y018142D01*
X032547Y018142D01*
X032549Y018140D02*
X032545Y018143D01*
X032541Y018146D01*
X032536Y018150D02*
X033059Y018150D01*
X033059Y018149D02*
X033058Y018155D01*
X033056Y018161D01*
X033055Y018167D01*
X033053Y018172D01*
X033050Y018177D01*
X033048Y018182D01*
X032517Y018182D01*
X032518Y018178D02*
X033050Y018178D01*
X033048Y018182D02*
X033045Y018186D01*
X033052Y018174D02*
X032520Y018174D01*
X032521Y018170D02*
X033053Y018170D01*
X033055Y018166D02*
X032524Y018166D01*
X032526Y018162D02*
X033056Y018162D01*
X033057Y018158D02*
X032529Y018158D01*
X032532Y018154D02*
X033058Y018154D01*
X033061Y018142D02*
X033062Y018135D01*
X033062Y018129D01*
X033063Y018121D01*
X033063Y018113D01*
X033063Y018104D01*
X033063Y018037D01*
X033063Y018028D01*
X032956Y018028D01*
X032956Y018024D02*
X033063Y018024D01*
X033063Y018020D02*
X032956Y018020D01*
X032956Y018016D02*
X033063Y018016D01*
X033062Y018012D02*
X032490Y018012D01*
X032490Y018013D02*
X032489Y018020D01*
X032489Y018028D01*
X032595Y018028D01*
X032595Y018024D02*
X032489Y018024D01*
X032490Y018020D02*
X032595Y018020D01*
X032595Y018016D02*
X032490Y018016D01*
X032490Y018013D02*
X032491Y018006D01*
X032492Y017999D01*
X032493Y017992D01*
X032494Y017986D01*
X032496Y017980D01*
X032498Y017974D01*
X032500Y017969D01*
X033053Y017969D01*
X033050Y017964D01*
X033048Y017959D01*
X033045Y017955D01*
X033042Y017951D01*
X033039Y017948D01*
X033036Y017944D01*
X033032Y017942D01*
X032520Y017942D01*
X032519Y017942D02*
X032515Y017944D01*
X032512Y017948D01*
X032509Y017951D01*
X032506Y017955D01*
X032504Y017959D01*
X032502Y017964D01*
X032500Y017969D01*
X032502Y017965D02*
X033051Y017965D01*
X033049Y017961D02*
X032504Y017961D01*
X032506Y017957D02*
X033046Y017957D01*
X033044Y017953D02*
X032508Y017953D01*
X032511Y017949D02*
X033040Y017949D01*
X033036Y017945D02*
X032515Y017945D01*
X032519Y017942D02*
X032523Y017940D01*
X032527Y017937D01*
X032532Y017935D01*
X032537Y017933D01*
X032543Y017931D01*
X032549Y017929D01*
X032555Y017927D01*
X032562Y017926D01*
X032569Y017924D01*
X032575Y017923D01*
X032583Y017923D01*
X032591Y017922D01*
X032599Y017921D01*
X032608Y017921D01*
X032617Y017921D01*
X032936Y017921D01*
X032944Y017921D01*
X032953Y017921D01*
X032962Y017922D01*
X032970Y017923D01*
X032977Y017923D01*
X032985Y017924D01*
X032992Y017926D01*
X032998Y017927D01*
X033004Y017929D01*
X033009Y017931D01*
X033015Y017933D01*
X033020Y017935D01*
X033024Y017937D01*
X033029Y017940D01*
X033032Y017942D01*
X033026Y017938D02*
X032526Y017938D01*
X032534Y017934D02*
X033018Y017934D01*
X033007Y017930D02*
X032545Y017930D01*
X032560Y017926D02*
X032993Y017926D01*
X032963Y017922D02*
X032590Y017922D01*
X032595Y018012D02*
X032956Y018012D01*
X032956Y018125D01*
X032637Y018125D01*
X032629Y018125D01*
X032621Y018126D01*
X032612Y018126D01*
X032604Y018127D01*
X032596Y018128D01*
X032589Y018129D01*
X032582Y018130D01*
X032576Y018131D01*
X032570Y018132D01*
X032565Y018134D01*
X033062Y018134D01*
X033062Y018131D02*
X032579Y018131D01*
X032565Y018134D02*
X032559Y018136D01*
X032554Y018138D01*
X032549Y018140D01*
X032555Y018138D02*
X033061Y018138D01*
X033062Y018127D02*
X032605Y018127D01*
X032595Y018070D02*
X032595Y018012D01*
X032595Y018032D02*
X032489Y018032D01*
X032489Y018028D02*
X032489Y018037D01*
X032489Y018051D01*
X032595Y018070D01*
X032595Y018068D02*
X032576Y018068D01*
X032595Y018064D02*
X032555Y018064D01*
X032534Y018060D02*
X032595Y018060D01*
X032595Y018056D02*
X032513Y018056D01*
X032493Y018052D02*
X032595Y018052D01*
X032595Y018048D02*
X032489Y018048D01*
X032489Y018044D02*
X032595Y018044D01*
X032595Y018040D02*
X032489Y018040D01*
X032489Y018036D02*
X032595Y018036D01*
X032490Y018008D02*
X033062Y018008D01*
X033062Y018006D02*
X033061Y017999D01*
X033059Y017992D01*
X033058Y017986D01*
X033056Y017980D01*
X033055Y017974D01*
X033053Y017969D01*
X033054Y017973D02*
X032498Y017973D01*
X032497Y017977D02*
X033056Y017977D01*
X033057Y017981D02*
X032496Y017981D01*
X032495Y017985D02*
X033058Y017985D01*
X033059Y017989D02*
X032494Y017989D01*
X032493Y017993D02*
X033060Y017993D01*
X033060Y017997D02*
X032492Y017997D01*
X032492Y018001D02*
X033061Y018001D01*
X033061Y018005D02*
X032491Y018005D01*
X032509Y018217D02*
X032509Y018225D01*
X032617Y018225D01*
X032617Y018221D02*
X032509Y018221D01*
X032509Y018225D02*
X032509Y018233D01*
X032617Y018233D01*
X032617Y018237D02*
X032508Y018237D01*
X032508Y018241D02*
X032617Y018241D01*
X032617Y018245D02*
X032508Y018245D01*
X032508Y018249D02*
X032617Y018249D01*
X032617Y018253D02*
X032508Y018253D01*
X032508Y018256D02*
X032617Y018256D01*
X032617Y018260D02*
X032508Y018260D01*
X032508Y018264D02*
X032617Y018264D01*
X032617Y018268D02*
X032508Y018268D01*
X032508Y018272D02*
X032617Y018272D01*
X032617Y018276D02*
X032508Y018276D01*
X032508Y018280D02*
X032617Y018280D01*
X032617Y018284D02*
X032508Y018284D01*
X032508Y018288D02*
X032617Y018288D01*
X032617Y018292D02*
X032508Y018292D01*
X032508Y018295D02*
X032509Y018304D01*
X032617Y018304D01*
X032617Y018308D02*
X032509Y018308D01*
X032509Y018312D02*
X032617Y018312D01*
X032617Y018316D02*
X032509Y018316D01*
X032509Y018319D02*
X032509Y018312D01*
X032509Y018304D01*
X032508Y018300D02*
X032617Y018300D01*
X032617Y018296D02*
X032508Y018296D01*
X032508Y018295D02*
X032508Y018241D01*
X032509Y018233D01*
X032509Y018229D02*
X032617Y018229D01*
X032617Y018321D02*
X032954Y018321D01*
X032954Y018270D01*
X033057Y018292D01*
X033057Y018304D01*
X032954Y018304D01*
X032954Y018308D02*
X033057Y018308D01*
X033057Y018312D02*
X032954Y018312D01*
X032954Y018316D02*
X033057Y018316D01*
X033057Y018319D02*
X033057Y018312D01*
X033057Y018304D01*
X033057Y018300D02*
X032954Y018300D01*
X032954Y018296D02*
X033057Y018296D01*
X033055Y018292D02*
X032954Y018292D01*
X032954Y018288D02*
X033037Y018288D01*
X033018Y018284D02*
X032954Y018284D01*
X032954Y018280D02*
X033000Y018280D01*
X032982Y018276D02*
X032954Y018276D01*
X032954Y018272D02*
X032963Y018272D01*
X032954Y018319D02*
X033057Y018319D01*
X033056Y018326D01*
X033055Y018332D01*
X033054Y018339D01*
X033055Y018335D02*
X032512Y018335D01*
X032511Y018331D02*
X033056Y018331D01*
X033056Y018327D02*
X032510Y018327D01*
X032510Y018323D02*
X033056Y018323D01*
X033053Y018347D02*
X032514Y018347D01*
X032515Y018350D02*
X033052Y018350D01*
X033050Y018354D02*
X032517Y018354D01*
X032518Y018358D02*
X032520Y018363D01*
X032522Y018368D01*
X032525Y018373D01*
X032527Y018377D01*
X032530Y018381D01*
X032534Y018383D01*
X032537Y018386D01*
X032541Y018389D01*
X033026Y018389D01*
X033028Y018388D02*
X033031Y018385D01*
X032536Y018385D01*
X032532Y018381D02*
X033035Y018381D01*
X033035Y018382D02*
X033038Y018380D01*
X033040Y018376D01*
X033043Y018371D01*
X033045Y018367D01*
X033048Y018362D01*
X033050Y018357D01*
X033047Y018362D02*
X032520Y018362D01*
X032521Y018366D02*
X033046Y018366D01*
X033044Y018370D02*
X032523Y018370D01*
X032526Y018374D02*
X033041Y018374D01*
X033038Y018378D02*
X032529Y018378D01*
X032541Y018389D02*
X032545Y018392D01*
X032549Y018395D01*
X032554Y018397D01*
X032559Y018399D01*
X032565Y018401D01*
X033002Y018401D01*
X033001Y018402D02*
X033006Y018400D01*
X033011Y018398D01*
X033015Y018396D01*
X033020Y018394D01*
X033024Y018391D01*
X033028Y018388D01*
X033031Y018385D02*
X033035Y018382D01*
X033020Y018393D02*
X032547Y018393D01*
X032555Y018397D02*
X033012Y018397D01*
X033001Y018402D02*
X032995Y018403D01*
X032989Y018405D01*
X032983Y018406D01*
X032976Y018408D01*
X032969Y018409D01*
X032961Y018409D01*
X032953Y018410D01*
X032945Y018410D01*
X032938Y018411D01*
X032929Y018411D01*
X032637Y018411D01*
X032629Y018411D01*
X032621Y018410D01*
X032612Y018410D01*
X032604Y018409D01*
X032596Y018408D01*
X032589Y018407D01*
X032582Y018406D01*
X032576Y018405D01*
X032570Y018403D01*
X032565Y018401D01*
X032579Y018405D02*
X032987Y018405D01*
X032960Y018409D02*
X032605Y018409D01*
X032956Y018123D02*
X033063Y018123D01*
X033063Y018119D02*
X032956Y018119D01*
X032956Y018115D02*
X033063Y018115D01*
X033063Y018111D02*
X032956Y018111D01*
X032956Y018107D02*
X033063Y018107D01*
X033063Y018103D02*
X032956Y018103D01*
X032956Y018099D02*
X033063Y018099D01*
X033063Y018095D02*
X032956Y018095D01*
X032956Y018091D02*
X033063Y018091D01*
X033063Y018087D02*
X032956Y018087D01*
X032956Y018083D02*
X033063Y018083D01*
X033063Y018079D02*
X032956Y018079D01*
X032956Y018075D02*
X033063Y018075D01*
X033063Y018071D02*
X032956Y018071D01*
X032956Y018068D02*
X033063Y018068D01*
X033063Y018064D02*
X032956Y018064D01*
X032956Y018060D02*
X033063Y018060D01*
X033063Y018056D02*
X032956Y018056D01*
X032956Y018052D02*
X033063Y018052D01*
X033063Y018048D02*
X032956Y018048D01*
X032956Y018044D02*
X033063Y018044D01*
X033063Y018040D02*
X032956Y018040D01*
X032956Y018036D02*
X033063Y018036D01*
X033063Y018032D02*
X032956Y018032D01*
X033063Y018028D02*
X033063Y018020D01*
X033062Y018012D01*
X033062Y018006D01*
X033270Y018005D02*
X033848Y018005D01*
X033848Y018008D02*
X033270Y018008D01*
X033271Y018001D02*
X033847Y018001D01*
X033847Y017997D02*
X033272Y017997D01*
X033272Y017993D02*
X033846Y017993D01*
X033845Y017989D02*
X033273Y017989D01*
X033274Y017985D02*
X033844Y017985D01*
X033843Y017981D02*
X033275Y017981D01*
X033276Y017977D02*
X033842Y017977D01*
X033841Y017973D02*
X033278Y017973D01*
X033279Y017969D02*
X033282Y017964D01*
X033284Y017959D01*
X033287Y017955D01*
X033290Y017951D01*
X033293Y017948D01*
X033296Y017944D01*
X033299Y017942D01*
X033303Y017940D01*
X033308Y017937D01*
X033312Y017935D01*
X033317Y017933D01*
X033322Y017931D01*
X033327Y017929D01*
X033334Y017927D01*
X033340Y017926D01*
X033347Y017924D01*
X033355Y017923D01*
X033363Y017923D01*
X033371Y017922D01*
X033379Y017921D01*
X033387Y017921D01*
X033397Y017921D01*
X033721Y017921D01*
X033730Y017921D01*
X033739Y017921D01*
X033748Y017922D01*
X033756Y017923D01*
X033763Y017923D01*
X033770Y017924D01*
X033777Y017926D01*
X033784Y017927D01*
X033790Y017929D01*
X033796Y017931D01*
X033802Y017933D01*
X033807Y017935D01*
X033811Y017937D01*
X033816Y017940D01*
X033819Y017942D01*
X033822Y017944D01*
X033826Y017948D01*
X033829Y017951D01*
X033832Y017955D01*
X033834Y017959D01*
X033837Y017964D01*
X033839Y017969D01*
X033837Y017965D02*
X033281Y017965D01*
X033283Y017961D02*
X033835Y017961D01*
X033833Y017957D02*
X033286Y017957D01*
X033288Y017953D02*
X033830Y017953D01*
X033827Y017949D02*
X033291Y017949D01*
X033295Y017945D02*
X033823Y017945D01*
X033819Y017942D02*
X033300Y017942D01*
X033306Y017938D02*
X033813Y017938D01*
X033805Y017934D02*
X033314Y017934D01*
X033324Y017930D02*
X033794Y017930D01*
X033778Y017926D02*
X033339Y017926D01*
X033370Y017922D02*
X033749Y017922D01*
X034348Y018107D02*
X034527Y018107D01*
X034492Y018197D02*
X034623Y018197D01*
X034623Y018199D02*
X034623Y018189D01*
X034623Y018194D02*
X034480Y018194D01*
X034498Y018201D02*
X034623Y018201D01*
X034623Y018199D02*
X034623Y018316D01*
X034499Y018316D01*
X034503Y018312D02*
X034623Y018312D01*
X034623Y018316D02*
X034623Y018327D01*
X034623Y018323D02*
X034482Y018323D01*
X034493Y018319D02*
X034623Y018319D01*
X034623Y018300D02*
X034509Y018300D01*
X034507Y018304D02*
X034506Y018308D01*
X034510Y018296D02*
X034510Y018292D01*
X034510Y018288D02*
X034623Y018288D01*
X034623Y018284D02*
X034510Y018284D01*
X034510Y018280D02*
X034623Y018280D01*
X034623Y018276D02*
X034510Y018276D01*
X034510Y018272D02*
X034623Y018272D01*
X034623Y018268D02*
X034510Y018268D01*
X034510Y018264D02*
X034623Y018264D01*
X034623Y018260D02*
X034510Y018260D01*
X034510Y018256D02*
X034623Y018256D01*
X034623Y018253D02*
X034510Y018253D01*
X034510Y018249D02*
X034623Y018249D01*
X034623Y018245D02*
X034510Y018245D01*
X034510Y018241D02*
X034623Y018241D01*
X034623Y018237D02*
X034510Y018237D01*
X034510Y018233D02*
X034623Y018233D01*
X034623Y018229D02*
X034510Y018229D01*
X034510Y018225D02*
X034510Y018221D01*
X034508Y018216D02*
X034507Y018213D01*
X035101Y018107D02*
X035280Y018107D01*
X035238Y018194D02*
X035243Y018196D01*
X035238Y018194D02*
X035233Y018194D01*
X033850Y018409D02*
X033729Y018409D01*
M02*
